<?xml version="1.0" encoding="utf-8"?>
<!-- Generator: Adobe Illustrator 24.1.0, SVG Export Plug-In . SVG Version: 6.00 Build 0)  -->
<svg version="1.1" id="Layer_1" xmlns="http://www.w3.org/2000/svg" xmlns:xlink="http://www.w3.org/1999/xlink" x="0px" y="0px"
	 viewBox="0 0 170.8 224.7" style="enable-background:new 0 0 170.8 224.7;" xml:space="preserve">
<style type="text/css">
	.st0{fill:#FFFFFF;}
	.st1{font-family:'Alata-Regular';}
	.st2{font-size:9px;}
	.st3{fill:#89BAC6;}
	.st4{fill:#FF6666;}
</style>
<text transform="matrix(0.8703 -0.4925 0.4925 0.8703 42.6 136.3209)" class="st0 st1 st2">Repair</text>
<path class="st0" d="M66.5,176.9c-7.6,0-14.1-2.8-18.8-8.3c-6.3-7.4-9-17.7-7-30.3h2.1c-1.9,11.9,0.5,22,6.4,28.9
	c4.5,5.3,11,7.9,18.6,7.6v2.1C67.4,176.9,66.9,176.9,66.5,176.9z"/>
<g id="Layer_1_1_">
	<g>
		<g id="XMLID_1_">
			<g>
				<path class="st3" d="M74.3,107.8C74.3,107.8,74.3,107.8,74.3,107.8c4-2.2,7.5,4.3,11.8,6.8c-4.2,2.4-8.2,4.8-12.3,7.1
					c-4-2.3-7.9-4.6-11.9-7C66,112.4,69.6,106.7,74.3,107.8C74.3,107.8,74.3,107.8,74.3,107.8z"/>
				<path class="st3" d="M145.7,138.3c0.5,4.6,1,9.1,1.5,13.7c-0.3-1.7-1.7-2.8-3.3-3.7c-3-1.7-5.9-3.4-8.9-5.2
					c-0.6-5-1.2-9.9-1.8-14.9c3,1.7,11.1,6,12.1,6.5C145.3,134.6,145.6,137,145.7,138.3z"/>
				<path class="st3" d="M138.2,81c0.3,2.5,0.6,4.9,1,7.4c-1.7-12.4-3.3-24.6-4.9-37.5c0.1,0.6,0.2,1.3,0.3,2
					C135.7,62.2,137,71.6,138.2,81z"/>
				<path class="st3" d="M135.2,169.4c-0.9,2.2-2.2,4.3-3.8,6.3c-1,1.2-2,2.3-3.1,3.4c1.9-1.9,3.6-4,5.1-6.2
					C134,171.8,134.7,170.6,135.2,169.4z"/>
				<path class="st3" d="M132.9,125.3c0.2,2.3,0.2,1.3,0.3,2.9c-6.9-4-16.4-9.4-23.2-13.4c5.4-3.2,10.9-6.2,16.3-9.3
					c1.1-0.6,2.2-1.2,3.7-2C131,111.2,132,118.3,132.9,125.3z"/>
				<path class="st0" d="M123.2,31.3c6.1,4.7,10,11.8,11,19.4c-1.6-9.2-6.4-16.5-15.1-21.1c-3-1.6-6.1-3.1-9.4-4.2
					c-13.9-4.6-28.1-4.8-42.3-1.6c-7.7,1.7-14.6,4.8-20.7,9.8c-4.9,4.1-8,9.1-8.8,15.4c-0.2,1.1-0.3,2.2-0.4,3.3
					c0.2-1.9,0.1-0.6,0.3-3c0.8-7.9,5.1-13.7,11.3-18.4c6-4.6,12.9-7.2,20.2-8.7c13.7-2.7,27.3-2.4,40.7,2.1
					C114.8,25.9,119.2,28.2,123.2,31.3z"/>
				<path class="st3" d="M110,114.8c-0.5,0.3-1,0.6-1.5,0.9c-0.5,0.3-1,0.6-1.5,0.9c-0.5,0.3-1,0.6-1.5,0.8c-0.5,0.3-1,0.6-1.5,0.8
					s-1,0.6-1.5,0.8s-1,0.6-1.5,0.8c-0.5,0.3-1,0.6-1.5,0.9c-0.5,0.3-1,0.6-1.5,0.9c-0.5-0.3-1-0.6-1.5-0.9s-1-0.6-1.5-0.9
					c-0.5-0.3-1-0.6-1.5-0.9s-1-0.6-1.5-0.9s-1-0.6-1.5-0.9s-1-0.6-1.5-0.9c-0.5-0.3-1-0.6-1.5-0.9s-1-0.6-1.5-0.9
					c0.5-0.3,1-0.6,1.5-0.8c0.5-0.3,1-0.6,1.5-0.8c0.5-0.3,1-0.6,1.5-0.8c0.5-0.3,1-0.6,1.5-0.8s1-0.6,1.5-0.8
					c0.5-0.3,1-0.6,1.5-0.8c0.5-0.3,1-0.6,1.5-0.8c0.5-0.3,1-0.5,1.5-0.7c0.5,0.3,1,0.5,1.5,0.8c0.5,0.3,1,0.6,1.5,0.9
					s1,0.6,1.5,0.9s1,0.6,1.5,0.9c0.5,0.3,1,0.6,1.5,0.9s1,0.6,1.5,0.9c0.5,0.3,1,0.6,1.5,0.9C109,114.2,109.5,114.5,110,114.8z"/>
				<path class="st3" d="M128,179.3c-2.3,2.2-4.9,4.2-7.9,5.7C123,183.4,125.6,181.6,128,179.3z"/>
				<path class="st3" d="M119.9,185.1c0.1,0,0.2-0.1,0.2-0.1c-2.1,1.2-4.3,2.1-6.7,2.9c-1.4,0.5-2.9,0.9-4.3,1.4
					C112.8,188.2,116.5,186.8,119.9,185.1z"/>
				<path class="st4" d="M98.1,121.6c-4.1,2.3-8.2,4.7-12.3,7c-4-2.3-8-4.7-12-7c4.1-2.3,8.2-4.7,12.3-7
					C90.1,116.9,94.1,119.2,98.1,121.6z"/>
				<path class="st3" d="M87.6,192.1c2-0.1,4-0.1,5.9-0.2C91.5,192,89.6,192.1,87.6,192.1z"/>
				<path class="st0" d="M74.3,107.8c-4.1,2.3-8.2,4.6-12.4,6.9c-4.3-2.5-8.3-5-12.6-7.6c-2.3-1.3-4.3-2.5-6.9-4
					c-0.2,1.1-1.9,13.3-2.6,18.7c-0.2,1.9-0.5,3.9-0.8,5.8c-4.2,2.4-8.3,4.7-12.5,7c0,0,0.5-4.7,1.4-12c0.3-2.5,0.5-4,0.6-5
					c0-0.2,0-0.4,0.1-0.6c0.1-1.1,0.3-2.1,0.4-3.2c0-0.3,0.1-0.6,0.1-0.9c0.2-1.6,0.5-3,0.5-3.5c0.8-5.1,2.1-15.5,2.6-19.6
					c0-0.2,0-0.3,0.1-0.5c0.2-1.2,0.3-2.5,0.5-3.7l0,0c0-0.2,0.1-0.5,0.1-0.8c0-0.2,0-0.4,0.1-0.5c0-0.1,0-0.3,0.1-0.4
					c1.1,0.6,2.1,1.1,2.9,1.6C48.9,92.8,61.5,100.4,74.3,107.8z"/>
				<path class="st3" d="M60.5,189.1c2.6,0.8,5.3,1.4,7.9,1.9c-2.6-0.4-5.1-0.9-7.5-1.7C60.8,189.2,60.7,189.1,60.5,189.1z"/>
				<path class="st3" d="M61.9,114.7c-7.7,4.3-15.4,8.7-23,13c0.2-1.9,0.5-3.9,0.8-5.8c0.7-5.3,2.5-17.7,2.7-18.8
					C45.3,104.8,57.2,111.7,61.9,114.7z"/>
				<path class="st3" d="M52.7,186.2c-0.5-0.2-0.9-0.4-1.3-0.7"/>
				<path class="st3" d="M26.5,134.6c4.1-2.3,8.2-4.6,12.4-6.9c-0.6,5-1.2,9.9-1.8,14.9c-3.1,1.8-6.3,3.6-9.4,5.4
					c-0.6,0.4-2.5,1.4-3.1,2.6C24.5,151.4,26.4,135.6,26.5,134.6z"/>
				<path class="st3" d="M35.7,65c0.5-4.1,1.1-8.3,1.7-12.4C36.8,56.8,36.3,60.9,35.7,65z"/>
				<path class="st3" d="M35,167.8c0.6,1.8,1.4,3.4,2.1,4.8c-1.3-2.1-2.1-4.1-2.4-6.5C34.9,166.6,34.8,167.2,35,167.8z"/>
				<path class="st3" d="M34.6,160.7c-0.1,2-0.1,3.7,0.1,5.3C34.4,164.3,34.5,162.5,34.6,160.7z"/>
				<path class="st4" d="M24.2,154.7c0.3-2.8,0.3-3,0.4-4.1c0.7-1.3,2.5-2.2,3.1-2.6c3.1-1.8,6.3-3.6,9.4-5.4
					c-0.5,3.9-2,15.7-2.3,17.7c-0.2,1.3-0.2,3.9,0,5.7l0,0c0.3,2.4,2.5,6.6,2.5,6.7c1.6,3,3.7,5.2,6.7,7.9c2.2,2,4.8,3.6,7.4,4.9
					c0.4,0.2,0.8,0.4,1.3,0.7c2.5,1.2,5,2.1,7.7,2.9c0.2,0.1,0.4,0.1,0.5,0.2c2.4,0.8,7,1.6,7.8,1.8c0.4,0.1,0.8,0.1,1.2,0.2
					c5.8,0.9,20,0.9,23.7,0.7c5.3-0.5,10.4-1.1,15.5-2.6c1.5-0.4,2.9-0.9,4.3-1.4c2.3-0.8,4.6-1.8,6.7-2.9c3-1.5,5.6-3.4,7.9-5.7
					c0.1-0.1,0.2-0.2,0.2-0.2c1.1-1,2.1-2.2,3.1-3.4c1.6-2,2.9-4.1,3.8-6.3v-0.1c1.3-3,1.9-6.2,1.6-9.5c-0.2-3.5-1.4-14.6-1.7-16.7
					c2.9,1.7,5.7,3.3,8.7,5.1c1.6,0.9,3.3,2.1,3.5,3.8c0.3,2.9,1.2,10.2,1.2,10.9c0.1,4.9-1.1,9.3-3.2,13.5c-1.8,3.6-4,6.7-6.7,9.4
					c-4.2,4.1-9.2,7.2-14.9,9.6c-7.9,3.2-16.1,5.1-24.6,5.9c-9.1,0.9-18.2,0.9-27.4-0.1c-9.3-1-18.3-3.1-26.7-7.2
					c-3.9-2-7.5-4.4-10.7-7.3l-0.1-0.1c-1.1-1-2.1-2-3.1-3.1c-0.1-0.2-0.3-0.3-0.4-0.5c-0.7-1-2.5-3.5-4.1-7
					c-0.9-2.1-2.3-6.9-2.5-8.8c-0.1-0.2-0.3-2.9-0.3-4.4c0-1.2,0.1-2.4,0.1-3.7"/>
				<path class="st0" d="M145.3,134.7c-1-0.5-9.1-4.8-12.1-6.5c-0.2-1.7-0.5-3.4-0.7-5.1c-0.8-6.4-1.7-12.7-2.5-19.6
					c-1.5,0.8-2.6,1.3-3.6,1.9c-5.5,3.1-11,6.3-16.4,9.4c-4-2.3-8.1-4.5-12.1-6.8c9.2-5.2,18.5-10.6,27.7-15.9
					c2.5-1.4,2.9-2.2,2.5-4.9c-0.3-2.2-0.6-4.4-0.9-6.7c-0.1-0.7-0.2-1.4-0.5-2.5c-13.5,7.6-27.1,15.3-40.6,22.9
					c-16.3-9.4-32.6-18.8-48.9-28.1c-1.5-0.9-2.3-1.9-2.1-3.5c0.2-1.4,0.4-2.9,0.6-4.3c0.6-4.1,1.1-8.2,1.7-12.4
					c0-0.2,0-0.3,0.1-0.5c0.1-1.1,0.3-2.2,0.4-3.3c0.8-6.2,4-11.3,8.8-15.4c6-5,13-8.1,20.7-9.8c14.3-3.2,28.4-3,42.3,1.6
					c3.2,1.1,6.4,2.6,9.4,4.2c8.8,4.6,13.5,11.9,15.1,21.1v0.1c1.6,13,3.3,25.1,4.9,37.5c0.1,0.5,0.1,1,0.2,1.5
					c0.5,4.1,1.1,8.2,1.6,12.3c0.3,2.4,0.6,4.8,0.9,7.2C142.7,116.2,145.3,134.6,145.3,134.7z"/>
				<path class="st4" d="M97.9,108c-3.9,2.2-7.9,4.4-11.8,6.6c-3.9-2.3-7.9-4.5-11.8-6.8c3.9-2.2,7.8-4.6,11.8-6.9
					C90,103.3,94,105.8,97.9,108z"/>
			</g>
		</g>
	</g>
</g>
<text transform="matrix(0.8662 0.4997 -0.4997 0.8662 105.6985 122.1162)" class="st0 st1 st2">Re-use</text>
<text transform="matrix(1 0 0 1 70.9434 177.5674)" class="st0 st1 st2">Recycle</text>
<path class="st0" d="M106.2,176.9c-0.4,0-0.9,0-1.3,0v-2.1c7.4,0.3,13.8-2.2,18.1-7.4c5.6-6.6,7.6-18,5.8-29.2h2.2
	c1.9,11.9-0.5,23.6-6.5,30.6C120,174.1,113.7,176.9,106.2,176.9z"/>
<polygon class="st0" points="102.9,118.9 85.1,108.1 86.1,106.4 105.3,117.5 "/>
<g id="XMLID_2_">
	<g>
		<polygon class="st0" points="68.7,118.7 66.6,117.4 86.1,106.4 87.1,108.2 		"/>
	</g>
</g>
</svg>
