<?xml version="1.0" encoding="utf-8"?>
<!-- Generator: Adobe Illustrator 24.1.0, SVG Export Plug-In . SVG Version: 6.00 Build 0)  -->
<svg version="1.1" xmlns="http://www.w3.org/2000/svg" xmlns:xlink="http://www.w3.org/1999/xlink" x="0px" y="0px"
	 viewBox="0 0 172 229" style="enable-background:new 0 0 172 229;" xml:space="preserve">
<style type="text/css">
	.st0{display:none;}
	.st1{display:inline;}
	.st2{display:inline;fill:none;}
	.st3{fill:#FFFFFF;}
	.st4{fill:none;}
</style>
<g id="Layer_1_copy" class="st0">
	<path class="st1" d="M148.22,159.02c-0.69-8.48-1.54-16.94-2.52-25.38c-1.12-9.64-2.46-19.26-3.72-28.88
		c-1.24-9.46-2.5-18.93-3.74-28.39c-1.23-9.39-2.54-18.76-3.66-28.16c-1.24-10.26-6.02-18.22-15.45-23.21
		c-3.02-1.6-6.15-3.12-9.39-4.2c-13.92-4.64-28.07-4.81-42.35-1.65c-7.66,1.7-14.64,4.75-20.66,9.75c-4.9,4.07-8,9.13-8.85,15.37
		c-1.88,13.76-3.7,27.51-5.55,41.26c-1.58,11.69-3.18,23.38-4.75,35.06c-0.38,2.91-0.65,5.84-0.97,8.76
		c0.18,0.11,0.34,0.22,0.52,0.32c33.06-18.67,66.11-37.35,99.54-56.23c0.2,1.07,0.36,1.77,0.45,2.47c0.31,2.22,0.57,4.46,0.9,6.67
		c0.41,2.72,0.08,3.42-2.46,4.87c-29.12,16.6-58.23,33.21-87.35,49.81c-3.55,2.02-7.11,4.04-10.66,6.06
		c-1.99,1.13-3.13,2.71-3.26,5.04c-0.11,1.99-0.45,3.98-0.69,5.97c-1.13,9.15,1.02,17.34,7.3,24.4c3.94,4.43,8.62,7.89,13.96,10.55
		c8.4,4.17,17.39,6.27,26.7,7.26c9.12,0.97,18.24,0.91,27.36,0.05c8.49-0.8,16.72-2.63,24.57-5.89c8.38-3.48,15.36-8.66,20.37-16.18
		C146.98,169.81,148.68,164.64,148.22,159.02z M133.31,168.24c-3.41,5.19-8,9.13-13.61,11.91c-8.2,4.05-16.96,6.1-26.09,6.53
		c-7.81,0.37-15.64,0.49-23.4-0.75c-5.86-0.93-11.59-2.38-16.97-4.88c-5.58-2.58-10.47-6.05-14.17-10.94
		c-3.11-4.11-4.96-8.63-4.79-13.85c0.07-2.05,0.88-3.38,2.74-4.44c29.82-16.99,59.61-34.03,89.41-51.05
		c1.04-0.59,2.12-1.14,3.6-1.93c0.89,6.87,1.75,13.22,2.54,19.58c1.09,8.76,2.16,17.51,3.21,26.27c0.41,3.5,0.85,7.01,1.08,10.52
		C137.18,159.92,135.92,164.27,133.31,168.24z"/>
	<path class="st1" d="M147.52,158.24c-0.38-3.48-0.84-6.96-1-10.45c-0.09-2.04-0.9-3.21-2.63-4.22
		c-35.92-20.92-71.8-41.9-107.7-62.85c-0.76-0.45-1.55-0.85-2.66-1.45c-0.2,1.25-0.37,2.12-0.47,3c-0.58,4.69-1.1,9.37-1.7,14.05
		c-1.21,9.28-2.49,18.55-3.68,27.83c-1.07,8.39-2.03,16.81-3.07,25.2c-0.53,4.23-1.06,8.45-1.6,12.68v0c0,0.01,0,0.02,0,0.03
		c0,0.03,0,0.06,0,0.09c0.02,0.09,0.02,0.19,0,0.28c0,0.03,0.01,0.06,0.01,0.09c0.33,0.83,0.66,1.65,0.99,2.48
		c0.24,1.7,0.65,3.06,1,4c0.61,1.66,1.31,2.84,2,4c0.75,1.27,1.47,2.29,2,3c0.71,1.18,1.69,2.57,3,4c1.16,1.26,2.31,2.25,3.32,3.02
		c2.86,2.63,6.14,4.72,9.61,6.53c9.25,4.82,19.23,6.9,29.5,7.85c9.2,0.85,18.37,0.65,27.53-0.48c8.21-1.01,16.13-3.04,23.58-6.7
		c8.41-4.13,15.21-9.96,19.44-18.49C147.09,167.47,148.04,163,147.52,158.24z M136.71,157.77c-0.28,5.1-2.12,9.48-5.32,13.35
		c-4.78,5.81-10.86,9.71-17.93,12.19c-10.14,3.55-20.61,4.49-31.27,4.1c-7.09-0.26-14.12-1.03-20.92-3.2
		c-6.11-1.95-11.84-4.6-16.66-8.92c-4.46-4-8.07-8.66-8.92-14.73c-0.5-3.58-0.48-7.33-0.09-10.94c1.19-10.82,2.67-21.63,4.06-32.44
		c0.68-5.33,1.36-10.64,2.07-15.97c0.1-0.79,0.32-1.56,0.54-2.71c2.53,1.47,4.71,2.72,6.88,3.99
		c28.03,16.36,56.05,32.76,84.13,49.03C135.93,153.06,136.87,154.84,136.71,157.77z"/>
	<g class="st1">
		<g>
			<path d="M258.56,166.19c0,10.69,0.38,20.12,1,29.31H248.5l-0.81-21.31h-0.5c-6.06,11.06-19.69,24.06-41.19,24.06
				c-15.25,0-40.81-7.56-40.81-52.88V75.5h11.88v67.44c0,26.19,8.06,44.94,31.88,44.94c17.44,0,30.31-12.25,35.38-24.38
				c1.25-3.75,2.38-8.38,2.38-13.25V75.5h11.88V166.19z"/>
			<path d="M298.94,18h11.88v177.5h-11.88V18z"/>
			<path d="M368.43,40.75V75.5h34.19v9.62h-34.19v78c0,15.25,4.75,24.81,17.62,24.81c6.19,0,10.56-0.81,13.62-1.88l1.44,9.19
				c-3.88,1.62-9.31,2.88-16.56,2.88c-8.75,0-16-2.75-20.69-8.5c-5.44-6.31-7.31-16.38-7.31-28.62V85.12h-20.25V75.5h20.25V44.62
				L368.43,40.75z"/>
			<path d="M444.74,41.19c0,5.56-3.69,10.38-10,10.38c-5.44,0-9.25-4.81-9.25-10.38c0-5.5,4.19-10.38,9.69-10.38
				C440.87,30.81,444.74,35.5,444.74,41.19z M429.18,195.5v-120h11.88v120H429.18z"/>
			<path d="M481.43,104.19c0-11-0.38-19.25-1-28.69h11.06l0.88,21.69h0.5c6.56-13.5,21.62-24.44,41.31-24.44
				c11.44,0,41.88,5.88,41.88,50.81v71.94h-11.88v-70.88c0-21.88-8.44-41.69-33.25-41.69c-16.88,0-31.25,12.06-36,27.62
				c-0.88,2.88-1.62,6.94-1.62,10.69v74.25h-11.88V104.19z"/>
		</g>
	</g>
	<line class="st2" x1="0" y1="-57" x2="746" y2="-58"/>
	<path class="st1" d="M144.28,129.85c-0.94-0.5-1.59-0.81-2.2-1.18c-34.96-20.17-69.9-40.35-104.88-60.46
		c-1.53-0.88-2.02-1.84-1.8-3.48c0.77-5.72,1.48-11.46,2.22-17.18c0.12-0.96,0.25-1.93,0.35-2.9c0.79-7.9,4.9-13.85,11.05-18.51
		c6-4.56,12.89-7.25,20.23-8.71c13.74-2.72,27.35-2.43,40.71,2.15c4.8,1.65,9.26,3.94,13.29,7.09c6.11,4.76,9.44,10.99,10.41,18.64
		c2.37,18.89,4.83,37.76,7.27,56.63c1.1,8.47,2.25,16.92,3.35,25.4C144.35,128.05,144.28,128.78,144.28,129.85z"/>
	<g class="st1">
		<g>
			<path d="M24.33,163.86c1.93,0,1.93-3,0-3C22.4,160.86,22.4,163.86,24.33,163.86L24.33,163.86z"/>
		</g>
	</g>
	<g class="st1">
		<g>
			<path d="M24.38,163.65c1.93,0,1.93-3,0-3C22.45,160.65,22.45,163.65,24.38,163.65L24.38,163.65z"/>
		</g>
	</g>
	<g class="st1">
		<g>
			<path d="M24.38,163.63c1.93,0,1.93-3,0-3C22.45,160.63,22.45,163.63,24.38,163.63L24.38,163.63z"/>
		</g>
	</g>
	<g class="st1">
		<g>
			<path d="M24.38,164.09c1.93,0,1.93-3,0-3C22.45,161.09,22.45,164.09,24.38,164.09L24.38,164.09z"/>
		</g>
	</g>
	<g class="st1">
		<g>
			<path d="M24.38,164.09c1.93,0,1.93-3,0-3C22.45,161.09,22.45,164.09,24.38,164.09L24.38,164.09z"/>
		</g>
	</g>
	<g class="st1">
		<g>
			<path d="M24.38,164.09c1.93,0,1.93-3,0-3C22.45,161.09,22.45,164.09,24.38,164.09L24.38,164.09z"/>
		</g>
	</g>
	<g class="st1">
		<g>
			<path d="M24.38,164.09c1.93,0,1.93-3,0-3C22.45,161.09,22.45,164.09,24.38,164.09L24.38,164.09z"/>
		</g>
	</g>
	<g class="st1">
		<g>
			<path d="M24.38,164.14c1.93,0,1.93-3,0-3C22.45,161.14,22.45,164.14,24.38,164.14L24.38,164.14z"/>
		</g>
	</g>
	<g class="st1">
		<g>
			<path d="M24.38,164.14c1.93,0,1.93-3,0-3C22.45,161.14,22.45,164.14,24.38,164.14L24.38,164.14z"/>
		</g>
	</g>
	<g class="st1">
		<g>
			<path d="M24.38,164.14c1.93,0,1.93-3,0-3C22.45,161.14,22.45,164.14,24.38,164.14L24.38,164.14z"/>
		</g>
	</g>
	<g class="st1">
		<g>
			<path d="M-14.7,94.85c1.93,0,1.93-3,0-3C-16.63,91.85-16.63,94.85-14.7,94.85L-14.7,94.85z"/>
		</g>
	</g>
	<g class="st1">
		<g>
			<path d="M27.96,132.05c1.93,0,1.93-3,0-3C26.03,129.05,26.03,132.05,27.96,132.05L27.96,132.05z"/>
		</g>
	</g>
	<g class="st1">
		<g>
			<path d="M28.19,130.51c1.93,0,1.93-3,0-3C26.26,127.51,26.26,130.51,28.19,130.51L28.19,130.51z"/>
		</g>
	</g>
	<g class="st1">
		<g>
			<path d="M25.87,149.35c1.93,0,1.93-3,0-3C23.94,146.35,23.93,149.35,25.87,149.35L25.87,149.35z"/>
		</g>
	</g>
	<g class="st1">
		<g>
			<path d="M25.87,149.35c1.93,0,1.93-3,0-3C23.94,146.35,23.93,149.35,25.87,149.35L25.87,149.35z"/>
		</g>
	</g>
	<g class="st1">
		<g>
			<path d="M25.87,149.35c1.93,0,1.93-3,0-3C23.94,146.35,23.93,149.35,25.87,149.35L25.87,149.35z"/>
		</g>
	</g>
	<g class="st1">
		<g>
			<path d="M28.13,131.4c1.93,0,1.93-3,0-3C26.2,128.4,26.19,131.4,28.13,131.4L28.13,131.4z"/>
		</g>
	</g>
	<g class="st1">
		<g>
			<path d="M28.13,131.4c1.93,0,1.93-3,0-3C26.2,128.4,26.19,131.4,28.13,131.4L28.13,131.4z"/>
		</g>
	</g>
	<g class="st1">
		<g>
			<path d="M28.13,131.26c1.93,0,1.93-3,0-3C26.2,128.26,26.19,131.26,28.13,131.26L28.13,131.26z"/>
		</g>
	</g>
	<g class="st1">
		<g>
			<path d="M28.13,131.26c1.93,0,1.93-3,0-3C26.2,128.26,26.19,131.26,28.13,131.26L28.13,131.26z"/>
		</g>
	</g>
	<g class="st1">
		<g>
			<path d="M28.13,131.26c1.93,0,1.93-3,0-3C26.2,128.26,26.19,131.26,28.13,131.26L28.13,131.26z"/>
		</g>
	</g>
	<g class="st1">
		<g>
			<path d="M28.13,131.26c1.93,0,1.93-3,0-3C26.2,128.26,26.19,131.26,28.13,131.26L28.13,131.26z"/>
		</g>
	</g>
	<g class="st1">
		<g>
			<path d="M28.13,131.26c1.93,0,1.93-3,0-3C26.2,128.26,26.19,131.26,28.13,131.26L28.13,131.26z"/>
		</g>
	</g>
	<g class="st1">
		<g>
			<path d="M24.43,163.87c1.93,0,1.93-3,0-3C22.5,160.87,22.49,163.87,24.43,163.87L24.43,163.87z"/>
		</g>
	</g>
	<g class="st1">
		<g>
			<path d="M24.43,163.87c1.93,0,1.93-3,0-3C22.5,160.87,22.49,163.87,24.43,163.87L24.43,163.87z"/>
		</g>
	</g>
	<g class="st1">
		<g>
			<path d="M24.43,163.87c1.93,0,1.93-3,0-3C22.5,160.87,22.49,163.87,24.43,163.87L24.43,163.87z"/>
		</g>
	</g>
	<g class="st1">
		<g>
			<path d="M24.43,163.87c1.93,0,1.93-3,0-3C22.5,160.87,22.49,163.87,24.43,163.87L24.43,163.87z"/>
		</g>
	</g>
	<g class="st1">
		<g>
			<path d="M24.43,163.87c1.93,0,1.93-3,0-3C22.5,160.87,22.49,163.87,24.43,163.87L24.43,163.87z"/>
		</g>
	</g>
</g>
<g id="Layer_1">
	<g>
		<path class="st3" d="M148.22,159.02c-0.69-8.48-1.54-16.94-2.52-25.38c-1.12-9.64-2.46-19.26-3.72-28.88
			c-1.24-9.46-2.5-18.93-3.74-28.39c-1.23-9.39-2.54-18.76-3.66-28.16c-1.24-10.26-6.02-18.22-15.45-23.21
			c-3.02-1.6-6.15-3.12-9.39-4.2c-13.92-4.64-28.07-4.81-42.35-1.65c-7.66,1.7-14.64,4.75-20.66,9.75c-4.9,4.07-8,9.13-8.85,15.37
			c-1.88,13.76-3.7,27.51-5.55,41.26c-1.58,11.69-3.18,23.38-4.75,35.06c-0.38,2.91-0.65,5.84-0.97,8.76
			c0.18,0.11,0.34,0.22,0.52,0.32c33.06-18.67,66.11-37.35,99.54-56.23c0.2,1.07,0.36,1.77,0.45,2.47c0.31,2.22,0.57,4.46,0.9,6.67
			c0.41,2.72,0.08,3.42-2.46,4.87c-29.12,16.6-58.23,33.21-87.35,49.81c-3.55,2.02-7.11,4.04-10.66,6.06
			c-0.64,0.36-1.75,1.07-2.53,2.4c-0.44,0.74-0.68,1.53-1.01,4.28c-0.25,2.02-0.37,3.03-0.42,4.33c-0.17,4.89-0.41,9.73,1.49,14.87
			c1.24,3.37,3.16,6.55,5.81,9.52c3.94,4.43,8.62,7.89,13.96,10.55c8.4,4.17,17.39,6.27,26.7,7.26c9.12,0.97,18.24,0.91,27.36,0.05
			c8.49-0.8,16.72-2.63,24.57-5.89c8.38-3.48,15.36-8.66,20.37-16.18C146.98,169.81,148.68,164.64,148.22,159.02z M133.31,168.24
			c-3.41,5.19-8,9.13-13.61,11.91c-8.2,4.05-16.96,6.1-26.09,6.53c-7.81,0.37-15.64,0.49-23.4-0.75
			c-5.86-0.93-11.59-2.38-16.97-4.88c-5.58-2.58-10.47-6.05-14.17-10.94c-3.11-4.11-4.96-8.63-4.79-13.85
			c0.07-2.05,0.88-3.38,2.74-4.44c29.82-16.99,59.61-34.03,89.41-51.05c1.04-0.59,2.12-1.14,3.6-1.93
			c0.89,6.87,1.75,13.22,2.54,19.58c1.09,8.76,2.16,17.51,3.21,26.27c0.41,3.5,0.85,7.01,1.08,10.52
			C137.18,159.92,135.92,164.27,133.31,168.24z"/>
	</g>
	<g>
		<path class="st3" d="M147.52,158.24c-0.38-3.48-0.84-6.96-1-10.45c-0.09-2.04-0.9-3.21-2.64-4.22
			c-35.95-20.92-71.87-41.9-107.8-62.85c-0.77-0.45-1.55-0.85-2.66-1.45c-0.1,0.63-0.2,1.16-0.28,1.64c-0.1,0.61-0.16,1.09-0.2,1.36
			C32.71,84.02,31.19,95.55,31,97c-0.36,2.73-0.44,2.64-1.22,7.75c-0.1,0.65-0.48,3.12-0.78,5.25c-0.25,1.75-0.24,1.87-1,8
			c-0.9,7.31-0.72,5.65-1,8c-0.19,1.59-0.25,2.19-0.42,3.25c-0.15,0.97-0.33,1.97-0.58,3.75c-0.21,1.52-0.23,1.8-1,8
			c-0.95,7.61-0.92,7.09-1,8c-0.48,5.26-0.8,8.66,0,13c0.73,3.97,2.06,6.93,3,9c1.65,3.62,3.37,6.11,4,7
			c1.43,2.01,2.89,3.67,4.22,5.02c2.87,2.63,6.14,4.72,9.62,6.53c9.25,4.82,19.24,6.9,29.53,7.85c9.21,0.85,18.39,0.65,27.55-0.48
			c8.22-1.01,16.14-3.04,23.61-6.7c8.42-4.13,15.23-9.96,19.46-18.49C147.09,167.47,148.04,163,147.52,158.24z M136.71,157.77
			c-0.28,5.1-2.12,9.48-5.32,13.35c-4.78,5.81-10.86,9.71-17.93,12.19c-10.14,3.55-20.61,4.49-31.27,4.1
			c-7.09-0.26-14.12-1.03-20.92-3.2c-6.11-1.95-12.46-3.9-17.27-8.22c-4.46-4-8.87-7.25-11-13c-1.69-4.57,2.21-9.76,2.61-13.37
			c1.19-10.82,2.67-21.63,4.06-32.44c0.68-5.33,1.36-10.64,2.07-15.97c0.1-0.79,0.32-1.56,0.54-2.71c2.53,1.47,4.71,2.72,6.88,3.99
			c28.03,16.36,56.05,32.76,84.13,49.03C135.93,153.06,136.87,154.84,136.71,157.77z"/>
	</g>
	<line class="st4" x1="0" y1="-57" x2="746" y2="-58"/>
	<g>
		<path class="st3" d="M144.28,129.85c-0.94-0.5-1.59-0.81-2.2-1.18c-34.96-20.17-69.9-40.35-104.88-60.46
			c-1.53-0.88-2.02-1.84-1.8-3.48c0.77-5.72,1.48-11.46,2.22-17.18c0.12-0.96,0.25-1.93,0.35-2.9c0.79-7.9,4.9-13.85,11.05-18.51
			c6-4.56,12.89-7.25,20.23-8.71c13.74-2.72,27.35-2.43,40.71,2.15c4.8,1.65,9.26,3.94,13.29,7.09c6.11,4.76,9.44,10.99,10.41,18.64
			c2.37,18.89,4.83,37.76,7.27,56.63c1.1,8.47,2.25,16.92,3.35,25.4C144.35,128.05,144.28,128.78,144.28,129.85z"/>
	</g>
	<g>
		<g>
			<path class="st3" d="M29.93,187.67c1.77,1.17,3.58,2.27,5.4,3.32c2.79,1.6,4,4.07,2.75,6.59c-1.35,2.72-4.36,2.99-7.39,1.24
				c-1.18-0.68-2.35-1.38-3.51-2.1c-1.09,1.75-2.18,3.49-3.27,5.24c-0.8-0.5-1.59-1-2.37-1.52
				C24.33,196.18,27.13,191.92,29.93,187.67z M28.17,195.13c1.09,0.68,2.19,1.34,3.29,1.98c1.98,1.14,3.49,0.86,4.3-0.67
				c0.85-1.6,0.07-2.99-1.55-3.92c-1.08-0.62-2.15-1.26-3.21-1.92C30.06,192.1,29.11,193.61,28.17,195.13z"/>
			<path class="st3" d="M49.24,197.65c-1.11,2.85-2.23,5.7-3.34,8.55c-1.29,3.24,0.47,4.95,2.6,5.69c2.49,0.86,4.54,0.38,5.52-2.87
				c0.9-2.93,1.79-5.85,2.69-8.78c0.76,0.23,1.52,0.46,2.29,0.67c-0.82,2.91-1.64,5.82-2.46,8.72c-1.32,4.83-4.96,5.29-8.7,3.99
				c-3.7-1.28-6.26-4.02-4.38-8.41c1.18-2.83,2.36-5.65,3.54-8.48C47.75,197.06,48.49,197.36,49.24,197.65z"/>
			<path class="st3" d="M67.31,202.9c0.77,0.15,1.54,0.29,2.32,0.42c-0.75,4.39-1.51,8.78-2.26,13.17c3.04,0.52,6.1,0.92,9.16,1.2
				c-0.17,0.63-0.35,1.25-0.53,1.88c-3.89-0.37-7.77-0.93-11.62-1.68C65.36,212.9,66.33,207.9,67.31,202.9z"/>
			<path class="st3" d="M87.86,206.75c-1.72,0.01-3.43-0.02-5.14-0.1c0.03-0.64,0.06-1.28,0.08-1.92c4.15,0.18,8.31,0.11,12.46-0.2
				c0.05,0.64,0.1,1.28,0.15,1.91c-1.71,0.13-3.43,0.22-5.14,0.27c0.12,4.45,0.25,8.9,0.37,13.36c-0.9,0.02-1.8,0.04-2.71,0.04
				C87.91,215.66,87.89,211.2,87.86,206.75z"/>
			<path class="st3" d="M104.35,203.44c0.83,5.03,1.66,10.05,2.49,15.08c-0.89,0.15-1.78,0.28-2.67,0.41
				c-0.72-5.04-1.43-10.09-2.15-15.13C102.8,203.69,103.57,203.57,104.35,203.44z"/>
			<path class="st3" d="M116.59,216.49c-1.24-4.94-2.49-9.88-3.73-14.82c0.99-0.25,1.99-0.52,2.97-0.8
				c3.01,2.88,10.21,8.2,11.78,9.36c0.01,0,0.02-0.01,0.04-0.01c-0.82-1.72-1.65-4.03-2.5-6.38c-0.65-1.78-1.3-3.57-1.95-5.35
				c0.7-0.25,1.39-0.52,2.08-0.79c1.85,4.75,3.7,9.49,5.55,14.24c-1.04,0.41-2.08,0.8-3.13,1.17c-3.42-2.19-10.86-8.27-12.15-9.74
				c-0.01,0-0.02,0.01-0.03,0.01c0.55,1.57,1.28,4.17,2,6.83c0.52,1.88,1.03,3.76,1.55,5.63
				C118.23,216.07,117.41,216.28,116.59,216.49z"/>
			<path class="st3" d="M140.48,202.77c0.13,1.58,0.24,3.16,0.33,4.75c-0.82,0.41-1.64,0.81-2.46,1.19
				c-0.19-5.54-0.66-11.02-1.39-16.41c0.88-0.47,1.75-0.96,2.62-1.46c4.28,3.41,8.8,6.62,13.54,9.6c-0.83,0.55-1.67,1.08-2.51,1.6
				c-1.33-0.89-2.65-1.8-3.95-2.73C144.63,200.53,142.57,201.68,140.48,202.77z M145.12,198c-3.35-2.51-5.11-3.96-6.02-4.83
				c-0.01,0-0.01,0.01-0.02,0.01c0.29,1.37,0.7,4.06,1.1,7.58C141.83,199.89,143.48,198.96,145.12,198z"/>
		</g>
	</g>
</g>
</svg>
