<?xml version="1.0" encoding="utf-8"?>
<!-- Generator: Adobe Illustrator 24.1.0, SVG Export Plug-In . SVG Version: 6.00 Build 0)  -->
<svg version="1.1" id="Layer_1" xmlns="http://www.w3.org/2000/svg" xmlns:xlink="http://www.w3.org/1999/xlink" x="0px" y="0px"
	 viewBox="0 0 172 229" style="enable-background:new 0 0 172 229;" xml:space="preserve">
<style type="text/css">
	.st0{fill:none;stroke:#000000;stroke-width:2;stroke-miterlimit:10;}
	.st1{display:none;}
	.st2{display:inline;}
	.st3{display:inline;fill:none;}
	.st4{fill:#7B7B7B;}
	.st5{fill:#303030;}
	.st6{fill:#969696;}
	.st7{fill:#878787;}
	.st8{font-family:'MyriadPro-Regular';}
	.st9{font-size:10px;}
</style>
<line class="st0" x1="65.5" y1="115.1" x2="83.1" y2="104.8"/>
<line class="st0" x1="106.4" y1="116.2" x2="92.6" y2="107.2"/>
<path class="st0" d="M42.8,145.5c0,13.3,10.9,24,24.4,24"/>
<path class="st0" d="M129.3,145.5c0,13.7-11.1,24.8-24.9,24.8"/>
<line class="st0" x1="69.9" y1="112.5" x2="86.6" y2="102.8"/>
<line class="st0" x1="101.2" y1="112.8" x2="85.6" y2="102.7"/>
<g id="Layer_1_copy" class="st1">
	<path class="st2" d="M148.2,159c-0.7-8.5-1.5-16.9-2.5-25.4c-1.1-9.6-2.5-19.3-3.7-28.9c-1.2-9.5-2.5-18.9-3.7-28.4
		c-1.2-9.4-2.5-18.8-3.7-28.2c-1.2-10.3-6-18.2-15.4-23.2c-3-1.6-6.2-3.1-9.4-4.2c-13.9-4.6-28.1-4.8-42.3-1.6
		c-7.7,1.7-14.6,4.8-20.7,9.8c-4.9,4.1-8,9.1-8.9,15.4C36,58,34.2,71.8,32.3,85.5c-1.6,11.7-3.2,23.4-4.8,35.1
		c-0.4,2.9-0.6,5.8-1,8.8c0.2,0.1,0.3,0.2,0.5,0.3c33.1-18.7,66.1-37.3,99.5-56.2c0.2,1.1,0.4,1.8,0.4,2.5c0.3,2.2,0.6,4.5,0.9,6.7
		c0.4,2.7,0.1,3.4-2.5,4.9c-29.1,16.6-58.2,33.2-87.3,49.8c-3.5,2-7.1,4-10.7,6.1c-2,1.1-3.1,2.7-3.3,5c-0.1,2-0.5,4-0.7,6
		c-1.1,9.1,1,17.3,7.3,24.4c3.9,4.4,8.6,7.9,14,10.6c8.4,4.2,17.4,6.3,26.7,7.3c9.1,1,18.2,0.9,27.4,0.1c8.5-0.8,16.7-2.6,24.6-5.9
		c8.4-3.5,15.4-8.7,20.4-16.2C147,169.8,148.7,164.6,148.2,159z M133.3,168.2c-3.4,5.2-8,9.1-13.6,11.9c-8.2,4.1-17,6.1-26.1,6.5
		c-7.8,0.4-15.6,0.5-23.4-0.8c-5.9-0.9-11.6-2.4-17-4.9c-5.6-2.6-10.5-6.1-14.2-10.9c-3.1-4.1-5-8.6-4.8-13.9
		c0.1-2.1,0.9-3.4,2.7-4.4c29.8-17,59.6-34,89.4-51.1c1-0.6,2.1-1.1,3.6-1.9c0.9,6.9,1.8,13.2,2.5,19.6c1.1,8.8,2.2,17.5,3.2,26.3
		c0.4,3.5,0.9,7,1.1,10.5C137.2,159.9,135.9,164.3,133.3,168.2z"/>
	<path class="st2" d="M147.5,158.2c-0.4-3.5-0.8-7-1-10.4c-0.1-2-0.9-3.2-2.6-4.2C108,122.7,72.1,101.7,36.2,80.7
		c-0.8-0.4-1.5-0.8-2.7-1.4c-0.2,1.2-0.4,2.1-0.5,3c-0.6,4.7-1.1,9.4-1.7,14.1c-1.2,9.3-2.5,18.5-3.7,27.8c-1.1,8.4-2,16.8-3.1,25.2
		c-0.5,4.2-1.1,8.4-1.6,12.7l0,0c0,0,0,0,0,0c0,0,0,0.1,0,0.1c0,0.1,0,0.2,0,0.3c0,0,0,0.1,0,0.1c0.3,0.8,0.7,1.6,1,2.5
		c0.2,1.7,0.6,3.1,1,4c0.6,1.7,1.3,2.8,2,4c0.8,1.3,1.5,2.3,2,3c0.7,1.2,1.7,2.6,3,4c1.2,1.3,2.3,2.2,3.3,3c2.9,2.6,6.1,4.7,9.6,6.5
		c9.2,4.8,19.2,6.9,29.5,7.9c9.2,0.9,18.4,0.6,27.5-0.5c8.2-1,16.1-3,23.6-6.7c8.4-4.1,15.2-10,19.4-18.5
		C147.1,167.5,148,163,147.5,158.2z M136.7,157.8c-0.3,5.1-2.1,9.5-5.3,13.4c-4.8,5.8-10.9,9.7-17.9,12.2
		c-10.1,3.6-20.6,4.5-31.3,4.1c-7.1-0.3-14.1-1-20.9-3.2c-6.1-1.9-11.8-4.6-16.7-8.9c-4.5-4-8.1-8.7-8.9-14.7
		c-0.5-3.6-0.5-7.3-0.1-10.9c1.2-10.8,2.7-21.6,4.1-32.4c0.7-5.3,1.4-10.6,2.1-16c0.1-0.8,0.3-1.6,0.5-2.7c2.5,1.5,4.7,2.7,6.9,4
		c28,16.4,56,32.8,84.1,49C135.9,153.1,136.9,154.8,136.7,157.8z"/>
	<g class="st2">
		<g>
			<path d="M258.6,166.2c0,10.7,0.4,20.1,1,29.3h-11.1l-0.8-21.3h-0.5c-6.1,11.1-19.7,24.1-41.2,24.1c-15.2,0-40.8-7.6-40.8-52.9
				V75.5h11.9v67.4c0,26.2,8.1,44.9,31.9,44.9c17.4,0,30.3-12.2,35.4-24.4c1.2-3.8,2.4-8.4,2.4-13.2V75.5h11.9L258.6,166.2
				L258.6,166.2z"/>
			<path d="M298.9,18h11.9v177.5h-11.9V18z"/>
			<path d="M368.4,40.8v34.8h34.2v9.6h-34.2v78c0,15.2,4.8,24.8,17.6,24.8c6.2,0,10.6-0.8,13.6-1.9l1.4,9.2
				c-3.9,1.6-9.3,2.9-16.6,2.9c-8.8,0-16-2.8-20.7-8.5c-5.4-6.3-7.3-16.4-7.3-28.6V85.1h-20.2v-9.6h20.2V44.6L368.4,40.8z"/>
			<path d="M444.7,41.2c0,5.6-3.7,10.4-10,10.4c-5.4,0-9.2-4.8-9.2-10.4c0-5.5,4.2-10.4,9.7-10.4C440.9,30.8,444.7,35.5,444.7,41.2z
				 M429.2,195.5v-120h11.9v120H429.2z"/>
			<path d="M481.4,104.2c0-11-0.4-19.2-1-28.7h11.1l0.9,21.7h0.5c6.6-13.5,21.6-24.4,41.3-24.4c11.4,0,41.9,5.9,41.9,50.8v71.9
				h-11.9v-70.9c0-21.9-8.4-41.7-33.2-41.7c-16.9,0-31.2,12.1-36,27.6c-0.9,2.9-1.6,6.9-1.6,10.7v74.3h-11.9V104.2z"/>
		</g>
	</g>
	<line class="st3" x1="0" y1="-57" x2="746" y2="-58"/>
	<path class="st2" d="M144.3,129.9c-0.9-0.5-1.6-0.8-2.2-1.2c-35-20.2-69.9-40.3-104.9-60.5c-1.5-0.9-2-1.8-1.8-3.5
		c0.8-5.7,1.5-11.5,2.2-17.2c0.1-1,0.2-1.9,0.3-2.9c0.8-7.9,4.9-13.9,11-18.5c6-4.6,12.9-7.2,20.2-8.7C83,14.7,96.6,15,110,19.6
		c4.8,1.6,9.3,3.9,13.3,7.1c6.1,4.8,9.4,11,10.4,18.6c2.4,18.9,4.8,37.8,7.3,56.6c1.1,8.5,2.2,16.9,3.4,25.4
		C144.4,128.1,144.3,128.8,144.3,129.9z"/>
	<g class="st2">
		<g>
			<path d="M24.3,163.9c1.9,0,1.9-3,0-3S22.4,163.9,24.3,163.9L24.3,163.9z"/>
		</g>
	</g>
	<g class="st2">
		<g>
			<path d="M24.4,163.6c1.9,0,1.9-3,0-3S22.5,163.6,24.4,163.6L24.4,163.6z"/>
		</g>
	</g>
	<g class="st2">
		<g>
			<path d="M24.4,163.6c1.9,0,1.9-3,0-3S22.5,163.6,24.4,163.6L24.4,163.6z"/>
		</g>
	</g>
	<g class="st2">
		<g>
			<path d="M24.4,164.1c1.9,0,1.9-3,0-3S22.5,164.1,24.4,164.1L24.4,164.1z"/>
		</g>
	</g>
	<g class="st2">
		<g>
			<path d="M24.4,164.1c1.9,0,1.9-3,0-3S22.5,164.1,24.4,164.1L24.4,164.1z"/>
		</g>
	</g>
	<g class="st2">
		<g>
			<path d="M24.4,164.1c1.9,0,1.9-3,0-3S22.5,164.1,24.4,164.1L24.4,164.1z"/>
		</g>
	</g>
	<g class="st2">
		<g>
			<path d="M24.4,164.1c1.9,0,1.9-3,0-3S22.5,164.1,24.4,164.1L24.4,164.1z"/>
		</g>
	</g>
	<g class="st2">
		<g>
			<path d="M24.4,164.1c1.9,0,1.9-3,0-3S22.5,164.1,24.4,164.1L24.4,164.1z"/>
		</g>
	</g>
	<g class="st2">
		<g>
			<path d="M24.4,164.1c1.9,0,1.9-3,0-3S22.5,164.1,24.4,164.1L24.4,164.1z"/>
		</g>
	</g>
	<g class="st2">
		<g>
			<path d="M24.4,164.1c1.9,0,1.9-3,0-3S22.5,164.1,24.4,164.1L24.4,164.1z"/>
		</g>
	</g>
	<g class="st2">
		<g>
			<path d="M-14.7,94.8c1.9,0,1.9-3,0-3S-16.6,94.8-14.7,94.8L-14.7,94.8z"/>
		</g>
	</g>
	<g class="st2">
		<g>
			<path d="M28,132.1c1.9,0,1.9-3,0-3S26,132.1,28,132.1L28,132.1z"/>
		</g>
	</g>
	<g class="st2">
		<g>
			<path d="M28.2,130.5c1.9,0,1.9-3,0-3C26.3,127.5,26.3,130.5,28.2,130.5L28.2,130.5z"/>
		</g>
	</g>
	<g class="st2">
		<g>
			<path d="M25.9,149.4c1.9,0,1.9-3,0-3S23.9,149.4,25.9,149.4L25.9,149.4z"/>
		</g>
	</g>
	<g class="st2">
		<g>
			<path d="M25.9,149.4c1.9,0,1.9-3,0-3S23.9,149.4,25.9,149.4L25.9,149.4z"/>
		</g>
	</g>
	<g class="st2">
		<g>
			<path d="M25.9,149.4c1.9,0,1.9-3,0-3S23.9,149.4,25.9,149.4L25.9,149.4z"/>
		</g>
	</g>
	<g class="st2">
		<g>
			<path d="M28.1,131.4c1.9,0,1.9-3,0-3S26.2,131.4,28.1,131.4L28.1,131.4z"/>
		</g>
	</g>
	<g class="st2">
		<g>
			<path d="M28.1,131.4c1.9,0,1.9-3,0-3S26.2,131.4,28.1,131.4L28.1,131.4z"/>
		</g>
	</g>
	<g class="st2">
		<g>
			<path d="M28.1,131.3c1.9,0,1.9-3,0-3S26.2,131.3,28.1,131.3L28.1,131.3z"/>
		</g>
	</g>
	<g class="st2">
		<g>
			<path d="M28.1,131.3c1.9,0,1.9-3,0-3S26.2,131.3,28.1,131.3L28.1,131.3z"/>
		</g>
	</g>
	<g class="st2">
		<g>
			<path d="M28.1,131.3c1.9,0,1.9-3,0-3S26.2,131.3,28.1,131.3L28.1,131.3z"/>
		</g>
	</g>
	<g class="st2">
		<g>
			<path d="M28.1,131.3c1.9,0,1.9-3,0-3S26.2,131.3,28.1,131.3L28.1,131.3z"/>
		</g>
	</g>
	<g class="st2">
		<g>
			<path d="M28.1,131.3c1.9,0,1.9-3,0-3S26.2,131.3,28.1,131.3L28.1,131.3z"/>
		</g>
	</g>
	<g class="st2">
		<g>
			<path d="M24.4,163.9c1.9,0,1.9-3,0-3S22.5,163.9,24.4,163.9L24.4,163.9z"/>
		</g>
	</g>
	<g class="st2">
		<g>
			<path d="M24.4,163.9c1.9,0,1.9-3,0-3S22.5,163.9,24.4,163.9L24.4,163.9z"/>
		</g>
	</g>
	<g class="st2">
		<g>
			<path d="M24.4,163.9c1.9,0,1.9-3,0-3S22.5,163.9,24.4,163.9L24.4,163.9z"/>
		</g>
	</g>
	<g class="st2">
		<g>
			<path d="M24.4,163.9c1.9,0,1.9-3,0-3S22.5,163.9,24.4,163.9L24.4,163.9z"/>
		</g>
	</g>
	<g class="st2">
		<g>
			<path d="M24.4,163.9c1.9,0,1.9-3,0-3S22.5,163.9,24.4,163.9L24.4,163.9z"/>
		</g>
	</g>
</g>
<g id="Layer_1_1_">
	<g>
		<g id="XMLID_1_">
			<g>
				<path class="st4" d="M144.3,127.3c0.1,0.7,0,1.4,0,2.5c-0.9-0.5-1.6-0.8-2.2-1.2c-3-1.7-5.9-3.4-8.9-5.1
					c-0.2-1.7-0.4-3.4-0.6-5.1c-0.8-6.4-1.7-12.7-2.5-19.6c-1.5,0.8-2.6,1.3-3.6,1.9c-5.5,3.1-10.9,6.3-16.4,9.4
					c-4-2.3-8-4.6-12.1-7c9.2-5.2,18.4-10.5,27.6-15.8c2.5-1.4,2.9-2.1,2.5-4.9c-0.3-2.2-0.6-4.5-0.9-6.7c-0.1-0.7-0.2-1.4-0.5-2.5
					c-13.6,7.7-27.1,15.3-40.6,22.9C69.8,87,53.5,77.6,37.2,68.2c-1.5-0.9-2-1.8-1.8-3.5c0.8-5.7,1.5-11.5,2.2-17.2
					c0.1-1,0.2-1.9,0.4-2.9c0.2-1.7,0.5-3.3,1-4.8c0,0,0-0.1,0-0.1c1.5-4.2,4.1-7.8,7.8-10.8c6-5,13-8,20.7-9.8
					c14.3-3.2,28.4-3,42.3,1.6c3.2,1.1,6.4,2.6,9.4,4.2c6.3,3.3,10.5,7.9,13,13.7c0.8,2.1,1.3,4.3,1.6,6.6
					c2.4,18.9,4.8,37.8,7.3,56.6C142,110.4,143.2,118.9,144.3,127.3z"/>
				<path class="st5" d="M136.9,155.2c0.2,3.4-0.4,6.6-1.7,9.6c0.9-2.2,1.4-4.5,1.5-7c0.2-2.9-0.8-4.7-3.4-6.2
					c-15.8-9.2-31.6-18.4-47.4-27.6c4.1-2.3,8.2-4.7,12.3-7c12.3,7.2,24.6,14.3,36.9,21.5c0.3,2.1,0.5,4.2,0.8,6.3
					C136.2,148.2,136.6,151.7,136.9,155.2z"/>
				<path class="st6" d="M133.3,168.2c0.7-1.1,1.3-2.2,1.8-3.3c-0.9,2.2-2.1,4.3-3.8,6.2c-4.8,5.8-10.9,9.7-17.9,12.2
					c-10.1,3.6-20.6,4.5-31.3,4.1c-7.1-0.3-14.1-1-20.9-3.2c-6.1-2-12.5-3.9-17.3-8.2c-4.5-4-8.9-7.2-11-13
					c-1.7-4.6,2.2-9.8,2.6-13.4c0.4-3.9,0.9-7.8,1.4-11.7c0.4-0.2,0.8-0.5,1.2-0.7c11.9-6.8,23.8-13.6,35.7-20.3c4,2.3,8,4.7,12,7
					c-16.3,9.3-32.6,18.6-48.9,27.9c-1.9,1.1-2.7,2.4-2.7,4.4c-0.2,5.2,1.7,9.7,4.8,13.9c3.7,4.9,8.6,8.4,14.2,10.9
					c5.4,2.5,11.1,3.9,17,4.9c7.8,1.2,15.6,1.1,23.4,0.8c9.1-0.4,17.9-2.5,26.1-6.5C125.3,177.4,129.9,173.4,133.3,168.2z"/>
				<path class="st5" d="M123.2,26.7c4.2,3.3,7.1,7.3,8.8,12c-2.5-5.7-6.7-10.4-13-13.7c-3-1.6-6.1-3.1-9.4-4.2
					c-13.9-4.6-28.1-4.8-42.3-1.6c-7.7,1.7-14.6,4.8-20.7,9.8c-3.6,3-6.3,6.6-7.8,10.8c1.7-5.5,5.3-9.9,10.1-13.6
					c6-4.6,12.9-7.2,20.2-8.7C83,14.7,96.6,15,110,19.6C114.8,21.2,119.2,23.5,123.2,26.7z"/>
				<path class="st7" d="M128,82.6c0.4,2.7,0.1,3.4-2.5,4.9c-9.2,5.2-18.4,10.5-27.6,15.8c-4-2.3-7.9-4.6-11.9-6.8
					c13.5-7.6,27-15.3,40.6-22.9c0.2,1.1,0.4,1.8,0.5,2.5C127.4,78.1,127.7,80.4,128,82.6z"/>
				<path class="st5" d="M98.2,116.9c-4.1,2.3-8.2,4.7-12.3,7c-4-2.3-8-4.7-12-7c4.1-2.3,8.2-4.7,12.3-7
					C90.1,112.3,94.2,114.6,98.2,116.9z"/>
				<path class="st6" d="M86.1,96.4c-3.9,2.2-7.9,4.4-11.8,6.6c-12.7-7.4-25.5-14.9-38.2-22.3c-0.8-0.5-1.6-0.8-2.7-1.5
					c-0.1,0.6-0.2,1.2-0.3,1.6C33,81.5,33,82,32.9,82.3C32.7,84,31.2,95.6,31,97c-0.4,2.7-0.4,2.6-1.2,7.8c-0.1,0.5-0.3,1.9-0.5,3.5
					c1-7.6,2.1-15.1,3.1-22.7C34.2,71.8,36,58,37.9,44.3c0.2-1.6,0.6-3,1-4.5c-0.5,1.5-0.8,3.1-1,4.8c-0.1,1-0.2,1.9-0.4,2.9
					c-0.7,5.7-1.5,11.5-2.2,17.2c-0.2,1.6,0.3,2.6,1.8,3.5C53.5,77.6,69.8,87,86.1,96.4z"/>
				<path class="st6" d="M74.3,103c-4.1,2.3-8.2,4.6-12.3,7c-4.3-2.5-8.6-5-12.8-7.5c-2.2-1.3-4.3-2.5-6.9-4
					c-0.2,1.2-0.4,1.9-0.5,2.7c-0.7,5.3-1.4,10.6-2.1,16c-0.2,1.9-0.5,3.9-0.8,5.8c-3.9,2.2-7.9,4.4-11.8,6.7
					c-0.2-0.1-0.3-0.2-0.5-0.3c0-0.4,0.1-0.8,0.1-1.2c0,0,0-0.1,0-0.1c0.1-0.5,0.1-1.1,0.3-2.1c0.3-2.3,0.1-0.7,1-8
					c0.3-2.5,0.5-4,0.6-5c0.1-0.5,0.1-1,0.2-1.3c0.1-0.8,0.2-1.7,0.3-2.5c0-0.3,0.1-0.6,0.1-1c0.2-1.6,0.5-3,0.5-3.5
					c0.8-5.1,0.9-5,1.2-7.8c0.2-1.4,1.7-13,1.9-14.7c0-0.3,0.1-0.8,0.2-1.4c0.1-0.5,0.2-1,0.3-1.6c1.1,0.6,1.9,1,2.7,1.5
					C48.8,88.2,61.6,95.6,74.3,103z"/>
			</g>
			<g>
			</g>
		</g>
	</g>
</g>
<text transform="matrix(0.8634 -0.5046 0.5046 0.8634 43.4917 130.4445)" class="st8 st9">Repair</text>
<text transform="matrix(0.8436 0.537 -0.537 0.8436 106.4415 118.7791)" class="st8 st9">Re-use</text>
<text transform="matrix(1 0 0 1 70.4549 172.9797)" class="st8 st9">Recycle</text>
</svg>
