<?xml version="1.0" encoding="utf-8"?>
<!-- Generator: Adobe Illustrator 24.1.0, SVG Export Plug-In . SVG Version: 6.00 Build 0)  -->
<svg version="1.1" id="Layer_1" xmlns="http://www.w3.org/2000/svg" xmlns:xlink="http://www.w3.org/1999/xlink" x="0px" y="0px"
	 viewBox="0 0 1366 768" style="enable-background:new 0 0 1366 768;" xml:space="preserve">
<style type="text/css">
	.st0{fill:#FEFEFE;}
	.st1{fill:#DBB581;}
	.st2{fill:#303E58;}
	.st3{fill:#BE9767;}
	.st4{fill:#E1BB88;}
	.st5{fill:#BF925D;}
	.st6{fill:#D1A15E;}
	.st7{fill:#CFA264;}
	.st8{fill:#D7AC71;}
	.st9{fill:#D7AE75;}
	.st10{fill:#B08A5D;}
	.st11{fill:#D6C0A3;}
	.st12{fill:#C9A470;}
	.st13{fill:#B0814E;}
	.st14{fill:#B2854B;}
	.st15{fill:#AB7F51;}
	.st16{fill:#AC8152;}
	.st17{fill:#C6A37C;}
	.st18{fill:#E3C393;}
	.st19{fill:#AB8656;}
	.st20{fill:#69574A;}
	.st21{fill:#E5C089;}
	.st22{fill:#49566E;}
	.st23{fill:#C8A779;}
	.st24{fill:#C59E66;}
	.st25{fill:#B39263;}
	.st26{fill:#AA8354;}
	.st27{fill:#9F764E;}
	.st28{fill:#3B4963;}
	.st29{fill:#26334A;}
	.st30{fill:#F3D6A9;}
	.st31{fill:#586A8C;}
	.st32{fill:#E2BC83;}
	.st33{fill:#A88156;}
	.st34{fill:#C9B18E;}
	.st35{fill:#9B7548;}
	.st36{fill:#3A4862;}
	.st37{fill:#D1A36A;}
	.st38{fill:#CD9C64;}
	.st39{fill:#C59661;}
	.st40{fill:#C89B66;}
	.st41{fill:#D4A46A;}
	.st42{fill:#D1A16A;}
	.st43{fill:#303D52;}
	.st44{fill:#9F7547;}
	.st45{fill:#A6773F;}
	.st46{fill:#856439;}
	.st47{fill:#D5A971;}
	.st48{fill:#37445D;}
	.st49{fill:#33415A;}
	.st50{fill:#E2AC64;}
	.st51{fill:#222F45;}
	.st52{fill:#B08D5D;}
	.st53{fill:#D7B283;}
	.st54{fill:#31333F;}
	.st55{fill:#F0CB8F;}
	.st56{fill:#A2733A;}
	.st57{fill:#9C7646;}
	.st58{fill:#F3D5A5;}
	.st59{fill:#D8AE6E;}
	.st60{fill:#424F64;}
	.st61{fill:#2E2727;}
	.st62{fill:#B5844C;}
	.st63{fill:#8F6638;}
	.st64{fill:#967851;}
	.st65{fill:#7A6245;}
	.st66{fill:#CA9152;}
	.st67{fill:#28364C;}
	.st68{fill:#37455E;}
	.st69{fill:#121B2A;}
	.st70{fill:#121A28;}
	.st71{fill:#C9A46C;}
	.st72{fill:#AD8552;}
	.st73{fill:#45392F;}
	.st74{fill:#C79358;}
	.st75{fill:#2C3646;}
	.st76{fill:#454D5C;}
	.st77{fill:#616570;}
	.st78{fill:#24344C;}
	.st79{fill:#555C69;}
	.st80{fill:#717780;}
	.st81{fill:#7F6446;}
	.st82{fill:#C09865;}
	.st83{fill:#474C57;}
	.st84{fill:#6F7379;}
	.st85{fill:#74787F;}
	.st86{fill:#4F5563;}
</style>
<g>
	<g>
		<path class="st0" d="M970.9,384c0,94.64-0.02,189.27,0.1,283.91c0,3.42-0.67,4.1-4.09,4.09c-189.27-0.11-378.54-0.11-567.81,0
			c-3.42,0-4.1-0.67-4.09-4.09c0.11-189.27,0.11-378.54,0-567.81c0-3.42,0.67-4.1,4.09-4.09c189.27,0.11,378.54,0.11,567.81,0
			c3.42,0,4.1,0.67,4.09,4.09C970.88,194.73,970.9,289.36,970.9,384z"/>
		<path class="st1" d="M640.83,586.83c-1.48-4.43-5.56-6.48-8.75-9.23c-22.75-19.66-45.1-39.82-68.72-58.39
			c-9.39-7.38-9.75-16.18-10.12-25.74c-0.76-19.57-0.86-39.16-1.49-58.73c-0.73-22.58-1.73-45.14-2.61-67.71
			c1.03-0.12,1.53,0.55,1.76,1.37c1.24,4.47,1.29,9.39,5.42,12.62c-0.25,0.16-0.24-0.15-0.13-0.49c0.53-1.69,0.74-4.11,3.13-3.71
			c2.26,0.38,1.99,2.81,2.03,4.55c0.27,12.11-0.05,24.21,0.34,36.33c0.39,12.17,0.83,24.33,2.09,36.43
			c0.28,2.65-0.85,5.29,0.28,7.87c0.91,6.38,1.17,12.71-0.27,19.1c-1.24,5.52,0.94,11.17-0.07,16.75c0.31,0.89,0.63,1.78,1.2,2.55
			c1.69,2.31,4.43,3.41,6.46,5.48c-1.54-2.1-2.97-4.22-2.16-6.98c0.18-0.45,0.46-0.83,0.83-1.14c8.61,5.34,16.11,12.15,24.12,18.27
			c3.16,2.41,6.2,5.02,9.31,7.52c1.43,1.15,2.83,2.34,3.28,4.26c0.2,2.45-1.26,3.59-3.53,4.2c7.09,5.62,13.78,11.51,20.72,17.08
			c4.12,2.96,6.9,7.8,13.01,8.71c-0.96-3.23-0.57-6.56-0.33-10.4c-0.52,2.07,0.91,4.22-1.66,4.74c-1.48,0.3-1.46-1.41-1.44-2.59
			c-0.13-12.88-0.11-25.74-0.03-38.61c-0.17-11.02,0.92-22.07-0.64-33.06c-0.9-11.13-0.25-22.29-0.42-33.43
			c0.12-6.64,0.67-13.29-0.36-19.91c-0.18-0.58-0.28-1.17-0.34-1.77c-0.04-3.53-0.91-7.14,0.88-10.52c2.04-0.81,2.19,0.75,2.3,2
			c0.21,2.48,0.13,4.98,0.09,6.63c1.11-4.31-1.8-9.83,1.17-15.31c3,2.48,2.97,5.5,3.22,8.4c0.9,10.42,0.73,20.9,1.65,31.32
			c0.18,2.06,0.04,4.59-2.48,4.65c-2.66,0.06-2.51-2.58-2.52-4.57c-0.02-3.15-0.09-6.31,0-8.59c0.59,5.03-1.66,11.25,2.5,16.73
			c1.04,1.37-0.12,3.19-0.35,4.81c-0.63,4.43-2.46,9.02,1.68,12.97c1.17,1.12,1.1,3.08,1.15,4.76c0.45,17.61,2.35,35.13,3.22,52.71
			c0.52,10.45,1.04,20.89,2.18,31.29c0.25,2.33,0.2,4.69,2.39,6.23c0.02,5.88-0.89,11.69-1.3,17.54
			C647.17,588.49,643.72,587.28,640.83,586.83z"/>
		<path class="st2" d="M546.89,197.25c12.58-2.56,25.4-2.75,38.13-3.74c28.72-2.22,57.32-5.57,85.94-8.71
			c10.05-1.1,20.06-2.96,30.25-2.62c5.58-0.33,6.4,3.98,7.68,7.86c0.88,3.18,2.23,6.27,1.96,9.68c-1.98,4.3,1.83,8.27,0.79,12.56
			c-0.09,0.37,0.54-0.88,1.14-0.36c1.23,0.98,1.17,2.3,1.01,3.66c-1.16,5.01,1.04,9.86,0.65,14.88c-0.47,6.09-1.69,7.64-7.59,6.64
			c-6.92-1.17-13.62,0.15-20.24,1.52c-13.39,2.78-26.95,4.26-40.49,5.97c-21.29,2.69-42.81,3.38-63.95,7.36
			c-4.08,0.77-8.25,0.9-12.33,1.85c-2.59,0.6-4.98-0.24-6.09-3.07c0.14-1.9,1.57-2.27,3.07-2.69c6.73-1.87,13.7-2.37,20.51-3.7
			c25.31-4.94,51.21-5.58,76.5-10.58c7.8-1.54,15.61-3.11,23.35-4.99c3.62-0.88,7.27-0.66,10.23-3.89c1.47-1.6,3.99,0.51,5.91,1.43
			c1.16,0.56,2.28,1.71,3.67,0.88c1.38-0.83,1.12-2.33,0.9-3.62c-1.19-7.22-2.25-14.47-3.71-21.64c-0.23-1.12-0.39-2.5-1.58-2.96
			c-1.6-0.61-2.31,0.94-3.2,1.81c-2.48,2.43-3.7,5.43-4,8.9c-0.16,1.88,0.45,4.61-1.9,5.14c-2.23,0.5-3.02-2.18-4.23-3.69
			c-0.93-1.17-1.98-2.28-2.72-3.57c-1.82-3.2-4.2-4.32-7.89-3.06c-3.81,1.3-7.43-1.01-11.26-1.21c-15.72-0.81-31.2,1.09-46.67,3.39
			c-10.7,1.59-21.52,1.65-32.27,2.53c-5.76,0.47-11.34,2.65-17.28,1.66c-2.13-0.36-3.43,1.55-4.46,3.42
			c-2.33,4.22-3.86,4.21-6.43,0.12c-1.41-2.24-2.15-4.9-4.17-6.75c-0.98-0.82-1.75-1.78-2.06-3.06c-0.01-0.05-0.29-0.11-0.39-0.06
			c-0.12,0.06-0.18,0.23-0.29,0.39c-0.31,0.29-0.65,0.4-1.05,0.35C549.85,203.06,547.57,200.69,546.89,197.25z"/>
		<path class="st3" d="M813.79,534.97c-24.26-15.67-48.52-31.34-72.78-47.01c-3.74-4.54-8.14-8.43-12.52-12.29
			c-3.49-3.07-5.69-10.24-3.85-14.74c2.82-1.7,4.46,1.91,6.99,1.55c7.57,2.45,13.5,7.7,19.99,11.93
			c11.53,7.51,23.53,14.27,34.96,21.91c5.38,3.6,12.08,4.6,16.94,9.11c0.76,0.71,1.89,0.41,2.77-0.23c0.61-0.37,1.24-0.63,1.93-0.19
			c1.14,1.44,0.92,3.56,2.45,4.82c1.8,1.48,3.72,2.8,5.76,3.92c3.43,1.87,2.01-4.06,4.92-3.15c2.35,1.41,1.95,3.8,2.14,5.98
			c-2.29,5.01-2.42,10.45-2.97,15.79c-0.18,1.72-0.32,3.25-1.91,4.25C816.58,537.32,815.05,536.54,813.79,534.97z"/>
		<path class="st4" d="M713.96,441.96c-2.65,0.32-5.31,0.64-7.96,0.96c-0.16-2.08,2.05-1.53,2.45-2.11
			c-6.49,1.71-13,4.95-20.15,6.37c-7.91,1.57-15.62,3.86-22.88,7.53c-1.5,0.76-3.31,2.21-4.66-0.37c1.89-2.85,5.3-3.67,7.71-5.86
			c-1.65-0.41-4.19-1.07-3.45-2.99c1.38-3.58-1.09-2.77-2.74-3.12c-2.99-0.15-5.95-0.38-9.38-3.43c9.37-0.92,17.68-1.73,26.09-2.27
			c-6.89,0.07-13.65,1.46-20.49,1.52c-0.82,0.01-1.64,0.35-2.45,0c-0.87-0.37-2.08-0.53-1.91-1.86c0.12-0.95,1.05-1.19,1.84-1.39
			c1.62-0.41,3.3-0.35,4.96-0.39c9.41-0.24,18.69-1.67,27.98-2.94c0.63-0.29-0.3-1.16,0.06-0.6c0.05,0.08-0.04,0.17-0.29,0.25
			c-6.23,1.8-12.71,1.9-19.08,2.68c-1.42,0.17-3.07,0.26-3.83-1.54c1.88-3.85,5.67-3.16,8.91-3.79c10.01-0.28,19.88-2.1,29.57-4.16
			c15.46-3.29,31.12-5.4,46.59-8.59c7.23-1.49,13.69-5.23,20.98-6.41c2.45-0.4,4.87-1.34,7.46,0.92
			c-11.9,7.33-25.68,8.07-38.32,12.27c7.02-2.03,14.08-3.81,21.27-5.19c6.17-1.18,11.63-4.64,17.57-6.69
			c0.92-0.32,1.74-0.98,2.74-1.13c0.81-0.12,1.68-0.27,2.23,0.58c0.43,0.67,0.09,1.4-0.33,1.81c-2.11,2.08-1.8,4.25-0.92,6.84
			c0.93,2.77-2.35,4.68-2.17,7.46c-2.01,2.66-4.85,2.52-7.72,2.3c-1.85-1.06-0.09-2.34-0.25-3.8c-5.47,3.38-11.61,4.56-17.69,5.59
			c-2.22,0.38,0.31,1.7-0.85,1.79c-5.59,2.57-11.67,3.41-17.58,4.79c-3.56,0.83-4.87,2.58-4.94,6.14c-0.06,2.75,1.27,6.05-2.01,8.07
			c-2.53-2.12-1.23-5.06-1.67-7.64c-0.26-1.53,0.98-3.76-1.81-4.23C722.3,439.1,718.52,442.43,713.96,441.96z"/>
		<path class="st5" d="M822.94,516.95c-1.55-1.7-0.16-4.4-2.03-6c-1.11-0.97-1.39-2.32-1.29-3.63c0.87-11.23-0.8-22.53,0.88-33.73
			c0.17-1.15,0.3-2.31,0.96-3.3c2.95-0.99,1.37,1.89,1.78,2.24c-0.48-9.9-0.5-20.17,1.88-30.35c0.13-0.55-1.39,0.54-1.92-0.36
			c-1.59-1.54-1.9-3.58-1.58-5.51c1.07-6.52,0.41-13.17,1.66-19.66c-0.13-7.21,1.53-14.31,1.2-21.53
			c-0.31-7.18,1.49-14.27,1.02-21.46c0.01-0.59,0.03-1.18,0.04-1.77c0.12-3.18-0.16-6.38,0.34-9.55c0.36-1.28,0.58-2.59,0.6-3.93
			c0.12-7.82-0.02-15.64,0.98-23.44c0.72-5.68-0.72-11.34,0.55-17.23c1.07-4.98-2.35-9.86-4.67-14.47c-1.3-1.99-3.29-3.1-5.21-4.37
			c-1.13-0.75-3.45-1.28-1.61-3.52c3.75-1.18,6.94,1.28,10.46,1.62c0.38,0.3,0.77,0.6,1.15,0.9c1.08,1.42-3.71-0.32-1.06,2.03
			c6.6,5.88,6.62,13.83,6.29,21.66c-0.12,2.82,0.12,5.37,0.48,8.13c0.53,4.17,0.88,8.52,0.56,12.5c1.21-2.43-2.04-5.84,1.5-8.2
			c0.14,16.12-1.8,32.13-2.38,48.21c-0.67,18.73-1.93,37.44-2.86,56.17c-1.13,22.7-2.19,45.41-3.28,68.11
			c-0.17,3.48-0.36,6.96-0.54,10.44C825.54,517.98,824.24,518.13,822.94,516.95z"/>
		<path class="st6" d="M547.04,316.03c-0.42-8.47-0.85-16.95-1.25-25.42c-0.11-2.37,0.07-4.38,2.61-5.91
			c3.79-2.3-0.32-5.8,0.73-8.65c2.79,0.05,4.27,1.93,4.8,4.22c0.73,3.14,2.65,5.38,4.87,7.28c10.85,9.26,23.18,15.85,36.89,19.84
			c1.13,0.33,2.3,0.29,3.44,0.47c3.48,0.68,6.79,1.93,10.07,3.24c2,1.35,5.22,0.82,6.07,3.93c-1.32,2.35-3.32,1.72-5.23,1.12
			c-2.2-0.69-4.26-1.84-6.62-2.01c-4.69-2.81-10.54-1.4-15.54-4.53c0.12,3.08,1.13,5.83-0.13,8.47c-1.33,2.8,0.17,4.41,2.43,5.64
			c2.05,1.11,4.1,2.24,5.99,3.61c0.86,0.62,2.39,1.18,1.65,2.6c-0.63,1.22-2.06,0.96-3.15,0.55c-5.7-2.13-10.63-5.54-15-9.68
			c-3.75-3.55-7.42-7.16-11.5-10.36c-1.82-1.43-3.64-2.73-7.27-2.64c9,2.48,11.17,9.27,13.38,16.04c0.26,8.47-0.08,9.03-7.2,11.84
			c-0.87,0.11-1.68-0.02-2.36-0.62c-1.15-2.31-0.64-4.73-0.48-7.12c1.51-2.7,2.54,0.18,3.81,0.36c1.27-5.56,0.92-6.5-3.3-8.86
			c-0.6,5.6-1.02,11.17-0.49,16.77c0.2,2.13,0.36,4.28-0.43,6.35c-0.12,0.31-0.4,0.63-0.16,1.01c0.19-0.55,0.63-0.66,1.15-0.65
			c2.99,3.63,1.31,7.89,1.65,11.88c-0.03,3.28,0.45,6.6-0.65,9.82c-0.63,1.11-1.46,1.84-2.85,1.52c-0.45-0.49-0.87-1.04-0.93-1.71
			c-1.37-15.54-5.63-30.65-6.97-46.2c-0.06-0.66-0.01-1.32,0.14-1.96c0.79-1.96,2.19-1.51,3.74-0.86c-1.13-1.73-2.21-0.85-3.29-0.12
			c-2.05,0.27-3.28,1.03-2.96,3.51c0.27,2.11,0.22,4.26,0.55,6.39c0.77,4.97,0.4,5.39-4.26,5.72c-2.06,0.15-1.28-1.4-1.4-2.32
			C547.06,324.41,548.45,320.16,547.04,316.03z"/>
		<path class="st7" d="M546.89,197.25c2,2.62,4,5.25,6.01,7.87c0.99,0.84,0.99,1.84,0.46,2.91c-1.39,1.15-2.83,0.55-4.23,0.12
			c-1.49,0.82-0.44,1.89-0.22,2.81c5.23,22.36,9.6,44.88,13.11,67.56c0.31,1.99,0.55,3.96-0.23,5.9c-3.74,1.64-6.28,0.39-8.14-3.92
			c-0.98-2.27-1.35-5.13-4.69-5.34c-3.25-11.17-3.72-22.88-6.68-34.12c-1.95-7.37-3.3-14.9-4.93-22.35
			c-0.36-1.62-0.87-3.22-1.12-4.86C534.55,202.98,536.7,199.67,546.89,197.25z"/>
		<path class="st8" d="M547.04,316.03c0.91-0.22,2.4-0.77,1.79,0.96c-1.5,4.27-0.31,8.59-0.91,13.12c1.89-0.72,0.46-2.66,1.73-3.29
			c1.77,0.01,0.82,2.51,2.45,2.67c0.2-0.23,0.58-0.48,0.55-0.67c-0.6-4.17-1.81-8.34-1.72-12.48c0.09-3.92,2.95-2.07,4.96-1.26
			l0.09,0.08c1.02,9.39,3.25,18.63,4.34,27.96c0.89,7.62,4.19,15,2.72,22.89c2.46,3.38,1.06,7.27,1.36,10.92
			c0.2,2.43,0.18,4.9,0.09,7.34c-0.53,10.66-0.75,21.32,0.2,31.96c0.08,0.53,0.08,1.07,0.01,1.6c-1.61,2.99-0.41,6.11-0.39,9.18
			c0.06,9.29,0.42,18.56,1.25,27.82c0.16,0.47,0.27,0.96,0.34,1.46c0.16,2.46-0.79,4.36-2.87,5.7c-2.61-2.27-0.14-4.96-0.42-7.48
			c-1.11-9.91-1.8-19.88-2.1-29.89c-0.45-15.16-0.32-30.32-0.52-45.47c-0.01-0.63-0.05-1.36-1.04-1.55
			c-2.5,1.88-1.13,5.52-3.39,8.43c-0.8-3.67,0.04-7.43-4.91-7.93c-1-0.1,0.65-4.8-0.52-7.37c-0.5-1.1,0.24-2.67-0.98-3.68
			C548.31,350.03,546.96,333.06,547.04,316.03z"/>
		<path class="st9" d="M661.04,454.03c2.89,2.31,5.06-0.58,7.16-1.44c5.34-2.17,9.88-6.72,16.45-4.69c0.73,0.23,1.73,0.1,1.65-1.17
			c-0.04-0.7,0.05-1.65,0.82-1.53c8.47,1.32,14.94-4.69,22.66-6.08c0.12-0.02,0.27,0.17,0.45,0.29c-0.18,2.64-3.1,2-4.22,3.5
			c-15.71,5.07-31.39,10.26-47.17,15.14c-3.82,1.18-5.46,2.87-4.99,7.02c0.41,3.6,0,7.3-0.05,10.95c-0.46,7.3-0.59,14.59,0.06,21.89
			c0,1.36,0,2.72,0,4.08c-0.58,6.97-0.66,13.95,0.04,20.92c0.05,14.32,0.11,28.65,0.16,42.97c-1.27,1.07-2.65,1.26-4.15,0.56
			c-1.73-1.12-2.2-2.9-2.22-4.76c-0.05-6.96-1.56-13.89-0.49-20.87c2.91-3.17,3.64-6.57,2.11-10.82c-1.04-2.89-0.85-6.12-0.26-9.31
			c1.22-6.54,0.78-13.17,0.28-19.76c-0.17-2.19-0.6-4.42,0.65-6.27c2.09-3.11-2.96-4.14-1.77-6.87c0.13-0.5,0.35-0.94,0.65-1.36
			c0.32-0.56,1.15-0.92,0.95-1.66c-3.08-11.86,0.14-23.72,0.06-35.58c-0.02-2.82,0.39-5.58-0.62-8.34c-0.81-2.21-0.74-4.6-0.45-6.92
			c0.46-3.56,2.04-4.43,4.83-1.75c2.19,1.14,4.2-0.1,6.27-0.45c2.05-0.35,4.15-1.53,6.12,0.27c2.74,1.94,5.72,0.91,8.61,0.62
			c5.07-0.52,10.13-1.12,15.25-1.16c-11.47,2.45-22.94,4.76-35.79,4.64c3.12,2.39,5.9,1.5,8.27,1.15c2.96-0.44,5.97,0.24,8.91-0.78
			c2.71-0.95,5.59-0.38,8.44,0c-8.08,2.06-16.44,1.95-24.93,2.86c3.06,1.59,6.14,1.78,9.26,1.76c-2.24,2.26-2.24,2.26-7.57,1.67
			c2.46,2.12,3.35,5.1,5.99,6.92c1.72,1.19,0.09,2.54-1.17,3.43C661.6,453.5,658.8,453.08,661.04,454.03z"/>
		<path class="st10" d="M713.96,441.96c4.06-2.26,8.38-3.66,13.05-3.92c0.51,7.74,1.91,15.56-2.03,22.9
			c-0.31,2.82-1.64,5.91,1.98,7.72c-2.36,5.43,3.63,5.46,5.28,8.27c1.99,3.41,5.24,5.35,7.95,7.92c0.53,0.5,4.05,1.24,0.82,3.1
			c-5.02-3.16-10.18-6.12-15-9.56c-2.55-1.82-5.75-1.77-8.17-4.79c-2.88-3.59-4.13-6.86-4.02-11.19
			C713.99,455.6,713.93,448.78,713.96,441.96z"/>
		<path class="st11" d="M826.99,296.99c-3.67-0.36-7.34-0.71-11.01-1.07c-4.82,0.32-8.56-2.97-13.03-3.88
			c-1.92-0.39-3.68-1.35-5.62-1.76c-16.28-6.12-33.87-7.93-49.83-15.11c-1.5-0.68-3.15-1.06-4.44-2.17
			c-1.3-1.78-3.29-3.21-3.13-5.79c6.92,2.66,13.47,6.16,20.48,8.66c13.13,4.69,26.97,6.69,40.13,11.2
			C809.47,290.11,818.44,293,826.99,296.99z"/>
		<path class="st12" d="M712.15,186.9c3.19,6.62,3.91,13.87,5.39,20.93c2.63,12.6,4.98,25.25,6.73,38.01
			c0.29,1.14,0.26,2.3,0.18,3.45c-0.18,2.57-1.43,2.08-2.85,0.92c-2.09-10.63-4.84-21.15-6-31.94c-0.48-4.51-2.14-8.69-2.83-13.11
			c-0.61-5.92-0.92-11.94-5-16.84C707.95,185.03,708.34,184.9,712.15,186.9z"/>
		<path class="st13" d="M835.9,334.02c-2.02,3.1-0.22,6.75-1.53,10.69c-0.99-3.81,0.73-7.72-2.84-10.14
			c-0.67-0.45,0.38-1.35,0.99-1.92c0.45-0.42,1.04-1.49,0.99-1.52c-5.47-4.19-0.72-9.46-1.24-14.15c-0.79-7.01-1.9-13.32-7.88-17.96
			c1.17-1.48,2.63-0.74,3.75-1.12c4.86,2.98,6.97,7.63,7.87,13.01c0.69,6.76,0.67,13.52,0.01,20.28
			C835.98,332.13,835.94,333.07,835.9,334.02z"/>
		<path class="st14" d="M548.96,275.17c0.52-0.78-0.56-4.17,2.11-1.43c1.11,1.14,1.91,2.75,2.37,4.29c1.17,3.86,3.66,6.13,7.49,7.07
			c2.58,0.5,3.73,2.85,5.56,4.31c1.03,1.08,2.11,2.1,3.4,2.87c2.31,1.65,4.24,3.83,6.94,4.93c3.79,2.61,8.03,4.31,12.27,6.02
			c1.24,0.65,2.47,1.3,3.77,1.82c1.98,1.41,5.44,0.58,6.11,3.99c-12.08-2.51-23.28-7.02-33.06-14.67c-4.02-3.15-9.05-5.2-11.65-9.9
			c-1.6-2.9-1.81-6.6-5.15-8.44C548.96,275.77,548.9,275.48,548.96,275.17z"/>
		<path class="st15" d="M649.96,565.88c1.37,0.01,2.74,0.01,4.11,0.02c0.09,4.32,0.26,8.65,0.24,12.97
			c-0.04,7.12-6.55,10.93-13.48,7.97c0.2-0.41,0.41-0.82,0.62-1.23c6.13,3.11,4.44-1.96,5.04-4.76c1-4.62-1.03-9.74,2.35-13.95
			C648.79,566.1,649.1,565.68,649.96,565.88z"/>
		<path class="st16" d="M822.94,516.95c1.3,0,2.6,0,3.89,0.01c-0.02,2.95-0.21,5.91-0.03,8.84c0.34,5.35-1.5,9.24-6.78,11.1
			c-0.61-0.04-0.94-0.39-1.08-0.96c0.42-4.18,0.87-8.36,1.23-12.55C820.41,520.92,820.5,518.45,822.94,516.95z"/>
		<path class="st17" d="M739.95,267.2c0.87,1.7,3.08,2.55,3.05,4.82c-2.9,1.03-5.16-0.34-7.35-1.97c-2.29-1.72-4.87-2.96-7.34-4.34
			c-0.24-0.05-0.67-0.51-0.64-0.29c0.19,1.17,0.22,2.19-0.98,2.85c-2.07-0.66-1.91-2.65-2.55-4.18c-0.21-0.76-0.32-1.53-0.36-2.32
			c0.23-1.48-0.3-3.41,2.08-3.66c0.28,2.17,2.27,2.14,3.68,2.78C733.28,262.57,736.84,264.52,739.95,267.2z"/>
		<path class="st18" d="M725.87,258.11c-1.4,1.06-0.71,2.63-0.96,3.97c-2.22,0.95-3.26-0.64-3.64-2.19c-0.8-3.33-1.64-6.81,0.8-9.94
			c4.09,0.43,0.88-3.05,2.19-4.1C724.81,249.94,725.34,254.03,725.87,258.11z"/>
		<path class="st19" d="M712.15,186.9c-0.76,2.26-3.95-3.15-4.03,1.27c0.41,0.74,0.49,1.45-0.2,2.09c-1.67-3.17-2.03-7.42-6.71-8.07
			C705.69,181.83,710.12,181.59,712.15,186.9z"/>
		<path class="st1" d="M653.86,497.92c-1.4-7.29-1.33-14.59-0.06-21.89C653.82,483.33,653.84,490.63,653.86,497.92z"/>
		<path class="st1" d="M653.91,522.92c-1.51-6.97-1.43-13.94-0.04-20.92C653.88,508.98,653.89,515.95,653.91,522.92z"/>
		<path class="st5" d="M836.02,331.18c0-6.76-0.01-13.52-0.01-20.28C838,317.66,837.29,324.42,836.02,331.18z"/>
		<path class="st20" d="M818.96,535.94c0.36,0.32,0.72,0.64,1.08,0.96c-2.73,1.45-5.33,2.49-6.24-1.93
			C815.42,535.79,817.08,536.41,818.96,535.94z"/>
		<path class="st0" d="M633.88,444.24c0.11,11.26,0.21,22.53,0.32,33.79c0.69,9.24,0.09,18.5,0.32,27.75
			c0.04,1.8-0.37,3.64,0.38,5.39c0.03,11.58,0.09,23.15,0.05,34.73c-0.01,1.72,0.77,3.66-0.88,5.14c-2.68-0.92-4.62-2.9-6.76-4.61
			c-5.14-4.72-10.79-8.84-16.09-13.37c-1.87-1.61-4.09-2.91-5.14-5.32c-10.29-9.4-21.61-17.55-32.38-26.36
			c-1.26-1.04-2.34-2.3-3.5-3.46c-2.82-2.19-2.39-5.37-2.56-8.38c0-5.19,0-10.39-0.02-15.58c-0.32-7.67,0.76-15.39-0.66-23.03
			c-0.81-7.64-0.25-15.3-0.38-22.95c-0.07-3.85-1.05-7.57-0.98-11.39c0.04-2.15-0.09-4.36,1.27-6.25c0.93-1.19,2.24-1.83,3.6-2.38
			c7.65-2.51,15.42-4.62,23.26-6.5c3.56,0.03,6.05,2.53,8.93,4.04c8.94,4.69,17.61,9.89,26.7,14.29c1.52,0.74,2.89,1.63,3.56,3.29
			c0.04,0.33,0.12,0.65,0.22,0.97C634.18,430.74,632.8,437.54,633.88,444.24z"/>
		<path class="st21" d="M649.96,565.88c-0.38,0.34-0.75,0.68-1.13,1.02c-2.43,0.15-3.79-0.83-3.82-3.41
			c-0.13-10.74-1.9-21.35-2.2-32.12c-0.32-11.34-1.3-22.7-2.44-34.03c-0.69-6.88-1-14.01-0.58-21.04c0.15-2.52-0.4-3.43-2.93-4.13
			c-0.87-0.24-0.9-0.86-0.81-1.48c0.66-4.82-1.59-9.94,1.55-14.53c0.37-0.55,0.39-1.85,0-2.34c-5.53-6.88-0.91-14.69-2.28-21.94
			c2.8,3.05,1.22,6.75,1.72,10.13c0.36,2.38-1.32,5.97,1.13,6.86c2.44,0.88,1.75-2.27,1.65-3.85c-0.06-0.94-0.86-1.82-1.02-2.78
			c-0.15-0.94,0.13-1.94,0.17-2.92c0.41-10.77-0.95-21.42-2.76-32.1c0,5.58,0,11.17,0,17.59c-4.05-4.26-0.55-9.21-3.09-12.84
			c-1.76-1.5-1.46-3.58-1.48-5.52c-0.07-6.93-0.02-13.85-0.03-20.77c0.08-7.13-0.05-14.26,0.07-21.39c0.1-5.72,1.18-6.39,6.61-4.49
			c1.7,0.6,3.26,1.69,5.18,1.54c2.31,0.56,4.58,1.25,6.71,2.36c1.47,1.86,1.06,4.08,1.12,6.2c0.06,2.3,0.2,4.44,1.18,6.7
			c1.59,3.66,0.29,7.77-0.18,11.44c-0.85,6.61-0.69,13.05,0.19,19.55c0.29,2.12,1.12,4.18,0.01,6.28c-2.42,2.82-2.6,6.75-2.63,9.76
			c-0.05,5.97-2.6,11.78-0.4,18.04c1.17,3.32-0.06,7.52-0.6,11.3c-0.77,5.4-0.91,10.86-1.67,16.28c-0.57,4.02,0.28,8.25,1.84,12.18
			c0.72,1.83,1.73,3.71-0.03,5.55c0,0.33,0,0.67-0.01,1c-2.01,1.42-1.54,3.56-1.46,5.48c0.59,13.91,0.93,27.82,1.23,41.74
			c0.04,1.65,0.42,3.32-0.76,4.77c0.33,6.7,0.69,13.4,0.97,20.1C649.08,562.05,648.86,564.07,649.96,565.88z"/>
		<path class="st22" d="M632.87,385.38c0.08,8.86,0.16,17.73,0.24,26.59c-0.06,3.7-0.13,7.4-0.2,11.1
			c-12.89-6.95-25.78-13.89-38.67-20.84c-3.32,0.66-5.59-1.6-8.08-3.06c-3.27-1.91-6.64-3.67-9.68-5.97
			c-2.52-2.69-3.2-6.2-3.98-9.57c-1.21-5.23,2.35-8.51,7.47-6.97c3.52,1.06,6.8,2.69,9.94,4.62c7.57,4.66,15.94,7.36,24.37,9.97
			c5.73,1.77,11.18,4.3,16.48,7.14c0.4,0.37,0.63,0.82,0.71,1.35c-0.04,2.73,0.21,5.47-0.01,8.18c-0.1-3.14,0.35-6.27-0.23-9.43
			c-0.84-4.38-1.15-8.74,0.24-13.07C631.92,384.81,632.38,384.79,632.87,385.38z"/>
		<path class="st23" d="M606.08,527.74c7.61,5.73,15.15,11.56,22.08,18.13c-1.56,1.54-3.22,2.96-5.12,4.06
			c-7.11-5.91-14.22-11.83-21.74-18.08C603.22,530.57,606.36,530.85,606.08,527.74z"/>
		<path class="st24" d="M563.03,461.98c0.04-2.21,2.6-3.57,2-6c3.53,1.05,2.52,4.27,2.86,6.59c0.61,4.09-0.19,8.26,0.09,12.4
			c-0.25,6.46,0.83,12.97-0.8,19.37c-0.59,2.3-1.18,4.63-4.25,4.69c0.08-7.02-1.65-13.89,0.17-21.11
			C564.37,472.93,563.15,467.31,563.03,461.98z"/>
		<path class="st25" d="M623.03,549.93c0.93-2.34,2.11-4.35,5.12-4.06c2.27,1.38,4.28,3.06,5.92,5.17c4.18,0,0.44-3.95,2.63-5.09
			c0.47,4.37,0.93,8.67,1.39,12.97C630.75,559.48,627.81,553.19,623.03,549.93z"/>
		<path class="st26" d="M562.94,499.03c3.35-2.83,3.71-6.89,4.01-10.78c0.34-4.4,0.1-8.84,0.11-13.26c2.4,0.29,1.3,2.18,1.42,3.37
			c0.39,3.85-0.54,7.77,0.52,11.6c0.4,2.65,0.8,5.3,1.2,7.96c-0.07,0.36-0.14,0.71-0.21,1.07c-0.42,5.24-3.45,2.97-6,2.08
			C563.64,500.39,563.29,499.71,562.94,499.03z"/>
		<path class="st24" d="M563.99,501.06c1.7-1.58,5.13,1.86,6.01-2.08c-0.49,3.03,1.38,4.91,3.25,6.83c0.72,0.75,1.13,1.85,0.15,2.6
			c-0.76,0.58-1.5-0.2-2.11-0.75C568.85,505.46,566.42,503.26,563.99,501.06z"/>
		<path class="st21" d="M634.9,511.18c-1.66-7.52-0.48-15.15-0.81-22.72c-0.15-3.47,0.06-6.95,0.11-10.43
			c1.75,3.81,0.66,7.83,0.75,11.73C635.12,496.9,634.94,504.04,634.9,511.18z"/>
		<path class="st21" d="M633.88,444.24c-1.41-6.69-0.58-13.47-0.74-20.21C635,430.71,633.69,437.5,633.88,444.24z"/>
		<path class="st27" d="M622.16,563.51c-1.63-1.56-3.27-3.13-4.9-4.69C620.25,558.94,621.3,561.12,622.16,563.51z"/>
		<path class="st28" d="M555.99,206.08c3.52,1.73,3.97,5.57,5.79,8.47c0.53,0.84,0.89,2.02,1.97,2.05c1.4,0.03,1.11-1.34,1.37-2.23
			c1.32-4.51,4.24-5.58,8.8-4.97c5.88,0.79,11.74-1.1,17.56-1.77c6.56-0.75,13.16-0.73,19.71-1.31c12.7-1.13,25.18-4.32,37.92-4.3
			c8.77,0.02,17.75-1.64,26.35,1.65c0.31,0.12,0.73,0.34,0.94,0.23c10.6-5.74,11.44,4.75,15.76,9.45c0.31,0.34,0.69,0.62,1.88,1.69
			c-0.77-7.13,0.74-12.76,5.87-16.97c0.95-0.78,1.27-2.66,2.86-2.25c1.39,0.36,1.76,2.01,2.04,3.24c1.14,4.99,2.4,9.99,3.02,15.06
			c0.43,3.46,1.02,6.87,1.79,10.25c0.46,1.99-0.1,3.89-1.34,5.06c-1.5,1.4-3.04-0.32-4.42-1.09c-3.07-1.71-6.37-5.74-8.4,1.05
			c-0.09,0.31-0.85,0.59-1.3,0.58c-12.75-0.22-24.53,5.27-37.13,6.19c-9.22,0.67-18.17,3.53-27.43,4.19
			c-5.37,0.38-10.73,1.18-16.05,1.5c-10.59,0.63-20.7,3.93-31.15,4.74c-6.32,0.49-12.1,3.01-18.34,3.43
			c-1.95-2.29-2.4-4.93-1.84-7.81c1.52-2.33,1.07-4.4-0.06-6.94c-3.89-8.69-4.74-18.23-6.92-27.39
			C555.11,207.21,555.55,206.6,555.99,206.08z"/>
		<path class="st29" d="M563.04,242.05c0.35,2.65,0.7,5.3,1.05,7.95c1.49,2.37,3.37,3.04,6.29,2.49c8.91-1.69,17.85-3.24,26.84-4.39
			c15.06-1.94,30.22-3.02,45.31-4.77c13.13-1.52,26.32-2.55,39.24-5.4c5.81-1.28,11.76-1.43,17.51-2.94
			c2.62-0.69,5.17,0.29,7.76,0.85c4.91,1.08,5.96,0.17,5.94-4.77c-0.02-3.47,0.24-6.93-0.77-10.39c-0.52-1.77-0.88-3.97,0.72-5.68
			c3.63,3.27,2.33,7.96,3.46,11.95c0.28,6.93-1.3,13.71-1.75,20.58c-0.29,0.54-0.75,0.75-1.35,0.65c-1.9-1.37-1.51-3.9-2.83-5.56
			c-3.6-1.41-7.2-0.07-10.77,0.05c-14.66,0.49-28.87,4.41-43.37,6.16c-12.85,1.55-25.62,4.08-38.48,4.98
			c-11.08,0.77-22.04,2.95-33.18,2.77c-2.01-0.03-3.91,0.74-5.86,1.15c-5.48,1.15-10.91,1.82-15.49-2.57
			c-2.45-2.63-2.17-6.11-2.87-9.27c-2.44-11.14-4.59-22.34-7.21-33.44c-0.35-1.48-0.54-2.93-0.08-4.41
			c-0.08-0.97-0.16-1.94-0.25-2.92c0,0,0.18-0.08,0.18-0.08c1.66-0.19,1.89,1.28,2.16,2.23c3.07,10.68,4.91,21.67,8.05,32.33
			C563.54,240.41,563.31,241.26,563.04,242.05z"/>
		<path class="st30" d="M715.04,226.93c-0.71-3.97-1.41-7.95-2.12-11.92c0.19-1.14,0.01-2.21-0.69-3.16
			c-1.24-1.44-0.81-3.29-1.2-4.94c0.15-1.82,0.13-3.81,2.96-2.84c2.87,8.96,3.49,18.36,5.19,27.55c1.12,6.06,3.25,12.02,2.91,18.33
			c-0.01,2.73-0.15,5.47,0.01,8.19c0.1,1.78,0.62,3.54,2.83,3.94c0.04,0.65,0.08,1.3,0.12,1.95c-0.68,4.45,0.48,8.61,1.98,12.72
			c0.86,1.51,2.02,2.89,2.12,4.74c-0.83,6.17-0.44,12.4-0.87,18.58c-0.3,4.34-1.07,4.84-4.89,3.61c-1.06-3.67-1.65-7.49-1.65-11.23
			c-0.01-10.47-1.59-20.76-3.08-31.06C718.18,249.83,715.74,238.47,715.04,226.93z"/>
		<path class="st31" d="M563.04,242.05c-2.66-10.87-5.32-21.74-7.95-32.62c-0.39-1.61-0.63-3.25-2-4.39c0-0.96,0-1.92,0-3.11
			c2.15,0.85,1.44,3.24,2.91,4.15c2.04,8.76,4.13,17.52,6.07,26.3c0.39,1.77,2.01,2.62,2.54,4.13
			C565.36,238.65,565.5,240.76,563.04,242.05z"/>
		<path class="st32" d="M713.98,204.08c-2.23,0.06-1.76,1.87-2.06,3.18c-2.92-1.74-2.51-4.45-2.09-7.16
			c-0.64-3.28-1.27-6.56-1.91-9.83c0.06-0.69,0.13-1.39,0.2-2.09C714.25,191.94,712.6,198.57,713.98,204.08z"/>
		<path class="st29" d="M709.83,200.1c0.47,2.45,0.72,4.97,2.09,7.16c0.1,1.53,0.2,3.06,0.31,4.59c-0.24,0.39-0.48,0.78-0.73,1.17
			C711.15,208.69,707.35,204.8,709.83,200.1z"/>
		<path class="st0" d="M730.18,451.04c1.26-2.84,0.78-5.88,0.63-8.78c-0.21-4.02,0.99-5.79,5.25-6.49
			c6.44-1.06,12.71-3.07,19.06-4.68c5.82-1.87,11.45-4.75,17.88-3.28c2.77-0.27,5.56-0.41,8.11-1.72c3.15-2.71,7.29-1.93,10.88-3.08
			c1.38-0.33,2.8-0.39,4.21-0.49c3.26-0.74,6.58-1.04,9.88-1.5c1.98-0.28,4.02-0.55,5.52,1.32c0.58,1.05,0.84,2.2,0.75,3.36
			c-1.37,17.69-1.05,35.45-2.54,53.13c-0.54,6.46-0.09,12.94-0.28,19.41c-0.07,2.28,0.31,4.71-1.67,6.52
			c-0.35,0.28-0.7,0.57-1.05,0.85c-4.62-0.13-7.53-3.71-11.05-5.84c-19.9-11.99-39.63-24.26-59.48-36.33
			c-2.26-1.37-4.69-2.53-6.26-4.82C728.9,456.08,727.76,453.52,730.18,451.04z"/>
		<path class="st33" d="M807.84,504.78c0.18-25.77,1.64-51.49,2.71-77.23c0.08-1.83,0.02-3.66,0.02-5.48
			c1.13-1.68,2.77-2.08,4.65-1.81c1.66,0.93,2.86,0.52,4.16-0.91c1.38-1.53,3.11-2.78,5.45-2.37c-0.51,8.34-2.83,16.61-0.84,25.03
			c1.36,4.34-0.08,8.7-0.24,13.01c-0.18,4.96-0.15,10.08-1.77,14.93c-1.38,13.64-0.36,27.34-1.07,41c-2.06,5.86-1.98,5.72-7.81,2.14
			C809.87,511.1,807.11,509.14,807.84,504.78z"/>
		<path class="st34" d="M731.17,458.95c23.03,14.06,46.06,28.11,69.08,42.19c2.25,1.38,4.36,2.99,6.54,4.49
			c-0.74,4.34-3.35,0.18-4.85,1.07c-0.98-4.18-5.08-3.56-7.8-4.9c-8.59-4.22-16.36-9.81-24.61-14.6
			c-13.11-7.62-25.19-16.88-38.46-24.27C728.9,461.55,728,460.2,731.17,458.95z"/>
		<path class="st35" d="M731.17,458.95c-2.05,1.28-0.72,2.64-0.1,3.98c-2.96,2.2-3.61-2.71-6.09-1.98
			c1.96-7.52,0.05-15.39,2.03-22.91c1.64-0.46,3.15-1.07,3.03,1.81c-0.15,3.72,0.07,7.46,0.13,11.19
			C730,453.74,730.16,456.4,731.17,458.95z"/>
		<path class="st36" d="M666.02,431.97c-4.43-0.39-8.29,3.06-12.84,1.94c-0.92-1.67-1-3.58-1.52-5.36
			c0.97-14.5-0.6-29.05,0.82-43.53c0.44-1.42,1.2-1.43,1.97-0.32c1,1.44,0.92,3.16,0.95,4.82c0.1,5.81-0.08,11.63,0.1,17.49
			c24.41-11.77,50.64-17.34,76.7-23.34c12.63-2.91,25.33-5.57,38.04-8.07c14.66-2.89,29.59-4.22,44.44-5.85
			c4.24-0.47,8.68-0.2,12.05,3.27c0.75,7.27-0.92,14.45-0.91,21.69c-1.42,4.11-5.39,3-8.3,4.07c-0.48,0.2-0.97,0.35-1.46,0.5
			c-6.33,1.76-12.97,1.96-19.29,3.83c-22.8,4.89-45.55,10-68.27,15.19c-17.82,4.07-35.75,7.6-53.56,11.71
			C671.84,430.08,668.92,430.99,666.02,431.97z"/>
		<path class="st37" d="M674.94,429.99c9.36-4.08,19.44-5.55,29.28-7.79c26.75-6.1,53.56-11.99,80.35-17.93
			c4.05-0.9,8.15-1.59,12.23-2.38c3.07,2.75,3.31,4.86,0.52,7.84c-2.28,2.44-4.84,4.78-5.31,8.17c-0.27,1.97,1.36,4.1-0.01,6.19
			c-3.53,1.21-7.17,1.82-10.89,2.01c-3.22-0.78-1.55-2.21-0.35-3.34c1.94-1.82,2.71-3.17,0.48-5.73c-3.16-3.62,1.9-4.25,3.89-7.66
			c-15.57,8.32-31.71,10.23-47.28,14.23c13.1-5.24,27.36-6.9,40.36-13.33c-4.84-0.99-9.32,0.81-13.01,2.47
			c-10.47,4.74-21.7,5.89-32.67,7.94c-10.2,1.91-20.37,4.13-30.61,5.65C692.94,427.65,684.08,429.93,674.94,429.99z"/>
		<path class="st38" d="M683.36,442.04c-1.4-0.42-3.58,0.8-3.83-1.29c-0.18-1.5,1.51-2.37,3.07-2.78
			c8.29-2.18,16.91-2.83,25.08-5.63c2.2-0.76,2.71,0.93,1.66,2.58c-1.19,1.85-2.04,3.9-5.02,4.19
			C697.27,439.79,690.29,441.03,683.36,442.04z"/>
		<path class="st39" d="M661.04,454.03c-1.33,0.61-2.65,1.23-4.93,2.28c1.69-3.27,5.27-2.92,6.25-5.83
			c-5.1-0.54-4.03-7.41-10.17-8.22c4.68-2.39,8.57,1.61,11.85-1.2c0.61,1.25,4.9-0.17,2.02,4.01c-1.92,2.79,2.64,1.46,4.45,2.43
			C668.05,450.87,664.88,452.91,661.04,454.03z"/>
		<path class="st40" d="M772.99,427.81c-5.96,1.09-11.92,2.19-17.88,3.28c-0.23-0.35-2.34-0.37-0.46-1.07
			c4.3-1.58,8.69-3.34,13.17-3.82c2.96-0.32,3.92-4.53,7.37-2.9C774.74,424.93,774.62,426.72,772.99,427.81z"/>
		<path class="st41" d="M728.92,430.88c-6.28,5.85-6.28,5.85-15.16-2.66C719.23,427.16,723.01,432.73,728.92,430.88z"/>
		<path class="st42" d="M731.12,429.25c5.38-3.38,10.84-3.91,16.23-4.67C742.65,427.62,738.38,431.94,731.12,429.25z"/>
		<path class="st43" d="M826.73,373c-7.25-3.05-14.64-1.73-22.03-0.77c-9.98,1.29-20.02,2.25-29.95,3.87
			c-7.99,1.3-15.82,3.53-23.78,5.04c-20.64,3.91-40.99,9.11-61.32,14.3c-9.91,2.53-19.38,6.77-29.03,10.3
			c-2.63,0.96-4.04,3.23-5.28,5.67c-2.1-1.63-1.19-3.78-1.33-5.65c-0.54-7.24,0.97-14.56-0.82-21.76c-1.7-2.9-0.04-6.13-0.89-9.11
			c2.65-4.23,6.71-4.79,10.88-3.42c3.92,1.29,7.44,0.89,11.17-0.42c11.3-3.98,20.9-10.42,29.15-19.1c2.94-3.09,7.51-3.95,10.74-7.03
			c2.54-2.41,4.51-4.74,5.03-8.24c0.43-2.87,1.89-5.31,3.67-7.55c1.07-1.35,2.09-1.62,2.95,0.22c4.02,15.43-3.42,26.72-13.79,36.56
			c-5.37,5.1-10.83,10.29-16.62,13.58c10.13-1.56,21.24-2.86,32.23-5.01c12.73-2.49,25.23-5.93,38.04-8.08
			c11.01-1.85,22.08-2.45,33.19-2.74c2.48-0.06,4.99,0.26,7.44-0.45c0.78-0.21,1.57-0.32,2.37-0.37c1.05-0.05,2.09,0.07,3.11,0.31
			c5.74,1.76,11.66,3.24,15.03,8.97C826.9,372.43,826.85,372.72,826.73,373z"/>
		<path class="st44" d="M736.01,269c1.91,1.99,4.64,2.06,6.99,3.02c12.74,5.33,25.92,9.17,39.38,12.19
			c5.27,1.18,10.35,3.25,15.51,4.92c-0.49,2.73-2.63,2.55-4.54,2.42c-6.29-0.43-6.29-0.48-6.81,5.48c-0.07,0.86-0.57,1.53-0.84,2.36
			c0.73-0.05,0.92-0.68,1.14-1.14c2.27-4.84,7.77-6.75,12.42-4.2c1.69,0.92,3.14,2.55,2.68,4.39c-0.54,2.17-2.59,1.46-4.18,0.95
			c-4.2-1.34-5.21,2.39-7.85,4.72c3.28,1.04,5.81,1.64,7.67-1.49c0.17-0.28,0.47-0.46,0.75-0.64c1.85-1.19,17.08,1.26,17.63,3.26
			c0.9,3.27,3.45,2.66,5.26,2.58c2.24-0.11,1.21-2.66,1.75-4.09c0.23-0.63,0.46-1.24,1.01-1.66c3.29,4.45,4.96,9.57,5.85,14.92
			c0.3,1.81,0.82,4.02-1.41,5.37c-0.54,0.33-1,0.87-0.7,1.65c3.38,8.77-0.38,17.59,0.11,26.4c0.21,3.83,1.13,7.89-0.85,11.63
			c-0.96,0.76-0.35,1.83-0.53,2.74c-0.26,1.31,0.8,3.36-1.47,3.59c-1.8,0.18-2.25-1.62-2.89-2.95c-1.17-2.39-1.7-5.28-5.28-5.55
			c-1.25-0.1-1.47-1.6-1.59-2.8c-0.2-2.15-0.49-4.28-1.51-6.24c-0.7-5.3-0.33-10.61,0.41-15.84c2.14-15.1,1.56-16.04-12.58-21.5
			c-12.74-4.92-26.04-7.97-38.97-12.21c-8.47-2.77-17.11-5.32-24.54-10.56c-0.28-1.48,0.65-2.91-1.52-4.31
			c-4.09-2.65-4.67-7.3-1.57-11.4c1.73-2.29-0.8-4.07,0.23-5.97c0.05-0.1,0.25-0.16,0.37-0.16
			C735.69,268.86,735.85,268.95,736.01,269z"/>
		<path class="st13" d="M823.96,302.05c0,1.33-0.11,2.67,0.01,3.99c0.33,3.56-1.08,4.73-4.28,3.02c-2.04-1.09-4.14-0.08-6.05-0.32
			c-0.76-2.07,2.65-1.57,1.65-3.02c-0.6-0.87-2.6-1.61-3.52-1.26c-3.11,1.2-5.48-0.23-7.98-1.5c-3.03-1.54-5.46-1.3-6.54,2.4
			c-0.17,0.58,0.15,1.41-0.85,1.29c-2.87-0.36-5.74-0.79-9.51-1.32c4.64-3.82,6.42-11.32,14.38-5.94c-1.27-6.42-6.03-4.1-9.33-5.01
			c-3.48-0.96-2.75,1.88-3.39,3.44c-1.12,2.75-3.05,3.98-7.11,4.09c2.75-2.72,5.22-4.35,3.31-8.02c-1.01-1.95,4.61-5.67,6.88-4.25
			c2.54,1.59,4.27,0.78,6.25-0.5c6.21,1.79,12.32,3.83,18.09,6.8C818.13,298.63,822.45,298.51,823.96,302.05z"/>
		<path class="st45" d="M816.9,397.96c2.76-1.67,6.64-0.27,8.92-3.26c0.81,7.48-1.5,14.82-0.98,22.29c-1.69,1.7-4.59,1.87-5.64,4.53
			c-0.11,0.28-2.57,2.45-3.24-0.5c0.83-5.57,2.32-11.05,1.77-16.78C817.54,402.12,817.63,399.99,816.9,397.96z"/>
		<path class="st46" d="M814.54,350.84c0.41,0.48,1.13,0.92,1.19,1.44c0.42,3.65,0.61,7.14,5.22,8.47c2.95,0.85,1.16,5.33,4.07,6.82
			c1.78-1.62,0.4-3.78,1.12-5.5c0.05-0.11,0.24-0.22,0.38-0.23c0.15,0,0.3,0.11,0.45,0.18c-0.03,3.37-0.06,6.74-0.09,10.1
			c-4.42-3.58-9.27-6.35-14.8-7.82c0.28-2.93,0.46-5.87,0.54-8.81C812.66,353.76,812.46,351.79,814.54,350.84z"/>
		<path class="st47" d="M821.99,469.95c-0.29-9.38,1.14-18.64,2.01-27.94c0.64-1.09,1.29-2.17,2.54-4.28
			c-1.94,13.05-2.31,25.09-2.74,37.55C822.22,473.46,823.75,471.19,821.99,469.95z"/>
		<path class="st48" d="M598.99,309.05c-2.29-1.07-4.57-2.14-6.86-3.2c1.83-3.25,5.36-4.1,8.29-5.72c5.1-2.81,10.41-5.26,14.97-8.94
			c1.37-1.11,3.17-2.4,2.41-4.5c-0.6-1.67-2.54-1.5-3.95-1.48c-7.7,0.08-15.33-3.3-23.1-0.38c-1.95,0.73-3.91-0.25-5.84-0.76
			c-2.58-0.69-3.41,0.57-2.91,2.96c0.46,2.17,1.55,4.04,3.01,5.67c2.41,2.67,3.45,6.05,4.83,9.24c0.36,0.84,1.24,2.33-0.97,2.23
			c-4.7-1.28-9.05-3.27-12.93-6.26c-0.22-0.44-0.25-0.89-0.09-1.35c1.55-2.77,0.05-5.03-1.05-7.49c-1.17-2.62-3.91-4.76-2.77-8.18
			c1.89-3.95,4.99-5.18,9.33-5.12c7.8,0.1,15.55-1.07,23.34-1.56c21.37-1.34,42.25-6.64,63.59-8.36c3.81-0.31,7.63-0.35,11.44-0.65
			c9.72-0.78,18.64-4.8,28.1-6.57c3.6-0.67,5.08-4.15,7.96-5.76c2.91,0.25,2.98,2.47,3.17,4.59c0.25,7.28,2.16,14.36,2.52,21.63
			c0.43,8.88,2.15,17.71,1.06,26.65c-1.82,2.01-4.06,1.52-5.96,0.5c-8.82-4.76-18.22-3.79-27.32-2.11
			c-12.75,2.35-25.54,3.64-38.43,4.84c-9.19,0.86-18.41,2.59-27.57,4.18c-3.88,0.67-7.38,1.5-10.95-0.68
			c-1.04-0.63-2.26-0.42-3.42-0.27C605.6,311.15,602.29,310.1,598.99,309.05z"/>
		<path class="st49" d="M631.01,399.01c-6.79-2.57-13.39-6-20.4-7.52c-11.11-2.4-19.9-9.5-30.2-13.39c-2-0.76-3.76-1.42-5.53,0.13
			c-1.9,1.65-1.92,3.59-0.98,5.85c1.19,2.86,2.1,5.85,3.13,8.78c-1.95,0.83-3.12-0.82-4.62-1.43c-2.56-2.1-6.1-3.1-7.42-6.6
			c-0.64-6.61-2.08-13.22,0.07-19.82c0.05-3.4,0.11-6.81,0.16-10.21c0.61-0.52,1.33-0.75,2.12-0.78c1.52,0.01,2.95,0.48,4.28,1.12
			c5.03,2.43,10.16,2.29,15.47,1.06c9.68-2.23,19.12-5.25,28.67-7.92c2.01-0.56,3.43-1.91,5.14-2.88c2.85-0.4,4.93,0.93,6.7,2.96
			c3.54,4.85,3.45,5.08-2.19,6.67c-8.48,2.39-17.09,4.31-25.4,7.26c-1.04,0.37-2.55,0.51-2.64,1.9c-0.1,1.41,1.42,1.67,2.37,2.23
			c8.73,5.14,17.21,10.8,26.95,14c3.63,1.19,5.51,3.13,4.9,7.26C631.01,391.41,632.06,395.26,631.01,399.01z"/>
		<path class="st50" d="M626.88,349.08c-1.6-1.69-3.68-2.46-5.85-3.06c-1.4-0.61-3.05-0.48-4.35-1.41c-1.22-0.63-2.4-1.35-3.58-2.05
			c-8.27-4.49-17.05-7.75-25.91-10.8c-1.79-1.14-4.02-1.59-5.33-3.46c1.44-4.1-2.48-4.47-4.37-6.24c-2.16-2.04-1.75,1.58-3.07,1.42
			c-0.47,0.08-0.91,0-1.32-0.24c-2.66-6.96-6.05-13.31-13.95-16.04c8.08-1.9,11.97,3.99,16.35,8.03
			c9.81,9.05,14.34,12.58,22.16,14.81c-2.97-2.55-5.73-3.97-8.48-5.47c-2.92-1.59-4.94-3.22-2.41-7.2c1.71-2.7-0.45-6.21-0.76-10.51
			c5.2,5.11,12,2.65,16.98,6.17c12.35,4.65,23.69,11.49,35.84,16.55c-0.61,3.1,0.37,5.36,3.11,7.15c6.6,4.31,10.11,9.91,6.78,18.03
			c-0.25,0.62-0.27,1.32-0.09,1.95c1.15,4.14-1.08,5.27-4.63,5.25c-1.91,2.1-3.46,0.56-5.21-0.38c-1.57-0.84-3.35-1.27-5.91-2.2
			c0,8.99,0,17.5,0,26.01c-0.2-0.22-0.43-0.42-0.68-0.59c-1.61-2.29-1.66-4.91-1.68-7.55c-0.05-6.93-0.1-13.87,0-20.79
			C630.57,353.14,629.69,350.75,626.88,349.08z"/>
		<path class="st51" d="M608.9,312.2c0.57-1.02,1.7-1.54,2.53-1.08c7.15,4,13.94-0.7,20.9-0.88c5.86-0.16,11.7-2.05,17.47-2.78
			c5.06-0.64,10.38-1.34,15.53-1.26c7.41,0.12,14.31-2.06,21.45-3.13c10.44-1.56,20.94-3.58,30.85,2.25
			c1.37,0.81,2.87,0.7,4.37,0.66c0.92,1.05,0.89,2.15,0.15,3.28c-1.51,1.15-3.29,1.18-5.06,1.2c-26.96,5.4-54.13,9.54-81.27,13.8
			c-7.69-1.37-14.35-5.03-20.75-9.29C613.01,314.05,610.96,313.13,608.9,312.2z"/>
		<path class="st0" d="M587.24,330.92c9.45,2.27,18.34,5.92,26.64,10.98c-1.32,2.42-3.84,2.39-6.04,2.81
			c-11.88,2.29-23.6,5.17-35.07,9.04c-1.85,1.16-4.04,0.47-5.99,1.12c-0.53-0.03-1.05-0.06-1.58-0.08
			c-0.68-3.91,0.86-8.02-1.09-11.81c-0.35-2.81-1.99-5.76,0.92-8.19c0.73,0.04,1.47,0.09,2.2,0.13c4.82-2.28,9.75-4.2,15.16-4.5
			C584.05,330.34,585.7,329.99,587.24,330.92z"/>
		<path class="st52" d="M565.04,365.01c0.34,6.97,0.67,13.95,1.01,20.92c0.76,1.28,1.51,2.63,1.38,4.13
			c-0.57,6.7,1.8,13.3,0.6,20.01c-1.67,2.97-0.96,6.22-0.69,9.26c0.92,10.46,0.68,20.93,0.84,31.4c1,7.7-0.31,15.48,0.7,23.18
			c0.04,5.35,0.08,10.7,0.13,16.05c-1.93-2.81-0.53-5.98-0.96-8.94c-0.3-2.01,0.77-4.24-0.98-6.02c-0.81-5.6,0.93-11.35-1.04-16.87
			c-0.26-0.74-0.65-1.43-0.98-2.14c0,0,0,0,0,0c-0.8-7.32-0.21-14.68-0.63-22.01c-0.3-5.32-1.95-10.62-0.4-15.99
			c0-0.32,0-0.65,0-0.97c-0.08-8.91-0.81-17.81-0.49-26.73c0.06-1.75,0.55-3.6-0.45-5.28c0-6.33-0.01-12.65-0.01-18.98
			C563.71,365.68,564.37,365.34,565.04,365.01z"/>
		<path class="st53" d="M615.06,314.97c5.23,1.56,9.94,4.27,14.82,6.62c1.6,0.77,3.08,1.96,5.04,1.57c2.76,1.81,7.08,1.83,7.42,6.44
			c-0.97,1.31-2.08,1.42-3.34,0.41c-6.55-0.48-11.76-4.43-17.37-7.13c-5.35-2.57-10.64-5.26-16.09-7.62
			c-1.1-0.47-2.05-1.1-2.55-2.24c2.4-0.32,4.4,0.81,6.54,1.64C611.25,315.32,613.13,316.49,615.06,314.97z"/>
		<path class="st54" d="M587.24,330.92c-6.66,1.38-13.51,1.86-20.02,4c5.53-2.1,6.79-6.35,5.88-11.69c0.21,0.07,0.42,0.07,0.63-0.01
			c3.22,0.73,6.21,1.89,8.39,4.55C583.45,329.45,586.22,328.76,587.24,330.92z"/>
		<path class="st55" d="M564.94,318.1c6.07,3.04,7,7.28,2.82,13.25c-1.29-1.27-0.56-3.65-2.49-4.48
			C563.27,324.02,563.71,321.07,564.94,318.1z"/>
		<path class="st56" d="M564.94,318.1c0.11,2.92,0.22,5.85,0.33,8.77c-0.08,2.64-0.16,5.28-0.24,7.92
			c-2.05,2.53-0.65,5.46-0.92,8.19c-0.1,0.63-0.19,1.25-0.29,1.88c-0.27,0-0.54,0-0.82-0.01c0-8.63,0-17.26,0-25.9
			C563,317.25,563.96,317.64,564.94,318.1z"/>
		<path class="st57" d="M555.9,315.08c0.25-1.32-0.13-3.62,2.32-2.17c1.42,0.84,3.34,1.87,3.03,4.04c-0.11,0.78-1.27,1.14-1.97,0.31
			c-0.9-1.05-2-1.7-3.28-2.1C555.99,315.16,555.9,315.08,555.9,315.08z"/>
		<path class="st58" d="M566.04,289.99c-2.42-0.88-3.68-2.97-5.1-4.89c-0.54-12.28-3.2-24.25-5.52-36.25
			c-2.84-14.68-6.05-29.28-9.11-43.99c1.8-0.02,1.45,1.91,2.61,2.27c3.59,3.5,5.2,7.85,6.2,12.72c2.87,14.12,5.84,28.21,8.56,42.36
			c1.54,7.98,2.34,16.06,3.44,24.11C567.3,287.66,567.14,288.98,566.04,289.99z"/>
		<path class="st59" d="M566.04,289.99c-1.04-8.51-1.69-17.1-3.22-25.53c-2.79-15.41-6.25-30.7-9.09-46.1
			c-0.78-4.24-4.41-6.99-4.81-11.23c1.41,0.3,2.82,0.61,4.22,0.91c4.5,14.7,6.69,29.92,10.02,44.88c0.18,0.79,0.5,1.54,0.75,2.31
			c1.71,1.91,1.55,4.44,2.21,6.7c0.18,2.14,0.87,4.19,1.17,6.31c0.3,3.55,1.14,7.04,1.32,10.6c0.26,4.73,3.39,9.38,0.37,14.19
			C567.77,292.25,566.68,291.34,566.04,289.99z"/>
		<path class="st24" d="M564,417.97c0.47,6.5,1.57,13.01,1.7,19.46c0.12,6.12,0.64,12.41-0.66,18.55
			c-1.76-3.32-0.74-6.99-1.28-10.33c-1.21-7.48,0.33-15-1.19-22.34C562.09,421.04,562.48,419.47,564,417.97z"/>
		<path class="st24" d="M563.06,384.99c2.19,3.12,1.27,6.89,1.23,10.11c-0.08,5.73,0.46,11.38,0.67,17.07
			c0.06,1.6-0.62,3.23-0.96,4.84c-2.08-5.15-0.94-10.65-1.6-15.97C561.75,395.79,562.77,390.35,563.06,384.99z"/>
		<path class="st1" d="M653.01,429.01c0.06,1.63,0.11,3.26,0.17,4.9c-0.71-0.83-1.41-1.66-2.43-2.85c-1.25,2.84-1.36,5.79-0.55,7.98
			c2.48,6.76,0.29,13.3,0.16,19.94c-0.08,3.71,0.32,7.46-0.11,11.2c-0.58,5.07-1.31,10.09,1.44,14.99c0.91,1.63-1.4,1.67-2.67,1.79
			c0.58-4.56-2.66-8.14-3.12-12.54c-0.73-6.98,1.6-13.62,1.44-20.54c-0.12-5.39,1.36-10.57,0.14-16.28
			c-1.07-5.02,0.55-10.69,1.36-16.01c0.29-1.89,1.53-3.51,0.7-5.68c-0.77-2.02,0.21-2.83,2.29-2c1.38,2.94,0.72,6.02,0.38,9.01
			C651.96,425.08,651.72,427.11,653.01,429.01z"/>
		<path class="st1" d="M648.02,539.95c-1.24-4.86-1.23-9.83-0.97-14.76c0.59-11.42-1.54-22.74-1.07-34.15
			c0.09-2.13-0.16-4.17,3.03-3.07c0.01,0.33-0.1,0.9,0.04,0.96c4.86,2.28,1.69,5.33,1.33,8.52c-0.33,3.05,0.25,6.44,0.56,9.67
			c0.5,5.29,0.07,10.48-0.96,15.67c-0.65,3.25,0.2,6.4,1.31,9.42C652.62,535.88,652,538.58,648.02,539.95z"/>
		<path class="st60" d="M588.87,304.16c-0.85-3.74-1.99-7.33-4.53-10.34c-1.06-1.25-2.31-2.54-2.8-4.03
			c-0.73-2.2-2.84-4.65-0.5-6.92c1.98-1.92,4.01-0.15,5.97,0.6c0.76,0.29,1.75,0.7,2.38,0.44c8.75-3.63,17.43,0.14,26.13,0.13
			c1.66,0,3.47-0.17,4.22,1.81c0.79,2.07-0.49,3.42-1.81,4.78c-4.59,4.77-10.61,7.36-16.34,10.21c-3.21,1.59-5.72,4.5-9.47,5.01
			C590.91,305.54,589.72,305.18,588.87,304.16z"/>
		<path class="st61" d="M568.99,293.03c0.22-4.77-0.86-9.38-1.77-14c0.68-0.58,1.38-0.52,2.08-0.05c1.13,1.47,0.93,3.34,1.55,4.97
			c0.76,3.79,1.83,7.43,4.52,10.41c0.64,0.71,1.23,1.62,0.63,2.71c-0.02,0.28-0.04,0.57-0.06,0.85
			C573.11,297.03,571.2,294.81,568.99,293.03z"/>
		<path class="st62" d="M736.01,269c0.66,2.87,3.13,5.77-1.54,8.04c-1.84,0.89,0.59,7.2,3.46,8.92c2.29,1.38,3.51,2.49,0.04,3.8
			c-2.09,1.02-3.43-0.77-5.11-1.35c-5.38-2.31-3.63-7.76-4.8-11.76c-1.06-3.65-1.05-7.81,0.01-11.72
			C731.25,265.24,733.56,267.26,736.01,269z"/>
		<path class="st63" d="M728.06,264.94c0.64,6.02,1.41,12.04,1.87,18.07c0.22,2.89,2.88,3.38,4.2,5.15
			c2.08,4.12-0.41,8.33,0.22,12.47c-0.23,0.5-0.62,0.83-1.14,0.98c-3.04,0.38-4.08-0.9-4.01-3.99c0.12-5.55-0.82-11.06-1.11-16.6
			c-0.69-1.33-1.38-2.66-2.07-3.98c0.38-2.99-1.4-6.18,0.82-9.01c0.03-1.12-0.2-2.32,0.13-3.33
			C727.49,263.09,727.81,264.27,728.06,264.94z"/>
		<path class="st18" d="M726.83,268.03c0.18,3.05,1.06,6.15-0.82,9.01c-2.44-3.36-1.57-7.56-2.79-11.24
			c-0.39-1.17,0.75-1.64,1.83-1.76C726.54,264.96,725.45,267.05,726.83,268.03z"/>
		<path class="st64" d="M573.01,390.82c1.68-0.01,2.59,1.51,4,2.04c5.75,3.13,11.49,6.25,17.24,9.38
			c-7.74,2.21-15.48,4.42-23.23,6.64c-2.48-3.29,0.78-4.63,2.04-6.42c-0.68,0.6-1.43,1.51-2.38,2.2c-0.58,0.42-1.19,0.6-1.73-0.02
			c-0.51-0.57-0.49-1.38-0.09-1.86C571.75,399.3,570.57,394.43,573.01,390.82z"/>
		<path class="st65" d="M573.01,390.82c0.81,3-0.23,5.47-2.55,7.51c1.82,0.99,2.3-1.52,4.12-0.7c-1.86,2.08-3.66,4.1-5.45,6.11
			c0.19,0.22,0.37,0.44,0.56,0.66c2.07-1.76,4.13-3.53,6.2-5.29c-1.01,3.72-5.76,5.22-4.86,9.77c-1,0.4-2,0.8-3,1.2
			c-2.1-6.09-1.96-12.42-1.98-18.73c-0.01-1.8,0-3.61,0-5.41C568.36,387.56,571.23,388.42,573.01,390.82z"/>
		<path class="st24" d="M568.87,473.91c-1.76-7.68-0.58-15.45-0.7-23.18C569.41,458.42,568.86,466.17,568.87,473.91z"/>
		<path class="st66" d="M639.01,330.01c1.16-0.05,2.41,0.14,3.04-1.22c4.26,0.5,5.43,4.29,7.56,7.07c0.52,1.1,0.89,2.25,1.41,3.35
			c0.96,2.09,1.4,4.33,2.04,6.52c0.92,5.3,1.98,10.59,1,16c-0.14,0.52-0.37,0.99-0.68,1.43c-0.55,0.58-1.21,0.97-1.97,1.21
			c-0.53,0.13-1,0.01-1.41-0.35c-2.22-0.04-4.59,0.32-6.01-2.07c-0.1-0.32-0.39-0.71-0.29-0.93c0.87-1.95,4.82,1.02,3.89-1.24
			c-2.07-5.03,2.76-8.94,0.9-13.91c-1.87-4.99-6.02-7.34-9.65-10.13C635.48,333.16,635.46,331.84,639.01,330.01z"/>
		<path class="st9" d="M651.95,363.1c0.25-0.03,0.5-0.07,0.75-0.1c2.89,3.55,2.27,7.24,0.45,10.99c0.01,3.33,0.02,6.67,0.03,10
			c-0.06,15.01-0.12,30.02-0.18,45.02c-2.08-1.07-3-3.3-2.14-4.95c1.77-3.39,0.89-6.76,0.96-10.15c-0.03-5.97-2.18-11.75-1.37-17.83
			c0.4-2.95-1.29-6.18,1.3-8.83c-3.77-3.48,2.71-7.85-1.38-12.14c-1.91-2-0.36-7.29-0.37-11.09c0.31-0.03,0.62-0.06,0.93-0.07
			c1.02,2.99,0.64,5.96,0.32,8.41C652.34,369.75,650.76,366.26,651.95,363.1z"/>
		<path class="st67" d="M626.88,349.08c4.02,1.15,5.25,4.11,5.25,7.94c0,9.26,0.04,18.51,0.07,27.77c-0.1,4.72-0.21,9.44-0.31,14.15
			c-0.26,0.51-0.55,0.51-0.88,0.06c0,0,0,0,0,0c0-2.99-0.35-6.04,0.09-8.97c0.76-5.02-1.28-7.56-5.99-8.94
			c-10.65-3.11-19.39-10.01-29-15.17c-4.17-2.24-0.36-3.33,1.23-4c8.43-3.5,17.42-5.19,26.12-7.84c1.87-0.57,3.81-0.92,5.67-1.36
			C629.67,350.63,625.91,351.37,626.88,349.08z"/>
		<path class="st49" d="M631.01,399.01c0.29-0.01,0.59-0.03,0.88-0.06c0,3.27,0,6.53,0,9.8c-0.29,0.01-0.59,0.02-0.88,0.04
			C631.01,405.52,631.01,402.26,631.01,399.01z"/>
		<path class="st68" d="M711.99,242.08c1.21,1.85,1.02,3.93,1.02,5.99c-0.22,0.2-0.44,0.41-0.65,0.61
			c-14.36,2.47-28.72,4.94-43.19,6.71c-19.75,2.41-39.45,5.2-59.19,7.69c-12.67,1.6-25.33,3.21-37.96,5.05
			c-2.25,0.33-5.16,0.73-5.46-2.6c-0.28-3.1,2.41-3.55,4.79-3.87c13.81-1.85,27.55-4.27,41.38-5.88
			c14.83-1.73,29.53-4.44,44.39-5.73c7.13-0.62,14.02-2.85,21.21-2.66c1.58,0.04,2.9-0.62,4.27-1.21
			c8.96-3.01,18.46-2.99,27.63-4.87C710.88,241.17,711.47,241.66,711.99,242.08z"/>
		<path class="st69" d="M711.99,242.08c-9.66,1.65-19.33,3.31-28.99,4.96c-10.77,1.72-21.59,3.08-32.41,4.49
			c-13.96,1.82-27.89,3.78-41.86,5.55c-13.65,1.73-27.28,3.58-40.88,5.66c-1.05,0.16-1.97,0-2.81-0.66
			c-1.69-2.07-0.76-4.57-1.12-6.86c0.23-0.4,0.46-0.79,0.69-1.19c3.76,5.49,9.05,2.97,13.7,2.28c9.27-1.38,18.61-1.8,27.89-2.85
			c9.7-1.1,19.5-1.36,29.11-3.43c9.36-2.01,18.99-2.2,28.45-3.76c9.42-1.55,18.7-4.08,28.34-4.52c5.86-0.27,11.79-0.26,17.58-1.61
			C711.06,239.84,711.86,240.66,711.99,242.08z"/>
		<path class="st70" d="M568.97,279.01c-0.58,0-1.16,0.01-1.74,0.01c0.17-3.71-1.66-7.22-1.09-10.96
			c24.14-2.68,48.17-6.26,72.28-9.22c14.46-1.77,28.92-3.75,43.35-5.89c10.43-1.55,20.81-3.36,31.23-4.88c0,0,0.02,0,0.02,0
			c0.27,0,0.54,0.01,0.8,0.01c1.11,0.89,1.14,2.03,0.78,3.26c-0.91,1.73-2.61,1.8-4.26,2.09c-21.59,3.91-43.36,6.52-65.1,9.42
			c-21.25,2.84-42.51,5.61-63.75,8.55C576.18,272.14,571.44,273.68,568.97,279.01z"/>
		<path class="st71" d="M714.04,251.07c-0.07-1-0.15-1.99-0.22-2.99c-0.96-7.13,1.49-14.06,1.22-21.15
			c2.75,11.23,4.58,22.6,4.93,34.17c-2.85-0.4-0.56-3.18-1.96-4.25c-0.23-1.48-0.78-2.78-2.03-3.71
			C714.83,252.93,714.47,251.96,714.04,251.07z"/>
		<path class="st72" d="M728.07,281.02c0.9,5.87,3.36,11.55,2.05,17.7c-0.53,2.5,2.11,1.42,2.93,2.43c1.66,1.95,1.34,4.27,1.09,6.51
			c-0.27,2.41-1.5,3.49-4.19,3.63c-1.54,0.08-0.37,3.55-2.74,3.95c-2.07-2.14-1.6-5.85-4.6-7.42c0.3-1.35-1.36-3.41,1.4-3.87
			c2.02,0.27,3.33-0.49,2.97-2.65c-0.85-5.1,1.76-10.21-0.36-15.36C726,284.41,728.86,283.08,728.07,281.02z"/>
		<path class="st73" d="M724.02,303.94c-1.21,1.13-0.96,2.56-0.83,3.97c0.11,0.95-0.28,1.33-1.23,1.09
			c0.01-1.01,0.02-2.01,0.04-3.02c0.01-14.84-1.01-29.58-3.83-44.18c-0.31-1.6-0.11-3.3-0.15-4.95c0.65,1.41,1.31,2.83,1.96,4.24
			C722.74,275.25,723.06,289.63,724.02,303.94z"/>
		<path class="st37" d="M816.9,397.96c2.14,0.15,2.08,1.74,2.06,3.24c-0.09,6.48,0.41,13-1.68,19.3c-0.1,0.29-0.87,0.35-1.32,0.52
			c-1.79,0.35-3.59,0.7-5.38,1.06c-4.88,0.57-9.76,1.14-14.64,1.71c-4.93-4.69-3.32-13.68,2.81-15.73c1.94,2.77,2.77-2.6,4.53-0.64
			c1.43,1.59,2.04,3.69,3.55,5.63c-1.96-6.33,1.66-9.34,6.42-11.79c1.45-0.75,2.8-1.78,3.73-3.21L816.9,397.96z"/>
		<path class="st74" d="M816.99,398.03c1.43,2.74-1.23,3.29-2.53,3.81c-5.54,2.25-7.81,6.03-6.54,11.92
			c0.13,0.62-0.04,1.32-0.18,1.96c-0.05,0.26-0.38,0.47-0.64,0.76c-1.67-0.72-1.38-2.48-2.07-3.67c-0.93-1.6-1.8-3.23-2.7-4.85
			c-1.44,2.57-4.95,0.96-6.7,3.74c-2.75,4.36-2.43,8.12,0.31,12.07c-1.31,0.1-2.63,0.2-3.94,0.3c-2.59-6.25-0.61-11.23,4.51-15.09
			c3.22-2.42,0.44-4.74,0.28-7.11C803.37,399.8,810.21,399.1,816.99,398.03z"/>
		<path class="st0" d="M733.88,301c-2.31-4.33,0.61-8.55,0.25-12.84c1.67-0.41,2.44,1.36,3.84,1.6
			c13.51,7.37,28.22,11.4,42.93,15.43c10.09,2.76,19.83,6.55,29.64,10.12c3.98,1.45,5.85,3.82,5.53,8.2
			c-0.65,9.1-1.04,18.21-1.53,27.32c-1.24,3.12-0.3,6.4-0.72,9.57c-0.19,1.44,0.69,3.43-1.75,3.89c-0.97-0.14-1.94-0.28-2.91-0.42
			c-2.22-1.29-4.63-2.18-6.94-3.29c-22.82-9.81-46.08-18.53-69-28.11c-0.71-0.56-1.12-1.31-1.36-2.17
			c-0.84-6.1,0.38-12.15,1.02-18.13C733.28,308.47,732.86,304.66,733.88,301z"/>
		<path class="st75" d="M653.16,373.99c-0.15-3.66-0.3-7.32-0.45-10.99c0.85-6.02-0.7-11.94-0.76-17.93
			c-0.2-0.81,0.15-1.25,0.95-1.22c11.66,0.33,23.05-1.19,34.11-4.96c3-1.02,6.15-1.48,9.26-1.79c8.97-0.89,16.68-3.95,21.94-11.73
			c3.1-0.62,6.43-2.22,8.37,1.99c-0.12,0.94-0.37,1.77-1.6,1.64c-1.55,1.65-3.6,3.27-3.85,5.48c-1.04,9.35-7.15,13.85-15.2,16.71
			c-0.45,0.16-1.05,0.42-1.22,0.8c-3.46,7.71-11.39,10.84-17.63,14.57c-7.03,4.19-15.07,10.43-24.89,5.73
			C659.03,370.77,656.16,373.29,653.16,373.99z"/>
		<path class="st76" d="M724.99,329c0.34-0.27,0.69-0.54,1.03-0.82c0.39-0.47,0.87-0.58,1.44-0.35c0.76,0.38,1.35,0.95,1.82,1.64
			c2.83,7.6,5.58,15.2,5.85,23.47c0.1,3.03,0.22,5.94-1.27,8.72c-0.76,1.42-2.02,3.02-0.77,4.59c1.32,1.66,3.35,1.22,5.1,0.72
			c6.09-1.74,12.39-2.29,18.58-3.44c15.69-2.91,31.44-0.25,47.15-0.87c1.17,0.14,2.29,0.4,3.05,1.41c-1.19,1.31-2.77,0.92-4.22,0.92
			c-18.44-0.04-36.54,2.09-54.53,6.56c-17.61,4.37-35.54,7.5-53.63,9.41c-0.82,0.09-1.65,0.01-3.62,0.01
			c7.38-4.57,12.95-9.79,18.68-14.82c7.3-6.42,13.46-13.81,15.68-23.4C726.36,338.43,725.18,333.6,724.99,329z"/>
		<path class="st77" d="M807.01,364.08c-1.01-0.03-2.02-0.06-3.03-0.09c-6.49-1.19-13.12-0.38-19.65-1.45
			c-8.33-1.36-16.86-1.79-25.09-3.5c-9.55-1.99-18.32-5.85-22.99-15.64c-2.11-4.43-6.15-7.92-6.51-13.23
			c1.49-1.38,2.41-0.29,3.35,0.75c0.32,0.3,0.63,0.59,0.95,0.89c9.09,7.18,19.56,11.92,30.18,16.13
			c10.46,4.14,20.89,8.49,31.94,10.94c2.25,0.5,4.4,1.55,6.81,1.11c2.23,1.04,5.15,0.98,6.2,3.89
			C808.44,363.95,807.72,364.02,807.01,364.08z"/>
		<path class="st78" d="M714.04,251.07c1.03,0.34,1.53,1.16,1.95,2.08c-2.54,7.51-9.66,6.99-15.44,8.8
			c-19.22,6.03-39.25,6.17-59.03,8.15c-3.1,0.31-6.19,1.07-9.2,1.91c-12.38,3.46-25.11,3.51-37.8,4.09
			c-5.38,0.24-10.65,1.88-16.15,1c-3.59-0.57-3.83,3.75-6.33,4.92c-1.02,0.35-1.06,1.66-2.03,2.07c-1.62-1.43-0.73-3.37-1.04-5.07
			c0.23-5.41,3.19-7.99,10.15-8.93c24.5-3.31,48.98-6.71,73.49-9.91c11.93-1.56,24-2.26,35.83-4.32
			C696.98,254.36,705.54,252.83,714.04,251.07z"/>
		<path class="st60" d="M570.01,284.09c0.38-0.99-0.74-3.44,2.03-2.07c1.76,2.97,3.74,5.84,5.19,8.95c0.96,2.05,2.37,4.72-1.23,6.08
			C572.7,293.34,569.88,289.39,570.01,284.09z"/>
		<path class="st79" d="M566.78,354.88c1.49-1.2,3.29-1.58,5.1-1.96c11.91,1.43,22.47-4.26,33.71-6.38
			c3.87-0.73,7.55-2.37,11.55-2.6c1.44,0.43,2.86,0.9,3.9,2.09c-0.65,1.42-1.04,2.61-3.11,3.13c-10.74,2.72-21.36,5.91-32.08,8.74
			C579.12,359.67,572.92,357.22,566.78,354.88z"/>
		<path class="st80" d="M617.13,343.93c-4.27,3.6-9.9,3.22-14.82,4.91c-6.24,2.13-12.86,3.15-19.17,5.11
			c-4.06,1.26-7.7,1.47-11.26-1.04c11.95-4.97,24.67-7.05,37.2-9.88c1.61-0.36,3.21-0.75,4.81-1.13
			C614.96,342.58,616.04,343.26,617.13,343.93z"/>
		<path class="st6" d="M582.13,327.77c-2.96-1.21-5.93-2.41-8.39-4.55c1.95-0.76,0.68-2.59,1.32-4.17c2.67,1.81,5.21,3.55,7.78,5.26
			C585.45,326.06,583.84,326.92,582.13,327.77z"/>
		<path class="st0" d="M648.77,335.84c-2.32-2.28-3.73-5.43-6.73-7.05c-1.84-2.55-5.58-2.7-7.12-5.63
			c24.16-4.06,48.32-8.15,72.49-12.14c3.08-0.51,5.98-2.01,9.2-1.73c1.77,5.48,1.07,10.94-0.06,16.41c-0.36,0.5-0.83,0.82-1.42,0.97
			c-10.34-0.08-20.47,1.8-30.58,3.68c-9.48,1.76-18.96,3.48-28.41,5.42C653.69,336.27,651.24,336.71,648.77,335.84z"/>
		<path class="st81" d="M715.8,325.84c0.27-5.52,0.54-11.03,0.81-16.55c1.78-0.09,3.56-0.19,5.34-0.28
			c0.41-0.36,0.82-0.73,1.23-1.09c6.16-0.25,2.95,4.53,3.82,7.12c2.28,4.37,2.33,8.74-0.05,13.09l-0.47,0c0,0-0.46,0.06-0.46,0.06
			c-1.74-4.26-5.39-1.37-8.07-2.15C717.18,326.62,716.46,326.54,715.8,325.84z"/>
		<path class="st78" d="M713,248.06c-8.73,3.33-18.03,3.54-27.1,4.93c-15.5,2.38-30.97,5.26-46.57,6.56
			c-14.85,1.24-29.36,4.6-44.22,5.58c-8.39,0.56-16.73,1.94-25.07,3.13c-1.39,0.2-2.61-0.16-3.91-0.2
			c-0.36-1.99-0.73-3.98-1.09-5.97c8.36-1.08,16.71-2.15,25.07-3.24c12.11-1.59,24.23-3.16,36.34-4.81
			c13.75-1.87,27.46-3.97,41.23-5.63c5.07-0.61,10.13-1.82,15.32-1.37c-0.96,0.61-1.91,1.72-2.89,1.76
			c-12.88,0.49-25.56,2.9-38.3,4.5c-12.61,1.58-25.24,3.12-37.83,4.93c-10.95,1.57-21.88,3.22-32.84,4.77
			c-1.83,0.26-4.22,0.11-3.76,2.69c0.39,2.21,2.78,1.43,4.25,1.18c22.33-3.68,44.84-6.03,67.28-8.89
			c17.69-2.26,35.41-4.34,53.02-7.13C698.94,249.74,705.83,247.94,713,248.06z"/>
		<path class="st82" d="M726.95,328.12c0.02-4.36,0.04-8.73,0.05-13.09c1.11-0.8,0.9-2.01,0.98-3.14c0.04-0.64,0.26-1.83,0.31-1.83
			c8.66,0.77,3.02-6.06,4.76-8.92c0.27-0.07,0.55-0.12,0.82-0.14c-0.26,9.98-0.53,19.95-0.79,29.93c-1.03-0.31-2.06-0.62-3.1-0.94
			c-0.7-0.18-1.35-0.47-1.97-0.84C727.66,328.81,727.31,328.47,726.95,328.12z"/>
		<path class="st83" d="M715.8,325.84c0.72,0.06,1.44,0.13,2.15,0.19c-1.92,8.46-9.53,10.51-15.91,11.43
			c-9.39,1.36-18.16,4.95-27.47,6.13c-5.73,0.72-11.51,1.14-17.13,2.48c-2.14,0.51-3.48-1.79-5.49-0.99
			c-0.65-2.02-1.3-4.04-1.95-6.06c-0.22-1.27,0.74-1.36,1.51-1.28c10.56,1.13,20.25-3.21,30.35-4.94c6.2-1.06,12.39-2.45,18.58-3.61
			c4.9-0.92,9.7-2.13,14.55-3.22C715.24,325.84,715.52,325.8,715.8,325.84z"/>
		<path class="st84" d="M714.98,325.97c-2.15,3-5.79,3.36-8.77,3.83c-14.5,2.31-28.84,5.25-43.08,8.84
			c-4.15,1.05-8.74,0.3-13.13,0.37c-1.09-0.8-0.96-2.06-1.22-3.17c19.86-3.92,39.63-8.38,59.83-10.37
			C710.73,325.26,712.92,324.97,714.98,325.97z"/>
		<path class="st21" d="M651.95,363.1c0,3.26,0,6.51,0,9.77c-0.34,0-0.67,0.01-1.01,0.01c0-2.98,0-5.96,0-8.94
			C651.28,363.67,651.61,363.38,651.95,363.1z"/>
		<path class="st85" d="M802.96,360c-0.16,1.55-0.88,1.92-2.37,1.38c-8.47-3.13-17.5-4.15-25.86-8.15
			c-7.35-3.52-15.52-5.5-22.86-9.27c-5.7-2.93-11.19-6.28-16.74-9.5c-0.94-0.55-1.12-1.59-1.11-2.64
			c18.17,7.22,36.35,14.39,54.49,21.68C793.42,355.46,798.49,357.07,802.96,360z"/>
		<path class="st86" d="M728.02,329.15c0.81-0.07,1.49,0.14,1.97,0.84c2.55,6.32,6.67,11.76,10.36,17.36
			c4.34,6.6,11.85,9.1,19.09,10.45c10.3,1.92,20.83,2.53,31.14,4.77c4.32,0.94,9.04-0.31,13.4,1.42
			c-10.21-0.12-20.48-0.84-30.61-0.62c-11.4,0.24-23.03,1.48-34.11,5.02c-1.99,0.63-3.97,0.89-5.87,0.45
			c-2.31-0.54-4.14-1.98-2.44-4.66c5.42-8.57,2.25-17.1,0.02-25.62C730.13,335.38,729.01,332.28,728.02,329.15z"/>
	</g>
</g>
</svg>
