<?xml version="1.0" encoding="utf-8"?>
<!-- Generator: Adobe Illustrator 24.1.0, SVG Export Plug-In . SVG Version: 6.00 Build 0)  -->
<svg version="1.1" id="Layer_1" xmlns="http://www.w3.org/2000/svg" xmlns:xlink="http://www.w3.org/1999/xlink" x="0px" y="0px"
	 viewBox="0 0 518.3 614" style="enable-background:new 0 0 518.3 614;" xml:space="preserve">
<style type="text/css">
	.st0{fill:#FEFEFE;}
	.st1{fill:#DAAF86;}
	.st2{fill:#D1833E;}
	.st3{fill:#DCB288;}
	.st4{fill:#C2752E;}
	.st5{fill:#B1825F;}
	.st6{fill:#D6AA80;}
	.st7{fill:#CD9F79;}
	.st8{fill:#9D7155;}
	.st9{fill:#B8B6BC;}
	.st10{fill:#CDA079;}
	.st11{fill:#D4A882;}
	.st12{fill:#B1ADB4;}
	.st13{fill:#A67250;}
	.st14{fill:#7B4A33;}
	.st15{fill:#C79768;}
	.st16{fill:#C09372;}
	.st17{fill:#AAA1A1;}
	.st18{fill:#BC8E6B;}
	.st19{fill:#936850;}
	.st20{fill:#B98864;}
	.st21{fill:#BA6C24;}
	.st22{fill:#AA5B1D;}
	.st23{fill:#B1815D;}
	.st24{fill:#C6966B;}
	.st25{fill:#CC9C6F;}
	.st26{fill:#E8C49F;}
	.st27{fill:#C59468;}
	.st28{fill:#AB7856;}
	.st29{fill:#DD904E;}
	.st30{fill:#CA7C37;}
	.st31{fill:#C8854B;}
	.st32{fill:#C1732D;}
	.st33{fill:#C9996F;}
	.st34{fill:#C0C3CA;}
	.st35{fill:#9E6741;}
	.st36{fill:#C39061;}
	.st37{fill:#BF8F6B;}
	.st38{fill:#74432D;}
	.st39{fill:#9D6F55;}
	.st40{fill:#916752;}
	.st41{fill:#A37251;}
	.st42{fill:#8A5D45;}
	.st43{fill:#C79973;}
	.st44{fill:#B4845D;}
	.st45{fill:#AF7D55;}
	.st46{fill:#9E7154;}
	.st47{fill:#B28461;}
	.st48{fill:#A1765C;}
	.st49{fill:#BA8051;}
	.st50{fill:#AF6A38;}
	.st51{fill:#B8865B;}
	.st52{fill:#90512B;}
	.st53{fill:#998781;}
	.st54{fill:#542E23;}
	.st55{fill:#D5B27B;}
	.st56{fill:#D8B580;}
	.st57{fill:#E39859;}
	.st58{fill:#673F32;}
</style>
<g>
	<g>
		<path class="st0" d="M480.3,171.7c-7.3-4.5-14-9.8-20.5-15.3c-27.3-0.5-54.7,1-81.8,4.3c-15.3,2.3-30.6,5.2-45.6,9.2
			c-14.6,3.8-29.3-1-39.3-11.4c-7.4,7.4-17.7,12-28.1,12.1c-16.7,0-33.5,1.1-50.2,0.6c-3.3-0.1-6.5-0.6-9.5-1.4
			c-7.8,2.8-16.2,2.9-24.3,1.1c-7-1.5-14.1-2.8-21.3-3.8c-6.5-0.8-13-1.4-19.6-1.9c-6.3-0.5-11.9-1.8-17.1-4.2c-0.5,0-1.1,0-1.6,0
			c-5,0.1-10,0.5-15,0.7c-7.6,0.4-15.3-0.6-22.8-2.1c-4.7-0.9-9-3.1-12.8-6.1c-1.8,19.1-4.1,38.1-6.8,57.1c4.3-1.6,9.1-2.6,14.3-3.2
			c8.7-1,17.7-0.1,26.4,0.8c13.4,1.4,27.1,3.1,40.2,6.6c13,3.5,24,8.9,34.3,17.6c4.5,3.8,8.3,8.4,11.6,13.3c4.4-4,9.6-6.9,15.4-8.2
			c6.2-1.4,12.5-2.5,18.7-3.3c-0.1-1-0.1-1.9,0-2.7c0-0.3-0.1-0.6,0-0.9c0-0.4,0.1-0.8,0.3-1.1c0.1-0.3,0.3-0.6,0.4-1
			c0.2-0.4,0.5-0.6,0.8-0.9c0.3-0.5,0.9-1,1.7-1.1c3.6-1.5,7.3-2.9,11.2-3.4c0.1,0,0.3-0.1,0.4-0.1c0.1,0,0.1,0,0.2,0
			c0.1,0,0.1,0,0.2-0.1c0,0,0,0,0,0c0,0,0,0,0,0c0.1,0,0.2-0.1,0.4-0.1c2.4-0.4,6.2-1.8,9.1-2.5c0,0,0,0,0,0c0.1,0,0.2-0.1,0.4-0.1
			c0.4-0.1,0.8-0.2,1.2-0.3c0.3-0.1,0.5-0.1,0.8-0.1c0.1,0,0.2-0.1,0.4-0.1c0.4-0.1,0.8-0.2,1.2-0.3c0.3-0.1,0.5-0.2,0.8-0.2
			c2.1-0.3,4.2-1.2,6.3-1.4c0.3-0.1,0.7-0.2,1.1-0.3c1.4-0.2,3.5-0.9,5.5-1.1c0,0,0.1,0,0.2-0.1c0.5-0.2,1-0.3,1.5-0.4
			c0.9-0.1,1.1-0.1,0.4,0c0.1,0,0.3,0,0.4-0.1c0.3,0,0.5-0.1,0.8-0.2c0.2-0.1,0.5-0.1,0.7-0.1c0.3-0.1,0.7-0.2,1.1-0.2
			c0,0,0.1,0,0.1,0c0.2,0,0.3,0,0.5,0c0.1,0,0.3,0,0.4,0c0,0,0,0,0,0c1.8,0,2.8,1.4,2.9,2.8c0.1,0.2,0.1,0.4,0.1,0.6
			c0,0.2,0.1,0.5,0.1,0.7v1.2c0,3,0.2,5.9,0.3,8.9c0,0,0.1,0,0.2,0c11.6-2,22.9-5.4,34.6-7.2c-0.2-3.1-0.1-6.2,0-9.4
			c0-0.6,0.2-1.1,0.5-1.5c0.3-0.8,0.9-1.5,1.9-1.6c1.7-0.3,3.4-0.2,5.1-0.2c0,0,0.1,0,0.2,0c2-0.2,4.1-0.1,6.1-0.7
			c0.4-0.1,0.8-0.1,1.2-0.1c2-0.2,3.9-0.3,5.8-0.1c0.1,0,0.2,0,0.3,0c2.2-0.2,4.3-0.2,6.5,0c9.1-1,18.1-0.2,27.2,0.6
			c8.2,0.8,17.6,0.3,25.4,3c0.4,0.1,0.7,0.3,1.1,0.4c1.7,0,3.4,0.4,4.9,0.9c0,0,0,0,0,0c1.7,0,3.3,0.3,4.8,0.8
			c0.7,0.1,1.3,0.2,2,0.4c0.2,0,0.3,0,0.5,0c1.6,0,3.2,0.3,4.6,0.8c1.4,0.1,2.8,0.4,4,0.8c0.7,0.1,1.3,0.2,1.9,0.4c0,0,0.1,0,0.1,0
			c1.8,0,3.5,0.3,5.1,0.9c0.7,0.1,1.4,0.3,2.1,0.5c1.3,0.1,2.6,0.3,3.8,0.7c1.1,0,2.1,0.2,3.1,0.5c0,0,0.1,0,0.1,0
			c0.5,0,0.9,0,1.3,0.1c0.4,0,0.9-0.1,1.3-0.1c2.2,0,4.2,0.5,6.1,1.3c8.8-2.8,18.5-2.5,27.3,1.2c0.2,0.1,0.3,0.2,0.5,0.2
			c1.1-2.5,2.3-5,3.4-7.5c6-13.3,11.6-26.7,17.7-39.9C485,174.2,482.6,173.1,480.3,171.7z"/>
		<path class="st0" d="M100.4,82.7c7.3,0.2,14.6-0.7,21.9-0.8c8-0.1,15.9,0.3,23.8,1.1c18.8,2,37,5.6,55.1,11.4
			c4.3-1.6,8.9-2.5,13.5-2.4c1.8,0.1,3.7,0.1,5.5,0.1c9.2-5,19.4-5.6,29.5-3.5c5.3,1.1,10.6,2,15.9,2.8c6.9,0.1,13.3,1.9,19.2,5.4
			c2.7,2.1,5.3,4.1,8,6.2c0.3,0.3,0.6,0.6,0.9,0.9c0,0,0.1-0.1,0.1-0.1c0.3-0.3,0.7-0.7,1-1c0.2-0.4,0.4-0.7,0.6-1.1
			c1.8-5.6,2.9-11.3,4-17c-2.4-0.8-4.8-1.9-7.1-3.3c-2.7-2.1-5.3-4.1-8-6.2c-7.8-7.1-11.1-17.7-11.6-27.9c-0.1-2.5,0.1-5,0.7-7.6
			c-5.2,1.8-10.3,3.3-15.4,4.7c-28.9,7.9-59.6,11.6-89.6,11.7c-11.4,0-22-5.1-29.2-13.4C118,48.6,96.8,54.4,75.6,60.1
			c-0.1,8.9-0.3,17.9-0.5,26.8C83.1,82.5,91.7,81.6,100.4,82.7z"/>
		<path class="st1" d="M54.5,456.7c-0.1,8.3-1.9,16.4-2.8,24.7c-1.8,16.5-4.1,32.9-5.7,49.3c-0.4,4.3-2.8,5.4-6,5.7
			c-5.6,0.4-11.2,0.5-16.8-0.8c-3.2-0.7-4.6-2.3-4.3-5.5c0.8-10.8,1.3-21.5,2.2-32.2c0.8-9.6,1.9-19.1,2.8-28.7
			c1.6-17.3,3.5-34.6,4.7-52c1.1-15.5,2.7-31,4.2-46.6c1.9-20.5,4-40.9,5.8-61.4c1.5-16.8,2.8-33.7,4.3-50.5
			c1.3-13.9,2.6-27.7,4.2-41.5c2-17.3,3.2-34.6,1-52.1c-1.4-11.2-1.5-22.5-2.3-33.8c-1.9-27-3.9-53.9-5.9-80.9
			c-0.5-7.1-0.7-14.3-1.5-21.4c-0.3-2.7,0.7-3.3,2.9-3.3c6,0.1,12,0,17.9,0.4c2.8,0.2,6,0.1,6.7,4.3c0.3,2.2,2.8,1.2,4.3,1.2
			c10.1,0,20.3,0,30.4-0.1c0.4,0.6,0.3,1.1-0.2,1.5c-3.1,1.6-6.5,0.6-9.7,0.9c-5.5,0.2-11.1-0.6-16.6,0.6c-2.6,0.5-5.2,0.6-7.7-0.1
			c-0.8-0.3-1.4-0.8-2-1.3c-3.7-5.6-7.6-6.2-12.4-1.6c-1.5,1.4-3.3,1.2-5.1,1.4c-1.7,0.2-3.7-0.7-4.8,1.4
			c-0.3,10.7,2.3,21.1,3.9,31.5c2.7,17.4,5.9,34.7,8.2,52.1c0.2,1.5,0.3,3,1.6,4c1.1,0.7,2.3,1.3,3.3,2c0.6,0.5,1.1,1.1,1.4,1.9
			c0.7,2.5,1,5.1,1.4,7.7c0,1-0.1,2-0.8,2.9c-2.1,0.9-2.3-1.2-3.4-2c-1-0.8-1.9-1.4-3.1-0.7c-1.2,0.7-1.2,1.9-1,3.1
			c0.1,0.7,0.1,1.4,0.5,1.9c3.2,4.7,1.3,11.1,5.2,15.8c1.2,1.4,1.1,3.9,0.7,5.8c-1.6,8.8,2.3,16.5,4,25.1c1.3-1,0.7-3.2,2.6-3
			c2.1,1.8,1.6,4.2,1.6,6.5c0,7.5-0.2,14.9-0.5,22.3c0.4,6.4-1.1,12.5-2.3,18.7c-0.3,1.6-1.1,3.2-0.7,4.9c2.8,10.9-1.1,21.4-2.5,32
			c-0.7,5.1-0.8,10.2-1.3,15.3c-0.5,4.1-3.1,8-1.6,12.4c0.2,0.7-0.2,1.9-0.8,2.2c-6.8,3.1-4.1,9.8-5.5,14.8c-0.7,2.4-0.2,5.2-1,7.7
			c1-4.9,1.1-9.8,1.9-14.7c0.2-1.5,0-3.4,2.1-3.3c1.9,0.1,2,2,2.1,3.5c0.4,3.4-1.2,6.5-0.8,9.9c0.2,3.9-0.5,7.6-1.3,11.4
			c-1.4,5.4-2,10.8-2,16.5c0,8.5-2.5,16.7-4.4,24.9c-1.2,4.8-1.1,9.9-3,14.6c-0.9,2.2-0.2,5.7-3.5,5.7c-2.9,0-3.3-3.1-4.4-5.3
			c3.2,5,0.6,11.2,4.6,16.4c3.4,4.4,2.3,10.8,3.8,16.2c-0.1,0.5-0.2,1-0.4,1.4c-1.7,6.2-3.9,12.3-5.5,18.6c-0.8,3.1-0.4,6.8-4.7,8
			c-1.6,0.4-0.3,1.7-0.2,2.5c0.2,1.5,0.8,3,2.7,3c2.2,0.1,4.4-0.2,5.6,2.3c0.2,9.1-1.9,17.8-3.9,26.5c-1.3,5.7-2.6,11.3-3.5,17.1
			c-0.5,3.4-1.7,6.6-5.2,7.9c-2.4,0.9-2.5,2.3-1.6,4.2c0.3,0.8,0.3,1.7,0.8,2.3c5,6,3,12.5,1.7,19c-0.4,1.8-2.2,4-0.3,5.5
			c2.1,1.6,4.8,0.6,7.2,0c2.4-0.6,3.7-2.1,3.7-4.6c0.2-9.8,2-19.5,3.3-29.2c1.3-10,2.6-20.1,3.7-30.2c0.1-2.7,0.1-5.4,1.3-7.9
			C52.8,460.3,51.8,457.4,54.5,456.7z"/>
		<path class="st2" d="M305.1,146.9c31.4-8,63.4-5.1,95.2-4.7c29,0.4,58,2.2,87,4.8c2.9,0.3,5.9,1,8.7,2.1c1.6,0.6,4.7,1.4,2.3,4.5
			c-3-0.9-3.6,2.4-5.5,3.4c-5.1,2.5-9.6,5.9-14.8,8.3c-3.6-0.4-1.9-2.3-0.8-3.6c1.8-2.2,4.8-2.9,7-4.6c1.3-1,2.9-1.8,3.8-3.1
			c1.3-1.9-0.5-1.7-1.6-1.9c-4.3-0.5-7.8,1.1-11.4,3.6c-10.9,7.5-22.1,14.4-34.4,19.6c-9.6,4-18.5,9.7-28.7,12.4c-2,0.5-4,1.9-6-0.1
			c0.8-3.2,3.7-4.3,6.2-5.1c6.5-2.2,11.2-7,17.9-10.5c-3.1-1.2-5.6-0.7-7.9-0.7c-5.3,0-5.7-0.4-5.1-5.6c-2.1-0.8-3.9,0.3-5.7,0.9
			c-13.3,4.9-26.7,9.1-40.7,11.4c-8.3,1.4-16.6,2-25.2,0.6c-7.1-1.1-14.2,1-20.8,3.8c-1.8,0.8-3.6,1.6-5.6,1.9
			c-5.2,0.8-10.4,1.8-15.6,3.2c-4.5,1.3-9.4,1.7-14.3,0.9c-4.4-0.7-8.8-1.4-13.4-0.5c-2.3,0.5-4.9,0.4-6.8-1
			c-5.3-4.2-11.7-4.1-18-4.8c-4.4,0.2-8.8-1.8-13.1,0.2c-2.5,0.4-4.7-0.4-6.8-1.6c-2.9-2.5-6-4-9.8-2.2c-5.3-0.9-10.9-0.9-15.5-4.4
			c-0.6-2-2.3-2.2-3.9-2.6c-1.6-0.4-3.3-0.5-4.9-1c-1.4-0.4-3.5-0.6-3.4-2.2c0.1-2.1,2.4-1.7,3.9-1.9c11.9-1.6,23.9-2.7,35.9-3.1
			c3.6-0.1,7.2-0.8,10.8-1.5c6.2-0.8,12.5-1.4,18.5-3.2c1.7-0.5,3.5-1,5.4-0.3c3.3,4.7,2.4,7.9-3.2,9.7c-6.9,2.1-14.2,2-21.2,1.7
			c-5-0.2-9.8,0-14.7,0.9c9.1,5.1,19.2,4,29,4.7c9.2,0.7,18.6-0.5,27.8,1.4c1.8,0.4,3.7,0.1,5.4-0.4c4.7-1.2,9.6-1.5,14.3-0.7
			c10.9,1.8,20.6-1.6,30.2-6.3c2.4-1.2,2.8-2.6,0.9-4.6c-1.4-1.5-3-2.7-4.9-3.4c-2.8-1-4.3-2.4-2.4-5.5c2-3.3-0.2-4.1-2.9-4.4
			c-1.3-0.1-2.6,0.3-3.9,0.7c-5.6,1.8-11.2,0.6-16.8-0.4c-1.7-0.3-3.1-1.2-3.3-3.2C303,147.3,303.7,146.6,305.1,146.9z"/>
		<path class="st3" d="M133.6,229.7c-4.1-0.7-8.2-1.1-11.9-3c-0.3-0.7,0.7-1.3,0.5-1.7c-3-4.8,0.4-6.6,3.8-8.3
			c1.8-0.9,3.8-1.6,3.5-4.2c-0.6-5,2.5-3.5,4.5-2.2c5.5,3.8,12.6,5.3,16.6,11.5c0.5-4.3,0.5-8-3.3-10.7c-1.5-1-2.6-2.9-1.4-4.8
			c1.4-2.2,3.6-1.6,5.8-1.2c7.8,1.7,14.3,6.4,21.5,9.4c2.5,1,3.6,3.4,5.4,5.1c1.2,1.1,2.2,2.6,4.2,2.2c0.7-0.2,0.9-1,0.9-1.6
			c0-1.8-1.3-2.5-2.6-3.3c-4.4-2.7-8.1-6.3-13-8.2c-1.3-0.5-3.1-1.4-2.6-3.2c0.5-2.1,2.4-1.4,3.8-1c2.6,0.6,4.9-0.2,7.4-0.7
			c4.9-0.8,6.5,0.5,7.1,5.6c0.1-2.4-0.1-4.7-0.7-7c-0.3-0.9-0.9-1.7-1.3-2.5c-0.4-0.7-0.4-1.5-0.3-2.3c0.1-1.6,0-3.3,0-5
			c0-6.5,1.7-8.1,8-7.1c3.9,0.6,7.8,1.5,11.6,2.3c1.6,0.4,3.8,0.5,3.9,3c-1.2,2.1-1.3,4.3-1.1,6.7c0.8,12.3,0.2,24.5-0.4,36.8
			c-0.3,7.1-0.2,14.3-0.1,21.4c0,1.7,0.7,3.2,1.5,4.7c0.7,1.3,1.3,2.8,1.2,4.3c-1.2,13.2,0.6,26.4-1.3,39.6
			c-0.9,6.2-0.2,12.6-0.4,19c-0.1,4.4-1.4,8.7-1.5,13.2c-1.5,5.2-1.2,10.7-1,15.9c0.2,6.8-2.5,13.1-1.6,19.8
			c0.2,1.5-0.3,3.8-2.5,3.7c-2.2-0.1-2.2-2.3-2.3-3.9c-0.6-7.4-1.1-14.9-0.2-22.3c0.3-2.7,0.2-5.6-1.9-8.2c-0.3,2.1-0.4,4,0.1,5.6
			c2.2,6.9,0.7,13.8,0.6,20.7c-0.1,3.5-0.1,7,0.3,10.5c0.5,3.5-0.3,7,0,10.4c0.6,6.8-0.5,13.4-0.6,20c-0.1,7-0.4,14.3,0.3,21.4
			c0.1,1.2,0.1,2.3-0.1,3.5c-2.4,15.8-1.6,31.8-1.9,47.7c-0.1,6.2,2.3,12,1.8,18.3c-2.2,28.3,1.1,56.6,0.2,84.8
			c-0.2,5.7,0.6,11.2,7.9,12.3c0.8,0.1,1.5,0.8,1.4,1.8c-10.3,0.4-12.6-1.8-12.7-12.6c-0.2-16.7,0.1-33.3-0.4-50
			c-1.1-34.9-1.5-69.9-2.1-104.8c-0.4-24.1-0.9-48.2-1.9-72.3c-0.8-19,0.2-38-1-56.9c-1-15.3-0.3-30.6-0.8-45.9
			c-0.1-3.8-0.7-7.6-0.8-11.4c-0.1-2.6-1.9-2.7-3.7-3.1c-12.1-2.9-24.2-5.8-36.2-8.7c-0.8-0.2-1.5-0.6-2.2-1c1-2.2,1.5-4.4-1.5-5.6
			C136.5,224.7,135.1,227.2,133.6,229.7z"/>
		<path class="st4" d="M55.7,123.6c-2.5-0.2-2.7-2.1-2.9-3.9c-3.2-25.1-8.2-49.9-11.7-75c-0.5-3.9-2.1-8-0.5-12
			c5.7-0.4,11.4-0.8,17.1-1.4c2.4-0.3,5-0.2,7.1,1.4c0.3,0.4,0.6,0.7,0.8,1.1c3.2,1.7,6.6,1.4,10.1,1.2c14.9-1.2,29.9-1.5,44-1.6
			c1.6-0.2,1-1.2,1.1-0.6c0,0.1,0,0.2-0.2,0.2c-2.7,0.6-5.4,0.6-8.2-0.1c-0.2-0.6-0.1-1.1,0.5-1.5c3.8-0.1,7.6-0.2,11.4,0
			c4.5,0.9,9.2,0.9,13.7,0.9c8.9,0.1,17.8-0.3,26.7-0.7c13.3-0.6,26.6-0.3,40.8-0.9c-3-0.3-5.2,0.7-7.2-0.8c0.1-3,2.4-1.5,3.6-1.6
			c6.5-0.4,13.1,0.4,19.6-0.5c4.7,0.8,9.3,0.9,13.9-0.5c4.3-1.6,8.7-1,13.1-1c0.1,1.6,0.1,1.5,2.4,1.3c2.4-0.2,5,0,7-2
			c4-3.1,8.7-2.1,13.1-2.4c4.4-0.6,8.7-1.7,13.1-0.4c4.4,1.1,8.8,0.3,13.2,0.1c1-0.1,1.9-0.5,2.9-0.6c5.5-0.6,5.7-0.6,6.3,5
			c2.6,25.5,5.7,51,7.2,76.6c0.2,2.6-0.5,4.1-2.8,4.9c-3.3,1.9-6.9,3.1-10.5,4c-1,0.2-1.5,1.3-2.4,1.7c-5.1,2.1-10.4,3.7-15.7,5.3
			c-3.4,0.4-6.5,1.6-9.7,2.7c-1.3,0.6-2.5,1.4-3.9,1.9c-3,0.6-6.3,0.6-9.1,2.3c-1,0.5-2,0.7-3,0.1c-1.2-1.3-1.8-2.7-0.9-4.4
			c1.8-1.6,4.2-1.9,6.4-2.4c15-3.3,28.8-9.8,43-15.4c0.9-0.4,1.9-0.7,2.4-1.6c0.2-0.4,0-0.9-0.2-0.7c-6.8,3.7-14.3,2.1-21.5,3.4
			c-1.8,0.3-4,0.6-5-1.3c-1.2-2.1,0.5-3.8,1.8-5.3c1.6-1.9,3.8-2.6,6.3-2.5c2.6,0.1,4.3-1,5.4-3.5c2.7-6.3,5.8-7.3,12.6-4
			c-0.1-3.6-0.5-7-0.7-10.4c-0.8-10.6-2.1-21.2-3-31.8c-0.1-1-0.3-2-0.5-2.9c-0.4-1.5-0.2-4.3-2-4c-2.5,0.4-0.9,2.9-0.9,4.6
			c0,0.5,0.2,1,0.3,1.5c1.5,9.8-2.8,13.8-12.6,11.6c-4.1-0.9-5.4-3.5-2.8-6.8c2.4-2.9,3-6.2,3.6-9.7c0.5-2.6-0.7-3.8-3.1-4.1
			c-1-0.1-2-0.4-3-0.1c-7.2,2-14.8,1.1-21.9,3.9c-3.9,1.5-8.3,0.9-12.2-0.2c-2.6-0.7-4.6-1.8-6.3,1.2c-0.7,1.2-1.9,1.5-3,0.7
			c-3-2.2-6.4-1.8-9.6-1.6c-7,0.6-14.2-0.2-20.7-1.3c-5.6-0.9-11.6-0.7-17.1-2.9c-4-1.6-8.2-0.9-12.3-0.5c-0.5,0.1-1.2,0.2-1.3,0.6
			c-2.4,6.9-10,4.2-14.3,7.7c-1.6,1.3-4.2,1.7-6.2,0.9c-6.5-2.7-13.1-1.3-19.7-0.4c-6.2,0.9-12.2-0.1-18.4,0.1
			c-8.2,0.2-16.5,0.7-24.8,0c-1.7-0.1-3.2,0.8-4.7,1.4C84.3,49,78.4,48.6,73,46.2c-3.8-1.7-7.2-1.7-10.4,0.3c-3.4,2.1-3,5.9-2.1,9.1
			c2,7.3,1,14.4,0.4,21.7c-0.8,9.7-0.9,19.6,1.3,29.2c0.6,2.5,1.1,4.9,0,7.3c-0.7,1.5-1.6,3.2-3.5,3.2c-1.8,0-2.4-1.6-2.9-3
			c-0.2-0.6-0.1-1.4-0.9-1.6c-0.3-0.6-0.7,0.5-0.2,0c0.2-0.2,0.4-0.2,0.5,0.1C55.9,116.3,58.1,119.8,55.7,123.6z"/>
		<path class="st5" d="M314.2,353.8c1.1,44.9,2.1,89.9,3.2,134.8c0.2,8.5,0.1,9.1-8.4,9.1c-18.9,0.2-16.8,0.5-17.6-15.8
			c-1.4-26.2-3-52.5-4.3-78.7c-1.1-21.9-2.8-43.8-3.7-65.7c-0.9-19.6-2-39.2-3-58.8c-0.8-17-1.5-34-3.2-50.9
			c-0.4-3.6-0.1-7.3-0.2-10.9c-0.1-2.5,1.1-3.2,3.4-3c2.8,6,5,12.3,6.3,18.8c1.5,7.9,6.6,14.6,7.3,22.7c0,0.7,0.4,1.4,1.1,1.5
			c5.7,0.8,6.5,5.5,6.9,9.6c0.5,6.4,1.2,12.9,2.4,19.1c1.7,9.1,0.2,18.2,0.6,27.3c0.3,6.7,1.4,13.5,0.8,20.3
			c-1.1,7.5-2.8,14.9-0.3,22.5c0.7,2.1-0.3,4.3-0.8,6.4c-0.4,1.7-1.3,3.2-3.3,3c-2-0.2-2.6-1.9-2.8-3.6c-0.2-2.7,0.8-5.3,0.6-7.9
			c-0.1-1.2,0.3-3.2-1.4-3.2c-1.7,0-2.1,2-1.9,3.5c1.6,11.1-1.8,22.5,1.2,33.6c0.8,2.8-0.9,4.4-3,5.6c-3.2,1.7-4.2,4.4-4,7.9
			c0.8,15.9,1.5,31.9,2.7,47.8c0.5,6.8-0.3,13.7,1.2,20.4c-0.3,7,1.1,13.9,1.2,20.8c0,3.2,1.7,4.9,4.8,5.2c3.6,0.4,7.3,0.2,10.9,0.1
			c2.9-0.1,4.1-1.7,4.2-4.5c0.1-4.7,0-9.3,0-13.9c0-4.7,0.6-9.3-0.5-13.9c-0.7-17.8-1.6-35.5-1.4-53.3c-0.2-6.3,0.8-12.7-0.7-19
			c-0.8-7.5-0.3-15-0.4-22.5c0.7-4.6-0.7-9.3,0.9-13.8C313.1,353.6,313.6,353.4,314.2,353.8z"/>
		<path class="st6" d="M203.4,598.4c-10.8-3.2-10.9-3.2-10.9-15.2c0-13.4,0.5-26.9-0.2-40.3c-0.5-10.8-0.9-21.5-0.8-32.3
			c0-4.9,0.2-9.8,1-14.7c0.7-4.2-2.3-7.5-2.1-11.5c0.5-9.4-0.4-18.9,0.6-28.4c0.4-3.4,1.2-7.4-0.5-11.1c-0.6-1.2-0.6-3.2,0-4.4
			c3.7-8.3,1.7-17.1,1.8-25.5c0.1-5.4-1.4-10.6,1.9-15.6c0.2-0.2,0.2-0.7,0.1-1c-4-8.9,0-18.5-2-27.5c-0.9-4.1,0.9-7.8,1.2-11.8
			c0.5-6.2-3.3-11.9-2.2-18.1c0.2-1.1,0-2.2,0-3.7c6.7,6,5.8,12.8,3.8,19.8c-0.2,0.8-1,1.8-0.7,2.3c2.9,4.9,1.4,10.5,2.6,15.8
			c2.8-4.3,0.8-9.2,2.1-13.7c1.8-6.3,0.8-13,1.2-19.5c0.1-1.8-0.7-3.7,1-5.2c2.2,1.1,1.4,3.2,1.4,4.9c0,14.5-0.1,29,0.4,43.4
			c0.2,5.2,1.6,10.4-0.5,15.5c-0.3,0.7-0.2,1.8,0.2,2.5c3.2,5.7,1,12.4,3.5,18.2c1.2,2.9,0.3,6.2,0.1,9.4
			c-0.9,12.2-2.7,24.4-1.1,36.8c0.6,2.6-0.2,5-0.9,7.5c-1.3,9.5-0.4,18.9,2.5,27.9c1.4,4.5,1.8,8.3-0.8,12.3c-0.5,0.7-1.1,1.5-1,2.3
			c1.7,9.2-2.5,18.3-0.7,27.5c0.6,6.1,0.5,12.3-0.1,18.4c-1,9.7,0.3,19.3,0.8,28.9c0.1,2.5,1.7,3.8,4.2,4c2.1,0.1,4.4-0.3,6.1,1.6
			C211.5,599.3,207.4,598.4,203.4,598.4z"/>
		<path class="st7" d="M495.1,489.7c1.9,6.6,0.9,13.5,1.4,20.2c0.9,12.6,0.1,25.3,1.4,37.8c0.4,3.7-1.3,5.4-4.9,6.1
			c-6.1,1.1-12.2,1-18.3-0.2c-3-0.6-4.5-2.1-4.7-5.4c-0.5-9.6-1.3-19.2-1.8-28.8c-1.8-29.5-3.5-59-5.2-88.5
			c-0.9-14.9-1.7-29.8-2.9-44.7c-1.7-22.5-2.7-45-4.6-67.5c-1.1-13.7-1.6-27.5-2.4-41.3c-1-16.9-2.2-33.8-3-50.7
			c-0.2-3.5-2-4.6-4.9-5c-3.1-0.5-6.3-0.4-9.1-1.9c-0.4-0.5-0.4-1,0-1.4c4.5-1.5,9,1,13.6,0.3c2-0.3,2.5,2.2,2.7,4.1
			c0.3,4,0.9,7.9,1,11.9c0,2.1,1,3.8,2,5.6c1.3,2.5,2.3,2.3,3.8,0.2c1.2-1.6,2.6-3.5,4.8-2.8c2.4,0.8,2.8,3.3,2.9,5.4
			c0.6,7-0.3,14,0.6,20.9c1.6,11.8,0.6,23.7,2.6,35.6c1,6,0,12.6,1,19c0.3,1.6-0.7,3.2-1.4,4.8c-0.7,1.6-1.2,3.3-0.3,4.8
			c4.5,7.4,1.6,15.3,1.2,22.9c-0.3,6.6-1.1,13.2,0.8,19.7c0.7,2.4,0.6,4.9,0.4,7.4c-0.7,9.8-1.3,19.5-0.6,29.4
			c0.3,3.8,0.4,7.6,0.1,11.5c-0.2,3.4,0,6.8-4.6,7.6c-1.7,0.3-1.5,2.1-1.3,3.3c0.4,3.6,0.3,7.4,3.8,9.9c1.3,0.9,1.4,2.3,0.5,3.5
			c-2.7,3.7-1.2,8.1-2.1,12.1c-0.1,0.6-0.1,1.7,0.3,1.9c4.2,2.1,2.1,6.8,4,9.8c1.4,2.3-0.2,4.5-1.7,6.4c-1.7,2.2-1.7,4.4-1.6,7
			c0.5,13.3,1.6,26.5,2.5,39.8c0.6,8.5,0.9,16.9,1.8,25.4c0.4,4,2.1,5.7,6,5.4c2,0,3.9-0.1,5.9,0c1.7-0.1,3.5,0,5.2-0.1
			c3.9-0.3,4-3.2,4.2-6.2c0.5-9.7-0.8-19.3-1-28.9c-0.1-7,0.2-14-0.8-20.9C492.5,493.2,491.7,490.3,495.1,489.7z"/>
		<path class="st8" d="M495.1,489.7c-1.9,1.6-1.1,3.7-1,5.6c1.1,17.2,1.6,34.4,2,51.7c0.1,4.8-1.6,6.4-6.1,5.7
			c-2.3-3.2-1.9-6.8-1-10.1c2.4-8.5,1.3-17.2,1.1-25.8c0-0.7-0.1,0.2,0-0.5c0.4-15.2-3.6-30.2-1.9-45.6c1.5-13,0-26.2-1.2-39.3
			c-0.8-8.6,0-17.3-0.5-25.9c-1-17.7-1.9-35.4-2.8-53.1c-0.3-7,0.4-13.9-0.2-20.9c-0.7-9.2-1.2-18.5-1.9-27.7
			c-0.1-1.7-0.6-3.2-1.3-4.8c0.1-9.2-2.8-17.9-4.7-26.8c-2.8-13.2-2.3-26.7-3.1-40.1c-0.3-4.6-0.1-9.3,0-13.9
			c0.1-2.1-0.4-4.4,2.1-5.7c0.7,0.2,1.3,0.6,1.5,1.2c2.7,8.2,6.7,16,5.7,25.4c-0.9,8.6,1.2,17.2,3.7,26.1
			c0.2-17.9-0.4-35.1-1.9-52.4c-1.1-12.8,0.4-25.6,0-38.4c0-1.1,0.1-2.2,0.4-3.3c0.2-0.6,0.5-1,1-1.4c1.8,2.2,0.8,4.8,0.8,7.2
			c0.8,26.6,1.4,53.2,2.4,79.8c0.8,21.6,1.4,43.2,1.8,64.9c0.5,22.8,1.2,45.6,1.9,68.4C493.1,423.2,494.1,456.4,495.1,489.7z"/>
		<path class="st9" d="M419.9,215.1c-4.4-1.4-6.1-5.1-7-8.9c-2-8-6.6-11.1-14.6-8.9c-1.7,0-3.3,0.3-4.9,0.6
			c-18.4,3.8-37,5.7-55.9,5.3c-7.1-0.2-14.2-0.3-21.4-0.8c-12.3-0.8-24.5-1.9-36.5-4.2c-18.9-3.7-38.1-5.9-57-9.7
			c-1.6-0.2-3.3-0.6-4.9-0.2c-1.8,1.4-2.7,3.1-2.4,5.4c0.9,1,2.1,1.3,3.2,1.9c2,0.9,4.1,1.7,6.3,2.1c8.5-0.6,16.4,2.2,24.4,4.2
			c4.3,1,7.9,3.5,11.3,6.2c3.2,2.5,2.6,5-1.3,6.4c-2.7,1-5.5,1.5-8.1,2.4c-1.3,0.5-4.1,1-1.7,3.5c0.6-0.1,1.1-0.2,1.7-0.4
			c0,0,0,0,0.1,0c0,0,0,0,0,0c2-0.4,4-0.9,6-1.3c1.1-0.3,2.2-0.6,3.4-0.7l0,0c0.3-0.1,0.7-0.2,1.1-0.3c0.3,0,0.6-0.1,0.9-0.2
			c0.2,0,0.5-0.1,0.7-0.1c1-0.2,2.2-0.5,3.4-0.7c0.2,0,0.5-0.1,0.7-0.1c0.5-0.2,1-0.3,1.5-0.4c0.2,0,0.3,0,0.4,0
			c0.3-0.1,0.7-0.1,1-0.2c0,0,0.1,0,0.2,0c0.2-0.1,0.4-0.1,0.6-0.1c0.1,0,0.2,0,0.2,0c0.3-0.1,0.6-0.2,1-0.2c0,0,0.1,0,0.1,0
			c0.1,0,0.3,0,0.4,0c0,0,0.1,0,0.1,0c0,0,0.1,0,0.1,0c1.3,0,2.2,0.3,2.8,1.3c0,0.1,0.1,0.2,0.1,0.2c0,0,0,0.1,0,0.1
			c0,0.1,0.1,0.2,0.1,0.3c0.2,0.7,0.4,1.6,0.4,2.8c0,3.2,0.2,6.3,0.3,9.5c0,0,0,0,0.1,0c0.5-0.1,0.9-0.2,1.3-0.2
			c-0.3-3.6-0.5-7.3-0.8-10.9c-0.2-3.1,0.9-4.4,4-3.8c1.5,1.2,3.1,0.8,4.7,0.4c5.8-1.4,11.8-1.7,17.8-2.4c3.1-0.3,4,0.7,4.1,3.8
			c0.1,2.2,0.1,4.3,0.2,6.5c1-0.2,2-0.3,3-0.5c0-2.8,0-5.6,0.1-8.4c0-2.1,0.6-3.4,1.9-4c0.1,0,0.1-0.1,0.2-0.1
			c0.5-0.2,1.1-0.3,1.9-0.3c5.5,0,10.8-1.3,16.3-1.2c3.1,0.1,6.2,0.1,9.3,0.1c8.5-0.7,16.9,0,25.4,0.8c8.2,0.8,17.6,0.3,25.4,3
			c0.1,0,0.1,0.1,0.2,0.1c0.9,0.2,1.8,0.3,2.7,0.5c0.4,0.1,0.8,0.1,1.2,0.2c1.6,0.3,3.2,0.6,4.8,0.9c0,0,0,0,0,0
			c1.9,0.3,3.8,0.6,5.6,0.9c0.7,0.1,1.4,0.2,2.1,0.4c4.2,0.7,8.5,1.4,12.7,2.1C421.4,216.4,420.8,215.4,419.9,215.1z"/>
		<path class="st10" d="M66.7,211.7c-1.5-1.4-0.8-3-0.7-4.6c0.7-7.7,0.8-15.4,0.5-23.2c0-0.4-0.5-0.8-0.8-1.2
			c-1.9-6.6-3.4-13.4-2.7-20.4c0.3-0.5,0.7-0.9,1.2-1.2c2.7-0.6,5,0.2,6.7,2.4c0.5,2.1,0.4,4.3,0.1,6.4c-0.8,6,0.8,8.6,7.2,10.1
			c8.2,1.9,16.4,4,24.7,5.3c5,0.8,9.9,2.2,14.8,4c4.1,1.5,8.7,0.6,13,2c1.9,0.6,3.8,0.9,5.8,1.4c5.9,0.8,11.5,2.4,16.2,6.3
			c-0.3,2.6-1.8,3.4-4.2,2.6c-7.6-2.9-15.7-3.7-23.5-5.9c-3.2-0.9-4.8-0.1-5.4,3.1c-0.4,2,0.2,4.9-3.1,4.6c-2.8-0.3-4.5-2.4-5.5-5.2
			c-0.2-0.7,2-2.7-1.1-2.2c-1.9,0.3-2.6,1.3-2.5,3c0.1,1.6,1.3,2.6,2.2,3.8c1.3,1.9,1.7,3.5-1.4,3.5c-4-0.1-6.6,2.6-10.5,4.7
			c4,1.8,8.1,2.5,8.7,7.1c0.2,1.3,1.2,2.5,0,3.7c-1.1,1.1-2.7,0.8-3.7,0.1c-2.3-1.6-4.7-1.2-7.2-1.4c-1.5-0.2-2.9-0.5-4.4-0.7
			c-6.6-1.2-6.8-1.2-7.6,5.2c-2.8,21.7-5.5,43.4-8.2,65c-3.1,24.6-6.1,49.3-9.2,73.9c0,0.3-0.4,0.5-0.6,0.8
			c-0.6,0.3-1.1,0.2-1.5-0.3c-1.4-3.6-0.2-7.3,0.2-10.8c3.7-27,6.6-54.1,10.2-81.1c2.2-16.3,4-32.6,6.2-48.9
			c0.3-2.3,0.7-4.7-1.6-6.4C75.5,214.7,71.7,211.8,66.7,211.7z"/>
		<path class="st11" d="M95.7,220.5c2.3-1.2,4.5-2,6.6,0.3c0.8,0.9,2.2,1.2,3.2,0.6c1.6-1-0.3-1.9-0.3-2.9c-0.3-4.1-2.9-5-6.3-5.3
			c-0.9-0.1-2.6-0.1-2.8-1.6c-0.2-1.3,1-2,2-2.6c6.6-4.1,7.6-4.4,12.1-3.8c-2.2-3-6.4-5.5-3.3-9.7c2.4-3.3,5.4,0.6,8.6-0.4
			c-3.8,1.7-4.4,3.5-1.1,5.8c0.9,0.6,1.7,1.9,3,1.4c1.8-0.6,1-2.1,1-3.4c0-4.5,2.5-5.8,6.9-4.6c6.4,1.7,12.9,3.1,19.4,4.1
			c2.6,0.4,4.8,4.3,7.9,1.1c6.7-0.6,13.4-1.1,19.8,1.2c3.7,1.3,7.3,1.7,11.1,0.8c2,3.9,0.6,8,0.9,12.3c-2.7-0.8-1.8-2.8-1.9-4.2
			c-0.3-4.7-1.8-6.1-6.2-4.7c-3.4,1.1-6.6,1.5-9.7-0.3c-1,1.6,0.1,2,0.7,2.2c6,1.7,10,6.7,15.6,9.2c2.7,1.2,3.3,4.1,1.4,6.8
			c-2,2.7-4,0.4-4.8-0.9c-4.1-7-13-7.1-17.8-12.9c-0.4-0.5-1.6-0.5-2.4-0.4c-2.8,0.1-5.5,0-7.8-2.3c-1.3-1.3-3.7-1.5-4.9,0.2
			c-1.2,1.6,0.4,3.6,1.7,4.1c6,2,2.5,7.7,4.6,11.2c0.2,0.4,0,2.2-1.3,2.4c-1.3,0.2-2.2-1-2.7-1.9c-4.2-7-12.7-7.5-18.2-12.7
			c1.7,4.7,0.1,7.1-4.2,8c-2.3,0.5-4,2-4.5,4.1c-0.7,2.5,2.2,2.4,3.3,3.6c-0.7,2.1-2.9-0.7-3.5,1.2
			C112.8,225.3,104.2,223.1,95.7,220.5z"/>
		<path class="st12" d="M263.5,210c-2.1-4.9-7-6.8-11.2-8.2c-9-3-18.1-6.4-27.9-5.1c-0.7,1.2-0.6,2.6-0.5,3.9
			c0.3,9.6-1,19.1-1.8,28.6c0,1.8,0,3.6-0.1,5.4c0.8-0.1,1.7-0.2,2.5-0.3c0-0.6,0-1.3,0-2c0-2.7,0.6-4.3,2.8-5.4c0,0,0.1,0,0.1-0.1
			c0.4-0.2,0.9-0.4,1.4-0.6c0.2-0.1,0.4-0.1,0.7-0.2c3.1-1.2,6.3-2.3,9.6-2.8c3.4-0.9,6.9-1.8,10.3-2.8c-1-2,0.8-2.4,1.9-2.5
			c3.4-0.3,6.3-2.1,9.5-2.6C264.8,214.8,264.7,212.8,263.5,210z"/>
		<path class="st13" d="M298.2,113.9c0.6-1.1,1.5-1.2,2.6-1.1c-1.8,3.3-0.1,6.5,0.3,9.6c1.2,8.1,2.6,16.2,4,24.4
			c-0.6,0.3-1.2,0.6-1.7,1c-4.6,4-10.1,4.7-15.8,4.4c-1.6-6.3-4.2-12.6-1.9-19.2c0.7-2.1-0.1-3.1-1.7-4.1c-1.5-0.9-2.8-0.9-4,0.3
			c-0.2,0.2-0.4,0.5-0.7,0.8c-2,2.2-3.9,5.9-7,4.4c-3.4-1.7-2.7-5.9-2.3-9.4c5.7,0.2,10.4-2.6,15.3-4.8c2.8-1.2,5.4-2.8,8.5-2.4
			C296.8,118.2,296.9,115.5,298.2,113.9z"/>
		<path class="st14" d="M484.8,170.8c0,0.9,0,1.8,0,2.8c-1.7,3.9-4.2,6.7-9,6.3c-3.3-4.2-7.2-4.6-11.9-2.5
			c-3.8,1.6-7.4,3.5-10.9,5.1c2.3,0.7,5.5-1.7,7.1,2c-1.5,1.8-3.6,1.6-5.5,1.5c-3.9-0.3-5.4,1.5-5.2,5.3c0,0.8-0.2,1.7-0.1,2.5
			c0.8,5.5-0.8,9.7-6.4,11.9c-2.4,0.9-2.4,3.3-2.8,5.4c-0.3,1.3-0.9,2.7-2.5,2.5c-1.4-0.2-1.5-1.6-1.6-2.8c-0.3-3.6,0-7.3-0.2-10.9
			c-0.1-2.1,0.4-4.3-0.6-6.4c-0.6-1-1.6-1.7-2.3-2.7c-0.3-2.3,1.8-2.3,2.6-3c-1.8,0.3-3.3,1.9-5.3,2.7c-1.4,0.6-2.7,1.2-4.3,0.6
			c-1.6-1.3-1.4-2.6-0.2-4c8-4.3,16.8-6.6,25.1-10.3c6-2.7,12-5.5,17.9-8.5c2.9-1.5,5.7-3.1,9-3.6c5.5-4.6,12.8-6.5,17.9-11.7
			c0.8-0.9,2.1-1.1,2.5,0.6c-5.1,5.6-12,8.9-18.1,13.2c0.1,0.5-1.5,1.2-0.2,1.4C482,168.6,483.8,168.8,484.8,170.8z"/>
		<path class="st15" d="M218.4,595.6c0,0.4,0,0.7,0,1.1c-0.8,0.9-1.9,0.9-2.9,1c-11.3-0.4-10.8-0.5-12.2-11.7
			c-1.7-13.9,0.7-27.6,0.2-41.4c-1.2-3.3,0.8-6.4,0.6-9.7c-0.1-1.5,1.6-2.4,3.1-2.8c1.7-0.5,3,0.4,3.6,1.8c1.3,2.8,2.9,5.5,4.3,8.3
			c-1.3,12.1,0.8,24.6-3.7,36.5C209.3,584.5,213.5,593.8,218.4,595.6z"/>
		<path class="st16" d="M249.4,26.9c-4.7-0.2-9.4-0.1-14,0.9c-4.2,1-8.5,1.8-12.8,1c-6.3,0-12.6,0-18.9,0.1c-1.7,0-3.6-0.5-5.2,0.8
			c-0.9,1.1-2.2,1.5-3.6,1.4c-8.9-0.3-17.8,0.7-26.7,0.6c-6.4-0.1-12.9,0.4-19.3,0.7c-8.1,0.4-16.1,0.3-24.1-0.6c-4,0-7.9,0-11.8,0
			c-2.2,1.3-4.4,1.7-6.5-0.4c2.2-1,4.6-0.5,6.9-0.6c17.8-0.5,35.5-0.9,53.3-1.6c28-1.1,56.1-2.5,84.1-3.8c2-0.1,3.9-0.6,5.9-0.7
			c2.3-0.1,3-1.2,2.5-3.2c-0.6-2.6,0.2-3.8,3-3.8c6.5,0,13-0.2,19.5-0.2c1.3,0,3.2-0.1,3.3,1.5c0.5,4.7,3.8,3.7,6.7,3.5
			c4-0.3,8-0.5,11.9-1.3c2.8-0.5,3.9-0.1,4.2,3c2.4,26.8,5,53.5,7.5,80.3c0.3,2.9-1.2,3.9-3.8,4c3.3-2.9,2.1-6.8,1.8-10.2
			c-0.7-10.4-1.8-20.7-2.8-31.1c-1.3-14-2.8-28-4-41.9c-0.3-3.1-2.3-3.2-4.1-2.7c-5.1,1.6-10.6-0.4-15.5,2.2
			c-1.2,0.7-1.5-1.1-2.3-1.4c-3.9-4.4-7.5-4.1-13.1,0.9c-4.3,0.8-9.1-1.5-13,2C255.4,28.2,252.4,28.2,249.4,26.9z"/>
		<path class="st17" d="M421.1,217.6c-0.2-0.3-0.3-0.7-0.6-0.8c-8-1.6-8.8-8.9-10.9-14.7c-1.4-4-2.8-5.1-6.6-3.6
			c-1.2,0.5-2.6,0.1-3.9,0.2c0.1-2.5,2.7-2,4-3.2c5.1-1.8,10.5-2.1,15.8-3.1c2,0,4.3,0,5.1,2.3c2.4,7.2,6,13.9,8.8,21
			c-0.8,2-2.3,1.6-4.1,1.1c2.6,1,5.6-0.8,7.5,1.8c0,0.4,0,0.8,0,1.2C431,219.8,426,219,421.1,217.6z"/>
		<path class="st18" d="M64.7,364.6c0.3,0,0.7,0,1.1,0.1c-1.5,13.1-2.9,26.3-4.5,39.4c-1.9,15.8-3.9,31.5-5.8,47.3
			c-0.2,1.8-0.7,3.6-1,5.4c-1.6,1.3-0.1,3.7-1.8,5c-1.9-2-2.1-4.5-1.5-7c4.2-19.2,5.1-38.7,8-58.1c1.3-8.5,1.7-17.1,3.1-25.7
			C62.7,368.7,62.8,366.3,64.7,364.6z"/>
		<path class="st11" d="M133.6,229.7c-1.1-3.9,1.9-5.4,4.5-5.5c3.2-0.1,6,1.6,6.2,5.6c0.1,2.4-2.5,0.1-2.6,1.8
			C138.7,231.7,136.1,230.8,133.6,229.7z"/>
		<path class="st19" d="M484.8,170.8c-2.3-2.3-5.2-1.6-8.4-1c1-2.3,2.4-2.6,3.8-3.1c1.2,1.6,3.9,0.8,4.9,2.9
			C485,170.1,484.9,170.5,484.8,170.8z"/>
		<path class="st20" d="M106.4,31.6c2.2,0.1,4.3,0.2,6.5,0.4c-0.1,0.2-0.2,0.5-0.2,0.8c-4,1.6-8,1.7-12-0.1c0-0.3,0-0.6,0-1
			C102.5,31.7,104.4,31.6,106.4,31.6z"/>
		<path class="st21" d="M55.7,123.6c0.3-4.3-2.2-8.6-0.6-13c1.3,0.2,1.4,1.1,1.5,1.9c0.2,1.5,0.4,3.6,1.9,3.6c1.8-0.1,2.7-2.2,3-4
			c0.4-2-0.4-3.9-0.9-5.8c-1.4-5.4-1.5-11-1.1-16.6c0.4-5.1-1.8-10.1,0.1-15.2c2.2-6.2,0.9-12.3-0.6-18.5c-0.9-3.6-1.8-8.4,2.2-10.5
			c3.8-2,8-3.2,13-0.2c3.7,2.2,9.9,3.4,14,0.8c5.3-3.3,10.8-2.3,15.8-1.9c6.2,0.5,12.1-0.8,18.2-0.3c8.8,0.7,17.7,0.9,26.4-1.6
			c1.8-0.5,4.2,0.7,6.2,1.5c4,1.8,7.5,0.7,10.9-1.1c2.4-1.3,4.4-3.6,7.6-1.6c1,0.7,2.1-0.2,1.9-1.4c-1-5,2.8-4.8,5.5-4.7
			c4.8,0.2,10-1.9,14.2,2.4c0.6,0.6,1.8,0.6,2.3-0.1c2.8-3.6,4.9-2.8,7.3,0.6c0.7,1,2.8,1.8,4,1.5c9-2.1,18,1.9,27,0.4
			c2.1-0.3,4,0,4.8,3.9c1.9-5.8,3.7-7.2,8.7-4.1c2.5,1.6,8.2,2.3,11.9,0c2-1.2,3.8-2.1,6-1.7c6.1,1.1,11.5-2.6,17.6-2.1
			c5.7,0.5,6.1,1.2,5.3,6.8c-0.6,3.9-1.3,7.2-4.4,10c-2.4,2.2,0.1,3.6,2.1,4c3.8,0.9,7.5-0.7,11.3-1.2c1.5-0.2,1.6-1.8,1.3-3.3
			c-0.6-3.1-0.9-6.2-1.7-9.2c-0.7-2.5-0.2-4.6,2.3-5.1c2.9-0.6,3.3,2.1,3.6,4.1c0.8,5.6,1.5,11.1,2,16.7c0.9,10.2,1.4,20.4,2.9,30.4
			c0.2,1.1,0.7,2.5-0.8,3.1c-1.2,0.5-1.7-0.7-2.2-1.6c-1.6-2.8-4.1-2.3-6.6-1.8c-2.6,0.5-3.2,2.2-3.6,4.6c-0.6,3.4-2.5,5.8-6.7,4.6
			c-2.1-0.6-4.1,0.3-5.4,1.9c-1,1.2-2.9,2.6-2,4.2c0.9,1.6,3.1,1,4.6,0.5c3.4-1.2,6.9-0.6,10.4-0.6c3.6,0,6.8-1.2,9.9-2.8
			c0.9-0.5,1.5-2.5,2.6-1.6c1.4,1.1,1.2,3-0.2,4.4c-16.1,5.7-32.2,11.4-48.6,16.3c-5.5,1.7-11.5,1.6-17.2,3
			c-8.5,2.2-17.5,0.9-25.7,4.5c-0.5,0.2-1,0.3-1.5,0.3c-13.2-1.8-25.9,3.1-38.9,3.2c-2.2,0-4.3-0.2-6.5-0.5
			c-5.9-0.9-11.8-1.9-17.8-0.7c-3.5,0.7-7.3,0.5-10.8-0.9c-0.9-0.4-2-0.7-2.9-0.5c-8.2,1.7-15.7-0.4-23.4-3.1
			c-5.5-2-11.2-3-17.2-2.8c-3.4,0.1-6.7-1.2-9.2-3.4c-2.7-2.4-5.4-2.9-8.7-1.9c-3.3,1-6.3-0.1-8.8-2.3c-2.7-2.3-2.6-4.6,0.6-6.2
			c2.3-1.2,5-2.1,3.9-5.3c-1-3.1-3.3-5.6-6.4-6.5c-2.4-0.7-3.5,1.4-3.8,3.6c-0.3,2.2,0.5,4.3,1.3,6.3c1.2,3.4,1.2,6.5-1.5,9.2
			c-1.1,1.1-2.1,2.3-0.3,3.7c1.3,1,1.9,2.4,1,3.9c-1,1.7-2.6,1.7-4.4,1.5c-1.3-0.2-2.6-0.6-4-0.5C57.6,124.4,56.7,124,55.7,123.6z"
			/>
		<path class="st22" d="M58.6,124.8c1.5-1.7,3.3-1.2,5.1-0.6c1.4,0.5,2.4,0,2.8-1.3c0.5-1.5-0.6-1.9-1.9-2.2
			c-4.2-1.1-2.8-3.1-0.4-4.6c3.6-2.2,3.9-5,2.4-8.5c-0.1-0.3-0.2-0.6-0.3-0.9c-1.5-4.1-3.2-8.4,1.8-11.5c2.2-1.4,7.7,2.3,10.1,6.6
			c2,3.5,0.4,7.1-3.6,7.9c-1.3,0.3-2.9,0.1-3.3,1.6c-0.4,1.8,1.3,2.4,2.5,3.4c3,2.4,6.3,1.9,9.4,0.7c2.8-1.1,4.5-0.3,6.5,1.8
			c2.9,3,6.5,4.1,11,3.9c7.1-0.2,14.1,1.7,20.7,4.5c5.4,2.4,10.9,2.6,16.5,1.5c1.5-0.3,3.1-0.8,4.3,0.1c3.7,2.6,7.9,2.1,11.6,1.3
			c6.3-1.4,12.1,0.5,18.2,0.8c8.7,0.5,17.5,0.3,26-2.1c2.1-0.6,4.1-1.8,6.3-1.4c7.2,1.5,13.9-1,20.7-1.6c10.8-0.9,21.3-3.5,32-4.7
			c6.9-0.7,13.6-3.9,20.3-6.1c9.4-3.1,18.8-6.3,28.2-9.4c1.2-0.4,2.6-0.1,4-0.2c-3.5,3.5-8.3,4.3-12.7,6.1
			c-13.1,5.3-26.2,10.8-40.2,13c-0.8,1.4-2,2.3-3.5,2.6c-7.7,1.8-15.2,4.6-23.2,5c-3,0.1-5.5,1.1-7,3.9c-1.8,1.7-4,1.8-6.3,1.8
			c-6.7,0.3-13.3,1.1-19.8,3.1c-6.2,1.8-12.6,1.4-18.8,1.7c-22.6,1-45.2,0.2-67.7-2.9c-7.7-1.1-15.4-2.4-22.9-4.6
			c-3.1-1.3-6.2-3.9-9.3-0.1c-0.5,0.6-1.3,0.5-1.9,0.2c-5.4-2.9-11.7-3.9-16.5-7.9C59.3,125.5,58.9,125.1,58.6,124.8z"/>
		<path class="st23" d="M64.7,364.6c-1.6,12.4-3.3,24.8-4.9,37.2c-1.5,12.2-2.6,24.5-4.3,36.8c-0.8,5.5-1.1,11-3,16.3
			c-0.7,2,0,4.5,0.1,6.7c-0.9,2.6-1.3,5.2-1,8c-4.1-2-4.4-6.1-5.2-9.9c-0.4-2.1,0-4.3,0.7-6.4c1.7-4.8,2.5-9.4-1.6-13.5
			c-0.4-8,2.5-15.5,3.1-23.2c0.7-0.6-0.6-0.7,0-0.4c0.2,0.1,0.1,0.2-0.1,0.5c-0.6,0.9-1.3,1.5-2.4,1.1c-0.5-0.2-0.6-0.7-0.5-1.2
			c0-0.3,0-0.7,0-1c0.4-13.3,4-26.1,5.7-39.3c1.1-8,2.4-16.1,3.9-24.1c1-5.8,2.5-11.6-1-17.4c-1.2-2.1-0.4-5.5,0.4-8.2
			c0.4-4,0.7-8,1.1-12c0.5-0.5,0.4-1.2,0.5-1.9c0.1-0.8-0.3-1.8,0.8-2.1c1.2-0.3,1.8,0.6,2.3,1.5c1,2.2,0.7,4.6,0.8,6.9
			c0.1,3-0.1,6,0.1,9.9c3.3-13.2,2.6-26.1,5.1-38.5c3.2-15.1,3.7-30.7,7.1-45.8c1.8-8,0.8-16.2-1.8-24c-0.5-1.4-1.2-2.8-1.4-4.3
			c-0.4-2.8,0.9-4,3.4-2.8c2,0.9,4,1.4,6,2.1c3.3,0,4.7,1.3,4.1,4.9c-2.2,14.5-3.4,29.2-5.7,43.7c-1.8,11.7-2.9,23.6-4.4,35.4
			c-1.6,12.5-3,24.9-4.7,37.4C66.8,346.3,65.3,355.4,64.7,364.6z"/>
		<path class="st18" d="M46.7,439.7c5,3.7,3.6,8.5,1.9,13.1c-2.2,6.3-0.1,11.6,3.1,16.9c-1.5,11.6-3.2,23.2-4.3,34.9
			c-0.8,7.9-3.1,15.7-2.5,23.6c0.3,5-2.1,6.5-6.1,7.2c-0.3,0.1-0.7,0.1-1,0.1c-8.4,1-9.1-0.1-6.5-8c1.5-4.6,3.3-9.9,0.9-14.1
			c-1.6-2.9-2.8-5.9-4.3-8.8c-1.1-2.2-1.8-3.4,2.1-2.8c3.3,0.5,5.3-2.7,5.5-5.8c0.7-9.1,4-17.7,5.3-26.7c0.9-6.2,2-12.4,3-18.6
			C44.4,446.9,42.7,442.5,46.7,439.7z"/>
		<path class="st24" d="M78.7,215.7c-2.8,0-5.7,0.5-8.2-2.5c-0.5,2.9,0.2,4.7,1.2,6.3c3,4.8,2.8,10.7,3.3,15.7
			c0.5,5.1-1.1,11-2.3,16.6c-1.8,8.6-3,17.4-3.9,26.1c-0.8,7.7-3.2,15.2-3.4,23c-0.2,5.9-0.6,11.9-1.8,17.7c-1,4.5,0.5,9.8-5,14.5
			c0-8.1,0-15,0-21.9c-0.4,0-0.8,0-1.2,0c-0.5,1.1-1.1,2.2-1.7,3.4c-0.7-4.1,2.4-8.2-0.3-13.5c-1,7.2-1.8,13.3-2.6,19.4
			c-0.1,0.8-0.1,1.7-0.4,2.4c-0.3,0.8-0.9,1.5-1.8,1.1c-0.4-0.1-0.7-1.2-0.5-1.7c2.2-7.7,1.7-15.8,3.5-23.5c0.3-1.3-0.4-3.5,2.8-2.2
			c1.5,0.6,2.8-2.2,1.1-4.2c-0.7-0.9-1.6-1.6-2.9-2.8c6.7-0.9,4.7-6.4,4.9-9.6c0.7-12.7,3.5-25.1,5.1-37.7c0-0.3,0.2-0.7,0.1-1
			c-3.7-9.8,2.1-18.9,2-28.4c0-0.5,0-1,0-1.5c3.1-0.2,6.6-2.5,8.8,2C75.9,214.7,77.6,215.1,78.7,215.7z"/>
		<path class="st25" d="M54.7,326.7c1,3.2-2.4,7.9,3.2,9.6c1,0.3-0.1,1.8-0.1,2.7c0,12-3.4,23.5-4.8,35.3
			c-1.7,13.5-4.7,26.7-6.4,40.1c-0.1,0.4-0.5,0.8-0.8,1.2c-1-5.1-1.8-10.3-3.2-15.3c-1-3.5-6.7-5.8-2.9-10.7
			c-3.1-3.4-2.5-7.4-2.1-11.8c3.4,0.9,1.5,4.4,3,6.1c0.9,1.1,0.8,3.4,2.7,3c1.8-0.3,1.3-2.3,1.6-3.7c1.8-9.1,4-18.2,5.7-27.4
			c1.2-6.4,3-12.7,1.7-19.6C51.5,333.4,53.7,329.9,54.7,326.7z"/>
		<path class="st26" d="M63.8,161.7c-0.3,7.1,3,13.9,1.9,21c-0.2,2.1,0.5,4.3-0.8,6.9c-3.2-4.7-3.8-9.8-5.2-14.7
			c-1.4-4.8-2.2-9.7-1.2-14.8c0.5-2.9,0.6-6.3-2.9-8.2c-0.5-0.2-1-1.3-0.8-1.7c2.2-4.5-1.3-7.9-2.4-11.7c-0.8-2.6-1.3-5.3,1.4-6.5
			c2.9-1.2,5.1,0.4,5.9,3.5c0.1,0.4,0.6,0.8,0.9,1.2c0.4,0.4,0.8,0.8,1,1.3c0.3,7.6,1.6,15.2,2.3,22.8
			C63.9,161.1,63.8,161.4,63.8,161.7z"/>
		<path class="st27" d="M60.7,137.7c0-0.3,0-0.6,0-1c0-1,0-2,0.1-3c2.2-1.6,4.4-3.6,6.4,0.1c0.5,0.9,0.4,0.4,0.6-0.1
			c1.9-4.6,3.4-0.9,4.9,0.3c2.3,1.9,3.5,4.4,3.7,7.4c0.2,4.9,1.3,9.8,0.7,14.7c-1.5,2.1-3.7,2.7-6.1,2.9c-2.4,0.2-4.6,0.8-6.2,2.8
			h-0.5l-0.5,0l-0.1,0C62.6,153.7,61.2,145.8,60.7,137.7z"/>
		<path class="st25" d="M46.7,439.7c-2,3.4-0.1,7.9-3,11c-0.3-0.1-0.6-0.4-0.9-0.4c-7.2,1.3-8.9-3.2-9.2-9.4c3.4,2.8,5,0.6,5.2-2.5
			c0.5-7,5.2-12.8,4.9-19.9c0-1.2,0.8-1.7,1.9-1.9c4.1,1,1.9-3.5,4.5-4.8C50.5,421.6,46.8,430.4,46.7,439.7z"/>
		<path class="st28" d="M76.7,155.7c-0.9-3.6-1.6-7.3-1.2-11.1c0.5-5.1-2.3-8.9-6.1-12.5c-1.4,2,0.1,4.4-1.3,6c-1.4,0-1.2-1-1.3-1.8
			c-0.4-2.7-0.8-5.4-4.2-2.1c-0.2,0.2-1.2-0.4-1.8-0.6c-0.9-2.6-1.2-5.2-1.2-7.9c4.2,1.6,8.4,3.4,12.7,4.9c2.2,0.7,4.3,4,7-0.3
			c0.8-1.3,5.1-0.4,7.3,1.7c-5.7,2.3-5.8,2.8-5.2,9.2c0.5,4.9,2.8,9.6,0.8,14.6C80.3,157.5,78.4,159.1,76.7,155.7z"/>
		<path class="st21" d="M100.6,32.6c4,0,8,0.1,12,0.1c3,0,5.9,0,8.9,0c-4.4,0.4-8.5,2.1-12.9,2c-11.7-0.2-23.3,0.6-34.9,1.7
			c-2.6,0.2-6.3,1.1-8-2.7c2.7,0,5.3,0,8,0c5.6-1.3,11.3,0.3,16.9-0.8C93.9,32.8,97.3,32.7,100.6,32.6z"/>
		<path class="st20" d="M64.9,32.6c-8.1,0-16.1,0-24.2,0c2.1-1.6,4.5-0.6,6.7-0.9c1.9-0.3,4.8,0.9,4-3c-0.2-0.8,0.8-0.9,1.3-1.1
			C56.9,25.7,63.4,28.4,64.9,32.6z"/>
		<path class="st4" d="M90.6,32.9c-5.6,1.9-11.3,0.4-16.9,0.8C79.3,31.8,85,33.2,90.6,32.9z"/>
		<path class="st29" d="M250.4,180.7c6.6,0.8,13.7-0.3,19.2,5c1.4,1.3,3.5,1.3,5.3,0.9c6.1-1.3,12.1,0.1,18.1,0.9
			c3,0.4,6.5,0.1,9.3-1c6.3-2.4,13.4-1.8,19.2-4.3c6-2.6,12.1-3.7,18.2-5.1c1.8-0.4,3.7-0.7,5.4-0.4c18,3.5,34.9-1.8,51.8-6.9
			c5.7-1.7,11.2-4,16.9-5.9c2.2-0.7,4.5-0.7,6.7,0.1c0.5,1.3-0.5,1.5-1,2c-0.9,0.9-2.5,1.6-1.6,3.2c0.8,1.5,2.1,0.4,3.1,0.4
			c3.2,0,6.3,0,9.5,0c0.8,0,1.8-0.2,2.2,0.8c0.5,1.2-0.6,1.8-1.4,2.2c-6.2,3-10.8,8.7-17.8,10.5c-2.7,0.7-5.1,2.4-7.1,4.4
			c-4.4,3.1-9.7,3.2-14.6,4.4c-12.2,2.7-24.6,3.7-37,4.7c-13.6,1.1-27.5-0.2-41.2-1.2c-16.4-1.2-32.6-3.6-48.8-6.3
			c-2.7-0.5-5.2-1.2-7.6-2.2c-1.9-0.9-3.9-1.5-5.8-2.5C249.6,183.8,248,182.6,250.4,180.7z"/>
		<path class="st30" d="M287.4,151.7c5.5-0.7,10.7-2.2,16-3.9c0.1,1.5,0.8,2.7,2.4,2.8c6.2,0.3,12.4,2.6,18.6-0.3
			c2.5-1.1,5.3-1.2,7.2,1.4c1.2,1.6,2.4,3.2-0.5,4.8c-3.2,1.8-2,3.1,0.9,3.4c4,0.4,5.8,3.8,8.1,6.2c2.2,2.4-1.1,3.8-2.7,4.5
			c-6.8,3-13.6,5.6-21,6.9c-5.1,1-9.9-1.5-14.8-0.6c-12.7,2.3-25.3-0.3-37.9-0.1c-7.9,0.1-15.9-0.1-23.8-1.1
			c-5-0.6-9.7-3.1-14.5-5.1c6-1.3,11.7-2.9,18.1-2.1c6.7,0.7,13.7,0.1,20.5-1.2c4.8-1,6.5-3.5,4.5-8.2c0.3-0.7,0.8-1.1,1.4-1.5
			c0.4-0.2,0.8-0.4,1.2-0.5c2-0.2,3.9-0.7,5.4-2.2C279.8,152.9,283.5,151.7,287.4,151.7z"/>
		<path class="st31" d="M76.7,155.7c1.7,1.9,3.3,0.6,5,0.1c5.6-1.3,11.3-0.7,16.9-0.5c21.8,0.9,43.4,3.7,64.8,7.6
			c15.1,2.7,29.8,2.8,44.6,0.7c10.4-1.5,20.8-1.8,31.2-2.4c1.3-0.1,2.7,0.1,3.9,0.5c0.6,0.2,1.1,0.6,1.5,1.1
			c-3.2,1.5-6.8,1.6-10.1,1.7c-13.4,0.4-26.6,2.1-40.3,3.4c4,2.1,8.5,1.2,12.1,3.2c1.2,0.6,3.6,1.4,0.2,2.5c-3.8,3-7.9-0.5-11.8,0.4
			c-15.6-3-31.6-3.4-47.2-6.3c-17-3.2-34.3-3.4-51.4-5.9c11.3,1.4,22.6,2.4,34,3.4c12.9,1.1,25.4,4.9,38.2,5.7
			c8.1,0.5,16.2,0.9,23.8,4c2,0.8,5.1,1.8,1.8,5c2.3,1.4,5.2,2,8,2.9c1.5,0.5,3.9,0.3,3.6,3.1c-2.1,1.5-4.4,1.1-6.7,0.7
			c-22-3.8-44.1-7.5-66.2-11.1c-4.2-0.7-8.7,0.3-12.7-1.6c-7.8-3.9-15.8-7.1-24.7-7.8c-3-0.3-5.3,1.7-8.1,1.7
			c-1.1,0.1-2.1-0.1-3.1-0.3c-1.5-0.5-3-0.7-4.5-1.1c-2.9-1.1-6.2-0.8-8.7-2.8c-2-0.7-4-1.4-5.9-2.1c-0.3-3,1.3-4.2,4.1-3.9
			C71.7,158,74.3,157.2,76.7,155.7z"/>
		<path class="st30" d="M194.5,172.7c4,0.3,8,0.6,12,1c5.1,2.1,10.7,2.6,16,4c3.3-0.8,6.2,0.5,9,2c2.3,0.7,4.7,1.3,7,2
			c3.4-1.1,6.6,0.1,9.6,1.3c2.8,1.1,5.6,1.9,8.4,2.7c12.2,3.2,24.6,4.3,37,6.2c14.6,2.3,29.3,2.6,43.9,3.5c7.2,0.4,14.7,0.7,22-0.6
			c10.5-1.8,21.2-2.7,31.8-4.2c5-0.7,9.8-2.9,15-3c10.3-1.8,19.3-6.7,28.6-11.1c5.2-2.5,10.4-4.9,15.6-7.5c8.4-4.2,16.6-8.8,24-14.5
			c4.1-3.2,8.1-4.1,12.8-3.9c0.3,1.2-0.5,1.9-1.4,2.3c-11.1,5.3-20.7,13.3-32,18.3c-16.1,7.2-31.6,15.6-48.7,20.2
			c-2,0.5-3.7,1.4-5.4,2.5c-10.2,3.2-20.8,4.2-31.4,5c-11.2,0.8-22.5,1.9-33.8,1.2c-25-1.5-50-3.4-74.5-9.2
			c-16.1-3.9-32.2-8.2-48.4-11.3c-3.9-0.8-8-0.4-11.7-2.3C198,175.7,194.8,175.9,194.5,172.7z"/>
		<path class="st32" d="M400.1,192.7c1.3-2.8,4.3-2.5,6.5-3c12.7-3.4,24.3-9.4,36.2-14.8c11.2-5,22.2-10.3,32.1-17.6
			c3.8-2.8,8.4-3.9,12.1-6.6c1.5,0,3.2-0.1,3.6,1.8c0.3,1.5-1.1,2.2-2.2,3c-2.8,2-5.6,3.9-8.7,5.5c-1,0.5-4.1,1-1.9,3.6
			c-12.1,7.4-25.1,13-38.3,18.1c-4.4,1.7-8.9,3.3-13.4,4.9c-7.5,3.9-15.6,5-23.8,6C401.5,193.8,400.7,193.3,400.1,192.7z"/>
		<path class="st30" d="M283.4,183.8c-2.5-0.4-5.2-0.8-8-1.3c-0.5-0.1-1.3-0.8-1.3-1.2c0-0.4,0.6-1.1,1.2-1.4
			c3.8-2,7.7-1.1,11.5,0.2c1,0.3,1.7,1.3,1.3,2.4C287.2,184.6,285.2,183.4,283.4,183.8z"/>
		<path class="st31" d="M256.4,185.7c-6.2-0.2-12-2.8-18-4c-0.9-2.2,0.7-2.4,1.9-1.9c3.3,1.1,6.8,0.3,10.1,0.9
			c-0.7,1.4-0.5,2.4,1.2,3C253.2,184.2,255.1,184.4,256.4,185.7z"/>
		<path class="st31" d="M270.3,157.7c-0.3,0.9-1.1,1-1.9,1.1c-7.9,1.6-15.7,4-23.9,4l-0.2-0.3c0.1-1.2,1-1.7,2-1.9
			c6.8-1.1,13.5-3.2,20.4-4C268,156.5,269.3,156.6,270.3,157.7z"/>
		<path class="st31" d="M231.4,179.7c-3-0.7-6-1.3-9-2C226.3,174.4,228.8,177.3,231.4,179.7z"/>
		<path class="st33" d="M204.5,467.7c-1.6-1.5-0.9-3.4-1-5.2c-0.6-12.6,1.2-25.2,2-37.7c0.1-2.1,0.5-4.3-1.9-5.8
			c-0.5-0.3-1.1-1.7-0.9-2.1c2.4-4.1,0.4-7.6-0.9-11.6c-1-3-2.1-6.8,1-9.8c0.6-0.6,0.7-1.9,0.6-2.8c-3.5-18.3-1.5-36.7-1.6-55.1
			c0-0.3-0.2-0.6-0.3-0.9c0.5-3.9-0.3-7.7,1.3-11.7c1-2.5,0.5-6.5,0.2-9.4c-0.9-10.5,1.8-20.8,1.3-31c-0.3-7.1,1.6-15-0.5-20.8
			c-3.4-9.5-2.2-18.6-2.1-27.8c0.2-10.5,0.6-21,0.7-31.6c0-3,0.1-5.9-0.7-8.9c-0.6-2.1-1.1-4.9,2.7-4.9c1.6-1.3,3.2-0.9,4.6,0.3
			c1,1.1,1.8,2.5,1.9,4c0.7,8.9,1.6,17.6-1.9,26.4c-2.7,6.7-2.5,14.2,0.4,20.9c1.8,4.2,3.3,8.3,3.9,12.8c0.7,5.4,0.6,10.9,1.2,16.4
			c0.2,2.1,0.3,5-3.8,4.4c4.9,2.9,5.6,7.6,5.4,12.5c-0.2,5.1-1,10.3-0.7,15.5c0.1,1.5-0.2,3.1-1.8,3.8c-1.5,0.7-2.5-0.5-3.3-1.5
			c-1.7-2-2.4-1.1-2.8,0.9c-1.3,4.2-1.9,8.4-1.7,12.8c0.3,9.4-2.4,18.9,0.1,28.3c1.6,6,1.3,12.2,1.7,18.3c0.3,3.5,0.7,7.1-0.7,10.4
			c-1.8,4.1-1.3,8.1-0.1,12.2c1.2,4,2.6,7.9,1.1,12.2c-0.8,2.3,1.9,3.8,1.8,6c0.1,0.5,0.1,1.1,0.1,1.6c0.2,3.2-0.5,6.2-0.9,9.4
			c-0.4,3.2,0.2,6.2,1.5,9.2c0.2,0.8,0.3,1.6,0.3,2.5c-2.4,10.6-2,21.4-4.1,32C206.3,463.9,206.2,466.1,204.5,467.7z"/>
		<path class="st34" d="M208.5,191.7c-1.1-1.4-2.6-0.9-4-1.1c-5.3-2.3-11.1-2.5-16.6-3.8c-3.8-1-5.5,0.5-5.5,4.9
			c0,2.3,2.8,5.4-1,7.3c-5.4,0.7-10.4-1.2-15.6-2.2c-17.1-3.6-33.9-8.5-51.2-10.8c-2-0.3-4-0.6-5.1-2.6c0.4-1.8,2-1.6,3.2-1.5
			c3.9,0.4,6-2,8.3-5.5c-6.8-1.1-13-2.9-19.3-4.1c-3.6-0.6-7.2-1.2-10.7-1.9c-1.5-0.3-3.6-0.9-4.3,1.2c-0.8,2.1,0.8,3.4,2.4,4.4
			c1.9,1.2,4.2,1.1,6.2,1.8c1.5,0.5,4.4,0.3,3.1,3.5c-4,0.8-7.9,0-11.6-1.5c-4.6-2-6.2-9.4-3.1-13.2c1,0.1,2.1,0.2,3.1,0.2
			c11.4-0.4,22.2,2.8,33,5.9c7.2,1,14.4,1.8,21.6,3c15.5,2.5,31,5.2,46.6,7.6c5.9,0.9,11.6,2.9,17.7,2.6c4.5-1.1,8.3,0.5,12,3
			c-0.1,1.8-1.2,3.2-2,4.8C212.5,195.4,210.7,192.7,208.5,191.7z"/>
		<path class="st35" d="M83.5,166.5c-1.8,7.9,0.8,12,8.3,13.1c2.3,0.3,4.5,0.8,6.8,1.2c3.9-0.8,7.5-0.4,10.8,2
			c5.7,3,12.2,2.1,18.3,3.7c15.9,4,31.9,7.2,47.9,10.8c1.9,0.4,3.8,1.1,5.7,1.6c0.4,0.3,0.8,0.5,1.2,0.8c-1,3.5-3.8,1.9-5.7,1.6
			c-11.7-1.9-23.5-3.4-34.8-7.1c-13.8-2.9-27.6-5.6-41.3-9.2c-8.3-2.1-16.9-3-24.8-6.8c-4.7-2.2-5.4-4.5-1.7-8.1
			c1.7-1.6,3.5-3.1,5.3-4.5C81,165.9,82.4,165.2,83.5,166.5z"/>
		<path class="st36" d="M141.6,193.7c5.2-0.3,10.1,1.6,15,2.8c8,1.9,16.2,2.4,24.3,4.2c0.5,0.1,1.1-0.6,1.6-0.9c0.9,0.4,1,1.2,1,2
			c-2.7,3.5-6.3,2.3-9.4,1.2c-4.7-1.8-9.5-2.8-14.4-1.9c-2.7,0.5-4.6-1.8-7.1-1.2c-5.1-2.6-10.2-5.2-16-6
			C138.2,192.9,139.9,193,141.6,193.7z"/>
		<path class="st37" d="M272.2,156.6c-0.8-9.1-1.8-18.3-2.4-27.4c-0.3-4.2-2-5.3-5.9-3.8c-1.3,0.5-2.9,0.5-4.4,0.7
			c2.8-2.8,6.5-2.4,10-2.6c0.8,0,1.1,0.4,1,1.2c0.3,1.6,0.5,3.2,0.8,4.8c0.3,1.6-0.6,4.1,1.3,4.4c1.9,0.3,3.8-1.7,4.6-3.2
			c2.3-4.5,4.5-5.5,9-2.2c2.2,1.6,2.4,2.6,1.2,4.1c-2.2,2.7-2,5.4-1,8.3c1.3,3.5,0.9,7.2,1,10.8c-3.3,2.4-7.6,2-11,4
			C274.9,155.8,273.8,157.4,272.2,156.6z"/>
		<path class="st21" d="M124.7,31.9c24.6-0.7,49.2-1.5,73.7-2.2c3,0,6,0,8.9,0c-4.4,2-8.9,3-13.7,3.1c-18.2,0.3-36.3,0.5-54.5,1.1
			c-4.1,0.1-8.1-2-12.2-0.3C126,33.9,125.2,32.8,124.7,31.9z"/>
		<path class="st21" d="M257.4,126.6c-9.3,2.2-18.7,4.4-28,6.7c-2.3,0.5-4.5,0.9-6.8,0.5c-0.6-5.1,3.9-4.7,6.4-4.8
			c9.6-0.4,18.5-3.6,27.5-6.2C256.7,124,257.1,125.3,257.4,126.6z"/>
		<path class="st38" d="M270.5,124.7c-0.3-0.4-0.7-0.8-1-1.2c1-0.6,1.9-1.2,2.8-1.8c3.4-0.8,6.8-1.4,10-3c5.3-1.6,10.5-3.2,15.8-4.8
			c0.4,3.7,0,5.8-5,5.2c-5.2-0.6-9.3,3.2-13.9,5.2C276.3,125.6,273.5,127.1,270.5,124.7z"/>
		<path class="st39" d="M271.3,24.7c1.6-4.1,6.8-6.8,11.2-5.6c2.4,0.7,1.7,2.9,1.9,4.6C280,23.6,275.7,23.8,271.3,24.7z"/>
		<path class="st21" d="M249.4,26.9c3-0.1,6-0.1,9-0.2c-3,4-7.2,1-10.8,2.2C247.4,27.3,249.1,27.9,249.4,26.9z"/>
		<path class="st21" d="M222.5,28.8c4.3-0.2,8.5-1.6,12.8-1C231.3,30.8,226.9,30.2,222.5,28.8z"/>
		<path class="st21" d="M282.4,118.7c-3,2.3-6.3,3.1-10,3C275.6,120.3,278.9,119.2,282.4,118.7z"/>
		<path class="st21" d="M272.3,26.9c-2.3,1.3-3.7,0.8-5.1-0.8C268.9,25.7,270.4,25.3,272.3,26.9z"/>
		<path class="st40" d="M281.3,214.8c7.8-2.3,15.9-2.7,23.9-3.8c3.6-0.5,4.9,0.3,4.6,4.5c-0.5,5.9,0.3,11.8,0.4,17.8
			c0.4,23.9,0.4,47.8,1.3,71.7c0.6,16.2,1,32.5,1.8,48.7c0,4.6-0.1,9.3-0.1,14c-2.2-0.1-2.1-1.9-2.1-3.3c0-3.5-0.8-6.9-1.4-10.1
			c-0.6,2-0.8,4.2-1.1,6.4c-0.3,1.6-0.4,3.5-2.8,3.2c-2.4-4.6-0.6-9.5-1.3-14.3c-0.9-5.6,0.6-11.3,0-17c-0.3-3.5,0.8-7.2-1.6-10.6
			c-1.4-2,1.8-3.8,1.2-6.1c-2.5-9.5,0.8-19.2-1.1-29c-1.3-6.9-1.8-14.3-2.6-21.5c-0.3-3,0.5-9-6.5-6.4c-1.6,0.6-1.3-1.6-1.3-2.5
			c0.3-5.9-3.3-10.4-5-15.6c-1.9-5.7-3-11.8-4.9-17.6c-0.6-1.9-0.8-4-2.3-5.3C277.4,215.7,280.9,215.8,281.3,214.8z"/>
		<path class="st41" d="M304.3,332.7c1.8,5.7,1.1,11.6,1.3,17.4c0.1,4.5-1.2,9.1,0.7,13.6c2.1,2.5,1.7,5.5,1.3,8.1
			c-2.1,13.2,0.3,26.2,1.3,39.3c0.9,12.3,0.5,24.6-0.6,36.8c-0.6,6.7-0.7,13.2,0.4,19.9c1.1,6.3-3.7,10.8-9.9,9.1
			c-1.8-0.5-2.3-2.3-2.6-3.9c-0.3-1.6,0-3.3-0.2-5.1c-1.4-0.4-2.1,2.3-3.7,0.8c-2.1-7.8-1.1-15.9-1.7-23.8
			c-0.7-9.2-1.5-18.5-1.4-27.8c0-5.8-1.1-11.5-1-17.4c0.1-3.1-0.1-5.9,3.6-7.1c5.6-1.8,4.1-6.9,3-9.9c-1.9-5.3-1.4-10.8-0.9-15.5
			c0.5-5.2,0.7-9.8-0.3-14.8c-0.5-2.4,2.2-4.8,4.6-5c2-0.1,2,2.6,2.1,4.4c0.1,2.8,0,5.6-0.8,8.4c-0.5,1.5-0.5,3.7,1.6,4.1
			c2,0.3,1.6-1.9,2.3-3.1c2.6-5.1-1.6-9.7-0.8-15C303.2,341.7,303.9,337.2,304.3,332.7z"/>
		<path class="st42" d="M292.3,468.7c0.8-0.2,1.5-0.4,1.9-1.3c0.4-1-0.8-3.2,1.5-2.7c1.8,0.4,2.6,2,2.1,3.9
			c-0.7,2.8-1.1,5.5,1.2,7.7c2-0.6-0.2-2.2,0.9-3c1.9,0.6,3.1,3.7,5.5,1.5c2-1.7,2.8-3.9,2.1-6.6c-1.7-6.3-1.4-12.7-0.9-19.1
			c0.5-6.7,1.4-13.3,0.9-20.1c-0.4-5.6,0.5-11.2,0-16.9c-1-10.7-2.6-21.4-2.1-32.1c0.2-5.4,1.2-10.9,0.9-16.3
			c2.4-3-0.7-7.8,3.3-10.3c2.4,2.8,3,6,2.7,9.6c-0.1,1.6-0.5,3.3,0.9,4.7c0,7.7,0.1,15.3,0.1,23c1.3,6.3-0.4,12.7,0.9,19
			c0.4,17.6,0.7,35.3,1.1,52.9c1.2,4.6-0.3,9.4,0.8,14c0,5.2,0,10.3,0.1,15.5c0.1,2.4-0.7,4.2-3.1,4.3c-5.5,0.3-10.9,0.8-16.3-0.4
			c-2.2-0.5-3.7-1.4-3.5-3.9C293.8,484.2,291.7,476.5,292.3,468.7z"/>
		<path class="st40" d="M314.2,409.7c-2-6.3-0.4-12.7-0.9-19C315.3,396.9,313.8,403.3,314.2,409.7z"/>
		<path class="st40" d="M316.2,476.6c-1.8-4.6-0.5-9.4-0.8-14C317.1,467.2,315.9,472,316.2,476.6z"/>
		<path class="st24" d="M214.4,542.6c-1.7-2-3.2-4.1-4-6.7c-0.4-1.3-0.5-3.3-2.6-2.8c-1.8,0.4-3.2,1.5-3.3,3.7
			c-0.2,2.6-0.6,5.2-1,7.8c-1-2.6-0.9-12.4,0-14.6c0.3-0.7,1-1.6,0.8-2.2c-1.4-6.6-0.7-12.8,2.7-18.6c0.5-0.9,0.2-1.9-0.3-2.8
			c-4.7-8.7-3.3-18.3-4.3-27.5c-0.2-1.4-0.4-3,1-4.2c1.8,5.9,4.5,11.5,5.3,17.7c0.3,2.1,1.3,3.6,2.3,5.3c0.7,1.6,0.7,3.2,0.2,4.9
			c-2.7,6.7-1.2,13.3,1,19.7C213.2,529,216.5,535.5,214.4,542.6z"/>
		<path class="st15" d="M210.5,497.6c-0.9-0.7-2.6-1.4-2.6-2c0.6-7.5-5.6-13.5-4.4-21c0.3-2.3,0.7-4.7,1-7
			c1.1-7.4,3.2-14.9,2.9-22.3c-0.3-5.6,2.2-10.4,2.1-15.7c1.7-0.3,2.8,0.9,2.6,2.2c-1.1,6.2,3.3,12.2,0.8,18.5
			c-4.8,11.6,1.2,23.6-1,35.3C211.2,489.6,213.1,493.9,210.5,497.6z"/>
		<path class="st43" d="M479.2,552.6c-4.8,0.6-6.9-0.7-7.3-6.3c-1.1-14.2-1.2-28.5-3-42.6c-1-8.4,0.4-16.9-1.7-25.3
			c-0.4-1.7-0.3-3.5,1.8-5.1c2.4-2,4.2-5.1,0.2-8.1c-3.1-2.3-1.6-3.3,2.4-3.3c-6.3-1.7-5.6-5.2-4.8-9.6c0.7-3.7-1.2-7.9,3.1-10.6
			c-4.3-2.4-7.7-12.9-5.7-16.6c0.5-1,1-0.9,1.9-0.4c3.2,2,3.9-0.2,3.9-2.7c0-6.1-0.1-12.2-0.5-18.3c-0.6-8.5,0.3-17.1,1-25.6
			c0.2-2.2,0.4-4.1-0.2-6.3c-2.2-7.3-1.2-14.7-0.8-22.2c0.4-7,4.1-14.9-2.1-21.6c-1.3-1.5,0.1-3.5,1-5.1c1.7-2.9,2.2-5.9,0.8-9
			c-1.5-3.6-2.3-7.2-0.2-11c1.8-3.1-1.1-5.9-1.4-8.9c-0.5-4.8-1.1-9.5,0.2-14.3c1-3.5-2.4-6-2-9.5c0.9-7.5-0.9-15.2,0.1-22.7
			c0.1-0.8,0.2-1.7,0-2.5c-0.6-2.2-0.2-5.7-2.1-6.2c-2.4-0.6-4,2.3-4.9,4.7c-0.4,1.2-1,2.2-2.4,2.1c-1.7-0.1-1-1.8-1.6-2.6
			c-4.4-6.2-2.8-13.5-3.9-20.3c1-1.9,1.7-4,3.3-5.5c1.8-1.7,2-6,5.5-4.6c3.3,1.3,6.1,4,7.2,7.8c0.5,1.9,0.3,4,0.7,6
			c1.7,8.3,2.4,16.7,4.1,25c0.4,2,0,4-0.3,6c-0.5,3.4,1.3,6.6,1.4,9.8c0.3,7.2,1.4,14.5,0.9,21.8c-0.2,2.9-0.5,5.7,0.8,8.3
			c1.7,3.4,1.9,7,1.7,10.7c-1,15.9-2,31.9-0.9,47.8c1,15.8-0.2,31.6,1.6,47.3c0.5,4.6,0.7,9.3-0.5,13.9c-1.7,6.5,1.2,12.8,1.3,19.2
			c0,2.3,0.9,4.8,0,6.9c-2,4.7-1.1,9.4,0.1,13.7c2.4,8.7,2.4,17.4,2.3,26.3c0,2,0,4,0.7,5.9c-0.6,12.4,1.6,24.8-0.8,37.2
			c-0.8,4.4,0.4,9.2,0.8,13.9C481.4,544.2,483.2,548.9,479.2,552.6z"/>
		<path class="st44" d="M480,488.7c-2-2.9-0.8-6.1-0.9-9.2c-0.2-7.4-0.5-14.6-2.5-22c-1.2-4.3-2-9.4-0.2-14.8
			c1.8-5.3,0.2-11.7-1.4-17.4c-0.4-1.5-1-2.7-0.6-4.2c1.8-7,1.6-13.9,0.9-21.1c-0.9-10-0.2-20.1-0.3-30.2c0-3.6,0.8-7.3-1.3-10.7
			c-1.4-2.3,0.4-4.5,0.4-6.8c-0.1-9.8,0.1-19.6,0.5-29.4c0.2-4.7,0.1-9.5,0.3-14.2c0.2-3.9,0.5-7.9-1.9-11.5
			c-1.4-2.1-1.4-4.8-0.8-7.3c0.9-3.6,1.7-7.1-0.8-10.5c-0.8-1.1,0.2-2.2,0.3-3.3c0.4-3.9,1.6-7.9-1.2-11.5c-0.5-0.6-0.7-1.6-0.5-2.4
			c1.3-7.1-0.6-14-1.2-20.9c-0.6-7.1-2.7-14.1-3.2-21.4c-0.2-3.1-4.4-4.1-6.3-6.6c-0.5-0.6-1.9,0.2-1.9,0.9c0,4.5-4.4,5.6-6.4,8.5
			c-0.2-1.9,0.4-3.3-3.2-2.5c-3.6,0.9-7.9-0.9-11.8-1.5c-2.3-0.4-4.5-0.8-7.2-1.2c1.2-0.7,2.2-1.2,3.2-1.7c1.2-1.2,2.6-1.6,4.2-1.8
			c2.7-0.2,5.3-1.5,8.2-0.3c2.1,1,3.2-0.4,3.2-2.4c-0.2-4.6,2.8-7.3,5.9-9.9c4-3.3,6.5-3.3,10.6,0c2,1.6,3.9,2.9,6.7,2.4
			c4.6-0.7,5.5,0.1,5.4,4.7c0,1.5,0,3-1.3,4.1c-1.6,1.5-0.9,3.4-1,5.2c-0.2,18.5,0.5,37,3.2,55.4c0.9,5.9,3.6,11.5,4.3,17.7
			c0.3,2.8-0.6,5.2-0.5,7.8c2,5.9,1.6,12.1,1,18.1c-0.9,8.2-0.3,16.3,0.8,24.2c1.2,9.5-0.2,18.8,0.4,28.2
			c-0.1,6.6,0.3,13.2-0.5,19.9c-0.3,2.8-0.5,5.5-1.5,8.2c-2.5,7-2.9,14.3-2.3,21.6c0.2,2.8,0.4,5.6,0.1,8.5
			c-0.2,1.5-0.4,3.1,0.6,4.3c4.2,5.2,2.8,11,1.8,16.7c-0.2,1.1-0.9,2.2-0.4,3.4c4.2,10.2,0.8,20.8,1.3,31.1
			C482.4,484.9,481.9,487.2,480,488.7z"/>
		<path class="st45" d="M480,488.7c1.2-10.7,2.1-21.3,1-32.1c-0.2-1.6-0.5-2.9-1.6-4c-0.9-0.8-1.8-1.9-0.7-3
			c3.7-3.6,1.5-8.1,2.2-12.2c0.1-0.6,0.1-1.6-0.3-1.9c-6.7-5.2-2.4-12.6-3.2-18.8c-1-7.7,1.4-15.6,3.4-23.4
			c1.6-6.1,2.6-13.6,0.6-20.5c-0.3-1.2-0.7-2.2,0.5-3.1c2.8,1.4,2.6,4.2,2.5,6.5c-0.2,6.3,1.3,12.5,1.6,18.8
			c0.4,9.5,1.4,19.1,1.4,28.6c0,2.9-0.5,5.4-1.6,8.2c-2.2,5.4-0.2,11.1-0.2,16.7c0.2,12.7,3.3,25.3,1.3,38.1
			c-0.3,1.8,0.1,3.7,0.5,5.5c3,13.5,1.8,27,0.6,40.6c-0.5,5.1-0.7,10.3-1.6,15.3c-0.3,1.6-0.4,3.3-1.6,4.6c-2,0-3.9,0-5.8-0.1
			c1.6-4.2,1-8.6,0.7-12.8c-0.5-6.2-1.5-12.1-0.2-18.5c1.3-6.9,1-14.3,0-21.3C479.1,496,480.6,492.4,480,488.7z"/>
		<path class="st46" d="M485,552.6c0.8-8,1.8-15.9,2.4-23.9c0.4-5.9,0.3-11.8,0.5-17.7c0.4-8-2-15.7-2.3-23.4
			c-0.2-5.9,0.9-11.9,0.3-18c-1-11.1-1.6-22.2-2.5-33.3c-0.2-1.8-0.6-3.6,0.6-5.2c5.4-7,3-14.6,1.9-22.1c-0.1-1-1.1-2-0.8-2.8
			c2.3-6.2-0.5-12.4-0.7-18.4c-0.2-5.9-0.2-12.4-2.4-18.2c0.2-14.9-0.8-29.8-1.6-44.6c-0.5-8.7,1.2-17.5,0.7-26.3
			c3.8,2.3,2.5,6.6,2.6,9.6c0.5,10.4,2.7,20.8,1.9,31c-0.8,10.7,1.3,21.2,0.6,31.8c-0.4,6.8,0.5,13.6,1.6,20.4
			c1.2,7.5,0.3,15.5,0.3,23.2c-0.2,17.5,2.7,35,2,52.5c-0.2,4.8-1.2,9.6-0.9,14.4c0.7,11.8,2.3,23.7,2.6,35.5
			c0.2,8.5,2,17.1-1.4,25.6c-1.1,2.9-0.3,6.6-0.4,9.9C488.3,552.6,486.7,552.6,485,552.6z"/>
		<path class="st19" d="M475,212.7c0-1,0-2,0-3c-0.1-3,1.3-7.2-4.7-4.2c-2.5,1.2-5.2-0.8-6.9-3c-2.7-3.7-5.9-2.9-8.5-0.6
			c-3,2.7-6.8,5.2-6,10.5c0.4,2.7-0.1,5.4-4.1,2.9c-2.6-1.6-5.7-1.1-8.6-0.6c-1.6-1.3-1.8-3.2-1.6-5c0.5-6-1.6-12.2,1.5-17.9
			c2.2,4.4,0.6,9,1,13.6c0.2,2.4,0,4.9,0,7.3c1.1,0.2,1.9-0.3,1.7-0.9c-1.5-5.4,2.2-7.3,6-8.9c3.1-1.3,3.7-3.4,3.1-6.3
			c-0.1-0.5-0.3-1-0.3-1.5c0-9.8,0-9.8,9.8-10.4c1-0.1,2-0.1,2.7-1c5-2.6,10.1-4.8,15.9-4.1c3.8-0.7,6.1-3.7,8.8-6.1
			c0.1,9.5-1,19.2-0.4,28.6c0.8,12.3,1.3,24.7,2.1,37c0.6,9.9,0.1,19.8,0.1,29.7c-1.2,0.5-1.8-0.2-2-1c-2.6-10.3-5.1-20.5-4.4-31.4
			c0.3-4.7,1.2-10.1-3.2-14.4C474.7,219.7,476.6,215.7,475,212.7z"/>
		<path class="st47" d="M210.5,497.6c0-10.4,0-20.8,0-31.2c0-1.3,0.3-2.7-0.7-3.8c-2.7-3.1-1.4-5.2,0.6-8.5
			c2.1-3.6,3.1-8.9,1.4-13.2c-1.1-2.7-2.5-4.8-0.7-7.7c1-1.5-0.1-2.8-1.6-3.6c0-0.7,0-1.3,0-2c0-4.4,0.2-8.7,0.5-13
			c0.1-2.2-0.2-4.2-1.5-6c0-0.3,0-0.6,0-1c1.2-15.6,3.2-31.2,0.3-46.9c-0.6-3.3,0.2-6.3,2.1-9c3.4-4.8-0.2-9.7,0.5-14.5
			c0.1-0.5-0.2-0.3-0.4-0.3c-4.2-1.2-4.2-1.2-4.6-5.2c-0.7-8.4-0.6-16.7,0-25.1c0.4-1.6-1.1-4.1,1.4-4.7c2-0.5,2.5,1.8,3.3,3.2
			c0.5,0.8,0.7,2,2,1.9c0.9-0.1,1.4-1.1,1.2-1.9c-1.6-7,1.2-14,0.2-21c-0.3-2.3-0.7-4-2.6-5.5c-2.2-1.8-3.1-4.4-2-7.4
			c2.5,0.6,0.5,3.5,2.5,3.9c0.2-0.1,0.5-0.1,0.5-0.2c-0.7-10.4,0.4-20.9-4.2-31c-3.6-8-4.4-16.7,0.2-25c0.7-1.2,1-2.9,0.9-4.3
			c-0.5-7.6,2.2-15.5-1.5-22.8c2.6-0.5,4.5,2,7,1.9c1.1,0.2,2.3,0,3,1.1c-2,1.7-0.9,3.6-0.5,5.5c0.7,3.6,1.6,7.2-1.8,10.2
			c-1.3,1.2-0.7,3.1-0.8,4.8c-0.4,4.1,0,8.4-3.2,11.7c-0.6,0.9-2.7,0.5-2,2.4c2.1,0.7,3.7,2.1,3.7,4.3c0,8,2.8,15.1,7.2,22.1
			c0.2-7.2-0.1-14.3,0.2-21.3c0.1-2-1.1-4.9,2.3-5.7c0,17.3,0.5,34.7-0.3,52c-1.1,26.1-0.5,52.2-0.8,78.2
			c-0.4,35.5-0.2,71.1-1.3,106.7c-0.6,18.8,0.2,37.6-0.9,56.4c-0.3,6,0.1,11.9-0.1,17.8c-0.8,6,0.5,12-0.7,17.9c0,8-0.1,16-0.2,24
			c-1.2,4.6,0.5,9.3-0.9,13.9c0,0,0,0,0,0c-2.8,1.2-5.6,2.9-5.5-2.7c0-2.3-1.9-4.5-2.7-6.9c-1.2-3.4-0.8-6.5,0.8-10
			c2.8-5.9,2.3-12.5,2.3-18.8c0-5,0.5-9.8,1.2-14.6c-1-6.7-2-13.3-3-20c-1-6.6-2.9-13.2-1-20C210.5,501,210.5,499.3,210.5,497.6z"/>
		<path class="st48" d="M223.4,228.7c-1.9,2.2-0.9,4.8-1,7.2c-0.2,6.7-0.1,13.3-0.1,20c0,1.4-0.2,2.9-1.9,3
			c-1.7,0.1-1.7-1.9-1.6-2.6c0.4-5.9-7-8.7-5.7-14.8c0.2-0.7-0.4-1.6-0.3-2.4c0.8-4.7-0.3-8.2-5.4-9.4c1.7-1.8,4-1.1,6-1.4
			c0.5,0.4,0.3-1,0-0.4c0,0-0.2-0.1-0.5-0.2c-0.6-0.2-1.2-0.5-1.6-1c2.2-4,2.8-8.2,2.3-12.8c-0.2-1.6-0.3-4.3,0.4-4.6
			c7.1-3,2.4-8.3,1.7-11.8c-0.8-3.7,0.8-2.8,2.6-2.9c2,0.7,4,1.4,5.9,2c1.1,1.8,1,3.8,1,5.8C225.3,211.3,224.6,220,223.4,228.7z"/>
		<path class="st49" d="M403.2,196.7c-1.3,0.7-2.7,1.3-4,2c-10,1.5-19.9,3.4-30,4.4c-16.5,1.8-33.1,1.9-49.7,1
			c-17.1-0.9-34-3.3-50.8-6.4c-14.8-2.6-29.6-4.9-44.4-7.4c-1-0.2-1.9-0.7-2.8-1c3.4-2.8,6.8-5.4,11.5-3.5c1.4,0.6,2.9,0.3,4.3,0.4
			c10.2,1.6,20,4.6,30.1,6.7c20.1,4.2,40.3,5.9,60.7,7.3c23,1.5,45.8-0.3,68.3-4.7C398.8,195.2,401.2,194.8,403.2,196.7z"/>
		<path class="st50" d="M236.5,187.7c-0.8,0-1.8,0.2-2.5-0.1c-3-1.4-5.7-2.1-8.3,0.8c-0.9,1-3-0.2-4.2,1c-1.5,0.6-2.7-0.3-4.1-0.6
			c-4-1-8-2-12-3c-5.2-2.6-11.5-2.8-16.5-6.7c1.7-2,4.2,0.9,6-1.5c-4-1.5-7.8-3.4-12-3.9c-11.8-1.4-23.8-1.6-35.2-4.3
			C131,165.3,114,165,97,163.7c-2.2-0.2-4.2-0.4-6.5-3.4c35.6,3.2,69.9,7.3,104,12.5c1.2,1.8,3.7,1.4,5,3c-0.8,2.3,1.1,1.9,2.2,2.1
			c9.8,1.7,19.4,4.2,29.1,6.1C233,184.3,236,184.3,236.5,187.7z"/>
		<path class="st51" d="M141.6,193.7c-1.7,0-3.4,0-5.1,0.1c-6.1-0.7-12.4-1.6-18.2-2.9c-5.9-1.3-11.8-3.8-17.9-4.6
			c-7.5-1.1-14.7-3.7-22.2-4.6c-4.1-0.5-6.5-3.8-9.6-5.8c-0.7-0.5-1.2-1.7-0.7-2.2c3.3-2.7,0.7-7,2.8-10c3.2-0.1,6.2,0.3,9,2
			c0.1,2-0.4,3.4-2.7,4.1c-2.1,0.7-3.9,2.5-4,4.5c-0.2,2.8,3,1.9,4.5,2.8c8.1,4.9,17.8,4.1,26.3,7.3c10.5,4,21.8,3.9,32.2,8
			C137.7,193.3,140,192,141.6,193.7z"/>
		<path class="st15" d="M219.5,557.7c0.3-6-0.9-12,0.7-17.9C220.1,545.7,221.2,551.7,219.5,557.7z"/>
		<path class="st15" d="M218.4,595.6c0.5-4.6-0.9-9.4,0.9-13.9C219,586.3,220.5,591,218.4,595.6z"/>
		<path class="st52" d="M236.5,187.7c-1.8-2-4.3-2.4-6.7-2.9c-10.1-2.1-20.3-4.1-30.5-6.1c-1.1-0.2-2.6,0.1-2.5-1.6
			c0.1-1.7,1.6-1.3,2.7-1.4c3.6,2.5,8,1.5,11.9,2.5c13.8,3.3,27.6,6.5,41.4,9.8c18.3,4.2,36.8,7.5,55.6,8.9c14,1,28.1,2.4,42.1,1.7
			c16.7-0.8,33.3-1.7,49.6-5.9c8.9-0.5,17.2-3.8,26-5c-0.7,1.1-0.6,2.1,0.1,3.1c-1.3,3.7-5.1,1-7,2.9c-5.3,1-10.7,2-16,3
			c-8.3-0.1-16.2,2.7-24.5,3.4c-13.8,1.1-27.5,3.4-41.5,1.9c-8.8-1-17.9-0.1-26.8-1.2c-14.4-1.8-28.8-3.1-43.1-6.2
			C257,192.3,246.9,189,236.5,187.7z"/>
		<path class="st53" d="M419.1,193.7c1.8-2.4,5-1.2,7-2.9c1.3-0.4,2.6-0.8,4-1.2c1.3-0.7,2.3-0.3,3,0.9c1,0.4,1.9,0.9,2.9,1.3
			c0,7.6,0.1,15.3,0.1,22.9c-1.1,1.5-2.7,0.9-4.1,1c-4.2-6-6.8-12.8-8.9-19.7C422.5,193.4,420.8,193.9,419.1,193.7z"/>
		<path class="st54" d="M476,179.7c-5.3,1.3-10.4,3.7-15.9,4.1c-3.3,0-6.6,0-10,0c6.5-3.8,12.4-8.7,20.5-8.7
			C474.1,175.1,475.3,176.9,476,179.7z"/>
		<path class="st52" d="M433.2,190.5c-1-0.3-2-0.6-3-0.9c2.3-1.9,5-2.7,8.5-2.8C436.7,188.5,434.1,188.3,433.2,190.5z"/>
		<path class="st55" d="M65.3,57.2c-1-0.4-1.6-1.2-1.4-2.3c0.2-1,0.7-2,1.9-1.7c1.2,0.3,0.9,1.5,0.9,2.5
			C66.7,56.5,66.5,57.3,65.3,57.2z"/>
		<path class="st56" d="M282.5,47.3c-0.8,0-1.1-0.6-1.1-1.3c-0.1-1.1,0.2-2,1.4-2.2c0.7-0.1,1.3,0.4,1.2,1.1
			C283.9,46,283.6,46.9,282.5,47.3z"/>
		<path class="st21" d="M216.7,134.9c-6.5,2.4-13.2,2.8-20,2.9C203.2,135.8,209.8,135,216.7,134.9z"/>
		<path class="st1" d="M60.7,137.7c2.3,3.4,0.7,7.4,1.6,11.1c1,4.1,2.9,8.4,1.4,12.9C61,153.9,60.6,145.8,60.7,137.7z"/>
		<path class="st31" d="M272.2,156.6c1.3-0.8,2.4-2.4,4.2-0.9c-1.3,2.7-3.8,1.9-6,2C270.7,156.9,271.4,156.6,272.2,156.6z"/>
		<path class="st57" d="M119.6,172.7c-11.2-1.1-22-4-33-5.9C98.8,162.4,109.2,167.5,119.6,172.7z"/>
		<path class="st24" d="M206.5,306.7c1.5,2,1.3,3.9,1,6.4c-0.6,5.7-0.1,11.5,0,17.2c0,1.3,0.8,2.4,0.3,3.9c-0.5,1.2,0.2,2.7,1.2,3
			c2,0.5,0.7-2.2,3-2.8c-0.6,6.8,4.8,13.1-1.1,20.1c-3.4,4,0.2,9.5,0.4,14.2c0.1,1.8,0.4,3.6,0.3,5.5c-0.4,8.6-0.4,17.1-0.6,25.7
			c-0.1,2.8-1.3,5.3-2.5,7.8c-1.4-3.5-3.7-6.5-1.3-10.8c0.9-1.7-1-5-1.7-7.5c-1.2-4.3-2.8-8.4,0.1-12.7c1.1-1.7,0.9-3.8,0.9-5.8
			c0.1-11.3-3.4-22.5-2.8-33.7C204.3,327,202.8,316.5,206.5,306.7z"/>
		<path class="st24" d="M208.5,408.6c5.3,2.3,2.1,7.1,2.7,10.6c0.4,2.6-0.1,5.8-1.7,8.5c-2.4-3.8-2.4-7.9-1.5-12.2
			C208.5,413.2,208.3,410.9,208.5,408.6z"/>
		<path class="st0" d="M109.5,182.8c-3.6-0.5-7.4-0.3-10.8-2c-1.2-2-3.2-2-5.2-2.2c-2.7-0.2-5.2-0.8-7.2-2.8c-1.8-1.8-1.8-4-1.1-6
			c0.7-2,3-1.5,4.3-1.1c6.3,2.1,13,1.5,19.3,3.8c3.8,1.4,8,1.7,12.1,2.1c3.2,0.3,2.7,1.3,1.2,3.3
			C118.8,182.2,114.9,184.5,109.5,182.8z"/>
		<path class="st13" d="M273.6,147.9c-0.3-2.5-0.7-4.9-1-7.4C277.3,143.5,277.4,144.3,273.6,147.9z"/>
		<path class="st15" d="M210.5,502.6c0.3,6.7,0.7,13.3,1,20C208.2,518.8,207.6,507,210.5,502.6z"/>
		<path class="st7" d="M464.8,233.3c0,1.2-0.5,2.1-1.7,2c-1.6-0.2-2.6-1.4-2.8-3c-0.2-1.3,0.5-2.4,1.9-2.3
			C463.9,230.3,464.1,232.1,464.8,233.3z"/>
		<path class="st58" d="M211.5,226.7c1.9,0.6,5.5-1.2,5.5,1.3c0,3.1-3.6,1.3-5.5,1.7c-1.3,0.2-2.6,0-4,0
			C207,226.4,209.5,226.9,211.5,226.7z"/>
	</g>
</g>
</svg>
