<?xml version="1.0" encoding="utf-8"?>
<!-- Generator: Adobe Illustrator 24.1.0, SVG Export Plug-In . SVG Version: 6.00 Build 0)  -->
<svg version="1.1" id="Layer_1" xmlns="http://www.w3.org/2000/svg" xmlns:xlink="http://www.w3.org/1999/xlink" x="0px" y="0px"
	 viewBox="0 0 1366 768" style="enable-background:new 0 0 1366 768;" xml:space="preserve">
<style type="text/css">
	.st0{fill:#FEFEFE;}
	.st1{fill:#EEE9D5;}
	.st2{fill:#DCDCDC;}
	.st3{fill:#DDDAC8;}
	.st4{fill:#D0CDBD;}
	.st5{fill:#E0D9C6;}
	.st6{fill:#B7B5A6;}
	.st7{fill:#BBB8AB;}
	.st8{fill:#C7C7C7;}
	.st9{fill:#E5E0CA;}
	.st10{fill:#E4E5D4;}
	.st11{fill:#A8A79B;}
	.st12{fill:#C8C5B6;}
	.st13{fill:#E9E9E9;}
	.st14{fill:#C5C2B1;}
	.st15{fill:#B9B6A8;}
	.st16{fill:#617589;}
	.st17{fill:#7A7A7B;}
	.st18{fill:#9A9A9A;}
	.st19{fill:#989897;}
	.st20{fill:#AFAFA5;}
	.st21{fill:#939289;}
	.st22{fill:#A7A7A7;}
	.st23{fill:#A8A8A8;}
	.st24{fill:#CBCAC8;}
	.st25{fill:#F6F0DF;}
	.st26{fill:#E9E6D2;}
	.st27{fill:#FCFAF5;}
	.st28{fill:#CFCDBE;}
	.st29{fill:#B0AD9A;}
	.st30{fill:#B6B3A0;}
	.st31{fill:#C3C2B2;}
	.st32{fill:#A0A09A;}
	.st33{fill:#CCCABB;}
	.st34{fill:#D4D1BC;}
	.st35{fill:#C7C3B0;}
	.st36{fill:#F4EFDB;}
	.st37{fill:#6F899E;}
	.st38{fill:#959798;}
	.st39{fill:#787D7B;}
	.st40{fill:#D2D0BF;}
	.st41{fill:#DBD8C8;}
	.st42{fill:#4E6074;}
	.st43{fill:#6A7177;}
	.st44{fill:#E7E7D4;}
	.st45{fill:#F6F5F3;}
	.st46{fill:#DBD8C7;}
	.st47{fill:#CECAB5;}
	.st48{fill:#D9D5BF;}
	.st49{fill:#C0BCA9;}
	.st50{fill:#C2BEA6;}
	.st51{fill:#DAD7C7;}
	.st52{fill:#C4C0A7;}
	.st53{fill:#364162;}
	.st54{fill:#E7E0CA;}
	.st55{fill:#9CA8AC;}
	.st56{fill:#C5C9BE;}
	.st57{fill:#E7E1CB;}
	.st58{fill:#DEDBC9;}
	.st59{fill:#A4AAAA;}
	.st60{fill:#829AA3;}
	.st61{fill:#9A9F9F;}
	.st62{fill:#E2DFCC;}
	.st63{fill:#DCD3C1;}
	.st64{fill:#E5E0CB;}
	.st65{fill:#B4B1AA;}
	.st66{fill:#E9E6D4;}
	.st67{fill:#27365E;}
	.st68{fill:#B5B3AE;}
	.st69{fill:#DAD2BE;}
	.st70{fill:#D1CBB7;}
	.st71{fill:#9B928F;}
	.st72{fill:#A0A4A9;}
	.st73{fill:#A5A1A0;}
	.st74{fill:#4B506B;}
	.st75{fill:#A6AAA7;}
	.st76{fill:#5A6478;}
</style>
<g>
	<g>
		<path class="st0" d="M395,96.09c190.47,0,380.94,0.01,571.41-0.09c3.75,0,4.6,0.84,4.59,4.59c-0.11,188.94-0.11,377.88,0,566.82
			c0,3.75-0.84,4.59-4.59,4.59c-190.47-0.11-380.94-0.09-571.41-0.09C395,479.97,395,288.03,395,96.09z"/>
		<path class="st1" d="M509.99,349.01c-0.34-18.08-0.31-36.18-1.14-54.23c-0.74-16.04-1.3-32.09-2.06-48.13
			c-0.72-15.38-1.89-30.74-1.85-46.15c0.02-7.46,0-7.46,6.5-9.27c-0.12-1.58-1.97-0.95-2.52-1.96c2.12-1.99,4.29-1.31,6.48-0.15
			c1.57,1.44,3.5,1.71,5.51,1.56c5.67-0.41,11.47,1.07,17.03-1.07c0.87-0.2,1.69-0.13,2.38,0.51c0.79,3.77,2.21,7.08,5.64,9.36
			c2.8,1.86,4.05,1.64,5.09-1.56c0.31-0.95,0.38-1.96,0.48-2.95c0.25-2.45,0.8-4.69,3.79-5.07c2.97-0.38,5.74-0.1,7.36,2.87
			c1.51,2.77,2.91,5.6,4.59,8.29c1.4,2.24,0.77,4.55-1.02,6.4c-3.72,3.85-4.39,8.46-3.51,13.46c1.04,5.85-0.61,11.59-0.7,17.4
			c-0.03,2.01-0.93,4.25-3.17,4.61c-2.64,0.42-3.1-2.1-3.64-3.94c-1.89-6.33-4.64-12.47-3.13-19.45c0.56-2.6-0.34-6.33-2.79-6.86
			c-2.47-0.54-2.94,3.31-4.15,5.31c-0.43,0.7-0.48,1.59-0.46,2.43c0.5,20.57-0.62,41.15,1.36,61.73
			c1.04,10.86,0.94,21.93,1.11,32.88c0.17,10.7,2.37,21.18,2.32,31.85c-0.02,3.38,2.16,5.26,5.18,5.84
			c7.58,1.46,15.24,1.14,22.86,0.25c2.75-0.32,4.02-2.22,3.92-4.92c-0.3-8.01,0.79-15.95,1.04-23.93
			c0.55-17.6,1.54-35.24,0.44-52.82c-0.94-15.11,1.03-30.33-1.95-45.33c-0.3-1.48-0.03-3,0.3-4.46c1.08-4.83,0.79-9.56-0.58-14.31
			c-0.98-3.39-1.07-6.87-0.54-10.39c0.87-5.83,5.08-10.09,13.27-5.01c1.14,1.78,0.62,3.93,1.3,5.81c2.88,3.52,3.31,7.64,3.87,12.05
			c3.89,30.3,3.11,60.76,4.08,91.18c0.53,16.8,0.41,33.61,1.21,50.41c0.12,2.54,0.63,4.79,3.04,5.81c5.46,2.3,11.04,3.8,16.92,1.26
			c3.67-1.58,6.08-4.02,6.14-8.26c0.01-1,0.12-2.01,0.46-2.95c0.63-1.76,1.38-3.72,3.64-3.43c2.22,0.28,2.54,2.29,2.74,4.19
			c0.51,4.86,1.91,6.76,6.74,6.37c7.69-0.63,14.84,1,22.07,3.13c4.69,1.38,8.53-1.3,8.62-6.28c0.26-14.81,0.71-29.64-0.27-44.45
			c-0.15-2.32-0.52-4.63-0.51-6.97c0.05-23.31-0.94-46.58-2.9-69.81c-0.08-1-0.32-2.07-0.05-2.99c3.14-10.7,0.61-21.29-0.47-31.92
			c-0.43-4.28,0.83-5.06,5.25-3.99c2.78,10.49,4.46,21.02,1.93,31.87c-1.53,6.54-1.09,13.28-0.56,19.86
			c1.28,15.73,1.82,31.47,1.79,47.24c-0.02,11.27,0.89,22.52,0.78,33.78c-0.05,4.8-0.27,9.6-0.39,14.39
			c-0.12,4.98,0.43,9.91,0.22,14.86c-0.27,1.41-0.76,2.74-1.34,4.05c-3.88,6.58-6.38,13.23-1.5,20.49c0.99,1.47,0.85,3.17,0.1,4.79
			c-2.41,5.22-11.42,9.03-16.62,6.65c-3.67-1.68-6.62-1.52-9.54,1.33c-2.41,2.36-4.53,1.77-6.78-0.68
			c-4.19-4.56-8.84-7.05-15.46-4.21c-7.32,3.14-14.72,1.85-21.65-1.89c-1.75-0.94-3.83-2.08-3.27-4.45c0.5-2.11,2.76-2,4.53-2.44
			c7.18-1.8,14.15-2.42,21.61-0.36c8.02,2.22,9.37,0.47,8.42-7.61c-0.14-1.16-0.22-2.33-0.63-3.43c-0.7-1.9-1.45-3.99-3.83-4.09
			c-2.28-0.09-2.81,2.02-3.49,3.69c-0.63,1.54-1.1,3.14-1.7,4.7c-1.21,3.15-3.37,4.88-6.85,4.7c-3.4-0.18-6.27-1.2-7.22-4.92
			c-0.47-1.86-1.06-3.6-3.23-3.98c-4.79-0.83-7.85-4.12-10.89-7.48c-0.32-0.45-0.56-0.93-0.73-1.45c-0.88-3.5,0.17-7.18-1.08-10.64
			c-0.5-2.59-0.22-5.22-0.45-7.82c-0.03-0.61-0.01-1.21,0.04-1.82c0.08-12.17,0.01-24.33,0.02-36.49c1-21.82-1.48-43.54-2.22-65.3
			c-0.25-7.3,0.02-15.12-5.36-22.15c0.01,7.27-2.06,13.84-0.94,20.79c1.01,6.26,0.72,12.68,0.14,18.95
			c-1.21,12.99-0.49,25.95-0.51,38.93c-0.02,14.47-0.4,28.93-1.96,43.35c-0.5,4.59-0.21,9.28-0.28,13.93
			c-0.1,6.2-3.4,11.35-5.11,17.01c-0.92,3.06-4.26,3.45-7.24,3.01c-3.8-0.56-7.58-0.92-11.43-0.98c-4.28-0.07-7.66-2.12-9.81-5.9
			c-1.72-3.04-3.88-5.41-7.58-5.83c-3.42-0.85-6.68-0.44-10.2,0.14C525.9,357.09,517.56,354.22,509.99,349.01z"/>
		<path class="st2" d="M757.96,577.96c-7.63,2.08-15.4,0.54-23.09,0.89c-12.04-4.24-24.63-5.58-37.22-6.33
			c-27.19-1.62-54.41-2.71-81.66-1.98c-10.48,0.28-20.9,0.11-31.32-0.99c-4.41-0.47-8.07,1.47-11.75,3.44
			c-8.5-7.37-15.98-15.73-23.36-24.18c-0.39-0.45-0.43-1.22-0.63-1.84c2.33-2.11,4.62-0.6,6.99-0.02
			c10.99,2.72,22.04,4.89,33.36,1.9c4.35-2.31,8.63-4.83,13.87-4.27c1.41-0.01,2.81-0.05,4.21-0.04
			c14.31-0.68,28.39,2.26,42.63,2.64c6.29,0.17,12.58,0.95,18.84-0.24c2.25-0.41,4.69-0.27,6.69-1.51
			c8.43-5.25,17.65-4.15,26.82-3.5c2.98,1.34,6.22,1.61,9.39,2.15c4.18,1.59,8.42,2.96,12.87,3.55c4.61,0.93,9.28,1.03,13.95,0.87
			c7.61-1.14,15.4-1.28,22.65-4.36c1.07-0.45,2.27-0.28,3.38,0.18c2.24,1.55,2.46,3.75,1.93,6.15c-1.15,5.18-2.52,10.3-5.58,14.72
			c-2.14,3.1-3.8,6.14-2.15,10.05C759.2,576.16,758.65,577.17,757.96,577.96z"/>
		<path class="st3" d="M510.05,409.01c0-8.99,0-17.99,0-26.98c4.46,1.11,8.79,2.68,12.78,4.86c3,1.64,5.94,2.67,9.32,3.11
			c3.26,0.42,5.69-0.22,8.14-2.46c3.85-3.52,5.33-3.16,8.07,1.3c0.8,1.31,1.83,2.34,2.93,3.36c2.55,2.38,5.11,4.59,0.93,8.02
			c-1.72,1.41-0.1,6.25,2.2,7.8c0.83,0.56,1.82,0.81,2.75,1.16c2.25,0.83,5.19,0.89,5.33,4.29c0.1,2.34-1.8,4.4-5.7,6.06
			c2.31,0.84,4.4,0.98,6.42,1.4c2.26,0.47,4.16,1.61,4.8,3.88c0.63,2.22-1.29,3.17-2.78,4.22c-0.93,0.66-2.22,1.22-1.87,2.63
			c0.37,1.49,1.81,2.02,3.1,2.16c4.12,0.43,8.17-0.7,12.3-0.76c2.39-0.03,2.23-2.52,1.48-4.36c-2.43-6.02,0.69-11.71,1.05-17.56
			c0.1-1.65,1.28-3.51,3.68-3.32c1.69,2.93,0.77,6.2,1,9.28c0.37,4.92-0.83,9.92,0.78,14.83c0.43,1.3-0.15,2.63-1.18,3.64
			c-0.96,0.94-1.24,2.09-0.51,3.17c2.08,3.08,1.1,5.98-0.26,8.93c-0.99,2.16-1.23,4.32-0.8,6.77c0.58,3.34-0.31,6.59-2.2,9.48
			c-0.39,0.55-0.87,1.01-1.41,1.39c0.64,4.09,2.51,7.85,3.2,11.93c0.02,0.73-0.17,1.39-0.65,1.95c-3.13,1.76-5.95,2.47-8.88-0.77
			c-2.01-2.22-4.78-0.94-6.96,0.21c-2.95,1.56-5.65,1.13-8.63,0.17c-3.17-1.02-3.34-3.38-3.33-5.92c0.01-2.7,1.83-3.75,4.21-4.04
			c2.13-0.26,4.23-1.02,6.51-0.52c-1.24-1.89-2.99-2.63-5.14-2.6c-4.47,0.07-8.4-1.78-12.43-3.37c-2.67-1.05-2.9-2.12-0.87-4.22
			c1.89-1.96,5.88-2.25,5.71-5.65c-0.14-2.78-4-3.6-4.94-5.96c-1.53-3.81-5.05-7.17-3.83-11.8c-1.06,1.38-4.37,2.19-0.81,5.22
			c1.47,1.25-0.91,4.13-3.49,3.7c-4.24-0.69-8.49-1.49-12.63-2.75c-1.79-0.55-2.08-1.88-2.14-3.49c-0.1-2.56,1.51-3.25,3.93-3.43
			c-4.96,0.1-7.34-2.62-8.53-6.62c-0.81-2.75-1.61-5.39-4.13-7.14c-0.68-0.47-1.34-1.45-1.04-2.15
			C517.92,412.42,513.83,410.83,510.05,409.01z"/>
		<path class="st4" d="M510.05,409.01c6.83,0.47,7.86,1.76,6.42,8.21c-0.16,0.71-0.29,1.54,0.29,1.8c5.24,2.32,4.45,8.07,6.92,11.95
			c1.27,1.99,3.55,1.1,5.33,1.31c1.57,0.19,2.75,0.41,2.74,2.04c-0.02,2.05-1.65,1.6-2.96,1.48c-0.93-0.08-2.52-1.57-2.37,0.81
			c0.07,1.16-1.01,2.94,1.57,3.44c4.03,0.79,8.22,0.84,12.05,2.7c1.36,0.66,2.43-0.61,3.23-1.84c-0.58-1.55-3.12,1-3.23-1.51
			c-0.07-1.53-0.16-3.04,1.33-4.02c1.25-0.82,2.49-1.65,3.77-2.41c0.73-0.43,1.61-0.72,2.2,0.18c0.59,0.9,0.1,1.38-0.79,1.85
			c-2.85,1.53-2.72,3.03,0.2,4.39c0.59,0.27,1.6,0.99,1.55,1.09c-2.47,5.27,2.48,6.71,4.95,9.13c3.16,3.09,2.39,4.91-1.04,6.8
			c-1.87,1.02-3.54,2.41-6.06,4.17c3.42,0.4,5.57,2.2,8.1,2.89c2.63,0.72,5.49,0.67,8.2,0.92c2.5,0.23,4.78,2.89,8.22,5.2
			c-4.52,0.08-7.85-0.35-11.13,0.34c-1.76,0.37-4.01,0.84-3.2,2.67c0.67,1.51-1.78,4.5,2.73,5.01c2.96,0.34,5.2,0.95,8.16-0.4
			c3.07-1.4,6.69-3.21,9.28,1.84c1.11,2.16,4.22-0.84,6.46-0.1c0.13,0.18,0.27,0.35,0.41,0.52c0.85,1.6,2.01,3.22,0.9,5.07
			c-1.25,2.09,0.75,2.89,1.45,4.21c0.64,1.87,1.12,3.76-0.02,5.62c-0.42,0.69-1.05,1.43-0.12,2.09c3.69,2.59,0.62,3.8-1.03,5.31
			c-2.76,2.91-5.65,5.38-9.93,6.06c-2.92,0.46-4.88,3.18-7.42,4.67c-0.72,0.42-0.96,1.38-0.6,2.22c0.31,0.74,1.05,0.75,1.7,0.57
			c1.48-0.41,3.07-1.04,3.43,1.28c0.33,2.11-0.73,3.59-2.72,4.15c-2.55,0.72-5.22,0.9-7.83,1.27c-2.19,0.31-4.44-4.59-2.76-6.52
			c1.21-1.4,1.15-2.74,1.53-4.27c-3.29,0.05-7.37,1.69-9.56-1c-3-3.69-5.78-2.63-9.33-1.79c-3.93,0.93-6.68-1.44-6.71-5.01
			c1.62-0.9,3.35-0.76,5.09-0.6c1.96,0.44,3.86,0.24,5.86-0.04c4.27-0.59,8.63-2.69,12.21,2.59c2.01,2.97,9.42-0.42,10.45-4.43
			c-0.16-0.33-0.17-0.64-0.01-0.91c0.34-0.6,0.92-0.84,1.86-1.08c-1.92-0.02-3.13,1.66-4.11,1.2c-1.4-0.21-0.45,0.71-0.59,0.06
			c-0.03-0.14,0.12-0.12,0.46-0.13c1.03-0.02,1.93,0.2,2.51,1.15c-1.97,3.25-5.27,4.5-8.33,3.03c-4.59-2.19-9.51-2.24-14.23-3.31
			c-3.37-0.76-4.9-2.1-4.82-5.42c0.23-0.44,0.49-0.86,0.8-1.25c0.58-0.73,1.63-1.38,0.56-2.46c-0.36-0.36-1.03-0.61-1.37-0.32
			c-1.14,0.99,0.47,1.62,0.46,2.5c0,0.51-0.05,0.97-0.45,1.33c-2.1,1.18-4.37,1.38-5.86-0.59c-1.51-2.01-0.35-4.21,0.97-5.97
			c1.39-1.85,2.72-3.88,4.83-4.98c1.64-0.85,2.97-1.56,1.84-3.71c-1-1.92-2.51-2.59-4.56-2c-1.92,0.55-3.73,1.47-5.7,1.83
			c-4.53,0.82-6.88-0.48-8.5-4.83c-0.58-1.56-1.38-3.1-1.56-4.73c-0.38-3.4-0.8-6.35-5.18-7.02c-2.07-0.32-2.77-2.6-2.38-4.69
			c-2.6-0.78-2.13,3.24-4.5,2.35C510.07,443.65,510.06,426.33,510.05,409.01z"/>
		<path class="st5" d="M829.9,190.06c0.11,0.85,0.36,1.87,1.31,1.84c5.6-0.2,5.59,3.87,4.58,7.13c-4.97,15.96-2.37,32.3-2.78,48.46
			c-0.42,16.77,0.61,33.6-0.34,50.32c-0.97,17.1-0.3,34.16-0.76,51.24c-2.27,2.42-4.56,4.17-8.13,1.99c-1.31-0.8-3.23-0.37-4.88-0.4
			c-0.53-0.02-1.04-0.09-1.56-0.21c-5.12-2.45-5.45-3.78-1.51-7.84c1.93-1.99,2.51-4.06,2.27-6.76c-1.02-11.63-0.72-23.25-0.13-34.9
			c0.33-6.45-0.47-12.95-0.47-19.43c-0.01-14.14-0.19-28.29,0.62-42.42c0.31-5.41-0.98-10.74-0.89-16.28
			c0.16-9.71,3.15-19.04,2.64-28.76c-0.23-4.48,3.96-2.71,6.3-3.5c0.75-0.24,1.48-0.57,2.25-0.76
			C828.96,189.65,829.45,189.75,829.9,190.06z"/>
		<path class="st6" d="M764.91,544.89c-3-0.52-5.43,1.27-8.01,2.18c-5.85,2.07-12.06,1.37-17.95,2.83
			c-0.94-0.88-2.99-0.76-2.95-2.33c0.04-1.75,2.16-1.08,3.08-1.78c4.61-3.52,9.66-0.19,15.45-1.11c-2.92-0.69-4.86-1.19-6.65-2.06
			c-1.5-0.73-1.33-1.71-0.04-2.6c1.69-1.33,3.86-1.32,5.82-1.9c-2.32-0.24-4.15,0.86-5.97,2c-4.87,0.49-9.67,3.35-14.63,0.37
			c-0.29-0.4-0.39-0.84-0.28-1.33c0.63-1.09,1.8-1.38,2.82-1.92c2.98-1.57,8.35,0.01,8.99-1.48c2.03-4.74,5.83-0.89,8.31-2.72
			c1.69-1.24,4.14,0.41,6.17,0.64c-8.34-3.36-16.04,1.18-24.06,2.28c-1.24,0.18-2.46,0.17-3.61-0.37c-0.42-0.26-0.69-0.63-0.8-1.12
			c0.99-2.46,3.8-2.18,5.46-3.63c2.49-1.1,5.17-0.95,7.36-3.72c2.23-2.81,6-1.57,7.73,0.59c1.35,1.07,1.35-0.06,1.11,0.56
			c-0.05,0.14-0.24,0.12-0.47-0.13c-2.08-2.2-5.6-2.72-7.32-4.39c-2.78-2.7-5.78-2.15-8.68-2.98c-0.44-0.2-0.81-0.49-1.1-0.87
			c-0.11-0.48-0.04-0.93,0.17-1.37c2.14-2.11,4.83-0.96,7.29-1.24c4.55,0.13,9.29,1.2,12.09-4.22c1.17-2.27,3.83-1.33,5.96-1.35
			c1.89-0.02,3.39,1.12,5.1,1.61c-1.11-2.69-1.55-5.63-5.09-6.33c-1.09-0.22-2.08-1.84-1.53-3.31c0.62-1.64,1.97-0.62,3-0.46
			c0.99,0.15,1.96,0.43,2.95,0.12c0.85-0.26,1.52-0.81,1.46-1.76c-0.06-0.92-0.84-0.81-1.48-0.77c-1.2,0.09-2.34-0.07-3.29-0.85
			c-0.78-0.64-1.55-1.37-1.34-2.49c0.19-1.04,1.17-1.12,1.97-1.12c2.05-0.02,3.38-1.2,4.59-2.63c0.35-0.3,0.74-0.56,1.13-0.8
			c2.03-2.32,3.54-5.18,7.04-6.01c-1.1-1.57-3.62-1.3-2.99-3.35c0.53-1.73,2.34-1.52,3.78-1.84c3.61-0.81,6.42-0.37,8.09,3.6
			c1.35,3.21-1.77,4.29-2.32,6.7c2.59,0.16,6.02,0.35,6.5,3.39c0.43,2.7-2.2,4.58-4.74,5.77c0.05,1.98,3.27,1.46,2.83,3.56
			c-0.29,1.39-1.73,1.61-2.66,1.74c3.2,1.43,6.82,1.63,10.46,1.66c1.02,0.01,2.1,0.18,2.51,1.25c0.54,1.37-0.47,2.19-1.45,2.83
			c-3.21,2.08-7.08,2.48-10.69,3.78c1.17,2.75,3.54,3.68,5.65,4.95c1.43,0.86,2.64,3,0.76,3.22c-4.01,0.47-3.98,3.47-5.16,5.86
			c-0.45,0.92-1.29,1.5-2.24,1.9c-1.76,1-3.63,0.51-6.09,0.33c2.5,0.69,4.31,0.5,6.09-0.32c4.5,2.6,10.83,2.96,11.98,9.7
			c0.54,1.16-0.15,1.73-1.04,2.21c-2.3-0.52-4.61-1.05-6.91-1.57C779.76,543.87,772.3,544.13,764.91,544.89z"/>
		<path class="st7" d="M539.98,503.96c-1.99,0.01-3.98,0.02-5.97,0.03c-0.45,0.99-1.24,1.73-2.31,1.57
			c-4.38-0.68-8.49,1.17-13.07,1.17c0.91,2.34,5.98,2.19,3.69,6.2c-0.05,0.09,0.99,1.9,1.8,2.16c4.31,1.37,7.75,5.5,13.05,3.89
			c2.51-0.76,5.27-1.21,7.87-0.67c1.44,0.3,4.57,0.53,1.57,3.52c-1.8,1.79,0.29,6.05,2.84,6.13c4.13,0.13,8.25-0.67,12.4-0.24
			c1.31,0.14,2.75-0.18,3.95,0.32c3.93,1.66,7.45,2.25,10.39-1.92c0.94-1.33,2.74-0.78,4.16-0.11c0.46,0.2,0.92,0.36,1.39,0.55
			c1.27,0.5,3.46,0.28,3.13,2.33c-0.35,2.16-2.44,1.52-3.99,1.54c-0.66-0.03,0.47,0.97,0.14,0.39c-0.14-0.24-0.01-0.35,0.37-0.34
			c0.67,0.03,1.31,0.19,1.97,0.26c1.87,0.21,4.47-0.47,4.62,2.36c0.12,2.27-1.07,4.19-3.85,4.27c-5.33-2.27-11.12-1.93-16.66-2.94
			c-2.96-2.87-6.31-2.68-9.81-1.24c-1.74,0.52-3.16-0.49-4.44-0.84c1.68,0.75,3.59,1.76,5.65,0.15c2.77,0.01,5.67-0.7,8.06,1.41
			c0.8,0.96,0.48,2.5-0.26,2.5c-5.27,0.02-8.77,5.39-14.11,4.57c1.69-0.04,3.5-0.1,5.32-0.18c1.54-0.07,3.89-0.29,3.89,1.86
			c0,1.8-2.19,2.17-3.83,2.45c-3.14,0.54-6.25-0.25-9.38-0.28c-3.57-0.04-7.17-0.23-10.73-0.76c-8.04-1.02-15.85,0.78-23.65,2.19
			c-3.72,0.67-4.32-0.89-4.29-3.93c0.13-14.78,0.19-29.57,0.27-44.35c5.29-4.11,9.92-3.34,13.32,2.35c0.7,1.17,1.52,1.07,2.47,1
			c3.79-0.25,7.83,1.82,11.32-1.57c1.02-0.99,2.56,0.18,3.49,1.11C542.06,502.16,541.37,503.2,539.98,503.96z"/>
		<path class="st8" d="M572.92,573c2.12-4.06,7.45-5.87,13.79-4.95c8.49,1.24,17.04,0.92,25.6,1.04
			c17.58,0.24,35.17-1.17,52.76,0.69c7.17,0.76,14.53-0.34,21.72,0.31c14.95,1.35,30.08,1.63,44.6,6.16c1.4,0.44,2.86,1.01,3.48,2.6
			c-6.69-0.02-13.39-0.05-20.08-0.07c-1.27-0.59-2.62-0.35-3.94-0.35c-35.95-0.01-71.91-0.01-107.86,0c-1.31,0-2.67-0.27-3.92,0.41
			c-6.41,0.49-12.77-0.13-19.12-0.93C576.75,577.51,574.64,575.53,572.92,573z"/>
		<path class="st9" d="M584.97,407.99c-1.37,0.54-2.41,1.78-2.39,2.99c0.1,6.05-3.83,11.84-0.8,18.13c1.74,3.62-0.17,6.1-4.32,5.76
			c-2.8-0.22-5.27-0.55-8.11,0.63c-2.39,1-5.44-0.39-7.25-2.26c-2.48-2.56-0.17-4.1,2.06-5.14c1.49-0.69,3.65-1.05,2.94-3.14
			c-0.55-1.63-2.17-2.82-4.25-3c-2.3-0.2-4.57-0.67-6.85-0.98c-1.02-0.14-2.24-0.28-2.3-1.44c-0.06-1.2,1.15-1.44,2.17-1.53
			c0.83-0.07,1.7,0.07,2.48-0.15c2.29-0.65,2.88-2.8,3.19-4.64c0.33-1.98-1.62-2.19-3.13-2.29c-5.98-0.41-7.54-4.76-8.77-9.56
			c-0.39-1.52-0.15-2.09,1.37-2.39c4.18-0.85,2.71-2.69,0.8-4.68c-1.98-2.05-4.77-3.17-5.38-6.72c-0.4-2.34-2.73-1.64-4.33-0.2
			c-2.58,2.33-4.32,5.62-9.2,3.99c-3.3-1.11-7.06-0.61-10.17-3.09c-3.73-2.98-9.25-2.54-12.68-6.25c-0.02-7-0.04-14.01-0.06-21.02
			c2.91-0.19,3.7,2.14,4.06,4.1c0.8,4.35,1.32,8.78-0.04,13.16c-1.42,2.37,1.36,2.04,2.01,3.07c2.58,1.45,5.41,1.41,8.24,1.36
			c5.61,0.98,11.05,1.48,16.4-1.59c2.97-1.7,6.16-0.27,8.92,1.45c2.38,1.49,4.85,2.88,6.86,4.9c2.26,3.57,5.87,5.04,9.62,6.48
			c4.32,1.66,4.54,3.13,1.48,6.71c-2.25,4.11-1.99,4.98,2.07,6.48c1.24,0.46,2.46,0.98,3.77,1.22c5.02,0.9,7.07-1.04,6.48-6.05
			c-1.03-8.8,2.16-16.69,5.39-24.56c3.73,1.14,2.31,3.84,1.7,6.09c-1.87,6.97-2.09,13.99-1.13,21.1
			C585.94,406.06,585.87,407.14,584.97,407.99z"/>
		<path class="st10" d="M512.98,379c0.06-6.17,2.64-12.76-2.99-17.99c0-4,0-8,0.01-12c4.18,1.42,8.31,3.02,12.55,4.2
			c4.84,1.34,9.7,3.13,14.76,0.27c2.47-1.4,5.13-0.03,7.67,0.53c2.55,1.27,4.33,3.07,4.17,6.17c-0.12,2.18,1.05,3.34,3.01,3.98
			c1.74,0.56,3.42,1.29,4.9,2.4c3.37,2.54,2.94,4.03,0.27,7.07c-5.95,6.75-13.27,7.23-21.34,6.1c-5.63-0.79-11.2,1.21-16.86,0.67
			C517,380.19,514.75,380.71,512.98,379z"/>
		<path class="st11" d="M832.9,531.95c0.13,0.31,0.17,0.64,0.12,0.97c-2.67,2.05-7,0.7-8.75,2.44c-2.88,2.88-4.11,1.12-6.02-0.32
			c-0.56-0.38-1.15-0.66-1.83-0.74c-6.78-0.72-8.7-2.62-4.76-9.83c1.65-3.01,1.61-6.48,3.42-9.44c1.14-1.86-3.11-0.98-2.53-3.38
			c0.41-1.69,3.44-1.72,2.77-2.59c-1.04-1.34-1.68-1.32-0.87-3.63c1.55-4.43,0.84-4.68,3.31-4.99c-1.38-0.45-2.84-0.5-3.97-1.44
			c-0.8-0.66-1.53-1.41-1.11-2.52c0.33-0.89,1.2-1.15,2.06-1c4.74,0.81,2.98-1.9,2.6-4.32c-0.29-1.87-3.37-4.12,0.29-5.84
			c0.28-0.18,0.84-0.42,0.82-0.48c-1-3.35,2.26-5.34,2.62-8.24c0.06-0.48,0.42-1.17,0.05-1.41c-5.86-3.68,1.14-8.27-0.84-12.24
			c-0.16-0.32,0.77-0.98,1.33-1.34c2.39-0.23,2.38-2.12,2.81-3.85c0.95-3.79,4.17-4.96,7.31-2.78c-1.19,3.5,0.03,6.98,0.02,10.45
			c-0.1,21.52,0.62,43.03,1.11,64.54c-3.4,1.63-3.18-0.11-2.63-2.62c0.3-1.38,1.72-3.65-0.69-4.05c-1.3-0.22-4.15-0.84-4.58,1.5
			c-0.33,1.78-0.79,4.4,2.49,4.91C829.39,530,831.28,530.74,832.9,531.95z"/>
		<path class="st12" d="M539.98,503.96c0.55-1.14,1.49-2.21-0.74-2.85c-0.88-0.25-1.93-1.5-2.36-0.22c-1.11,3.4-3.74,1.77-5.73,2.01
			c-2.24,0.27-4.47-1.1-6.82-0.06c-0.87,0.39-2.75-0.47-2.48-0.88c2.96-4.64-3.88-2.81-3.56-5.56c-2.71,0.52-5.42,1.03-8.13,1.55
			c-0.02-12.33-0.05-24.66-0.07-36.99c1.81-2.34,2.94-6.07,7.11-3.46c-2.41,3.47-1.82,5.26,2.43,5.34c3.32,0.06,3.47,1.41,3.24,4
			c-0.31,3.58,1.75,6.67,2.78,9.94c0.74,2.37,3.41,2.57,5.58,2.08c2.24-0.5,4.44-1.35,6.54-2.32c2.05-0.95,3.68-0.14,5.03,1.05
			c1.72,1.51,1.42,3.95,1.95,5.98c0.2,0.76-0.83,0.54-1.46,0.63c-4.59,0.63-6.73,4.48-7.62,7.96c-1.26,4.95,3.46,1.83,5.29,2.8
			l0.03,0.02c2.31,5.3,7.19,5.52,11.92,5.97c1.46,0.14,2.79,0.15,4.21,1.05c3.75,2.38,7.49,1.97,10.86-1.04l0.01-0.01
			c1.18,0.54,2.36,1.09,3.67,1.69c-1,2.68-8.27-0.8-4.13,6.6c-4.69-3.17-8.65-1.96-12.53-2.39c0.15-1.17,2.64-2.57-0.62-3.31
			c-2.87-0.65-5.51-0.77-8.27,0.22C544.12,504.47,542.07,505.57,539.98,503.96z"/>
		<path class="st13" d="M764.91,544.89c7.09-3.29,14.6-3.15,22.14-2.62c1.99,6.04,1.48,11.01-4.15,15.41
			c-7.2,5.63-13.69,12.16-20.52,18.26c-1.24,1.1-2.71,1.88-4.43,2.02c-2.27-5.97,0.17-10.69,3.14-15.89
			C763.99,556.99,766.66,551.27,764.91,544.89z"/>
		<path class="st14" d="M831.8,383.9c0,13.69,0,27.37,0.01,41.06c-3.39-1.41-1.62-4.45-2.13-6.77c-0.48-2.18,1.33-5.85-2.28-6.06
			c-4-0.23-2.57,3.91-3.15,6.11c-0.83,3.17,1.07,6.45,0.19,9.8c-0.45,1.7,1.58,1.82,2.54,2.6c1.82,1.49,2.11,3.35-0.03,4.36
			c-3.93,1.84-4.8,4.49-3.39,8.35c0.27,0.73-0.17,1.62-0.41,2.41c-0.87,2.91-4.51,5.43-1.23,8.92c1.04,2.62-0.36,4.76-1.35,6.99
			c-1.31,1.65-2.72,3.2-3.91,4.96c-1.66,2.45-3.74,3.01-6.06,0.71c-2.18-4.89,3.86-8.18,2.97-11.91c-1.07-4.48-1.43-7.87,2.05-11.09
			c1.26-1.16,1.48-2.53,0.7-4.06c-0.3-0.59-0.96-1.53-0.7-1.78c4.07-3.9-2.1-9.3,2-13.18c0.9-0.85,0.25-1.87-0.49-2.62
			c-2.14-2.19-2.03-4.13,0.04-6.48c2.55-2.89,2.8-6.9,2.86-10.38c0.09-5.63,1.29-11.23,0.57-16.88c-0.09-1.47-0.91-2.33-2.18-2.99
			c-0.91-0.47-2.38-0.88-1.17-2.46c1.86-1.11,3.93-0.78,5.93-0.85c2.46-0.01,4.89,0.21,7.31,0.67
			C830.96,383.43,831.39,383.62,831.8,383.9z"/>
		<path class="st12" d="M537.83,544.04c7.62-1.33,15.42,0.44,23.05-1.15c-4.17-1.96-8.83,0.2-13.47-1.92
			c1.24-1.42,2.6-1.08,3.7-0.99c3.28,0.28,6.02-0.47,8.62-2.75c1.27-1.12,2.8-3.45,5.52-1.29c1.37,1.09,1.48-0.99,1.74-2l-0.01,0.01
			c5.81,0.14,11.92-1.4,16.99,2.99c-0.2,1.69-2.43,1.5-2.88,3.03c1.82,1.13,3.85,0.41,5.7,0.82c1.37,0.3,3.57-0.22,3.12,2.47
			c-0.41,0.31-0.87,0.49-1.37,0.59c-3.11,0.13-6.22,0.14-9.32,0c-1.79-0.19-2.55-1.92-4.06-2.72c-1.83,0.26-1.03,2.6-2.41,3.23
			c-1.08,0.26-2.24-0.08-3.21,0.35c2.1-0.18,4.39,0.34,6.44-0.86c0.46-0.07,0.92-0.07,1.39-0.01c3.14,0.23,6.29-0.07,9.42,0.16
			c1.76,0.13,4.78-0.24,2.03,3.13c-1.1,1.35,1.06,1.77,1.2,2.85c-8.25,3.54-16.61,0.84-24.94,0.55c-5.65-0.2-10.45-3.79-16.13-3.56
			C545.53,544.86,541.37,545.64,537.83,544.04z"/>
		<path class="st15" d="M821.93,445.97c0.15-0.64,0.6-1.4,0.4-1.9c-2.07-5.1-0.68-8.2,4.56-10.5c1.99-0.88-0.37-2.43-1.82-2.5
			c-3.35-0.18-3.78-1.46-1.85-3.98c0.66-0.86,0.75-1.83,0.33-2.81c-1.66-3.84-0.26-7.68,0.08-11.5c0.2-2.2,1.23-2.94,3.72-2.32
			c1.87,0.47,3.66-0.36,3.68,2.82c0.02,3.88-1.08,7.9,0.78,11.67c-0.02,10.01-0.04,20.01-0.06,30.02c-3.8-0.63-4.43,0.21-5.51,3.85
			c-0.36,1.22-0.78,5.02-4.28,3.17c-0.85,0.01-1.52-0.34-2.02-1.03c-0.16-2.08,2.44-3.69,1-5.98
			C821.21,451.98,822.25,449.05,821.93,445.97z"/>
		<path class="st16" d="M831.8,383.9c-0.28,0.09-0.56,0.13-0.85,0.13c-2.21-2.61-1.13-5.74-1.28-8.64c-0.19-3.79,0.02-7.6-0.1-11.62
			c-5.7,3.51-7.5,10.26-5.65,20.09c-2.32,0.11-4.64,0.22-6.96,0.34c-2.22,1.77-3.83,1.59-4.55-1.42c1.28-2.52,3.55-4.95,0.7-7.87
			c-0.3-0.31-0.41-1.01-0.24-1.43c2.39-6.21,1.07-13.58,5.66-19.04c1.23-1.46-0.33-3.39,1.41-4.41c2.23-0.24,4.27-1.27,6.61,0.72
			c1.6,1.35,3.04-2.61,5.38-1.69C831.87,360.66,831.84,372.28,831.8,383.9z"/>
		<path class="st17" d="M590.02,187.16c7.67-1.05,15.34,0.69,23.01,0.01c2.39-0.21,4.79,0.48,7.16-1.26
			c1.14-0.84,2.75,1.66,4.88,1.41c9.32-1.1,18.78-0.5,28.09-0.72c7.72-0.18,15.85-0.09,23.77,0.51c2.41,0.18,5.11,1.08,7.48-1.4
			c0.83-0.88,2.66,1.84,4.93,1.71c6.46-0.39,12.96-0.15,19.44-0.16c4.37,0.89,8.84-0.45,13.2,0.62c2.96,0,5.93,0.01,8.89,0.01
			c3.53-0.6,7.07-0.25,10.62-0.22c0.6,0.41,0.7,0.92,0.29,1.53c-1.98,1.72-4.4,1.23-6.68,1.25c-16.27,0.16-32.54-0.22-48.81,0.22
			c-0.87,0.29-1.76,0.39-2.67,0.34c-0.59-0.02-1.16-0.13-1.72-0.3c-9.08-0.98-18.16-0.24-27.24,0.04c-0.29,0.04-0.58,0.07-0.87,0.11
			c-0.29,0-0.59-0.01-0.88-0.01c-0.29-0.04-0.58-0.09-0.87-0.13c-10.93-0.41-21.86-0.54-32.78,0.13
			c-7.69-0.46-15.38-0.51-23.07-0.03c-0.79,0.11-1.59,0.14-2.39,0.03c-0.76-0.14-1.41-0.5-2.04-0.92
			C590.97,189.15,589.61,188.7,590.02,187.16z"/>
		<path class="st18" d="M590.02,187.16c0.65,0.62,1.31,1.25,1.96,1.87c-2.67,1.99-5.77,0.91-8.65,1.06
			c-8.7,0.45-17.39,1.65-26.13,0.15c-3.91-0.67-7.88,0.65-11.86,0.37c-1.81-0.13-3.64,0.05-5.39-0.6c-0.63,0-1.27,0.01-1.9,0.01
			c-0.27,0.05-0.54,0.11-0.81,0.17c-6.87,0.56-13.76,0.04-20.64,0.31c-0.56,0.01-1.09-0.12-1.59-0.37
			c-1.91-1.07-3.97-1.06-6.06-0.84c-13.12,0-26.24,0-39.7,0c1.75-2.51,4.12-2.14,6.3-2.15c9.98-0.05,19.96-0.08,29.94-0.06
			c4.37,0.01,8.61-1.07,13.15-0.22c4.66,0.87,9.61,0.18,14.44,0.18c9.12,0,18.25,0.2,27.37-0.04
			C570.3,186.73,580.16,187.22,590.02,187.16z"/>
		<path class="st19" d="M829.9,190.06l-0.48-0.02l-0.48,0.04c-7.64,1.95-15.45,1.2-23.2,1.41c-0.6,0.06-1.21,0.06-1.81,0
			c-10.17-1.14-20.38-1.11-30.59-1.02c-0.59,0.01-1.17,0-1.76-0.01c-6.73-0.04-13.46-0.24-20.16,0.57c-3.04-1.41-7.25,0.82-9.53-3
			l0.05,0.08c-0.59-0.68-0.62-1.3,0.19-1.84c9.78,0.64,19.55,2.15,29.31-0.68c1.5-0.44,3.39,1.66,5.67,1.57
			c6.48-0.25,13.02,0.4,19.45-0.2c8.64-0.81,17.21,0.98,25.79,0.08c2.17-0.23,4.84,1.53,6.6-1.59c0.42-0.75,1.06,1.33,1.97,1.67
			c1.09,1.45,0.29,2.19-1.03,2.72L829.9,190.06z"/>
		<path class="st20" d="M793.97,543.84c0.33-0.62,0.65-1.23,0.98-1.85c1.64-1.95,3.84-1.49,5.96-1.38c3.86,0.2,7.69,0.41,8.84-4.65
			c0.17-0.76,1.07-1.21,1.91-1.43c2.24,0.88,5.67-1.78,6.86,1.95c0.89,2.8,5.09,4.12,4.19,6.89c-0.66,2.03,1.12,4.15-0.76,5.76
			c-5.63,1.67-10.86-0.43-16.15-1.77C801.81,546.35,797.91,545.02,793.97,543.84z"/>
		<path class="st21" d="M821.95,549.13c0.57-1.24,0.4-2.14-1.01-2.72c-0.39-0.16-2.11-1.05-0.59-1.3c3.91-0.64,0.79-2.22,0.61-3.24
			c-0.41-2.37-5.59-2-3.48-5.93c-1.76-0.72-3.94,1.04-5.48-0.95c1.96-2.06,4.33-1.73,6.75-1.17c1.47,1.13,3.06,4.37,4.19-0.25
			c3.45,1.22,6.66-1.35,10.08-0.66c0.11,0.82,0.22,1.64,0.32,2.47C834.6,545.77,832.56,548.24,821.95,549.13z"/>
		<path class="st22" d="M599.07,578.84c1.5-1.59,3.45-0.89,5.19-0.89c35.26-0.03,70.53-0.02,105.79,0.02c1.59,0,3.36-0.59,4.74,0.81
			C676.21,578.8,637.64,578.82,599.07,578.84z"/>
		<path class="st23" d="M829.88,189.85c0.34-0.91,0.69-1.81,1.03-2.72c11.74,0.22,23.53-1,35.19,0.8c1.54,0.24,1.74-3.92,2.66-0.64
			c0.57,2.04-1.92,1.5-3.21,1.98c-3.15,1.17-6.24,0.06-9.35-0.02C847.41,189.01,838.65,189.38,829.88,189.85z"/>
		<path class="st21" d="M832.9,531.95c-2.42-0.42-4.98-0.5-7.21-1.4c-1.04-0.42-4.71-0.95-2.25-3.44c1.56-1.57-3.1-4.81,1.73-4.8
			c2.16,0,4.54,0.45,6.75-2.92c-0.29,4.11,0.59,6.73-0.71,9.45c-0.85,1.78,1.09,0.73,1.65,1.14
			C832.89,530.63,832.89,531.29,832.9,531.95z"/>
		<path class="st24" d="M722,187.88c-4.41,0.11-8.85,0.78-13.2-0.62C713.25,186.37,717.72,185.28,722,187.88z"/>
		<path class="st24" d="M742.13,186.28c-0.06,0.61-0.12,1.23-0.19,1.84c-3.68-0.08-7.37-0.16-11.05-0.24
			C734.47,186.18,738.53,187.84,742.13,186.28z"/>
		<path class="st25" d="M594.87,189.9c8.07-1.2,16.15-1.07,24.22-0.05c1.47,1.91,1.52,4.09,1.21,6.54c0.18-6.76,0.18-6.88,6.84-6.77
			c8.63,0.14,17.27-0.56,25.88,0.38l0.01-0.01c0.67,1.15,1.09,2.34,0.76,3.69c0.59-1.21-0.43-2.46,0.08-3.68l0.02,0
			c9.72-0.77,19.44-0.52,29.16-0.13l0.03,0.06c0.75,1.69-0.05,2.4-1.65,2.52c-1.44,0.11-2.89,0.01-4.32-0.21
			c-0.83-0.17-1.51-0.61-2.16-1.13c-3.35-0.32-4.22,0.69-3.54,4.32c1.06,5.66,0.65,11.57,3.37,16.94c0.63,1.24-0.35,2.55-0.86,3.78
			c-2.26,5.54-2.24,11.21-1.51,17.11c0.87,7.05,1.3,14.19,1.48,21.3c0.4,16.03,0.51,32.1,1.34,48.08
			c0.83,15.98,0.28,31.92,0.67,47.87c0.17,6.81-4.7,10.36-11.03,8.36c-6.43-2.03-12.76-4.42-19.76-2.9c-2.46,0.53-4.9-0.14-7.2-1.41
			c-2.37-1.31-4.46-2.42-2.48-5.65c1.04-1.7,0.27-3.84-1.23-4.27c-2.35-0.67-2.75,2.14-2.59,3.32c0.87,6.62-2.38,10.26-8.17,12.27
			c-6.59,2.29-12.71,0.4-18.64-2.36c-1.96-0.91-2.76-2.89-2.77-4.99c-0.06-14,0.69-28.05-0.28-41.99
			c-1.1-15.81,0.07-31.61-0.94-47.36c-0.91-14.08-0.7-28.19-1.96-42.23c-0.53-5.91-2.39-11.67-2.02-17.73
			c0.16-2.67-3.61-2.89-3.87-5.45C594.97,195.69,592.96,192.34,594.87,189.9z"/>
		<path class="st25" d="M539.94,190c7.46-1.88,15.01-0.23,22.51-0.48c9.84-0.32,19.69-0.34,29.53-0.49c0.35,0.3,0.7,0.6,1.06,0.9
			c0.53,0.75,0.46,1.44-0.21,2.07c-9.25-2.45-11.37-1.34-11.29,8.98c0.06,7.9,3.89,15.72,0.51,23.71
			c3.96,14.44,1.29,29.28,2.3,43.91c0.6,8.65,1.13,17.53,0.31,26.37c-0.52,5.5-0.38,11.14-0.42,16.67
			c-0.09,12.3-1.81,24.54-1.2,36.84c0.18,3.7-1.02,5.59-4.79,5.93c-8.27,0.75-16.54,1.41-24.74-0.43c-3.9-0.88-5.44-3.25-5.64-7.52
			c-0.89-18.85-2.39-37.67-3.25-56.51c-0.21-4.57-0.33-9.18-0.43-13.74c-0.25-12.12-1.97-24.2-1.19-36.34
			c0.26-4.13,0.7-8.24,1.04-12.36c0.08-0.97,0.48-2.15,0.08-2.88c-2.13-3.95-1.32-7.54,1.55-10.51c1.59-1.65,0.42-5.38,2.82-5.23
			c2.89,0.19,3.07,3.94,4.47,6.12c1.04,1.61,1.54,3.58,0.92,5.27c-2.78,7.66,2.38,13.96,3.41,20.95c0.23,1.56,1.64,1.63,2.42,0.18
			c0.61-1.14,1.32-2.53,1.18-3.72c-0.69-6.09,1.77-12.03,0.27-18.27c-1.19-4.97,0.03-9.98,4.65-13.35c1.52-1.11,1.72-3.23,0.83-3.94
			c-3.11-2.49-3.53-6.31-5.35-9.4c-1.59-2.69-4.14-1.61-6.31-1.54c-2.5,0.08-1.98,2.26-1.96,3.82c0.02,1.87-0.39,3.6-0.97,5.36
			c-1.18,3.52-3.55,3.19-5.9,1.64C541.15,198.72,540.06,196.37,539.94,190z"/>
		<path class="st9" d="M676.98,191.12c1.9-1.09,4.63,2.03,6.12-1.2c0.57,0.01,1.13,0.02,1.7,0.03c0.94-0.47,1.3,0.11,1.58,0.85
			c-0.03,2.35-0.3,4.7,0.08,7.05c-0.24,1.61-0.86,3.2-0.29,4.88c2.48,15.95,3.93,32.01,5.73,48.02c0.29,1.12,0.42,2.26,0.46,3.42
			c0.16,4.54-0.54,9.12,0.56,13.63c0.23,0.86,0.36,1.72,0.39,2.61c-0.54,3.95,1.56,8.37-2.09,11.76c-2.48,0.02-2.22-2.01-2.55-3.52
			c-0.38-1.73,0.09-3.55-0.35-5.08c-1.68,14.38-0.03,29.05-1.22,43.56c-0.92,11.12-0.01,22.25-1.19,33.33
			c-0.42,3.92-1.67,7.41-4.02,10.54c-3.53,4.69-3.6,10.24,0.14,14.96c2,2.52,2.16,5.02,0.16,7.21c-2.93,3.21-3.86,6.96-3.72,11.03
			c0.29,8.67-0.76,17.21-2.33,25.7c-0.36,1.98,0.39,3.55,1.2,5.19c0.31,0.73,0.43,1.5,0.35,2.29c-1.21,3.31-0.55,7.17-2.99,10.12
			c-0.58,1.36-1.1,2.63-1.06,4.26c0.13,4.85-2.47,8.02-7.38,9.57c-0.05,0.34,0.23,0.42,0.53,0.65c1.96,1.51,5.67,1.99,4.55,5.56
			c-1.08,3.43-4.33,2.18-6.89,2.21c-2.58,0.03-5.46,1.12-6.86-2.97c-0.94,3.49-2.55,5.79-4.42,7.92c-1.02,1.17-2.24,1.86-3.88,1.95
			c-5.46,0.3-7.21-5.58-11.67-6.89c-0.02-6.73-5.31-12.57-3.32-19.64c0.19-0.68,0.2-1.33-0.43-1.78c-0.8-0.57-1.69-0.45-2.24,0.25
			c-1.58,2.02-3.71,3.28-5.82,4.61c-1.13,0.71-1.51,1.82-0.82,3.02c1.48,2.58-0.05,4.39-1.45,6.29c-2.99,4.07-4.41,4.01-6.44-0.48
			c-1.51-3.34-2.33-6.86-2.37-10.55c-0.05-3.91-1.97-5.72-5.83-5.63c-6.66,0.16-7.89-1.44-5.48-7.56c1.14-2.9,0.83-5.41,0.25-8.51
			c-1.23-6.59-3.9-13-3.02-20.02c0.77-6.17-0.68-12.19-2.76-18.03c0.37-8.01-0.8-15.95-1.01-23.94c0.11-0.53,0.32-1.02,0.62-1.47
			c1.23-1.16,1.85-0.16,2.5,0.71l0,0c3.72,5.32,5.3,12.42,3.99,17.51c-1.45,5.65,0.64,9.13,1.92,13.59
			c1.42,4.93,4.94,9.69,1.93,15.26c-0.37,0.69,0.07,1.61,0.59,2.32c3.4,4.68,14.51,5.64,18.61,1.7c1.22-1.18,1.06-2.3,0.54-3.6
			c-0.62-1.57-0.88-3.21-0.79-4.89c0.22-4.47,2.65-7.17,6.2-6.9c3.82,0.3,7.34,4.44,5.86,8.22c-1.82,4.65-1.26,8.06,1.98,11.64
			c1.63,1.79,0.85,4.49,1.14,6.78c0.39,3.12-0.44,6.28,0.49,9.43c0.62,2.1-1.13,3.22-2.78,4.22c3.34,2.89,6.71,3.72,10.81,2.42
			c4.42-1.4,8.91,0.17,13.36,0.44c1.83,0.11,3.82,0.74,4.84-1.38c0.85-1.76-0.8-2.61-1.74-3.73c-3.78-4.49-3.54-6.52-0.42-11.49
			c3.4-5.42,6.65-10.73,6.43-17.91c-0.19-6.11-0.17-12.68,3.11-18.48c0.81-1.44,0.61-3.13,0.02-4.82
			c-2.41-6.86-2.23-13.65,0.89-20.29c0.04-1.1-0.17-2.28,1-3c2.52-3.7,1.23-8.08,1.5-11.98c1.52-22.35,2.31-44.78,1.81-67.16
			c-0.36-16.04-0.59-32.15-2.32-48.18c-0.54-5.04,0.35-10.19,0.02-15.36c-0.32-5.03-1.86-9.68-2.61-14.53
			C676.04,194.8,675.55,192.88,676.98,191.12z"/>
		<path class="st26" d="M676.95,357.01c-0.77,7.21-0.99,14.25,0.02,21.63c0.74,5.45-2.06,11.56-2.57,17.5
			c-0.09,0.99-0.61,2.04-0.38,2.93c2.04,7.98-3,13.79-5.98,20.26c-0.6,1.3-1.62,1.48-2.59,2.04c-1.2,0.69-1.8,1.88-0.54,2.79
			c2.3,1.65,1.79,5.24,4.92,6.43c1.42,0.54,1.46,2.54,0.68,4.01c-0.95,1.78-2.53,2.7-4.55,2.33c-6.49-1.19-12.84-1.96-19.47-0.1
			c-3.97,1.11-6.39-3.51-10.06-4.17c0.32-2.16,1.78-1.49,2.78-1.68c1.22-0.23,2.8-0.79,2.33-2.01c-1.93-5.06-0.55-10.24-0.95-15.33
			c-0.02-0.3-0.22-0.68-0.46-0.86c-4.81-3.74-5.08-7.86-2.4-13.33c1.43-2.91-1.24-5.78-4.64-6.33c-3.83-0.61-4.73,2.25-5.09,5.26
			c-0.13,1.14,0.21,2.35,0.03,3.48c-0.34,2.17,4.69,4.01,0.77,6.09c-4.27,2.27-8.42,6.72-14.02,2.58c-0.91-0.67-2.06-1.05-3.14-1.47
			c-6.45-2.49-6.54-2.61-4.27-8.87c0.79-2.18,0.47-3.92-0.65-6.07c-2.32-4.45-3.04-9.64-6.04-13.84c-0.16-0.23-0.23-0.75-0.09-0.93
			c6.07-7.63-0.99-14.87-0.63-22.32c4.21,2.63,7.03,7.6,13.03,7.3c1.7-0.08,2.04,1.95,1.96,3.53c-0.19,3.81,2.32,4.74,5.37,5.15
			c3.19,0.43,5.55-0.45,6.5-3.85c0.54-1.92,1.32-3.76,1.85-5.68c0.61-2.21,1.49-4.26,4.1-4.34c2.71-0.09,4.03,1.95,5.11,4.09
			c1.92,3.8,0.36,8.25,2.36,12.13c0.58,1.12-1.22,2.42-2.54,2.5c-3.47,0.21-7.15,0.99-10.39-0.34c-5.43-2.23-10.65-1.88-16.01-0.16
			c-1.09,0.35-2.26,0.46-3.39,0.65c-1.52,0.25-3.88-0.71-4.16,1.5c-0.23,1.82,2.04,2.36,3.47,3.12c7.17,3.79,14.53,4.02,22.06,1.15
			c4.69-1.78,12.65,0.27,15.09,4.54c1.82,3.18,2.9,3.56,5.27,0.69c2.84-3.42,6.28-3.87,10.21-1.51c4.47,2.69,14.7-1.59,15.94-6.54
			c0.35-1.4-0.24-2.49-1.03-3.67C670.49,370.96,671.42,362.78,676.95,357.01z"/>
		<path class="st26" d="M512.98,379c10.05,0.78,20.04-1.6,30.17-0.22c3.66,0.5,8.53,0.46,10.42-4.64c0.15-0.41,0.75-0.63,1.1-0.98
			c1.2-1.22,4.32-0.46,3.99-2.92c-0.34-2.5-3.02-3.43-5.13-4.14c-3.55-1.18-7.71-1.32-5.69-7.11c0.73-2.09-2.15-3.15-2.88-4.98
			c4.19,0.5,7.56,1.92,9.06,6.45c1.32,4,5.06,5.54,8.7,5.35c3.86-0.2,7.48,0.2,11.19,0.98c3.68,0.77,5.69-0.34,7.35-4.45
			c4.93-12.26,3.28-25.13,4.82-37.68c1.26-10.26,0.25-20.55,1.33-30.78c0.26-2.41-0.48-4.92-0.43-7.37
			c0.26-12.27-0.16-24.53,0.77-36.83c0.97-12.77-0.66-25.66,0.35-38.5c0.1-1.3,0.26-2.47,1.58-2.7c1.43-0.25,1.73,1.03,2.25,2.13
			c4.45,9.52,4.65,19.72,5.05,29.93c0.78,19.49,2.66,38.95,1.96,58.49c-1.1,0.24-1.52-0.51-1.91-1.3c-0.21-0.53-0.33-1.09-0.38-1.66
			c0.18-22.93-2.41-45.67-4.53-68.44c-0.08,27.57,2.14,55.09,1.16,82.66c-0.23,6.42-0.13,12.94-3.84,18.74
			c-1.38,2.16-1.61,4.99-0.7,7.27c2.74,6.93-0.5,12.95-2.33,19.22c-0.8,1.4-2.21,2.52-2.12,4.35c0.19,3.58-1.07,6.73-2.51,9.93
			c-1.27,2.82-0.95,5.52,2.22,7.15c0.39,0.28,0.71,0.63,0.94,1.05c-0.35,4.96-1.42,9.85-3.15,14.41c-1.31,3.47-1.19,6.7-0.73,10.05
			c0.76,5.64-2.38,8.68-7.98,7.36c-2.23-0.53-4.36-1.48-6.57-2.11c-3.51-0.99-1.02-3.97-1.95-5.9c-1.01-2.08,1.24-1.61,2.39-1.83
			c1.05-0.81,3.23-0.38,2.97-2.64c-0.19-1.63-1.61-2.06-2.8-2.5c-4.2-1.53-8.53-2.8-11.16-6.86c-1.98-1.18-4.1-2.17-5.9-3.59
			c-4.17-3.29-8.15-3.49-12.65-0.49c-4.31,2.87-8.95,0.04-13.45,0.07c-2.81-1.52-6.13-0.75-9-2
			C514.14,381.12,511.98,381.11,512.98,379z"/>
		<path class="st25" d="M529.86,284.38c2.05,9.59,1.08,20.93,2.67,32.08c1.52,10.64,2.42,21.4,0.45,32.15
			c-0.24,1.29-0.54,2.22-2.02,2.33c-1.6,0.12-3.3-0.04-3.7-1.78c-1.59-6.89-4.3-13.27-7.99-19.29c-0.35-0.57-0.29-1.96,0.14-2.34
			c5.98-5.2,2.33-11.87,2.32-17.68c-0.04-13.97,0.41-27.82,2.92-41.6c0.7-3.88,0.24-7.96,0.36-11.95c0.04-1.12,0.03-2.62,1.65-2.48
			c1.16,0.1,1.31,1.38,1.3,2.39C527.83,265.17,529.25,274,529.86,284.38z"/>
		<path class="st26" d="M676.98,191.12c0.03,4.48,1.18,8.61,2.64,12.91c1.51,4.47,1.86,9.78,1.12,14.47
			c-1.03,6.49,0.52,12.69,0.59,19.02c0.17,14.54,1.38,29.07,1.53,43.61c0.17,16.82-0.78,33.65-1.24,50.46
			c-0.14,5.07,1.23,10.69-1.84,15.84c-0.98,1.64,2.8,5.33-1.83,6.57c-1.43-6.81-1.02-13.82-0.67-20.58
			c0.35-6.7-0.97-13.45,0.57-20.12c0.99-4.31-0.86-8.52-0.97-12.85c-0.28-11.61-0.19-23.24-0.55-34.86
			c-0.38-12.2-1.93-24.35-1.53-36.6c0.18-5.54,2.45-10.55,2.35-16.19c-0.14-7.35-2.31-14.4-2.19-21.72
			C675.64,191.11,676.31,191.11,676.98,191.12z"/>
		<path class="st3" d="M584.97,378.01c-0.33,0-0.66,0-0.99-0.01c-1.96-2.42-1.38-5.2-1.11-7.92c1.55-4.05,1.24-8.33,1.52-12.54
			c0.21-0.49,0.52-0.9,0.94-1.23c3.87-1.64,5.52-4.32,5.59-8.75c0.19-12.9,2.02-25.73,2.03-38.65c0.01-3.82,0.69-7.58,0.73-11.39
			c0.02-1.66-0.38-4.23,2.07-4.35c2.24-0.12,1.21,2.69,2.23,3.87c0,0.33,0,0.66,0,1c0.91,11.37,0.3,22.77,0.51,34.15
			c0.03,1.61-0.46,3.31,0.49,4.84c0,0.33,0,0.66,0,1c-1.52,5.19,0.56,10.39-0.04,15.58c-0.04,0.91-0.3,1.73-0.94,2.4
			c0,0.34-0.01,0.67-0.01,1.01c-3.73-1.08-1.02-4.47-2.37-6.51c1.14,3.82-1.66,6.63-2.39,9.94c-1.06,4.8,0.21,10.01-2.6,14.46
			c-0.43,0.68-0.23,1.28,0.36,1.71c4.42,3.23,1.92,7.29-0.2,9.46c-4.05,4.15-3.81,8.86-3.95,13.76c-0.06,1.91,0.61,4.1-1.84,5.16
			c-2.06-7.43-1.02-14.73,0.86-22.02C586.28,381.23,587.85,379.21,584.97,378.01z"/>
		<path class="st27" d="M515,190.11c0.27-0.11,0.56-0.16,0.85-0.16c7.39-0.59,14.77-0.67,22.16,0.05c0,0,0.03,0.01,0.03,0.01
			c-0.22,1.03-0.62,1.97-1.85,1.97c-6.32,0.01-12.64,0.01-18.96-0.07C516.17,191.9,515.49,191.03,515,190.11z"/>
		<path class="st9" d="M598.96,337.02c-1.24-0.97-0.94-2.37-0.99-3.67c-0.47-11.21,1.02-22.48-0.88-33.67
			c-0.08-0.49,0.57-1.1,0.88-1.66c0.33,0.33,0.67,0.67,1,1C598.96,311.69,598.96,324.35,598.96,337.02z"/>
		<path class="st9" d="M597.98,354.02c0.52-5.32-1.11-10.78,0.98-16c0,2.67,0.01,5.33,0.01,8
			C599.1,348.74,601.04,351.69,597.98,354.02z"/>
		<path class="st9" d="M592.83,192.01c0.07-0.69,0.14-1.38,0.21-2.07c0.61-0.01,1.22-0.03,1.83-0.04c-0.32,2.81,1.5,6.12-1.89,8.22
			C592.93,196.08,592.88,194.04,592.83,192.01z"/>
		<path class="st26" d="M597.98,354.02c1.98-2.46,0.55-5.35,1-8c2.12,3.5,0.48,7.35,0.99,11c-0.66-0.34-1.33-0.67-1.99-1.01
			C597.98,355.34,597.98,354.68,597.98,354.02z"/>
		<path class="st28" d="M669.03,548.15c-6.17,1.7-12.46,0.81-18.67,0.61c-8.51-0.28-17.06-0.72-25.46-1.98
			c-6.04-0.91-12.04-0.5-18.04-0.96c-1.2-1.57,0.63-4.02-1.7-5.37c-1.39-0.81-3.1-2.03-2.41-3.9c0.81-2.21,2.99-1.51,4.82-1.42
			c-0.99-0.36-2.82-0.36-2.68-1.3c0.46-3.13-1.81-5.42-2.07-8.25c-0.09-1.02-1.43-8.42-1.89-9.46c-0.95-2.14-0.12-2.77,4.18-3.2
			c-0.83,0.02-1.66,0.04-2.43-0.36c-0.81-0.42-1.57-1.45-1.1-1.95c3.07-3.22-4.48-5.91-0.37-9.04c0.6-0.46,1.74-0.75,0.76-1.78
			c-4.54-4.76,0.21-10.3-1.27-15.37c-0.36-1.24-0.23-2.93-0.1-4.41c0.76-1.77,2.04-2.77,4.04-2.64c1.44,0.3,2.76,1.42,4.29,1.03
			c2.98-0.75,4.51,0.62,5.93,3.1c1.15,2.01,2.86,4.49,5.53,1.29c0.99-1.74,2.42-1.02,3.8-0.71c0.71,0.27,1.34,0.67,1.87,1.22
			c0.34,0.39,0.58,0.83,0.75,1.31c0.4,1.48,0.43,2.96-0.06,4.43c-3.51,2.69-7.08,1.22-10.52-0.06c-0.55-0.2-0.94-1.03-1.85-0.82
			c-1.44,0.33-3.09,0.23-4.13,1.46c-0.5,0.59,0.21,1.2,0.68,1.66c1.25,1.22,2.63,1.21,4.12,0.44c5.51-2.89,11.4-0.51,17.09-1.08
			c2.03-0.21,3.26,3.8,1.53,4.45c-3.24,1.21-6.11,4.34-10.76,2.39c2.92,2,4.93,0.18,7.06-0.23c1.8-0.34,4.01-0.94,5,0.95
			c1.26,2.39-1.17,3.15-2.73,3.81c-2.49,1.05-2.75,4.76-6.33,4.45c5.14,4.41,10.16,2.02,14.93,0.48c-0.87-0.45-3.16,0.15-3.19-1.94
			c-0.03-1.83,1.71-2.31,3.06-2.86c2.32-0.96,5.46-1.12,6.29,1.06c1.65,4.32,3.7,2.47,6.09,1.34c1.16-0.55,2.19-1.02,1.34-2.52
			c-1.22-2.16,0.15-3.12,1.84-3.69c1.92-0.65,4.93-1.16,5.42,0.66c0.74,2.76,3.06,2.16,4.38,3.38c1.05,0.83,2.28,1.35,3.43,2
			c1.05,0.59,2.27,1.65,1.45,2.73c-1.89,2.5-1.33,4.91-0.45,7.44c0.75,2.18-2.86,2.31-2.12,4.02c0.7,1.61,0.28,4.13-2.07,6.66
			c0.91,1.39,2.6,1.35,3.87,2.08c0.42,2.45,0.21,4.95,1.77,7.26c0.68,1-0.96,2.21-2.1,2.96c-2.38,1.57-2.67,4.07-0.56,5.57
			c1.02,0.73,2.97,0.83,2.54,2.49c-0.47,1.81-2.42,1.26-3.83,1.37c-1.12,0.09-2.26-0.07-2.98,0.27
			C666.11,547.37,667.93,546.27,669.03,548.15z"/>
		<path class="st29" d="M669.03,548.15c-2.31,0-4.61,0-7.71,0c3.43-2.67,6.96-1.76,10.93-2.78c-2.46-1.14-4.44-0.52-5.74-2.08
			c-0.81-0.97-2.14-1.52,0.03-2.3c0.8-0.29,1.13-1.01,0.33-1.33c-4.03-1.6-0.71-2.38,0.42-2.59c4.56-0.86,5.37-2.25,1.24-5.17
			c-1.71-1.21-1.58-1.39,1.45-3.97c1.78-1.58-2.52-3.31,0.12-4.89c1.97-1.18,4.13-1.01,6.29-1.03c1.16-0.01,2.26-0.32,3.54-1.21
			c-1.8-1.4-3.64-0.65-5.31-0.85c-1.35-0.16-2.95-0.3-2.97-1.98c-0.03-1.89,1.36-2.98,3.17-3.25c1.68-0.25,3.54,1.36,5.28-0.63
			c-1.48-2.04-4.09-4.13-2.41-6.91c1.61-2.67,4.33-1.59,6.81-0.54c-0.91-1.58-3.74-1.26-3.39-3c0.31-1.53,1.24-3.31,2.45-4.52
			c2.21-2.2,2.97-3.74-1.04-4.39c-1.02-0.17-2.28-1.36-1.34-1.94c2.3-1.41,1.22-4.35,3.21-5.79c1.9-1.37,1.22-2.95-0.32-4.07
			c-2.94-2.13-2.8-3.87,0.47-5.33c1.84-0.82,2.63-1.96,1.62-3.9c-0.7-1.35,0.07-2.54,0.27-3.83c0.94-6.25,0.94-12.51-0.18-18.75
			c-3.2-2.43-0.41-3.95,0.95-5.5c1.6-1.83,3.9-3.41,5.91-1.17c2.62,2.92,5.79,2.56,9.03,2.65c3.96,0.38,7.86,1.1,11.81,1.52
			c1.62,0.17,3.89-0.28,4.07,2.46c-4.27,2.58-8.63,0.74-12.96,0.28c-4.76,0.36-9.49,5.7-7.72,9.77c2.52,5.81,0.33,11.57,0.93,17.33
			c0.29,2.75-0.34,5.5,1.5,7.94c0.41,0.54,0.74,1.23,0.51,1.86c-3.52,9.39-0.67,18.12,2.76,26.79c0.7,1.76-0.69,2.22-1.59,3.15
			c-2.63,2.73-2.91,7.07-0.88,10c0.77,1.11,1.79,0.44,2.69,0.57c1.59,0.23,3.8-0.12,3.93,2.08c0.14,2.16-2.11,1.55-3.42,1.92
			c-0.8,0.22-1.57,0.55-2.35,0.81c1.87,2.13,2.51,5.09,4.75,6.96c-0.6,1.44-2.22,1.5-3.23,2.38c-3.78-0.03-7.57,0.1-11.34-0.12
			c-5.06-0.3-9.82,0.4-14.08,3.34C674.96,547.94,672,548.06,669.03,548.15z"/>
		<path class="st30" d="M600.97,479.97c2.03,4.1,1.99,8.81,0.64,12.58c-1.7,4.74,1.11,6.1,3.63,8.24c-0.61,1.33-1.99,0.94-3,1.38
			c-0.55,0.24-1.4,1.09-1.32,1.24c0.89,1.71,3.58,3.08,2.56,5.05c-1.93,3.72,0.28,3.49,2.67,3.72c0.71,0.07,1.36,0.71,2.25,1.21
			c-2.42,1.26-4.95-0.32-6.87,1.26c-0.04,1.43,1.31,1.47,1.84,2.23c0.51,0.73,3.79,1.6-0.07,2.27c-0.9,0.15-0.67,0.96-0.38,1.57
			c0.9,1.84,4.25,3.43,0.54,5.7c4.35,1.25,1.19,4.8,2.21,6.94c0.72,1.49,3.25,0.68,4.94,1.29c-0.89,1.9-2.4,1.09-3.58,1.29
			c-1.11,0.19-2.32-0.23-3.73,0.98c1.81,2.62,7.88,4,3.55,8.89c-1.31,0-2.62,0-3.92,0c-1-0.57,0.87-3.1-1.93-2.6
			c-2.82,0.5-5.84-2.34-8.59,0.45c-1.02,0.12-1.99,0.09-2.51-1.02c-2.31-1.33-4.82-0.52-7.24-0.65c-1.91-0.1-4.02-0.14-4.19-2.4
			c-0.21-2.78,2.48-1.11,3.69-1.84c0.56-0.34,1.19-0.54,1.79-0.81c2.42-0.41,2.51-2.61,3.45-4.64c-2.67-0.47-5.26-0.93-7.92-1.39
			c0.9-2.07,3.95,0.14,4.72-2.28c-1.07-1.42-3.31,0.07-4.23-1.67c2.15-2.76,3.65-5.43-0.35-7.99c-0.85-0.54-1.19-2.1,0.07-2.32
			c4.62-0.81,3.67-4.69,3.85-7.4c0.18-2.73,0.54-5.51,0.41-8.27c0.02-1.75,1.24-2.02,2.77-2.37c-1.35-0.83-2.7-1.66-4.84-2.98
			c4.91-0.94,3-4.11,3.09-6.64c0.83-2.54,3.04-3.32,5.22-4.2c0.99-0.4,2.59-0.4,2.15-2.13c-1.69-6.66-0.89-13.23,0.48-19.8
			c-0.98-5.06,0.73-10.05,0.37-15.09c-0.17-2.47,1.42-5.2-1.08-7.33c-0.79-1.35-1.13-2.69,0.08-3.99c1.51-0.86,2.13-3.37,4.35-2.79
			c2.49,0.65,1.92,3.09,2.49,4.92c1.79,5.81,0.97,11.81,1.32,17.7c0.17,2.86,0.91,5.47,1.34,8.2c0.47,1.07,0.79,2.15,0.03,3.23
			c-1.56,2.55-1.11,5.31-0.75,8.02C601.18,477.16,601.7,478.55,600.97,479.97z"/>
		<path class="st31" d="M747.94,539.95c0.62,1.7,3.38,3.19,5.85,2.64c1.42-0.32,2.39-0.32,2.71,1.05c0.34,1.45-0.86,2.25-2.06,2.16
			c-2.45-0.18-4.94,2.28-7.44-0.42c-0.89-0.96-3.37-1.02-4.17,0.04c-1.71,2.26-3.84,1.88-6.6,1.26c1.28,1.51,2,2.37,2.72,3.22
			c-5.02,0.16-10.05,0.36-14.97-0.99c-0.55-1.58,0.13-3.01,1.1-3.99c1.38-1.4,3.25-1.95,5.28-1.32c-1.04-2.57,0.37-3.39,2.59-3.64
			C737.94,541.36,742.94,538.77,747.94,539.95L747.94,539.95z"/>
		<path class="st32" d="M592.95,542.9c1.1-1.21,1.29-4.91,4.14-1.25c0.61,0.78,2.85,0.23,4.34,0.38c2.89,0.29,2.83,1.8,1.5,3.79
			c-4.92-0.5-8.86,2.04-12.92,4.18c-1.65-0.24-3.13-0.83-4.34-2.12c0.42-1.74,2.32-1.42,4.03-2.97c-4.74,0-8.71,0-12.69,0
			c-0.73-1.18-0.66-1.96,0.98-1.98c3.71,0.04,7.42,0.09,11.13,0.13c3.28,1.05,6.72,0.32,10.06,0.63
			C597.23,542.68,594.78,544.74,592.95,542.9z"/>
		<path class="st33" d="M732.94,539.95c-0.87,5.11-7.88,4.06-8.96,8.95c-4.19-0.81-8.42-1.5-12.11-3.87
			c3.7-2.56,3.7-2.56,12.64-3.57c-1.03,0.3-1.93,0.12-2.67-0.7c-0.17-0.49-0.12-0.95,0.14-1.4
			C725.77,537,729.42,537.3,732.94,539.95L732.94,539.95z"/>
		<path class="st31" d="M721.94,539.95c1.83,1.41,4.55-0.58,6.66,2.29c-5.8,0.98-11.54,0.61-16.74,2.8
			c-3.06-0.34-6.45,0.73-8.92-2.09c-1.01-3.72,2.06-1.27,3.02-2c4.65-0.21,9.41,0.56,13.79-1.84
			C720.44,538.74,721.37,539.27,721.94,539.95z"/>
		<path class="st34" d="M584.96,405c1.23-4.45,0.41-9.05,0.97-13.55c0.21-1.65,0.14-3.09,1.83-4.29c5.34-3.81,5.26-7.79-0.43-11.38
			c6.42-2.94,2.59-9.05,4.38-13.59c0.91-2.3,0.49-5.18,2.31-7.36c1.57-1.88,0.2-3.79,0.01-5.7c-0.09-0.93-0.36-2.28,0.87-2.52
			c1.54-0.31,1.78,1.07,2.01,2.24c0.54,2.7-0.98,5.66,1.04,8.17c0.35,5.08-0.02,10.36,1.3,15.17c0.99,3.6-2.11,6.56-0.29,9.82
			c0.6,3.22,2.79,6.35,0.58,9.74c-1.59,0.87-2.06-0.2-2.36-1.43c-0.39-1.58,0.02-3.33-1.55-5.64c-2.97,16.18-4.99,31.62-2.65,47.35
			c-0.01,0.67,0.03,1.42-0.32,1.95c-4.63,6.94-4.61,14.89-5.06,22.75c-0.06,1-0.39,1.95-0.76,2.88c-0.27,0.68-0.63,1.31-1.05,1.9
			c-1.35,1.35-2.54,3.02-4.86,2.47c0.8-3.79,3.4-7.35,1.17-11.55c-0.4-0.75,0.32-2.23,0.78-3.26c1.75-3.89,3.43-7.72,0.1-11.64
			c-0.52-0.62-1.17-1.84-0.18-2.07c5.65-1.29,1.97-4.92,1.91-7.48c-0.16-6.67-0.31-13.32,0.22-19.98
			C584.97,406.99,584.96,405.99,584.96,405z"/>
		<path class="st4" d="M580.97,463.97c1.34-1,2.68-2.01,4.01-3.01c1.72-0.4,1.95,0.93,2.39,2.03c-1.28,4.44,0.69,9.07-0.87,13.53
			c-0.64,1.84-0.97,3.6-3.52,2.45c0,0-0.02-0.02-0.02-0.02c0-0.66,0.01-1.32,0.01-1.98c0.28-4.32-1.46-8.14-3-12
			C580.3,464.64,580.63,464.3,580.97,463.97z"/>
		<path class="st34" d="M579.97,464.97c3.31,3.42,5.01,7.25,3,12c-3.07-3.03-1.36-8.05-5.12-11.23
			C576.17,464.32,579.33,465.63,579.97,464.97z"/>
		<path class="st12" d="M583.96,500.97c3.08,4.94-0.11,10.01,0.17,15.04c0.11,1.99-2.69,1.56-4.47,1.29
			c0.32,1.79,2.1,1.25,2.63,2.09c0.94,1.49,2.45,3.48,2.04,4.71c-0.43,1.29-2.82,1.93-4.35,2.86c-2.33-1.55-3.65-0.14-4.86,1.65
			c-1.72,2.54-3.12,3.67-6.65,1.61c-4.29-2.51-9.63-1.4-14.54-1.16c-1.08,0.05-2.05,0.52-3.31,0.34c-3.05-0.43-7.05,0.72-5.45-4.92
			c0.24-0.85-0.79-2.06-1.3-3.25c1.04-0.16,2.14-0.33,3.54-0.55c-0.61-0.52-0.95-0.81-1.3-1.1c-1.74-1.44-3.53,0.03-5.25,0.09
			c-3.11,0.12-6.19,1.09-9.28,1.7c-0.61-4.69-4.88-3.31-7.5-4.06c-2.63-0.75-0.94-3.21-2.68-4.13c-3.48-1.82,1.93-1.16,0.46-2.82
			c-3.2,0.53-3.64-3.54-6.38-4.78c6.17-0.53,12.34-1.05,18.51-1.58c2.18,3.44,5,3.99,8.72,2.43c2.61-1.09,5.51-0.46,8.26-0.3
			c0.38,1.84-1.35,1.59-2.19,2.17c4.51,3.64,9.84,0.64,14.69,2.14c-2.18,2.89-5.92,4.87-3.58,9.22c0.47,0.87,0.46,2.26,1.75,1.1
			c2.61-2.36,8.85,1.87,9.48-5.76c-2.58,1.9-4.69,4.15-6.31,0.29c-1.34-3.2,1.56-3.71,3.08-5.18
			C572.49,505.67,580.1,506.62,583.96,500.97z"/>
		<path class="st35" d="M582.97,478.97c4.09-1.46,2.79-5.07,2.69-7.79c-0.22-5.95-0.46-5.94,1.29-8.2c2.33-2.44,4.67-1.68,7,0
			c1.14,0.82,0.58,1.57,0.06,2.51c-0.71,1.29-2.03,3.15-1.59,4.01c2.46,4.81-2.4,10.44,2.39,14.85c-3.7,1.46-7.14,2.27-9.83,4.62
			c-2.18-1.04-4.86-1.87-1.67-4.81C585.3,482.34,581.63,480.8,582.97,478.97z"/>
		<path class="st3" d="M544.35,448.01c2.37,0.02,4.08,1,4.17,2.7c0.13,2.8-2.79,2.34-4.46,2.99c-1.69,0.66-2.5-0.97-2.65-2.22
			C541.11,449.14,543.06,448.59,544.35,448.01z"/>
		<path class="st12" d="M567.97,500.97c-2.06,0.25-4.12,0.5-6.76,0.82c2.69-3.38,6.67-2.76,9.4-4.69c0.55-0.39,1.72-0.08,2.03,0.88
			c0.41,1.27-0.36,1.8-1.51,1.94C569.99,500.04,568.75,499.81,567.97,500.97C567.98,500.96,567.97,500.97,567.97,500.97z"/>
		<path class="st12" d="M540.96,494.95c-1.07-1.22-2.13-2.45-3.39-3.89c2.19-1.49,4.6-2.2,6.2,0.3c1.73,2.71-0.73,3.24-2.78,3.61
			C540.99,494.98,540.96,494.95,540.96,494.95z"/>
		<path class="st36" d="M803.97,190.03c0.32-0.07,0.64-0.05,0.95,0.04c5.69,1.4,11.46,0.22,17.18,0.53c1.95,0.1,3.96-0.54,5.83,0.49
			c-2.06,2.05-4.87,0.17-7.11,1.34c1.89,4.91,0.15,9.75-0.46,14.51c-1.26,9.76-3.11,19.42-0.63,29.27c0.97,3.84-0.13,7.87-0.29,11.7
			c-0.74,17.07-0.08,34.09,0.11,51.13c0.11,9.37-0.31,18.88-0.6,28.33c-0.09,2.97-0.04,5.92,0.72,8.9c0.54,2.08,0.8,4.32-1.51,6.29
			c-5.38,4.6-5.24,4.77,0.8,7.52c-0.56,3.23-0.59,3.24-5.53,2.61c-2.11-0.44-3.89-1.32-4.26-4.1c-2.16,2.35-1.16,4.94-2.19,6.95
			c-2.56,1.76-4.43,1.05-5.56-2.7c-0.61-2.02-1.22-3.36-3.49-3.32c-2.29-0.86-4.55-0.19-6.84-0.01c-1.83,0.14-3.99,1.2-5.34-1.16
			c4.47-9.91,4.74-20.58,5.67-31.12c1.3-14.72,0.22-29.54,1.91-44.25c0.9-7.82-0.82-15.58-0.9-23.39
			c-0.09-7.99,1.37-15.88,1.65-23.79c0.3-8.62,1.09-17.18,1.54-25.77c0.27-3.07,2.67-5.11,3.81-7.75c0.35-0.36,0.78-0.53,1.28-0.51
			c1.69,1.05,0.96,2.81,1.24,4.14c0.09-1.44-0.27-3.06,0.4-4.6C802.75,190.7,803.48,190.52,803.97,190.03z"/>
		<path class="st37" d="M813.03,351.11c2.11,0.43,4.56,2.81,5.94-1.02c0.31-0.06,0.63-0.08,0.95-0.07
			c-0.07,2.26,0.83,4.62-1.95,6.29c-1.37,0.82-1.06,3.01-1.04,4.68c0.05,3.03-0.79,5.83-2.01,8.58c-1.24,2.79-2.42,5.71,1.56,7.45
			c1.47,0.64,1.01,1.36,0.19,2.19c-1.27,1.28-2.51,2.58-3.77,3.87c-0.72,1.07-1.79,1.56-3,1.79c-1.95-0.07-4.14-0.17-2.48-2.99
			c2.46-4.2-0.66-3.54-2.91-3.43c-1.45,0.07-2.97,0.35-4.03,1.59c-0.29,0.36-0.63,0.66-1.01,0.91c-0.45,0.22-1.06,0.49-1.4,0.23
			c-4.66-3.46-8.15-3.17-11.73,2.04c-1.92,2.79-6.33,1.21-9.58,1.86c-3.27-0.53-6.2-1.66-8.13-4.56c-0.23-0.43-0.39-0.88-0.48-1.36
			c-0.22-1.58,0.62-2.81,1.37-4.12c-1.21,1.21-2.15,2.87-4.28,2.24c-0.69-0.43-1.07-1.08-1.31-1.83c-0.57-3.42-0.47-6.85-0.07-10.28
			c0.92-4.18,3.45-5.45,7.67-6.8c3.96-1.27,9.13-1.1,12.11-5.12c0.86-1.6,1.76-3.18,3.29-4.27c3.66,0.15,7.36-2.9,10.99,0.1
			c1.06,4.57,6.94,5.77,7.19,11.61c2-2.27,1.76-4.59,2.83-6.28C808.64,351.79,810.93,351.61,813.03,351.11z"/>
		<path class="st0" d="M827.93,191.09c-6.8-0.7-13.59,1.13-20.39,0c-0.97-0.16-1.97-0.1-2.62-1.02c8.01,0,16.01,0.01,24.02,0.01
			C828.6,190.42,828.27,190.75,827.93,191.09z"/>
		<path class="st31" d="M818.75,533.83c-2.35-0.18-4.54,0.54-6.75,1.17c-1.11,1.11-2.87,2.13-1.99,3.95
			c0.95,1.97-0.38,1.6-1.41,2.05c-4.46,1.95-9.16,0.03-13.66,0.99c-2.62-0.8-5.23-1.6-1.67-5.23c-5.24,1.62-7.11-2.9-10.34-4.81l0,0
			c2.65-4.96,2.65-4.96,0.82-7.53c2.01-1.27,4.58,0.43,6.98-1.52c-4.07-1.82-7.78-3.82-8.98-8.23c4.92-0.31,9.56-1.81,13.8-4.94
			c-5.6,0.56-10.66-1.7-16.36-2.39c1.47-2.4,4.75-0.5,5.91-2.98c-1.04-0.43-2.07-0.91-3.15-1.27c-0.83-0.28-1.68-0.49-1.23-1.63
			c0.29-0.73,0.92-2.06,1.04-2.02c3.67,1.19,3.59-2.56,5.39-3.9c-1.94-1.1-3.32-3.45-6.09-1.84c-1,0.58-1.87-0.25-2.3-1.29
			c-0.32-0.78,0.24-0.97,0.76-1.43c2.47-2.21,3.22-4.02,2.91-5.19c-1-3.8-3.6-3.56-6.54-2.86c-1.08,0.26-2.33-0.28-3.35,0.67
			c-0.07,2.63,3.43,0.26,3.28,2.13c-0.07,0.85,0.52,2.77-1.01,2.97c-2.94,0.39-4.93,1.32-4.63,4.77c0.01,0.09-1.48,0.31-2.27,0.48
			c-2.6-0.65-6.15,0.09-4.91-4.98c0.44-1.78-2.72-2.38-4.38-1.78c-3.92,1.42-6.76,0.02-9.31-2.73c-0.64-0.69-0.67-1.6-0.01-2.25
			c2.77-2.72,5.75-5.07,9.99-4.62c0.83,0.09,1.63,0.33,2.45,0.46c1.31,0.2,2.69,0.59,3.39-1.11c0.64-1.57-0.01-2.5-1.45-3.15
			c-1.44-0.65-2.49-1.64-2.46-3.39c0.21-1.85,1.81-1.73,3.03-2.17c1.06-1.52,4.09-2.36,1.7-5.04c3.29-3.38-2.97-6.44-0.34-9.81
			c1.81-4.93,4.81-9.51,5-14.91c0.1-2.81,1.96-3.9,3.8-5.21c-2.46-1.24-3.1-3.49-2.54-5.84c0.73-3.05,0.45-5.87-0.47-8.79
			c-0.88-2.82,0.28-5.04,2.96-6.05c2.7-1.02,3.86,1.23,4.96,3.09c1.13,1.93,1.2,3.96,0.96,6.24c-0.46,4.45-0.5,8.98,3.12,12.49
			c0.49,0.48,0.87,0.97,0.88,1.7c0.14,7.72,0.47,9.14,4.27,16.32c1.13,2.13-0.4,3.04-1.57,4.14c-1.14,1.07-2.31,2.27-1.75,3.85
			c0.69,1.93,2.56,0.9,3.95,1.02c0.49,0.04,1-0.03,1.5,0c2.27,0.13,5.24-0.45,5.7,2.64c0.49,3.29-3.11,1.99-4.58,3.13
			c2.86,1.24,3.51,2.85,1.19,5.27c-3.12,3.26-2.94,9.28,0.37,12.16c0.98,0.85,2.81,1.28,2.49,2.77c-0.42,1.98-2.58,1.63-4.17,2.31
			c2.59-1.07,3.91,0.54,5.4,2.15c3.34,3.59,7.34,3.7,10.82,0.28c1.71-1.68,3.5-1.45,5.5-1.01c-1.37-1.26-3.14-0.51-4.67-0.88
			c-0.89-0.21-1.62-0.67-1.78-1.53c-0.18-0.96,0.58-1.54,1.37-1.82c2.95-1.04,5.83-2.59,9.13-1.47c0.16,0.17,0.32,0.34,0.48,0.52
			c-1.89,2.39,2.09,4.06,0.79,6.37c2.15,0.35,2.52,1.44,1.16,3.05c-1.05,1.25-2.08,2.73-4.13,1.52c-0.64-0.37-1.37-1.06-2.51-0.09
			c1.58,2.33,4.22,2.63,7.1,3.67c-2.41,0.87-5.9-0.39-5.99,3.04c-0.06,2.44,3.15-0.22,3.8,2.04c-0.31,2.61-2.91-0.28-3.8,1.27
			c1.04,2.17,3.47,0.24,4.75,1.65c-0.68,3.17-3.87,1.82-5.85,3.16c1.34,2.71,3.6-0.06,5.55,1.23c-3.27,1.35-3.02,4.85-5.05,7.16
			c-1.97,2.23,1.81,1.22,2.37,2.6c-5.11-0.08-2.98,5.46-5.64,7.48c-0.13,0.1,1.7,2.5,3.54,2.78
			C815.62,533.16,817.42,532.31,818.75,533.83z"/>
		<path class="st33" d="M765.94,453.98c-1.3,4.1,2.71,4.01,4.55,5.74c-0.39,2.58-2.87,1.2-4.22,1.83c0.42,2.01,2.54,1.77,3.32,3.5
			c-1.5,1.5-3.69,2.68-4.66,4.91c-2.52-1.97-2.52-1.97-3,0.01c0.1,1.73,0.97,2.74,2.73,2.98c2.47,0.34,2.64,0.86,2.07,3.77
			c-0.62,3.18-1.22,3.19-3.75,2.79c-6.85-1.09-6.87-1-13.6,3.84c2.96,1.86,4.85,4.98,9.37,2.15c2.73-1.71,6.08,2.18,5.05,5.29
			c-0.59,1.78,0.48,2.17,1.79,1.75c1.51-0.48,2.22-0.17,2.33,1.41c-0.33,0.01-0.66,0.01-0.99,0.01c-0.89,0.94-2.18,1.43-3.19,0.91
			c-4.41-2.28-8.11,0.38-11.98,1.55c-1.82,0.55-3.59,0.95-5.38,0.49c-4.48-1.17-7.8,1.25-11.26,3.37c2.32-1.92,4.76-3.35,7.79-1.62
			c2.56,1.46,2.53,3.18-0.15,4.48c-1.68,0.81-3.16,1.83-4.55,3.02c-0.38,0.32-0.99,0.5-1.2,0.87c-2.21,3.9-2.19,3.91-5.72,3.42
			c2.24,0.07,4.71,1.13,7.4-0.26c2.17-1.12,4.14,0.41,4.52,2.47c0.42,2.27-1.94,2.2-3.48,2.61c-1.24,0.33-2.49-0.02-3.93-0.11
			c3.1,1.34,6.85-0.72,9.38,2.37c-1.1,1.24-2.14,1.09-3.24,0.45c-2.21,1.16-4.81-0.38-6.99,0.99c-5.04-2.11-10.26-1.43-15.48-0.88
			c5.22-0.65,10.42-0.89,15.48,0.87c0,0.33,0,0.66,0,1c-2.93,1.65-4.65,5.69-9.12,4.28c-0.54,0.21-0.2,1.28-0.21,0.62
			c0-0.24,0.17-0.42,0.37-0.29c3.56,2.13,9.34,1.28,9.95,7.39c-1.36,1.47-3.35,1.34-5.03,1.98c-1.28,0.89-3.21,0.78-3.42-0.34
			c-0.82-4.36-3.99-1.59-4.86-2.07c2.27,0.37,4.88,2.9,8.27,3.45c1.34,0,2.69-0.01,4.03-0.01c-0.65,3.64-3.71,2.76-6.03,3.14
			c-2.39,0.39-5.19-0.88-6.96,1.85c0,0,0,0.01,0,0.01c-1.27,0.17-2.93-0.11-3.75,0.59c-4.06,3.47-8.12,1.56-12.23,0.41
			c-1.31-1.81-6.43-0.93-3.88-5.48c-1.4-0.29-2.8-0.57-4.79-0.98c3.03-1.98,5.62-3.74,9.41-3c-2.16-3.52-7.03,0.79-7.53-2.51
			c-0.66-4.35-5.01-10.49,3.38-12.65c-0.76-2.22-2.85-0.77-3.88-1.82c-0.08-0.13-0.25-0.35-0.21-0.39
			c4.25-5.14-2.71-9.78-0.65-14.74c0.72-1.73,0.39-2.73-0.53-4.37c-0.99-1.77-2.15-4.63,1.16-6.06c0.83-0.36,1.61-0.75,0.66-1.71
			c-2.51-2.52-2.37-5.04-2.06-8.67c0.41-4.85,1.89-10.97-0.05-14.71c-2.91-5.62,0.6-8.15,2.31-11.84c0.96-2.07,2.73-2.17,4.65-1.86
			c5.71,2.19,5.86,2.49,1.53,7c-3.41,3.55-2.2,7.48-1.11,11.22c0.69,2.35,1.35,4.23-0.3,6.47c-1.51,2.05-0.46,4.08,0.9,5.93
			c2.12,2.87,3.14,5.55,0.28,8.89c-1.84,2.15-1.01,5.53-0.34,7.96c0.39,1.43,3.19,2.77,5.59,2.37c0.89-0.15,2.25,0.65,1.7-1.71
			c-0.36-1.53,7.75-3.8,9.19-2.61c1.37,1.13,0.06,2.08-0.28,3.07c-0.44,1.3-0.18,2.42,1.06,2.91c1.09,0.43,1.87-0.52,2.44-1.32
			c1.75-2.46,2.03-4.56-0.72-6.86c-3.15-2.64-2.83-3.89,0.99-5.57c2.56-1.12,5.07-2.54,8-2.61c2.25,0.23,2.65,2.4,3.9,3.69
			c4.05,0.84,8.06,2.77,12.32,0.43c-2.82,0.52-5.55,0.9-8.31,0.32c-4.14-0.01-4.08-4.21-6.23-6.14c-3.13-2.81-0.76-4.97-0.36-7.8
			c1-7.12,6.17-5.58,10.38-5.99c2.58-0.26,4.58-0.15,5.58-3.44c1.01-3.31,4.56-3.95,7.62-4.94c4.06-1.31,4.34-2.41,1.8-5.88
			c-0.57-0.77-0.86-1.4-0.36-2.2c0.77-1.2,1.92-1.88,3.33-1.89C764.29,451.45,765.33,452.45,765.94,453.98z"/>
		<path class="st31" d="M741.93,517.97c0.63-0.07,1.27-0.13,1.9-0.2c-3.91-0.59-7.72-1.37-11.49-3.13c3.29-0.29,6.58-0.59,9.99-0.89
			c-1.55-2.44-7.44-2.87-13.76-1.24c0.79-1.96,0.79-1.96,8.49-3.04c0.36-1.96-3.04-1.86-2.3-2.25c3.25-1.69,4.88-5.97,9.57-5.45
			c-3.48-3.49-3.34-3.36-6.08-0.49c-1.54,1.61-3.65,0.31-5.88,0.76c2.26-3.91,9.88-7.06,13.25-6.45c2.19,0.4,4.99,1.79,6.48-1.56
			c0.45-1,1.32-0.74,2.12-0.38c0.61,0.27,1.74,0.79,1.77,0.72c3.27-5.98,7.04,1.25,10.43-0.4c0.13-0.07,0.33-0.01,0.5,0
			c-0.58,3.72-2.91,4.37-6.29,3.31c2.59,3.09,2.59,3.09,6.72,1.4c-0.14,6.59-1.75,7.64-7.82,5.1c1.36,2.74,1.36,2.85,4.41,2.8
			c1.69-0.03,2.56,1.12,3,2.17c0.94,2.22-2.47,0.24-2.17,2.3c0.53,1.38,2.32,0.49,3.35,1.3c0.05,1.58-1.52,1.52-2.3,2.25
			c-0.74,0.69-1.28,1.07-2.43,0.06c-3.69-3.29-7.47-2.55-9.53,1.58C752.55,518.92,747.04,519.72,741.93,517.97z"/>
		<path class="st31" d="M735.94,531.95c-2.42-4.89-8.28-4.22-11.27-7.78c1.57-0.72,3.89-1.3,6.25-1.32c0.2-1.29-1.78-1.28-1-2.71
			c1.61-0.25,3.41,1.29,5.02-0.18c3.51,0,7.03,0,10.7,0c-0.56,2.29-2.03,1.63-3.11,3.13c5.71-1.51,7.9,3.24,12.05,5.61
			c-2.65,0.59-4.4,1.59-6.19-1.48c-1.03-1.76-4.91,0.35-5.02,0.89C742.45,532.79,738.18,530.35,735.94,531.95z"/>
		<path class="st31" d="M721.95,539.95c-1.02-2.27,0.57-2.1,2.06-2.49c3.62-0.96,7.86,0.79,10.93-2.49
			c9.27-2.24,18.45-6.26,28.17-0.64c-5.74-0.58-11.44-0.5-17.1,0.8c-1.06,0.71,1.04,1.28,1,2.85c-5.03-1.57-9.71-0.77-14.06,1.98
			C729.28,539.61,725.61,538.07,721.95,539.95z"/>
		<path class="st31" d="M782.38,537.6c-0.49,0.88-0.52,2.62-2.28,1.48c-3.49-2.26-6.2-0.85-8.69,1.71c-1.2,1.24-2.59,1.43-4.08,0.7
			c-0.78-0.38-1.34-1.12-0.95-2.03c0.55-1.28,1.52-2.26,2.96-2.39c3.74-0.34,7.49-0.59,11.24-0.85
			C781.51,536.16,782.14,536.61,782.38,537.6z"/>
		<path class="st31" d="M730.91,534.97c-4,0.73-7.37-3.27-11.53-1.54c-0.11,0.04-0.84-0.79-0.76-1.05c0.18-0.58,0.58-1.29,1.09-1.54
			c3-1.46,6.16-1.49,9.02,0.12c1.94,1.08-0.5,1.1-0.53,1.33c-0.29,2.32,1.62,1.35,2.72,1.64
			C730.91,534.28,730.91,534.62,730.91,534.97z"/>
		<path class="st31" d="M747.94,539.95c1.53-2.75,3.68-4.04,6.89-3.02c0.79,0.25,1.77,0.27,1.66,1.33c-0.09,0.84-0.8,1.37-1.75,1.4
			C752.48,539.74,750.21,539.85,747.94,539.95C747.94,539.95,747.94,539.95,747.94,539.95z"/>
		<path class="st31" d="M782.94,531.95c-2.85,1.95-5.69,2.92-8.81,0.17C777.29,528.68,780.1,533.08,782.94,531.95
			C782.94,531.95,782.94,531.95,782.94,531.95z"/>
		<path class="st12" d="M541.61,537.61c4.47-5.64,9.43-1.86,14.03-1.44C551.88,538.57,550.12,538.77,541.61,537.61z"/>
		<path class="st38" d="M543.04,539.36c-4.28,1.61-8.61,2.64-14.03,1.59C533.99,537.11,538.69,540.09,543.04,539.36z"/>
		<path class="st12" d="M557.96,532.94c2.84-2.95,6.43,0.01,9.49-1.22c-0.16,0.74-0.32,1.49-0.48,2.23c0,0,0.01-0.01,0.01-0.01
			c-2.93-0.99-5.95-1.13-9-0.99L557.96,532.94z"/>
		<path class="st12" d="M557.98,532.96c-2.88,2.12-5.08,0.57-7.82-1.31c3.37-1.63,5.31,1.37,7.8,1.29
			C557.96,532.94,557.98,532.96,557.98,532.96z"/>
		<path class="st10" d="M555.98,388c3.58,3.02,7.67,5.08,12.08,6.61c1.49,0.52,3.44,1.23,3.22,3.24c-0.28,2.55-2.51,2.11-4.3,2.14
			c3.12-2.5,1.9-3.87-1.2-4.94C561.83,393.69,557.42,392.88,555.98,388z"/>
		<path class="st10" d="M514.98,382c3.09,0.24,6.49-0.9,9,2C520.82,384.04,517.64,384.21,514.98,382z"/>
		<path class="st31" d="M819.94,460.96c0.83,0.03,1.58,0.23,2.02,1.03c-0.01,1.03-2.39,2.04-0.79,2.72
			c2.58,1.09,4.04,0.71,0.22,2.64c-2.18,1.1,2.59,0.95,1.96,2.93c-1.26,1.42-3.23,0.08-4.67,1.19c0.81,2.45,5.73,1.65,4.78,3.83
			c-1.06,2.43-1.06,6.2-4.73,7.09c0.94,1.28,2.73-0.19,3.47,1.39c-1.05,1.47-2.6,1.94-4.25,2.22c0,0-0.08-0.06-0.08-0.06
			c-5.37,0.17-6.77-4.37-9.13-7.74c-0.61-0.87-0.4-1.93,0.06-2.86c0.72-1.44,1.49-2.39-0.25-4.18c-1.34-1.37-1.44-4.48,2.38-4.19
			c1.85,0.97,4.01,1.79,4.74-0.94C816.35,463.5,818.45,462.58,819.94,460.96z"/>
		<path class="st39" d="M824.79,519.62c-0.37-0.21-1.87,0.02-0.8-1.7c0.72-1.15,0.57-2.94,2.75-2.49c1.76,0.36,4.06-2.82,4.78-0.79
			c1.15,3.25-2.24,2.2-3.9,2.3C825.64,517.08,827.73,520.43,824.79,519.62z"/>
		<path class="st7" d="M518.89,494.55c-0.69,0.16-1.23,0.34-1.13-0.76c0.21-2.22-1.1-3.41-3.1-3.86c-1.8-0.4-1.44-1.37-0.85-2.53
			c0.51-1,1.48-1.81,2.31-1.08c1.92,1.71,3.94,3.51,5.2,5.69C522.65,494.32,519.67,493.64,518.89,494.55z"/>
		<path class="st7" d="M521.91,486.26c2.01-0.58,3.3,1.09,4.96,1.56c1.5,0.42,3.28-0.53,4.59,0.92
			C527.13,491.53,523.96,490.71,521.91,486.26z"/>
		<path class="st40" d="M810.93,466.97c-2.61,3.44-2.56,3.61,1.25,4.48c-3.72,7.15-2.47,10.34,5.69,14.48
			c-3.63,0.03-6.95,1.19-10.26,2.84c3.09,0.15,6.21-0.13,8.29,3.02c-2.3,0-4.54,0-6.5,0c-1.59,1.4,2.56,2.08,0.1,3.04
			c-2.29,0.9-4.88,0.74-7.35,1.43c-2.51,0.69-5.31-1.59-6.62-4.34c-1.41-2.98-5.8,0.08-6.8-3.89c2.23,0.34,4.54,1.11,6.86-0.99
			c-8.08-1.31-5.03-8.44-6.95-13c-0.52-1.24,2.33-1.23,3.44-2.14c0.78-0.64,1.79-1.15,1.44-2.32c-0.32-1.06-1.19-1.61-2.34-1.18
			c-1.28,0.48-2.58,0.41-2.73-1.06c-0.18-1.83,1.57-1.17,2.57-1.39c1.56-0.34,3.14-0.64,4.91-1c-1.11-4.14-4.5-1.66-6.63-2.29
			c-1.81-0.53-5.02,1.5-5.66-0.81c-0.74-2.63,0.15-5.88,3.76-6.95c0.37-0.11,0.6-0.74,0.92-1.17c-2.66-2.41-5.79-4.52-4.06-8.88
			c0.46-1.18-0.67-1.85-1.4-2.39c-3.42-2.51-2.9-4.58,0.91-6.26c-3.4-1.92-6.15-10.69-4.81-14.69c0.26-0.76,0.81-1.37,0.56-2.29
			c-0.63-2.28-1.54-4.46-3.45-5.89c-0.92-0.68-1.68,0.43-2.5,1.01c-2.81,1.99-0.6,4.23-0.43,6.32c0.11,1.29,1.74,1.89,0.89,3.92
			c-2.26,5.37-1.76,6.14,3.33,8.86c-0.92,2.42-4.53,0.09-5.1,2.75c-0.54,2.53-0.99,5.09-1.3,7.65c-0.39,3.25-3.84,5.52-2.9,9.22
			c0.03,0.11-1.39,0.59-2.13,0.9c-2.09-0.65-4.24-3.05-6.47,0.59c1.97,0.62,4.98,0.66,4.29,3.5c-0.65,2.67-3.01,4.46-5.71,4.79
			c-2.85,0.35-6.66,1.42-6.64,3.47c0.1,7.61-5.27,3.9-8.36,4.61c-1.69,0.39-3.36,1.53-5.3,0.52c-0.88-0.46-1.57,0.05-1.44,1.22
			c0.06,0.48,0.01,0.98,0,1.47l0.77,12.3c0.28,2.38,3.07,0.85,3.84,2.47c-1.39,1.62-3.29,0.84-4.98,1.06c-1.44-1.01-0.92-3.48-3-4
			c-1.55-0.61-3-1.45-4.4-2.31c-3.69-2.25-3.93-3.76-0.88-6.82c3.15-3.16,1.34-6.86,1.29-10.3c-0.03-1.75-0.15-3.14,1.09-4.53
			c4.07-4.54,4.03-4.57,0.55-10.43c-0.47-1.59-0.51-3.2,0.31-4.65c1.37-2.45,0.13-3.33-2.06-3.77c-0.22-0.43-0.27-0.88-0.16-1.35
			c0.72-1.43,1.69-2.66,1.25-4.55c-1.08-4.62-0.97-4.64,4.04-3.63c0.62,0.33,0.61,1.64,0.75,1.49c3.62-4.01,8.01-1.84,11.98-1.26
			c3.34,0.49,5.51,5.46,5.27,11.29c1.62-4.69,3.41-8.47,6.87-11.19c-4.24-2.8-4.28-2.85-0.2-5.89c2.15-1.6,3.47-3.11,1.03-5.56
			c-2.44-2.45-1.84-5.55-0.25-7.78c3.74-5.24,5.46-10.48,2.52-16.61c-1.4-2.92,0.54-5.82,1.99-7.2c3.36-3.19,4.64-6.85,5.13-11.12
			c2.19,2.21,4.72,3.78,7.84,4.28c0.99,0.82,2.35,0.09,3.36,0.82c1.94,2.89,4.07,5.68,4.08,9.43c0,1,0.4,2.07,1.19,2.67
			c3.13,2.41,4.62,4.99,1.85,8.72c-0.71,0.96,0.16,2.23,0.91,3.16c1.36,1.7,2.9,3.22,4.88,4.18c2.59,1.26,5.5,2.46,5.23,5.89
			c-0.27,3.38-3.82,3.18-6.41,4.66c2.78,3.75,2.43,7.2-2.22,10.12c3.94,1.42,7.79,1.56,10.52,4.79c1.8-7.03,7.88-1.41,11.3-4.49
			c-1.02-2.26-3.32-2.25-5.25-2.83c-4.14-1.25-4.46-1.98-1.74-5.31c0.92-1.13,0.62-1.72-0.07-2.49c-1.11-1.25-1.93-2.7-2.84-4.09
			c-1.41-2.16-0.91-3.26,1.77-3.58c6.78-0.82,9.6-4.67,8.44-11.5c-0.24-1.41-0.46-3.13,0.76-3.63c5.34-2.17,1.1-11.88,9.29-11.6
			c0.08,7.84-0.33,15.66-1.55,23.41c-0.2,1.28-0.56,2.85-1.43,3.65c-3.22,2.95-3.17,5.11,0.93,7.06c1.27,0.6,0.54,1.58-0.17,2.41
			c-3.63,4.23-3.52,5.03,0.85,7.62c0.37,0.22,0.88,0.66,0.87,0.98c-0.04,1.21-1,1.6-2.02,1.79c-2.51,0.46-4.49,0.75-1.66,3.89
			c1.02,1.13,1.66,4-1.11,5.36c-1.75,0.86-2.3,2.48-2.89,4.34c-0.95,2.96-0.33,4.3,2.92,4.04
			C814.73,458.33,810.68,461.73,810.93,466.97z"/>
		<path class="st41" d="M821.93,389c-2.77,1.35-5.54,2.69-4.3,6.64c0.09,0.29,0.07,0.84-0.1,0.95c-5.55,3.57-2.98,9.78-4.8,14.54
			c-1.77,4.66-6.06,6.76-11.35,5.42c1.16,2.07,2.27,3.83,3.33,5.32c1.67,2.33,7,4.28-0.63,5.37c-0.29,0.04-0.74,0.8-0.67,1.13
			c0.19,0.86,0.9,1.43,1.78,1.49c2.51,0.18,4.95,0.66,7.06,2.08c0.95,0.64,1.87,1.6,1.43,2.93c-0.42,1.26-1.56,1.82-2.78,1.47
			c-2.84-0.81-5.8,1.29-8.35-0.8c-1.22,1.74,1.34,3.74-0.79,4.79c-2.33,1.16-2.43-1.54-3.62-2.42c-1.63-1.21-3.62-1.51-5.55-2
			c-1.71-0.44-3.59-0.6-5.15-2.22c1.55-1.03,3.26-1.62,4.35-3.09c1.37-1.86,1.71-3.55-0.26-5.21c-0.75-0.63-2.73-0.23-2.01-2.1
			c0.49-1.28,1.95-0.99,2.97-1.44c1.82-0.8,4.94-0.2,5.01-3.09c0.07-2.7-2.39-3.59-4.68-4.4c-2.77-0.98-4.5-3.37-6.32-5.5
			c-1.39-1.63-1.99-3.49,0.2-5.14c2.31-1.75,1.83-2.95-0.57-4.29c-2.29-1.28-3.75-3.43-3.16-6.23c0.72-3.41-3.71-4.77-3-8.09
			c8.67-1.92,17.42-2.34,26.21-1.04c1.3,0.19,2.53,0.73,3.8,0c0.97-0.33,1.94-0.65,2.92-0.98c0.74,2.6,2.87,0.13,4.06,1.11
			C818.84,385.56,823.1,384.47,821.93,389z"/>
		<path class="st42" d="M823.92,383.86c-0.88-1.17-2.81-1.39-2.25-3.83c0.94-4.07,0.05-8.29-0.35-12.47
			c2.22-0.08,1.17,2.54,2.06,2.52c1.52,0.11,1.49-0.48,1.52-0.93c0.09-1.32-0.07-2.68,0.22-3.95c0.51-2.23,2.27-3.42,4.37-3.33
			c2.82,0.12,1.33,2.54,1.37,3.81c0.18,6.11,0.09,12.22,0.09,18.34C828.59,384.49,826.25,384.22,823.92,383.86z"/>
		<path class="st31" d="M821.93,445.97c1.71,3.23,1.56,6.25-1,9.01C816.04,451.4,820.9,448.9,821.93,445.97z"/>
		<path class="st30" d="M577.98,542.92c-0.79,0.43-1,1.15-0.98,1.98c-0.36,0-0.71,0.01-1.07,0.01c-0.78-0.97-2.08-0.32-2.96-0.97
			c-1.21-1.95,0.6-4.51,1.11-4.56C576.23,539.16,577.39,540.91,577.98,542.92z"/>
		<path class="st32" d="M572.97,543.94c1.33-0.72,2.41-0.7,2.96,0.97c-3.35,1.43-6.78,0.45-11.09,0.87
			C567.82,543.01,570.56,544.38,572.97,543.94z"/>
		<path class="st43" d="M592.95,542.9c2.29,0,4.59,0,6.88,0c-3.6,1.56-7.18,2.33-10.72,0.14c0.29-0.08,0.56-0.22,0.79-0.41
			C590.92,542.72,591.93,542.81,592.95,542.9z"/>
		<path class="st37" d="M821.23,357.19c2.12,0.52,3.77,0.74,5.56,0.23c1.25-0.35,2.09,0.89,1.95,2.18c-0.17,1.52-1.26,1.05-2.2,0.73
			C824.7,359.7,821.67,361.59,821.23,357.19z"/>
		<path class="st24" d="M685.92,191.1c-0.37-0.38-0.75-0.76-1.12-1.15c9.35-1.69,18.77-0.58,28.16-0.76
			c8.78-0.17,17.56-0.11,26.34-0.16c0.98-0.01,2.02,0.1,2.6-0.99c2.72,2.24,6.42-0.26,9.17,1.89c-1.44,2.39-5.17,0.25-6.3,3.22
			c-0.22,0.81-0.34,1.64-0.59,2.43c-0.38,1.23-0.58,2.83-2.33,2.72c-1.68-0.1-2.03-1.62-2.08-2.92c-0.09-2.47-0.67-4.02-3.68-3.94
			c-15.88,0.42-31.77-0.24-47.65,0.45C687.52,191.86,686.16,193.24,685.92,191.1z"/>
		<path class="st24" d="M653.02,189.99c-7.8,0.02-15.61,0.04-23.41,0.04c-8.3,0.01-8.3,0-9.25,7.94c-0.43-2.71-0.85-5.42-1.28-8.13
			C630.41,188.67,641.72,188.4,653.02,189.99z"/>
		<path class="st24" d="M683.06,189.86c-9.72,0.04-19.44,0.09-29.16,0.13c3.56-1.94,7.41-0.86,11.09-0.81
			C671.01,189.28,677.1,188.15,683.06,189.86z"/>
		<path class="st24" d="M653.88,189.99c1.26,2.44,1.46,4.93,0.32,8.02c-2.14-2.74-0.97-5.5-1.16-8.03
			C653.32,189.97,653.6,189.98,653.88,189.99z"/>
		<path class="st1" d="M538.01,190.01c-7.39-0.02-14.77-0.03-22.16-0.05C523.24,188.5,530.63,188.51,538.01,190.01z"/>
		<path class="st44" d="M786.9,348.99c-0.64,1.67-1.29,3.35-1.93,5.02c-6.42-0.74-10.2-4.37-10.49-9.98
			c-0.68-12.96-2.74-25.79-3.42-38.78c-0.55-10.5-0.29-20.97-0.58-31.45c-0.26-9.48-0.41-18.98-0.53-28.44
			c-0.1-7.95-0.83-15.92-0.51-23.89c0.12-2.83-0.06-5.66-1.79-8.64c-2.02,2.47-3.74,4.97-2.95,7.98c1.61,6.11,0.42,12.27,0.86,18.35
			c1.04,14.48,0.77,28.95,0.94,43.43c0.18,14.97,1.1,29.92,0.93,44.9c-0.06,5.52,0.99,10.94,1.53,16.4
			c0.23,2.35,0.62,4.79-0.86,6.77c-2.29,3.07-3.06,6.6-3.69,10.21c-0.27,1.28-0.61,2.56-1.75,3.37c-3.34,2.38-4.18,6.04-5.05,9.7
			c-0.82,2.12,0.14,3.51,1.9,4.54c3.49,2.04,2.93,4.32,0.46,6.75c-0.35,0.35-0.67,0.74-1.04,1.07c-2.81,2.42-5.26,6.1-9.78,3.7
			c-3.85-2.04-6.3-9.07-5.18-13.38c1.81-6.99,0.18-13.8-1.39-20.59c-0.35-1.51-1.44-1.63-2.71-1.17c-0.48,0.16-0.97,0.27-1.46,0.37
			c-5.93,1.22-7.23,2.29-7.44,8.05c-0.18,4.86-0.8,10.08,4.1,13.59c1.89,1.35,1.56,3.1,0.21,4.76c-0.53,0.65-1.1,1.25-1.72,1.79
			c-6.77,5.82-8.1,14.02-9.37,22.11c-0.51,3.23-1.71,5.14-4.8,6.11c-8.76,2.77-8.6,2.81-8.8-6.55c-0.18-8.27,0.9-16.59-0.74-24.83
			c-0.39-4.96-0.46-9.91,0.03-14.86c1.03-2.47,0.34-5.29,1.51-7.74c3.08-4.33,7.17-6.02,12.53-5.45c5.1,0.54,6.76-0.73,6.44-5.68
			c-0.88-13.48,1.5-27.06-0.22-40.36c-1.55-11.92-1.34-23.91-1.7-35.71c-0.62-20.27-3.62-40.39-3.28-60.68
			c0.09-5.52,2.15-10.74,3.17-16.12c0.81-4.25,4.55-2.89,7.37-3.08c2.83-0.19,3.73,1.73,4.2,3.99c0.38,1.82,0.05,3.64-0.36,5.43
			c-0.78,3.36-0.54,6.76,0.86,9.79c2.06,4.48,1.95,8.92,1.45,13.65c-0.8,7.63,0.61,15.26,0.87,22.89
			c0.45,13.27,0.77,26.54,1.15,39.8c0.4,13.97,0.09,27.95,0.79,41.9c0.29,5.81,0.66,11.62,0.81,17.44c0.17,6.33,1.99,7.77,8.01,6.52
			c8.89-1.84,9-1.96,9-11.12c0-25.26-1.21-50.49-2.2-75.72c-0.37-9.43-1.63-18.92-2.05-28.33c-0.42-9.55-2.94-18.67-3.63-28.08
			c-0.12-1.65-0.48-3.31,0.27-4.9c3.77-2.55,2.82,2.03,4.44,2.89c0.94-0.66,0.53-2.13,1.51-2.83c2.85,0.1,3.93-1.23,4.07-4.12
			c0.13-2.82,1.19-5.33,4.98-3.85c0.23,0.09,0.33,0.01,0.19-0.55c-0.34-1.32-0.27-2.6,0.08-3.9c0.27-1,1.04-1.61,1.78-2.23
			c0.36,0.01,0.72,0.02,1.08,0.02c0.89,0.81,1.23,1.89,1.45,3.02c1.66,2.91,3.65,5.79,0.5,9c-0.32,0.32-0.32,0.94-0.13,1.43
			c3.47,9.06,0.64,18.08-0.1,27.13c-0.56,6.81-0.64,13.66,0.05,20.45c0.4,3.99,0.74,7.96,0.65,11.95
			c-0.37,16.82,0.71,33.57,2.1,50.32c0.32,3.89,2.1,7.3,3.43,11.91c1.48-4.21,1.52-7.61,1.55-11.02
			c0.23-21.63-0.73-43.26,0.02-64.88c0.37-10.63,0.97-21.26,1.7-31.88c0.48-6.91-0.63-13.95,2.28-20.62
			c0.72-1.65,0.78-3.58,2.07-5.02c0.75-0.59,1.56-0.64,2.41-0.23c0.49,0.72,0.7,1.57,0.54,2.38c-1.6,8.49-1.19,17.16-2.36,25.68
			c-1.85,13.55-2.72,27.12-1.14,41.81c2.83-19.47,2.4-38.22,6.17-56.51c0.39-1.9-0.18-4.54,2.77-5.16c-1.3,12.78-1,25.65-2.69,38.44
			c-0.92,6.98-0.72,14.2,0.34,21.36c0.77,5.22,0.77,10.68,0.22,15.94c-1.12,10.7-0.49,21.43-1.13,32.08
			c-0.42,7.05,0.24,14.29-1.76,21.23c-0.75,2.58-1.13,5.17-0.98,7.86C791.2,340.8,789.03,344.89,786.9,348.99z"/>
		<path class="st45" d="M773.04,192c-0.02-0.9-0.04-1.81-0.06-2.71c10.34-0.23,20.67,0.01,30.99,0.74c-0.34,0.35-0.68,0.7-1.03,1.04
			c-0.55,0.61-1.16,1.08-2.05,0.96c-0.33,0.02-0.65,0.04-0.98,0.06c-3.1,0.71-6.15,0.92-8.97-0.95c-0.66-0.01-1.31-0.02-1.97-0.02
			C783.75,193.07,778.53,194.94,773.04,192z"/>
		<path class="st45" d="M771.9,189.26c0.03,0.79-0.19,1.45-0.94,1.84c-2.38,2.01-5.28,1.18-7.97,1.44
			c-3.04,0.14-6.08-0.08-9.12,0.01c-3.62-0.26-7.47,1.01-10.76-1.54c2.44-1.96,5.34-0.47,7.96-1.07
			C757.97,188.69,764.94,189.03,771.9,189.26z"/>
		<path class="st36" d="M743.1,191c3.63,0.03,7.25,0.06,10.88,0.09c3.8,3.47,4.35,6.83,1.97,11.97c-0.12,6.43,0.7,12.71,2.38,18.95
			c2.28,8.45,1.32,17.26,2.27,25.9c0.86,7.82,1.64,15.83,1.38,23.82c-0.33,10.12,0.66,20.18,1.86,30.23
			c0.7,5.87-1.07,11.67-0.43,17.7c0.89,8.5,0.18,17.16,0.63,25.73c0.25,4.78-2.1,6.77-6.15,7.42c-2.46,0.4-4.83,0.72-7.2,1.69
			c-2.78,1.14-6.68-2.39-6.71-5.94c-0.11-12.54-1.12-25.05-1.12-37.61c0-19.53-0.04-39.08-1.19-58.56
			c-0.43-7.38,0.21-14.91-1.56-22.27c-0.64-2.64-0.29-5.56,0.38-8.4c0.83-3.54,0.58-6.9-1.21-10.52c-1.85-3.76-3.36-8.28-0.66-12.61
			c1.52-2.43,0.22-4.54-0.99-6.42c-1.33-2.06-3.67-1.05-5.54-0.98c-2.75,0.1-2.62,2.71-3.02,4.48c-3.6,15.71-2.54,31.46-0.18,47.2
			c1.3,8.67,0.52,17.4,0.44,26.1c-0.04,3.9,1.84,7.41,1.57,11.18c-0.94,13.23,1.69,26.36,0.98,39.55
			c-0.49,9.2-0.18,18.36,0.03,27.54c0.14,5.87-1.42,7.76-6.98,6.6c-5.52-1.16-9.22,1.03-12.97,4.17c-2.15-2.18-0.44-4.94-1.09-7.29
			c0.39,2.84-0.36,5.37-1.72,7.77c-0.61,1.09-1.17,2.22-2.4,2.76c-1.93-3.48-4.7-5.53-8.86-5.66c-1.25-0.04-2.32-1.09-2.85-2.41
			c-2.28-6.77-0.99-13.8-1.24-20.67c-0.45-12.1-0.97-24.22-1.64-36.28c-0.49-8.77,1.56-17.49-0.19-26.17c0-0.67,0-1.33,0-2
			c-1.01-4.62,0.2-9.39-1-14c0-1,0-2,0-3c-1.37-15.53-2.28-31.1-4.4-46.56c-0.18-1.33-0.17-2.69-1.61-3.4
			c-2.03-1.8,0.88-1.95,1.01-3.03c-0.48-2.45,0.83-4.64,1.01-7c1.43-1.73,3.41-0.99,5.14-1c14.63-0.04,29.27,0.1,43.9-0.05
			c3.8-0.04,6.52,0.09,5.04,5.04c-0.23,0.76-0.46,2.03,1.32,2.55C743.57,195.51,742.68,193.14,743.1,191z"/>
		<path class="st46" d="M598.96,392c2.4-3.33-0.44-6.67,0.02-10c2.91,6.29,3.28,12.93,2.92,19.72c-0.38,6.93,1.56,13.47,4.12,19.77
			c1.33,3.27-1.39,5.18-1.8,7.82c-0.24,1.54-1.97,2.99-0.55,4.61c1.41,1.61,3.28,1.06,5.12,0.66c4.65-1,7.34,2.75,7.29,7.56
			c-0.03,3.9,0.84,8.18,3.1,11.77c0.21,0.34,0.79,0.67,1.18,0.65c1.37-0.06,4.19-6.62,3.26-7.67c-0.65-0.74-1.98-1.65-1.16-2.38
			c3.21-2.83,6.58-5.49,10.08-7.95c1.46-1.02,2.84,0.09,3.76,1.43c0.91,1.32-0.07,2.14-0.84,3.01c-0.65,0.73-1.84,1.79-1.03,2.5
			c2.74,2.4,1.93,5.13,1.67,8.13c-0.33,3.83,3.77,1.37,5.21,3.02c0.34,1.41-0.97,1.54-1.71,2.01c-1.08,0.68-1.93,1.37-1.3,2.78
			c0.55,1.22,1.5,0.91,2.54,0.74c1.47-0.24,3.74-0.39,3.39,1.59c-0.7,3.85,2.03,2.75,3.81,3.47c2.53,1.02,3.72-0.27,4.84-2.09
			c1.35-2.2,3.74-3.91,3.15-7.02c-0.15-0.81,0.2-1.73,1.24-1.83c1.37-0.12,1.63,0.92,1.65,1.95c0.05,2.62,1.55,3.3,3.61,2.34
			c1.97-0.91,3.55,0.26,5.32,0.35c1.28,0.06,2.36-0.41,2.8-1.64c0.54-1.49-0.5-1.94-1.69-2.45c-2.23-0.96-3.59-3.54-6.52-2.99
			c0.33-2.35,1.67-1.69,2.72-1.67c3.78,0.07,8.11-4.27,7.31-7.85c-0.51-2.29-0.09-3.85,1.48-5.33c2.37,1.01,2.28,3.09,1.95,5.04
			c-0.31,1.83-0.19,3.59-0.01,5.39c-0.59,3.65,0.29,7.35-0.29,11c-0.78,1.65-0.88,3.32-0.21,5.04c0.01,0.46-0.07,0.91-0.2,1.35
			c-0.6,3.19-1.82,6.18-1.68,9.6c0.14,3.47-2.14,4.46-6.09,2.49c2.23,2.53,3.32,5.06,5.94,6.23c-0.79,5.14,0.04,10.52-2.07,15.46
			c-0.97,2.27-2.33,4.38-5.29,4.42c-2.06-0.26-4.02-1.86-5.98-0.14c-1.66-2.23,2.99-1.94,1.05-3.38c-1.79-1.32-4.13-0.58-6.34,0.71
			c0.95,1.59,3.65,4.03,1.75,4.7c-2.98,1.04-5.93,2.9-9.32,2.69c-0.19-0.01-0.41-0.4-0.54-0.65c-2.55-5.23-2.55-5.23-8.66-1.81
			c2.4,0.57,4.44,1.06,6.48,1.54c0.16,0.43,0.32,0.87,0.49,1.3c-4.24,0.28-8.29,2.77-11.87,2.53c-2.81-0.19-8.12,0.09-9.62-5.27
			c5.81,0.97,6.68-5.45,11.28-6.1c-4.72-2.54-9.72,2.88-14.45-1.41c1.86-1.24,3.01-1.52,5.26-1.11c2.44,0.44,5.39-1.47,7.95-2.71
			c0.4-0.19-0.36-2.68-1.62-2.42c-6.07,1.24-12.64-2.3-18.54,2.64c-1.8,1.51-3.49-3.05-5.83-4.09c4.62-5.69,9.35-1.51,13.92-0.69
			c1.61,0.29,3.15,1.31,4.57-0.33c2.43-3.5,2.43-4.08,0-5.01l0,0c-0.7-1.39,0.34-2.51,0.71-4.18c-3,0.87-5.76,0.8-7.46-2.06
			c-1.18-1.98,0.27-2.97,0.88-3.43c-2.01,2.3-5.32,4-9.41,3.62c-1.9-0.18-3.47-0.3-2.64-3.25c0.58-2.08,0.08-4.94-0.64-6.7
			c-2.19-5.31-0.32-11.36-3.51-16.34c-0.62-0.97-0.97-2.2-0.76-3.35c0.95-5.04-0.86-9.4-3.21-13.64c-0.36-0.65-0.56-1.33-0.54-2.08
			c1.99-4.15,0.74-8.48,0.49-12.68c-0.54-9.05-1.46-18.08-1.04-27.16C598.88,392.48,598.92,392.24,598.96,392z"/>
		<path class="st47" d="M674.95,458.97c-0.33-3.66-1.32-7.33,0.01-10.99c0.28-6.71,1.63-13.31,1.98-20c0-0.66,0.01-1.33,0.01-1.99
			c0.12-0.89,2.27-0.9,1.42-1.56c-4.62-3.59-1.14-7.19-0.33-10.79c2.67-0.72,3.55-2.61,3.53-5.19c-0.04-4.1,0.18-8.21-0.15-12.31
			c0.15-5.23-0.59-10.57,1.95-15.5c0.47-0.92,0.42-1.83,0.2-2.86c-1.76-8.02-1.28-15.93,1.23-23.74c4.62-4.71,5.34-4.72,8.81-0.12
			c0.25,0.53,0.42,1.08,0.53,1.65c0.11,9.07,0.73,18.14-0.3,27.19c-7,1.72-6.58,7.32-6.61,12.69c-0.03,5.46,0.19,10.92-0.87,16.34
			c-1.21,6.22,0.89,12.44,0.25,18.72c-0.2,1.93,0.15,3.97-0.59,5.84c-1.94,4.91-1.89,9.98-1.47,15.1c-0.1,1.21-0.47,2.34-0.84,3.48
			c-1.08,4.5-4.35,4.95-8.17,4.39C675.35,459.2,675.15,459.09,674.95,458.97z"/>
		<path class="st48" d="M685.95,354.01c-2.97,5.47-1.99,11.6-1.71,17.21c0.37,7.63-1.79,14.89-1.6,22.38c0.02,0.8,0.2,1.6,0.31,2.4
			c-1.15,6.14-3.2,12.03-5,17.99c-0.05,1.3,0.27,2.76-0.2,3.88c-1.8,4.23-0.21,6.09,4.32,6.02c-1.1,3.15-3.45,1.67-5.11,2.1
			c-4.64-2.76-2.14-6.9-1.4-10.13c2.17-9.45,0.74-19.1,2.12-28.6c0.53-3.62,4.11-3.87,4.84-7.03c1.01-4.38-4.78-3.23-4.58-6.68
			c0.19-3.31,0.02-6.65,0.06-9.97c0.01-0.63,0.1-1.62,0.48-1.84c6.69-3.72,6.29-10.47,6.34-16.43c0.15-20.74,1.74-41.45,1.23-62.2
			c-0.12-4.78,0.93-9.59,1.52-15.1c3.72,4.81,1.01,9.93,3.38,14.03c1.65,7.28,2.48,14.61,1.14,22.05c-3.14-0.39-2.44-3.33-3.65-5.59
			c-0.03,8.32-0.18,16.2,0.03,24.08c0.24,8.95-1.55,17.81-1.11,26.76C687.44,351.01,686.88,352.59,685.95,354.01z"/>
		<path class="st26" d="M691.94,304.02c-0.33-7.33-0.66-14.66-0.99-21.98c1.92-3.87,0.62-8.01,1.01-12c1.51,1.3,0.93,3.07,0.98,4.66
			c0.36,13.02-0.02,26.11,1.28,39.04c0.81,8.05,0.65,16.13,1.26,24.16c0.39,5.22,0.77,10.73,0.48,16.11
			c0.27,0.18,0.68,0.33,0.77,0.59c2.41,7.2,5.37,14.3,4.03,22.18c-1.58,2.08-1.23,5.33-4.02,6.68c-3.93-0.57-2.94-3.48-2.93-6.01
			c0.03-7.82,0.6-15.67-0.86-23.44l0,0c-1.06-1.75-1.52-3.71-1.46-5.7c0.4-13.08-1.53-26.11-0.95-39.19
			C690.62,307.31,690.44,305.43,691.94,304.02z"/>
		<path class="st26" d="M684.94,201.09c2.99-1.3,2.6,0.92,3.06,2.7c1.58,6.11,1.16,12.43,1.68,18.6c0.78,9.14,0.96,18.34,2.08,27.48
			c0.04,0.35-0.53,0.78-0.81,1.17c-2.34-3.45-0.83-7.42-1.38-11.12C687.67,227.03,686.43,214.04,684.94,201.09z"/>
		<path class="st48" d="M676.94,427.98c1.68,6.9-0.75,13.39-1.98,20c-2.09-3.51,1.49-7.54-1.01-11.01
			C676.44,434.47,674.11,430.37,676.94,427.98z"/>
		<path class="st26" d="M620.96,434.98c-0.72-0.33-1.4-0.76-2.15-0.96c-1.29-0.35-3.58,0.61-3.51-1.53
			c0.07-2.21,2.37-2.43,4.19-2.45c1.8-0.02,4,0.25,4.84,1.76c0.98,1.75-1.83,1.88-2.36,3.19
			C621.63,435.29,621.3,435.29,620.96,434.98z"/>
		<path class="st46" d="M620.96,434.98c0.33,0,0.67,0,1,0c0.15,0.06,0.32,0.1,0.46,0.18c1.29,0.78,3.76-0.36,3.97,1.86
			c0.13,1.38-1.86,1.54-2.94,2.18c-1.18,0.7-2.48,1.15-3.58-0.03C618.11,437.28,620.64,436.4,620.96,434.98z"/>
		<path class="st26" d="M690.96,254.04c1.58,4.58,1.52,9.27,1,14C689.85,263.5,691.45,258.69,690.96,254.04z"/>
		<path class="st26" d="M686.96,191.06c1,2.53,0.24,4.8-1.01,7c-1.56-2.31-1.52-4.63-0.03-6.96
			C686.29,191.8,686.64,191.8,686.96,191.06z"/>
		<path class="st9" d="M597.97,297.03c-0.68-1.08-1.35-2.16-2.03-3.23c-0.69,6.13-2.44,12.18-2.2,18.22
			c0.52,13.51-1.52,26.85-1.74,40.3c-0.04,2.33-0.44,3.83-3.24,3.75c-1.25-0.03-2.53,0.61-3.79,0.94c-0.31-0.22-0.41-0.44-0.31-0.67
			c0.1-0.22,0.2-0.34,0.3-0.34c2.31-3.84,0.99-8.81,3.92-12.45c-3.32-7.67,0.12-14.46,1.65-21.95c3.39-16.62,1.47-33.79,1.22-50.71
			c-0.12-7.78-0.31-15.68-1.5-23.51c-0.62-4.07,1.51-8.59,0.57-12.79c-0.91-4.07,0.17-7.79,1.09-11.72
			C596.19,247.41,598.19,272.12,597.97,297.03z"/>
		<path class="st10" d="M584.96,356.01c0,0.33,0,0.67,0.01,1c0,0.33,0,0.67,0,1c-1,3.6,0.29,7.42-1,11c0,3,0,6,0,9
			c-5.25-0.94-5.06-4.95-3.6-8.2c1.65-3.66,3.02-7.12,2.69-11.17C582.95,357.39,583.86,356.55,584.96,356.01z"/>
		<path class="st9" d="M583.97,369c0.52-3.65-1.14-7.49,1-11C585.7,361.77,585.92,365.48,583.97,369z"/>
		<path class="st49" d="M682.94,454.98c0.04-1.1-0.17-2.28,1.01-3c0.67-1.16,2.13-1.13,3-1.99c1.11,0.13,2.24,0.72,1.89,1.82
			c-2.02,6.41,1.17,13.28-1.79,19.58c-0.14,0.3-0.46,0.77-0.37,0.87c5.25,5.89-1.25,5.79-4.63,7.85c2.53,1.09,4.47,2.48,5.25,4.45
			c1.15,2.91-2.17,3.06-3.55,4.37c0,1.88,2.76,0.27,2.61,2.28c-1.08,1.64-3.72-0.16-4.67,1.99c0.87,1.31,2,0.49,3.06,0.44
			c1.83-0.09,3.23,0.96,2.37,2.64c-1.35,2.67-3.35,5-5.15,7.58c0.28,0.15,0.83,0.51,1.43,0.74c1.28,0.48,2.98-1.34,4,0.68
			c0.46,0.91,0.08,1.75-0.71,2.1c-1.66,0.73-3.84,1.48-5.01-0.11c-1.92-2.61-2.26,0.67-3.41,0.61c-0.14-0.01-0.31,0.49-0.47,0.75
			c2.93-0.68,0.67,3.8,3.67,3.57c1.54-0.12,0.46,1.52,0.18,2.28c-0.74,1.98-2.13,3.13-4.25,2.09c-2.29-1.13-4.01-1.26-4.96,1.62
			c1.94,1.87,4.17-0.21,6.17,0.55c1.33,0.5,3.5-0.06,3.76,1.76c0.3,2.12-2.09,1.66-3.27,2.22c-2.86,1.37-6.32-0.64-9.19,1.6
			c3.97,1.12,0.26,2.36,0.03,3.62c-2.62,0.23-4.41-0.81-5.17-3.4c3.6-0.12,0.87-4.31,3.42-5.13c-1.96-1.24-2.81,1.57-4.53,1.08
			c-0.85-1.23,0.09-1.98,0.95-2.28c3.87-1.36,7.17-2.82,2.92-7.37c-0.19-0.2-0.25-0.63-0.2-0.93c0.56-3.21,0.17-5.25-1.36-6.92
			c3.94-3.75,7.1-7.58,5.06-13.78c-0.55-1.68,1.2-4.12,1.9-6.21c-1.4-3.44,0.55-9.39,3.61-9.74c4.05-0.47,4.89-2.54,4.18-5.97
			c-0.3-1.45-0.35-2.64,1.54-2.85c2.38-0.61,1.52-2.64,1.64-4.1C684.05,458.51,683.26,456.77,682.94,454.98z"/>
		<path class="st34" d="M600.91,434.01c2.3,4.53,2.59,9.64,3.86,14.21c1.44,5.19,0.24,11.06,3.52,15.73
			c1.04,1.49,0.68,3.21,0.64,4.83c-0.04,1.7-0.96,2.92,1.46,4.56c3,2.04-2.48,0.78-1.66,3.13c5.92,2.11,9.73-2.87,14.28-5.36
			c0.94,1.93-0.84,2.17-1.28,3.1c-0.53,1.12-3.31,1.26-1.6,3.3c1.18,1.41,2.69,2.5,4.78,1.48c1.32-0.64,2.65-1.49,4.57-0.44
			c-1.18,1.82-2.34,3.62-3.51,5.42c-0.67-0.33-1.34-0.67-2.01-1c-0.93-0.88-1.94-1.72-3.29-1.07c-0.44,0.21,0,0.75,0.29,1.07
			c0.88,2.05,1.72,4.07-2,2.64c-0.61-0.23-1.45-0.24-1.81-0.67c-3.23-3.84-7.73-5.4-12.21-7.01c-5.29-2.22-4.4-6.67-3.96-10.96
			c1.12-0.69,0.06-1.34-0.04-2.01c0.57-5.73-0.09-11.41-0.71-17.08c-0.33-3,0.4-6.04-0.9-9.07
			C598.79,437.54,598.85,435.11,600.91,434.01z"/>
		<path class="st46" d="M648.28,514.14c-0.24,4.21-6.57-1.82-5.15,4.91c-2.56-3.37-8.12-0.33-9.84-6.04
			C638.48,514.51,643.41,513.66,648.28,514.14z"/>
		<path class="st50" d="M600.99,466.98c0.43,0.47,1.31,1.2,1.21,1.36c-2.44,4.19,0.97,6.65,2.74,9.59c-1.72-0.1-2.59,1.46-3.97,2.04
			C599.41,475.64,598.39,471.31,600.99,466.98z"/>
		<path class="st46" d="M622.53,501.25c-2.57,2.48-4.98,3.46-8.05,1.62C616.87,501.9,618.83,499.43,622.53,501.25z"/>
		<path class="st34" d="M625.96,483.97c1.42,0.14,2.99-0.42,4.25,0.96c0.09,1.38-3.16,0.04-2.04,2.56c1.56,3.5-1.54,0.85-2.21,1.48
			C625.97,487.3,625.97,485.63,625.96,483.97z"/>
		<path class="st46" d="M620.96,482.97c-1.15-0.27-2.68,0.63-3.65-1.5c2.54-0.1,5.09-2.27,6.65,1.5
			C622.96,483.29,621.96,481.82,620.96,482.97z"/>
		<path class="st51" d="M730.95,450.96c4.69,3.23,4.97,7.87,0.65,11.18c-1.37,1.05-1.97,1.82-1.65,4c0.61,4.15,3.3,8.98-2.46,12.24
			c-2.92,1.66-0.02,3.36,1.15,3.98c1.76,0.94,3.71,1.36,4.3,3.6c-3.48,1.42-6.96,2.84-12.26,5c1.88,0.83,2.77,1.04,3.42,1.55
			c1.41,1.1,4.06,0.97,3.59,3.98c-0.49,3.15-2.01,5.58-4.64,7.13c-1.99,1.17-1.83-1.58-2.99-2.19c-0.93-0.49-2.53-1.56-0.78-3.08
			c0.69-0.6,1.97-0.62,1.88-2.45c-2.63,1.43-5.47,1.37-8.62,2.08c1.11,1.62,3.14,0.39,4,2.08c-2.34,1.77-5.33,1.01-7.86,1.5
			c-2.23,0.43-3.47-4.18-7.51-1.93c1.15-2.56,2.62-3.55,2.51-5.62c-0.11-2.13-3.33-5.73,2.09-6.54c0.53-0.08,0.51-3.71-1.15-5.33
			c-2.97-2.89-4.29-5.91-0.63-9.27c1.31-1.2,0.01-1.99-0.46-2.97c-2.83-5.93-2.04-10.12,2.75-14.81c2.01-1.97,1.86-3.1-1.19-3.1
			c-1.43,0-1.75-0.6-1.11-1.82c4.69,0.17,9.32,1.59,14.07,0.67C722.36,448.78,726.66,448.68,730.95,450.96z"/>
		<path class="st52" d="M686.95,449.98c-0.56,1.33-1.56,1.99-3,1.99c-0.2-4.33-1.92-8.26,0.09-13.08
			c2.33-5.59,1.89-12.09,0.77-18.32c-0.51-2.83-0.35-5.95,0.24-8.78c1.37-6.6,0.62-13.24,0.95-19.86c0.11-2.29,0.37-4.69,1.17-6.81
			c1.16-3.08,3.18-4.26,5.78-1.12c0.18,0.18,0.37,0.36,0.56,0.54c1.56,6.68,0.99,13.54,1.48,20.29c0.55,7.57,1.81,15.21,0.63,22.88
			c-0.66,4.29,3.3,4.23,5.64,5.66c0.67,1.73,0,3.35-0.38,5c-1.09,2.2-1.78,4.4,0.06,6.58c0.4,1.04,1.2,2.12-0.2,3.04
			c-2.86,0.42-5.75,1.57-7.74-2.09c-0.84-1.54-2.93-2.47-4.24-0.12C688.03,447.09,684.74,447.42,686.95,449.98z"/>
		<path class="st53" d="M700.72,447.99c0.42-1.19-0.5-2.03-0.82-3.02c-0.15-1.6,1.09-1.76,2.17-2.08
			c5.09,0.61,10.19,0.86,15.31,0.58c3.11-0.98,6.39-0.79,9.55-1.45c0.74,0.01,1.4,0.25,1.99,0.7c1.27,1.1,3.23-1.61,4,0.46
			c0.57,1.53,0.85,3.65-1.19,4.76c-1.42,0.77-0.29,2.08-0.79,3.01c-4.3-0.04-8.61-0.08-12.91-0.12
			C712.39,449.17,706.3,450.14,700.72,447.99z"/>
		<path class="st50" d="M600.91,434.01c-0.38,2.96-1.42,5.87,1.19,8.6c1.62,1.7-1.75,2.81-1.03,5.59
			c1.39,5.31,2.77,11.23-0.12,16.77c-3.63-4.45-1.81-9.89-2.06-14.73c-0.25-4.76-0.12-9.78-1.38-14.17
			c-1.51-5.22-2.58,2.32-4.54,0.9c-1.83-1.37,0.27-3.51-0.99-4.99c-0.63-8.23-2.12-16.3-0.76-24.75c1.13-7.01,2.08-14.14,2.66-21.26
			c0.11-1.4-0.06-3.49,1.94-3.43c1.69,0.05,1.59,2.12,2.22,3.39c0.97,1.99-1,4.32,0.93,6.06c0,0,0,0,0,0
			c1.33,5.98,0.49,12.08,0.62,18.09c0.16,7.62,1.49,15.26,0.37,22.91C600.27,433.33,600.59,433.67,600.91,434.01z"/>
		<path class="st35" d="M591.97,431.98c1.66,1.4,0.76,3.31,0.99,4.99c-1.59,1-0.25,2,0,3c0.06,5.36,1.15,10.71,0.47,16.07
			c-0.68,5.36-2.84,6.41-7.46,3.92c-0.01-5.4,1.79-10.7,0.97-16.12c-0.43-2.86,2.19-4.19,2.95-6.51
			C590.47,435.6,591.53,433.89,591.97,431.98z"/>
		<path class="st50" d="M585.97,459.98c5.57,0.75,6.86-0.41,7.01-6.07c0.08-2.98-0.23-5.88-0.87-8.81
			c-0.35-1.63-0.77-3.64,0.85-5.11c5.27,1.89,0.84,5.48,1.32,8.21c0.86,4.89-1.25,9.82-0.32,14.79c-2.33,0.2-4.67-0.89-7,0
			c-0.66-0.68-1.32-1.35-1.98-2.03C585.31,460.63,585.64,460.3,585.97,459.98z"/>
		<path class="st54" d="M790.93,191.14c3.01,0.18,6.13-0.8,8.97,0.95c1.14,3.23-2.27,4.53-2.97,6.97
			c-2.44,7.91-3.21,16.08-4.01,24.26c-1.35,13.62-1.52,27.37-4.26,41.47c-2.5-2.61-2.46-5.59-2.58-8.06
			c-0.72-14-0.45-27.98,2.39-41.8c0.23-1.12,0.64-2.41,0.32-3.41C786.48,204.37,790.41,197.94,790.93,191.14z"/>
		<path class="st55" d="M808.97,355.05c-0.8,2.47-1.59,4.94-2.38,7.38c-0.43,0.02-0.99,0.1-1,0.04c-1.29-5.2-8.19-7.18-7.7-13.39
			c3.21-1.53,5.03-1.26,4.52,3.03c-0.29,2.46,1.42,3.25,3.67,3.01C807.02,354.22,807.98,354.12,808.97,355.05z"/>
		<path class="st56" d="M808.97,355.05c-0.96,0.03-1.93,0.05-2.89,0.08c0.4-1.89,0.58-3.77,0.45-5.73
			c-0.07-1.04,0.65-2.53,2.03-2.21c1.03,0.24,3.31-0.16,2.41,2.48c-0.72,2.11,1.4,0.88,2.05,1.44
			C811.24,351.97,809.49,352.88,808.97,355.05z"/>
		<path class="st54" d="M800.89,192.03c0.45-0.81,1.2-1.01,2.05-0.96c0.09,2.74-0.22,5.49,0.32,8.29
			C800.17,197.66,801.18,194.62,800.89,192.03z"/>
		<path class="st57" d="M763.02,362.18c0.6-4.27-0.14-8.92,4.08-12.09c1.43-1.07,0.99-3.13,0.71-4.74
			c-2.43-13.89-1.13-27.96-2.13-41.87c-1.37-19.03,0.65-38.1-1.56-57.09c-0.55-4.73-0.91-9.67,0.41-14.37
			c0.88-3.13,0.11-6.44-0.94-8.69c-3.1-6.61,3.34-9.59,4.02-14.67c2.18,4.85,3.28,9.52,3.47,14.66c0.98,25.32,0.28,50.67,1.09,75.97
			c0.4,12.64,0.79,25.45,3.59,37.95c0.39,1.75,0.16,3.64,0.18,5.47c0.03,3.58-0.93,7.7,5,7.51c2.27-0.07,1.42,3.84,4.04,3.78
			c-1.51,2.22-3.94,2.29-6.24,2.76c-3.88,0.79-6.46,5.59-11.36,3.71c-0.32-0.12-1.57,2.19-2.39,3.37
			C764.08,363.58,763.68,362.73,763.02,362.18z"/>
		<path class="st58" d="M769.05,379.8c1.45,4.36,0.97,7.68-3.36,10.65c-2,1.38-3.83,4.45-2.18,8.26c2.6,5.99,1.85,11.74-3.29,16.64
			c-0.48,0.46-2.27,3.5-0.68,5.53c1.36,1.73,4.95,2.87,2.87,5.6c-1.31,1.72-3.1,3.91-5.89,3.92c0.28,2.11,1.75,1.38,2.74,1.58
			c0.77,0.16,1.81-0.15,2.11,0.87c0.37,1.26-0.73,1.67-1.55,2.18c-3.49,2.15-5.2,5.4-5.97,9.33c-0.31,1.57-0.85,3.66-3.12,2.68
			c-2.08-0.9-0.88-2.16,0.02-3.52c1.04-1.59-1.83-8.11-3.78-8.42c-4.01-0.64-8.2-2.5-11.99,0.73c-0.6,0.51-0.83,0.12-0.93-0.37
			c-0.1-0.48-0.06-0.99-0.09-1.49c-1.48-1.62-3.44-0.72-5.19-1c-3.63-0.57-4.95-2.9-2.85-5.84c1.47-2.07,0.89-2.99-0.58-4.55
			c-2.27-2.4-2.05-5.17,0.03-7.66c2.99-3.57,4.25-7.26,3.91-12.23c-0.53-7.76,1.65-15.05,8.18-20.27c3.24-2.59,5.41-2.29,7.02,1.49
			c1.64,3.85,3.26,7.6,6.33,10.62c1.84,1.81,1,4.05-0.04,6.04c-2.09,4.02-1.26,7.64,1.6,11.76c1.15-4.02,3.58-7.23,0.45-10.89
			c-0.68-0.8-0.61-2.05,0.1-2.81c3.4-3.64,3.66-9.18,8.02-12.37c2.41-1.77,4.84-4.6,0.18-7.25c-1.1-0.62-2.43-2.1-0.63-3.67
			c1.62-0.57,3.13-0.65,4.29,0.91c0.32,0.3,0.64,0.6,0.95,0.9c1.31,0.15,2.51,0.52,3.21,1.77
			C769.03,379.22,769.06,379.51,769.05,379.8z"/>
		<path class="st59" d="M809.98,384.06c-3.42,1.9-7.11,0.7-10.66,0.84c-6.44,0.24-12.9,0.16-19.35,0.21
			c-1.08-0.19-2.32,0.12-3.08-1.03c4.13-1.37,10.34,1.26,11.6-6.1c0.07-0.39,4.94-1.94,7.42,0.37c1.12,1.04,1.9,3.02,4.03,1.66
			c0.74,0.57,1.5,0.05,2.26,0.06c-0.75-0.1-1.51,0.35-2.25-0.06c-0.48-4.13,3.16-1.98,4.71-2.78c1.29-0.66,3.85-1.23,5.15,1.07
			c1.1,1.94-0.46,2.72-1.45,4C806.23,385.03,809.47,383.41,809.98,384.06z"/>
		<path class="st60" d="M764.79,376.26c-1.61-0.07-3.23-0.13-4.84-0.2c-2.06,0.85-3.12,0.26-2.98-2.06
			c-0.26-5.11,1.89-8.98,6.05-11.82c1.33-0.24,1.85,0.47,1.96,1.67C764.92,367.99,764.86,372.12,764.79,376.26z"/>
		<path class="st59" d="M788.36,374.5c-2.03,0.3-3.94-1.37-5.84,0.01c-0.34,1.6,0.92,1.36,1.82,1.53c0.83,0.16,1.11,0.62,0.73,1.39
			c-0.14,0.28-0.47,0.77-0.56,0.74c-1.5-0.56-3.1-0.99-4.43-1.84c-1.3-0.83-0.25-2.15-0.01-3.19c0.35-1.49,1.52-2.24,3-2.03
			C785.25,371.41,787.23,372.19,788.36,374.5z"/>
		<path class="st60" d="M768.96,378.94c-1.07-0.59-2.14-1.18-3.21-1.77c1.95-0.6,2.16-3.48,4.66-3.48
			C771.82,375.94,768.5,376.95,768.96,378.94z"/>
		<path class="st61" d="M790.81,527.25c3.84-0.75,7.57-0.91,11.33,0.11C798.46,528.78,794.81,531.49,790.81,527.25z"/>
		<path class="st40" d="M761.93,469.97c-0.91-0.61-2.57-1.63-1.24-2.4c1.91-1.1,3.71-0.01,4.23,2.39
			C763.93,470.31,762.93,468.82,761.93,469.97z"/>
		<path class="st31" d="M735.94,489.96c1.38-1.67,3.31-0.73,4.98-1.06c3.81,0.89,7.89-1.56,12.01,0.67
			C746.99,493,741.47,491.96,735.94,489.96z"/>
		<path class="st31" d="M734.95,518.96c-6.46,0-12.92,0-19.49,0c0.35-2.51,1.8-2.01,2.77-1.96c5.13,0.29,10.27-0.87,15.39,0.22
			C734.7,517.45,734.84,518.13,734.95,518.96C734.95,518.96,734.95,518.96,734.95,518.96z"/>
		<path class="st62" d="M756.97,374.01c0.61,1.24,1.6,1.94,2.98,2.06c0.51,0.65,1.15,1.24,1.49,1.97c0.97,2.13,5.17,1.42,4.61,3.61
			c-0.64,2.48-2.8,5.12-5.03,6.54c-4.35,2.75-3.11,8.83-7.46,11.34c-0.2,0.12-0.19,1.21,0,1.31c6.27,3.29-0.84,7.91,1.14,11.67
			c0.37,0.71-0.7,1.36-1.63,1.41c-1.28,0.07-2.38-0.38-2.83-1.6c-1.55-4.17-3.54-8.37-0.4-12.7c1.18-1.63,1.77-3.23-0.22-4.74
			c-3.2-2.43-4.57-5.93-5.78-9.6c-1.49-4.51-2.85-4.81-6.1-1.56c-6.08,6.07-8.33,12.99-6.54,21.74c0.61,2.97-1.38,7.11-4.26,9.64
			c-2.84,2.49-2.96,5.53,0.35,7.48c2.81,1.66,2.81,2.73,0.2,4.48c-0.94,0.63-2.57,1.47-1.67,3.12c0.66,1.21,1.94,1.56,3.34,1.86
			c1.66,0.35,4.39-1.58,4.8,1.92c-1.4,0.17-2.9-0.39-4.32,0.57c2.38,2.73,3.98,5.42-0.7,7.41c-1.85-0.1-4.07,0.54-4.58-2.26
			c0-2.23-1.66-1.5-2.84-1.55c-2.27-0.1-4.64,0.54-6.7-0.99c-0.19-0.44-0.19-0.89,0-1.33c1.76-1.38,3.67-0.71,5.55-0.43
			c0.66,0.12-0.04-0.88,0.09-0.23c-2.08-0.25-4.17-0.13-6.27-0.29c-3.03-0.74-3.87-2.5-4.11-5.72c-1.04-13.87-0.28-27.75-0.5-41.61
			c-0.04-2.24-0.54-4.69,1.41-6.55c1.77,2.03,0.88,4.47,0.91,6.71c0.11,8.44,0.05,16.89,0.05,26.58c1.92-2.54,2.93-3.96,5.72-3.67
			c3.12,0.32,6.46-1.43,4.99-5.87c-0.62-1.87-0.02-3.19,0.81-4.65c0.57-0.99,1.6-2.09,1.5-3.04c-0.83-7.84,5.09-11.57,9.57-16.2
			c0.81-0.84,1.89-1.95,0.24-2.8c-7.38-3.79-5.45-10.44-4.84-16.4c0.66-6.51,1.79-7.14,9-7.64c0.47,1.48-0.83,2.01-1.55,2.81
			c-1.15,1.3-2.22,3.05-1.77,4.48c1.37,4.34,2.45,8.68,2.71,13.24c0.05,0.95,1.17,1.68,2.27,1.54c1.18-0.15,1.81-1.25,1.57-2.18
			c-1.72-6.53,1.25-13.57-2.22-19.89c1.11-1.93,2.72-2.66,3.34-0.04c1.88,7.96,4.31,15.8,1.38,24.25
			c-1.48,4.26,1.84,7.93,4.89,10.66c2.96,2.65,5.07-0.4,7.14-2.15c1.14-0.97,2.1-2.13,3.2-3.15c1.74-1.62,2.23-2.66-0.66-3.74
			C756.73,378.91,754.22,377.28,756.97,374.01z"/>
		<path class="st63" d="M724.96,439.06c0.03,2.75,3.14,1.25,3.98,2.88c-0.01,0.26-0.01,0.53-0.01,0.79
			c-0.62,0.62-1.28,0.61-1.96,0.1c-2.84,0.03-6.32-2.83-8.16,1.78c-5.67,1.43-11.23,0.01-16.81-0.67c-0.47-1.16,0.18-1.87,1.01-2.51
			c2.46-0.93,5.18-0.99,7.56-2.22c0.88-0.39,1.77-0.77,2.69-1.05C717.13,438.81,721.28,435.93,724.96,439.06z"/>
		<path class="st31" d="M797.93,480.24c-2.13,0.04-3.7-1.2-3.77-3.74c-0.05-1.6,1.48-1.54,2.63-1.5c0.77,0.03,1.86,0.07,2.22,0.55
			c0.54,0.71-0.06,1.82-0.81,2.05C794.42,478.77,800.03,479.22,797.93,480.24z"/>
		<path class="st36" d="M773.04,192c5.37,0.78,10.58-1.38,15.93-0.89c-0.79,4.23-1.12,8.61-3.3,12.42
			c-1.32,2.29,0.42,4.18,0.28,6.28c-0.64,9.74-1.35,19.48-1.79,29.24c-0.38,8.41-0.54,16.83-0.59,25.25
			c-0.1,20.35,1.5,40.72-0.64,61.05c-0.1,0.95,0.07,2.33-1.31,2.15c-0.81-0.11-2.05-1.09-2.15-1.81c-0.5-3.85-3.11-7.19-3.27-10.88
			c-0.36-8.12-1.64-16.15-2.12-24.22c-0.57-9.55-0.16-19.16-0.13-28.74c0.03-9.13-1.46-18.19-1.09-27.36
			c0.33-7.95,2.48-15.7,2.16-23.73c-0.15-3.78-0.23-7.31-4.1-9.65c5.43-1.49,5.8-2.46,2.76-6.29
			C772.97,193.93,772.99,193,773.04,192z"/>
		<path class="st64" d="M699.93,438.99c-0.06-1.75,0-3.48,1.13-4.97c-1.83-3.17-0.32-6.28,0.09-9.44
			c0.84-6.53,1.87-13.03,2.52-19.59c-0.85,6.37-1.56,12.77-2.58,19.12c-0.18,1.15,0.1,2.62-1.37,2.8c-1.47,0.18-1.81-1.3-1.99-2.41
			c-0.98-5.88-2.33-11.73-1.25-17.76c0.8-4.46,0.21-8.95,0.15-13.42c0.86-6.34,2.63-12.43,5.09-18.32
			c1.93-5.21,4.67-10.07,6.6-15.29c2.17-3.97,2.84-8.14,1.69-12.56c0.09-0.62,0.02-1.5,0.81-1.54c1.11-0.06,1.09,0.96,1.09,1.73
			c0.04,3.55,0.03,7.11,0.04,10.66c-0.4,2.33,0.88,4.89-0.98,7.01c-1.16,1.26-0.53,2.8-0.51,4.18c0.2,19.62-0.54,39.25,0.35,58.86
			c0.1,2.12-0.17,4.22,0.07,6.4c0.44,3.9-2.08,5.66-5.68,6.13c-1.12,0.34-2.22,0.72-3.33,1.09
			C700.21,441.52,698.98,441.05,699.93,438.99z"/>
		<path class="st58" d="M739.94,354.01c2.33,0.18,2.99,1.64,3.01,3.74c0.04,5.12-0.44,10.25,0.48,15.35c0.4,2.2,0.47,4.63-2.57,4.78
			c-3.43,0.17-4.95-2.7-4.59-5.25c0.47-3.28-0.15-5.47-1.72-8.48c-2-3.83,0.34-7.84,4.39-10.14
			C739.28,354.01,739.61,354.01,739.94,354.01z"/>
		<path class="st65" d="M703.86,439.72c5.42-0.31,6.2-3.57,6.16-8.34c-0.21-22.72-0.1-45.44-0.1-68.24
			c1.45,0.17,0.78,1.26,1.06,1.86c0,5.33,0.01,10.66,0.01,15.99c0.01,13.92,0.04,27.83,0,41.75c-0.01,2.75,1.05,5.29,0.33,8.28
			c-0.67,2.79,2.95,2.18,4.63,3.13c0.45,1.03-0.4,1.3-1,1.71c0.02,0.36,0.04,0.71,0.06,1.07c-0.34,1.03-1.46,1.28-2.07,2.05
			c-0.44,0.84-1.2,1.04-2.07,1.02C708.52,440.4,706.11,441.96,703.86,439.72z"/>
		<path class="st57" d="M755.95,203.06c-0.05-4.09,0.61-8.3-1.97-11.97c2.98,0,5.96,0.01,8.94,0.01c0.95,0.64,3.03,0.75,1.92,2.55
			c-1.99,3.25-1.75,7.27-3.9,10.41c-0.01,0.98,0,1.95-0.03,2.93c-0.03,1.01-0.19,2.17-1.29,2.35c-1.21,0.2-1.37-1.01-1.74-1.91
			C757.27,205.96,757.28,204.21,755.95,203.06z"/>
		<path class="st36" d="M760.95,204.06c0.04-3.64,0.19-7.31,2.76-10.21c1.39-1.57-0.43-1.87-0.78-2.75c2.68,0,5.36,0,8.04,0
			c0,2.16,0,4.32,0,7.04c-1.35-0.55-1.73-2.73-3.39-1.78c-2.05,1.17-1.54,3.1-1.63,4.87C765.7,206.25,765.19,206.55,760.95,204.06z"
			/>
		<path class="st66" d="M699.94,377c0.4-7.96-2.54-15.35-3.99-22.99c1.26,0.32,2.6,1.09,3.76,0.88c5.05-0.92,7.17,1.25,7.11,6.11
			c1.55,3.05-1.28,4.99-1.95,7.48c-0.62,2.31-1.84,4.43-2.56,6.73c-0.17,1-0.71,1.69-1.7,2.01
			C700.38,377.14,700.16,377.07,699.94,377z"/>
		<path class="st67" d="M701.64,375.22c1.73-4.74,3.45-9.48,5.18-14.22c0.41-0.94,0.83-1.89,1.24-2.83
			c1.78-0.19,1.41,0.84,1.06,1.86c-1.32,5.3-4.19,9.95-6.21,14.95C702.57,375.54,702.15,375.61,701.64,375.22z"/>
		<path class="st68" d="M709.11,360.03c-0.24-0.69,0.05-1.67-1.06-1.86c2.03-3.43,2.17-7.2,1.96-11.03
			C711.63,351.57,711.53,355.88,709.11,360.03z"/>
		<path class="st47" d="M682.95,464.96c-3.47,0.22,0.54,3.08-1.37,3.85c3.45,4.28-1.48,5.49-2.99,5.31c-3.76-0.46-4.17,1.29-4.19,4
			c-0.01,1.79-2.5,2.79-1.46,4.87c-1.2-0.41-3.2,1.01-3.46-1.56c-0.22-2.23-2.4-2.44-3.86-3.63c1.51-0.03,2.4-4.39,4.51-0.34
			c0.2,0.39,2.8-1.39,2.26-3.79c-0.81-3.58,0.36-6.81,2.58-9.68c0.35,0.36,0.7,0.71,1.07,1.04c-0.35-0.35-0.72-0.69-1.07-1.04
			c-0.77-1.67-3.49-3.33-0.02-5.02c0,0,0.03,0.02,0.03,0.02c1.33,1.12,2.86,0.46,4.31,0.46
			C683.41,459.45,684.12,460.49,682.95,464.96z"/>
		<path class="st34" d="M599.95,432.99c-2.4-4.16-1.27-9.03-1.34-13.22c-0.15-9.21-0.27-18.53,0.35-27.78
			c1.51,1.19,1.5,3.13,1.34,4.54c-1.14,10.13,1.11,20.09,1.36,30.15C601.73,429.24,601.34,431.11,599.95,432.99z"/>
		<path class="st69" d="M691.94,304.02c0.34,16.66,0.68,33.32,1.02,49.99c-2.34-3.42-4.67-2.29-7,0
			c-0.02-18.19,1.72-36.35,0.99-54.55c-0.08-2.05,0.52-3.89,1.67-6.02C690.98,296.77,689.51,301.06,691.94,304.02z"/>
		<path class="st69" d="M692.96,354.01c1.57,2.8,2.2,6.14,1.78,8.96c-0.77,5.18,1.74,10.27-0.26,15.44
			c-0.59,1.53-0.17,4.03,2.41,4.67c1.16,2.77,0.92,5.23-1.62,7.17c-3.2-1.18-0.84-4.43-2.32-6.25c0,0,0,0,0,0
			C692.95,374,692.95,364.01,692.96,354.01z"/>
		<path class="st69" d="M677.95,413.99c-0.5-6.6,2.95-12.1,5-17.99c0,4.92,0.15,9.84-0.07,14.75
			C682.75,413.71,681.71,416.12,677.95,413.99z"/>
		<path class="st52" d="M682.95,464.96c0.18-3.93-0.81-6.18-5.3-3.91c-2.05,1.04-2.5-0.45-2.68-2.07c2.61-1.44,6.85,0.37,7.97-4.01
			C686.19,458.83,686.19,461.85,682.95,464.96z"/>
		<path class="st52" d="M689.59,364.61c3.43,3.53,2.25,7.63,2.05,11.57c-0.02,0.47-0.74,1.17-1.26,1.31
			c-1.06,0.29-1.22-0.7-1.55-1.45C687.12,372.11,690.09,368.52,689.59,364.61z"/>
		<path class="st66" d="M694.95,389.99c1.6-2.04,0.94-4.71,1.94-6.92c1.54-1.76,0.26-4.94,3.05-6.08c0,0,0.23,0.18,0.23,0.18
			c0.39,4.99-2.27,9.34-2.93,14.12c-0.7,1.51,0.1,4.88-1.73,4.37C692.92,394.94,693.75,392.09,694.95,389.99z"/>
		<path class="st70" d="M694.95,389.99c0,1.6,0,3.21,0,5.38c1.53-1.52,0.4-3.5,1.8-4.43c1.02,0.25,0.43,1.46,1.13,1.9
			c1.73,7.71-1.34,15.43,0.04,23.16c0.6,3.34,0.83,6.75,2.07,10.19c1.08-7.4,2.16-14.8,3.24-22.2c1.1,10.18-1.99,19.98-2.17,30.03
			c-6.56-0.25-6.92-1.32-6.58-8.5c0.35-7.41,0.26-14.96-0.75-22.29c-0.89-6.45-0.5-12.82-0.79-19.23
			C694.76,385.62,693.41,388.29,694.95,389.99z"/>
		<path class="st71" d="M699.93,438.99c-0.02,1.47,0.68,2.21,2.18,2.15c0.42,0.23,0.96,0.34,0.94,0.99
			c-0.35,0.6-0.71,1.21-1.06,1.81c-0.8,0.13-1.74-0.03-2.09,1.03C697.86,442.97,697.51,440.98,699.93,438.99z"/>
		<path class="st72" d="M718.8,444.61c0.44-5.39,0.44-5.39,8.16-1.78C724.59,444.96,721.32,443.06,718.8,444.61z"/>
		<path class="st40" d="M741.33,432.44c-3.06-0.91-8.33,0.28-5.55-6.01c0.16-0.36-0.13-0.98-0.33-1.42c-2-4.34-2-8.52,0.43-12.8
			c2.22-3.91,2.35-8.34,0.9-12.41c-1.13-3.18,0.3-5.4,1.36-7.89c0.58-1.37,1.49-2.93,3.27-2.45c1.48,0.4,2.1,1.83,2.58,3.39
			c1.09,3.57,0.28,7.24-0.31,10.52c-0.72,4.02,0.76,6.87,2.61,9.62c2.1,3.1,2.41,5.62-0.18,8.41c-1.62,1.75-1.48,3.54,0.09,5.34
			c1.05,1.2,3.12,2.16,2.43,4.01c-0.84,2.27-3.22,0.87-4.87,1.27C742.94,432.21,742.12,432.3,741.33,432.44z"/>
		<path class="st37" d="M799.94,380c1.65-0.82,3.33-1.35,5.5-0.44C803.55,381.4,801.83,381.55,799.94,380
			C799.93,380,799.94,380,799.94,380z"/>
		<path class="st72" d="M712.95,438.98c0.04-1.33,0.79-1.96,2.07-2.05c3.11-0.14,6.22-0.35,9.34-0.36c0.86,0,2.14,0.16,2.1,1.48
			c-0.01,0.35-0.97,0.67-1.49,1.01C720.97,437.27,716.95,439.63,712.95,438.98z"/>
		<path class="st73" d="M714.96,435.85c0.33-0.57,0.67-1.14,1-1.71c2.44,0.15,4.88,0.3,7.94,0.49
			C720.68,436.79,717.75,435.82,714.96,435.85z"/>
		<path class="st74" d="M703.05,442.13c-0.32-0.33-0.63-0.66-0.95-0.99c0.58-0.48,1.17-0.95,1.75-1.43
			c2.34,0.09,4.68,0.19,7.02,0.28C708.62,442,705.82,441.99,703.05,442.13z"/>
		<path class="st75" d="M705.53,415.07c0.22,7.33-0.52,14.63-2.13,21.85C702.51,429.52,704.47,422.37,705.53,415.07z"/>
		<path class="st76" d="M697.88,392.85c-0.99-0.27-0.89-1.19-1.13-1.9c1.14-4.59,2.28-9.18,3.42-13.77
			c0.49-0.66,0.98-1.31,1.47-1.97c0.42-0.08,0.84-0.15,1.26-0.23C701.12,380.91,698.71,386.66,697.88,392.85z"/>
		<path class="st49" d="M674.97,463.99c1.45,0.04,3.09-0.16,3.52,1.76c0.17,0.75-0.59,1.08-1.27,1.13
			C675.06,467.05,674.96,465.55,674.97,463.99C674.97,463.99,674.97,463.99,674.97,463.99z"/>
	</g>
</g>
</svg>
