<?xml version="1.0" encoding="utf-8"?>
<!-- Generator: Adobe Illustrator 24.1.0, SVG Export Plug-In . SVG Version: 6.00 Build 0)  -->
<svg version="1.1" id="Layer_1" xmlns="http://www.w3.org/2000/svg" xmlns:xlink="http://www.w3.org/1999/xlink" x="0px" y="0px"
	 viewBox="0 0 430.2 575.6" style="enable-background:new 0 0 430.2 575.6;" xml:space="preserve">
<style type="text/css">
	.st0{fill:#DBB581;}
	.st1{fill:#BE9767;}
	.st2{fill:#E0BA88;}
	.st3{fill:#BF925D;}
	.st4{fill:#D1A466;}
	.st5{fill:#CFA364;}
	.st6{fill:#D49C56;}
	.st7{fill:#B08A5D;}
	.st8{fill:#565E6C;}
	.st9{fill:#D2AA72;}
	.st10{fill:#3B4963;}
	.st11{fill:#D3BB9C;}
	.st12{fill:#B28A57;}
	.st13{fill:#CCA772;}
	.st14{fill:#AE7F4D;}
	.st15{fill:#AC8052;}
	.st16{fill:#AB8051;}
	.st17{fill:#CDA16E;}
	.st18{fill:#C6A47E;}
	.st19{fill:#B38D59;}
	.st20{fill:#B18A5B;}
	.st21{fill:#353134;}
	.st22{fill:#3F3027;}
	.st23{fill:#E5C088;}
	.st24{fill:#49576F;}
	.st25{fill:#BB9561;}
	.st26{fill:#DAAF72;}
	.st27{fill:#C9A678;}
	.st28{fill:#B59260;}
	.st29{fill:#A07A4C;}
	.st30{fill:#9F774F;}
	.st31{fill:#A88156;}
	.st32{fill:#C8B290;}
	.st33{fill:#9A7347;}
	.st34{fill:#3A4862;}
	.st35{fill:#D09F63;}
	.st36{fill:#D2A56F;}
	.st37{fill:#CC9B64;}
	.st38{fill:#D4A56B;}
	.st39{fill:#C3935F;}
	.st40{fill:#C89A66;}
	.st41{fill:#A07547;}
	.st42{fill:#323E50;}
	.st43{fill:#A6773E;}
	.st44{fill:#836238;}
	.st45{fill:#D7AB74;}
	.st46{fill:#37455E;}
	.st47{fill:#151E2E;}
	.st48{fill:#26334B;}
	.st49{fill:#F2D4A3;}
	.st50{fill:#CA9455;}
	.st51{fill:#E3AD66;}
	.st52{fill:#282D3D;}
	.st53{fill:#EEC88C;}
	.st54{fill:#946733;}
	.st55{fill:#9D7B4B;}
	.st56{fill:#9E7746;}
	.st57{fill:#2D3C55;}
	.st58{fill:#2E3C57;}
	.st59{fill:#5D6D8E;}
	.st60{fill:#36435B;}
	.st61{fill:#212E43;}
	.st62{fill:#445065;}
	.st63{fill:#D8B384;}
	.st64{fill:#EFD1A4;}
	.st65{fill:#B9864C;}
	.st66{fill:#E7C390;}
	.st67{fill:#856035;}
	.st68{fill:#4C4138;}
	.st69{fill:#947751;}
	.st70{fill:#6E573C;}
	.st71{fill:#33415A;}
	.st72{fill:#94754A;}
	.st73{fill:#2F3C54;}
	.st74{fill:#AB7E4C;}
	.st75{fill:#2E3646;}
	.st76{fill:#464E5D;}
	.st77{fill:#604B31;}
	.st78{fill:#C8A36C;}
	.st79{fill:#26364F;}
	.st80{fill:#4E525D;}
	.st81{fill:#74787E;}
	.st82{fill:#27354B;}
	.st83{fill:#ECC58E;}
	.st84{fill:#555D6A;}
	.st85{fill:#757B83;}
	.st86{fill:#493C30;}
	.st87{fill:#7E6445;}
	.st88{fill:#A37B4A;}
	.st89{fill:#CEA164;}
	.st90{fill:#626670;}
	.st91{fill:#787C83;}
	.st92{fill:#BD9561;}
	.st93{fill:#515764;}
</style>
<g>
	<path class="st0" d="M153.5,559.1c-30.5-26.4-61-52.9-91.7-79.2c-5.6-4.8-11.3-9.6-17.5-13.8c-5-3.5-7.4-9.8-7.7-16.5
		c-0.5-10.1-0.8-20.3-1-30.4c-0.5-24.5-1.3-48.9-2.1-73.3c-0.6-17.1-1.3-34.2-2-51.4c-0.5-11.1-1.1-22.2-1.6-33.4
		c1-1.1,0.7-2.5,0.8-3.8c0.1-1.2-0.2-3.1,1.7-3c1.4,0,2.1,1.6,2.3,2.9c0.6,4.8,0.7,9.6,1.2,14.4c0.4,3.2,0.8,6.2,2.1,9.1
		c2.2,7.1,0.9,14.5,2.1,21.6c0.6,3.7,0.7,7.5,1,11.3c-0.7-7.6-1.3-15.2-1.9-22.8c-0.3-4,1.4-7.8,1.9-11.7c0.4-2.7,2.7-4,4.6-0.4
		c0.3,7.3,3.5,14,4.1,21.2c-0.2,8.3-0.6,16.6,1.1,24.8c0.6,2.8-0.9,5.5-1.4,8.3c-0.8,5.1,1.5,9.9,1.1,14.9c-1,12,0.2,23.9,1.6,35.8
		c0.1,0.7,0.3,1.4,0.2,2c-2.5,10.7,1.2,21.9-2.8,32.5c-1.2,3.1-0.8,6.7-0.3,9.9c0.8,4.7,0.7,9.2,0.1,13.9c0.3,0.9,0.6,1.8,1.2,2.6
		c3,3.4,6.8,6,10.8,9.3c-1.5-4.2-5.4-6.5-4.5-10.8c0.2-0.5,0.4-0.8,0.8-1.2c2.3-0.8,3.3,1.1,4.6,2.2c17.5,13.9,35.1,27.7,52.3,42.1
		c1.3,1.1,3.3,1.8,3.2,4.1c-5,1.9-9.2-0.9-14.6-2.8c9.2,8.4,18.1,15.6,26.6,23.1c3.1,2.9,6.6,5.3,9.7,8.3c2.2,2.2,5,3.7,8.1,4.3
		c1.2,0.5,2.1,1.7,4.2,1.5c-2.4-16-1.3-32.2-4.9-47.4c0.7-1.3-0.7-0.5,0-0.4c0.3,0,0.2,0.2,0.1,0.5c-0.2,1.1-0.7,1.4-1.7,0.7
		c-1.5-2.1-1.3-4.4-1.3-6.8c0-18.8-0.1-37.6,0-56.4c0.2-4,0.6-8-0.6-12c-0.9-11.6-0.5-23.2-0.3-34.8c0.1-9.1-1.3-18.2-1.1-27.3
		c0.4-3-0.6-6.2,1-9c2.1-1.6,3-0.4,3.4,1.5c0.3,1.5,0,3,0.4,4.7c-0.6-6.6-0.6-13.1-1.4-19.5c-0.2-1.6-0.2-3.8,1.8-4.2
		c2.4-0.5,2.8,1.9,3.3,3.6c0.9,3.2,0.4,6.6,0.7,10c0.9,12.2,2.6,24.4,1.4,36.7c-0.2,1.5,0.3,3,0.7,4.4c0.6,2,0.7,4,0,5.9
		c-0.5,1.4-1,3.1-2.9,2.8c-1.6-0.3-1.9-1.8-1.9-3.1c-0.2-4.8-1-9.6-0.8-13.8c-0.4,3.6,0.5,7.9,0.5,12.2c0,2.6-0.3,5.2,2.9,6.6
		c1.9,0.9,2,3.3,0.9,4.9c-3.1,4.4-2.7,9.5-3.2,13.9c1-2.6-0.5-6.2,2.3-9c3.4,2.3,3.3,5.7,2.9,8.9c-0.9,7.3-0.7,14.6,0.9,21.8
		c0.6,2.4,0.3,5,0.3,7.5c0,20.5,2.1,40.8,3.6,61.2c0.6,8.4,0.7,16.9,1.1,25.4c0.4,7.3,0.8,14.6,4.1,21.4c-1.1,5.7-0.8,11.5-0.8,17.3
		c0,1.8,0.1,3.7-0.2,5.5c-0.3,2-0.9,4-3.2,4.5C156.5,563.2,154.8,561.3,153.5,559.1z"/>
	<path class="st1" d="M387.8,493.2c-0.8-2.2-2.8-3.1-4.6-4.3c-34.3-22.2-68.5-44.4-102.8-66.6c-0.8-0.5-1.6-1.2-2.4-1.8
		c0-4.6-2.1-7.8-6.2-9.8c-0.7-0.4-1.5-0.8-2.1-1.3c-1.5-1.1-4.3-1.7-3.3-4.1c0.9-2.1,3.3-1.4,5.6-0.9c-8.1-3.5-9.1-8-3.2-12.7
		c1.8-0.2,3.1,0.8,4.6,1.6c2.4,0.7,4.1,3.6,7.2,2.4c5.4,1.2,9.2,5.1,13.5,8c10.9,7.5,21.8,14.9,33.2,21.6
		c6.7,3.9,13.5,7.5,19.8,12.1c6,4.4,12.6,8,19.9,10c0.8,0.2,1.8,0.4,2.2,1.1c2.1,4,6.2,4.6,9.8,6c5.4,4.5,10.4,9.7,17.7,11.3
		c1.2,0.8,1.4,2,1.5,3.2c0.1,7-2,13.8-1.3,20.9c0.2,1.8-0.4,3.6-2.5,4.3C392,495.4,390,493.7,387.8,493.2z"/>
	<path class="st2" d="M252.9,365.3c-6.7,0-12.7,2.9-19,4.5c-4.9,1.2-9.8,2.8-14.6,4.2c-9.2,0.1-18,1.4-26.1,6.3
		c-3.9,2.4-8.1,4.4-12.9,4.5c-0.5-0.2-0.8-0.5-1.1-0.9c0.2-2.5,2.3-3,4-4c2.7-1.5,5.7-2.7,8.2-5c-1.2-1.5-3.2-1-4.3-2.2
		c-0.7-0.7-2.1-1.3-1.6-2.2c2.5-5.3-1.7-4-4-4c-3.1,0-5.9-1-8.6-2.3c-1.8-3-1.8-3,2.7-3.4c-1.6-0.7-4.6,1.1-4.6-2.3
		c0-2.5,2.3-2.6,4.1-2.6c8.8-0.1,17.5-0.5,26.3-1.6c9.1-1.2,18.2-2.3,26.9-5.3c-9.1,3.1-18.6,4.5-28.2,5.2
		c-4.5,0.4-8.8,1.7-13.3,1.4c-2-0.1-4.5,0.4-5.5-2.2c3.1-3.1,7.2-3,11.1-3.6c4.5,0.4,8.8-0.4,13.1-1.7c11.8-3.4,24.3-3.4,36.2-6.3
		c22.7-5.4,46.1-7.4,68.7-13.3c6.8-1.8,13.3-5,20.2-6.5c6.4-1.4,12.7-3.8,19.4-3.2c1,2-0.8,2.2-1.9,2.6c-15.8,5.7-31.5,12-48.2,14.8
		c-5.5,0.9-10.6,3.6-16,5c-10.6,2.8-21.3,1.7-32,2.4c-1.1,0.1-2.3-0.3-3.4,0.4c-0.4,0.3-1.2,0.3-1.3,0.6c-3.2,5.7-9.6,4.5-14.4,6.7
		c-5,2.2-10.3,3.5-15.7,4.3c-5.2,0.8-10.3,2.5-15.6,3.1c-5.3,0.6-10.6,0.5-14.2,1.1c12.2,0,25.7-2.8,38.9-6.3
		c6.5-1.7,13-3.9,19.5-5.8c6.1-1.8,11.5-0.2,14.6,5.2c1.4,2.4,1.2,4.6-2,5.4c-2.7,0.6-5.3,1.6-7.8,2.8c6.1-2.8,13.1-3.8,18.9-8.8
		c-4.2,0.3-7.5-1-10.7-3.1c-3-2-6.4-2.7-10-2.4c-1,0.1-2.3-0.1-2.4-1.2c-0.1-1.2,1.6-0.9,2.2-1.7c7.7-0.4,15.4-0.7,23.2-0.5
		c6.6,0.2,13-2.1,19.2-4.3c7.2-2.6,14.6-4.3,22.1-5.5c10.6-1.6,19.8-7.5,29.9-10.4c1.8-0.5,3.4-1.3,5.2-1.6c0.7-0.1,1.4,0,1.7,0.6
		c0.4,0.7-0.2,1.2-0.6,1.7c-0.7,0.7-1.6,1.2-2.5,1.7c-3.2,1.9-5.3,3.9-1.9,7.7c2.3,2.5,0.4,4.6-2.2,5.9c-2.6,1.2-5.5,1.2-8.2,2.1
		c-3.6,0.4-6.4,2.7-9.5,4.2c-6.3,3.1-13.5,3.3-19.5,6.8c-9.8,3.2-19.9,5.5-29.9,7.9c-1.8,0.4-3.5,1.1-5.4,1.3
		C264.5,362.6,259,365,252.9,365.3z"/>
	<path class="st3" d="M397,469.1c0-1.1,0.2-2.3-1-3c-0.4-0.2-1-0.5-1.1-1c-0.3-7,0.3-13.9,1.6-20.7c0.3-1.5,0.6-2.9,0.3-4.4
		c-1.8-11.4-1.3-22.8,2-33.9c2.6,0,1.3,2,1.7,2.9c-1.9-12.5,0-25.1,1.2-37.8c0.1-1.3,0.1-2-1.2-2.3c-1.6-2.1-2-4.6-1.7-7.1
		c1.1-7.6,0.9-15.2,0.8-22.8c-0.1-3.8,2.7-7.2,1.3-11.1c-0.6-3.5-0.5-6.9,0.6-10.3c1.5-4.9-0.7-9.9,0.2-14.8c1-9.7,2-19.4,1.8-29.2
		c0.1-1.2,0-2.3,0.1-3.5c0.1-1.7,0-3.5,0.4-5.1c1.3-7,0.6-14.2,1.3-21.4c0.8-7.7,0.3-15.6,1.4-23.4c1-7.3-2.4-14.2,0.4-22
		c2.4-6.7-2.2-14.1-5.6-20.7c-3.1-2.7-7.5-4.2-8.2-9.1c3.8-3.5,7.3,0.6,11,0.4c0.3,0.4,0.6,0.8,0.9,1.1c0.3,2,0.9,3.7,2.1,5.4
		c6.7,9.5,7.7,20.1,5.8,31.2c-0.3,1.7-0.8,3.3,0.5,4.7c2.1,2.1,2.8-1.8,4.6-1.1c-0.7,14.1-1.4,28.2-2.2,42.3
		c-0.9,16.4-2,32.9-2.8,49.3c-2,39-3.9,78-5.8,117c-0.8,15.4-0.7,30.9-2.2,46.3C403.4,468.6,400.9,470.3,397,469.1z"/>
	<path class="st4" d="M29.4,137.5c-3.2-11.2-3.8-22.8-6.4-34.1c-3.4-14.8-6.5-29.8-9.7-44.6c-1.2-5.4-1.1-10.9,0.3-16.2
		c0.8-3.2,2.5-5.7,6.1-6.2c7.3,1.3,12,6.5,16.9,11.3c3.3,8.2,4.3,17,6.3,25.5c2.8,11.9,4.7,24,7.6,35.9c0.6,2.1,0.3,4.3,1.1,6.3
		c0.5,2.9,0.6,5.9,1.4,8.7c1.2,3.4,0.5,7.1,1.7,10.5c1.3,8.1,2.8,16.2,3.3,24.4c-0.2,1.6,0.1,3.6-1.6,4.2c-2.1,0.7-3.5-0.9-4.5-2.7
		c-1.8-20.5-5.5-40.8-9.5-61c-2.5-12.7-5.7-25.3-7.6-38.1c-0.7-4.6-4.5-7.7-6-12c-0.3-0.7-1.2-1.2-1-1.7c5,18.1,8.6,37,12.4,55.8
		c2.9,14.8,5.5,29.7,7.7,44.7c0.3,2,0.4,4-0.8,5.8c-2.9,1.7-4.4-0.4-6-2.2c-2.5-10.1-4.8-20.2-7.4-29.9c1.2,1.9-0.8,4.6,1.8,7
		c2.1,1.9,0.4,5.7,0.9,8.6c0.2,1.4,0.6,3-1.2,3.9c-2.2-0.8-2.9-3-4.2-4.6c-0.3-0.3-0.2-0.9-0.6-1C30.3,136.6,30.1,137.2,29.4,137.5z
		"/>
	<path class="st0" d="M171.3,458.1c0.1,3,0.1,6,0.2,9c0.3,28.1,0.6,56.2,0.9,84.3c0,1.9,0.7,4-0.9,5.7c-2-1.8-1.4-4.3-1.5-6.5
		c-0.1-3.3-0.3-6.6,0-9.9c0.3-3.6-1.1-5.2-4.6-5.3c-1.9-2-1.9-4.6-1.9-7c-0.3-18.8-1.9-37.5-2.8-56.2c-0.6-13.1,0.2-26.3-1.6-39.3
		c-0.2-1.5-0.2-3,0-4.5c0.2-1.3,0.1-2.9,1.8-3.2c1.4-0.3,1.8,1.3,2.7,2.2c-0.2-3,2.1-7-3.3-7.6c-0.4,0-0.6-0.8-0.6-1.3
		c0.1-7-2.1-14-0.2-20.8c1.2-4.2,2.2-8.2,2.6-12.5c0.9-9.9,0.1-19.8-0.4-29.7c0-0.3-0.2-0.8-0.1-1c3.8-5.7,0.8-12.1,2.2-18.2
		c1.3-5.3,0.4-10.9,1.1-16.3c0.2-1.2,0-2-1.8-2.1c-3.9-0.3-5-2.6-2.2-5.2c4-3.9,3.8-8,3.6-13.1c-0.5-12.6-0.2-25.2-0.4-37.8
		c0-0.7,0.3-1.3,0.7-1.9c1-1.1,2.1-1.8,3.6-0.9c2.2,7.7,1.2,15.6,0.6,23.4c-0.1,1.7,0.2,0.8,0.8,0.4c0.6,0.1,1,0.5,1.2,1
		c1.6,7.6,0.5,15.4,0.8,23c0,8.1-0.5,16.1-1,24.2c-0.4,3.7,0.3,7.5-1.6,10.9c-0.9,1.7,0.5,2.7,1.5,3.8c1.7,3.1-0.6,5.9-0.6,8.9
		c-0.8,2.2-1.4,4.5-1,6.8c1,6.8,0.8,13.6-0.3,20.4c-0.7,4.6-0.8,9.2,0.8,13.8c1.5,4.2-1.5,8.8,0.7,13.1c-3.9,4.2-2.3,8.6-0.6,13.1
		c1.7,4.7,0.6,9.6,1,14.4c0.5,5.3,0.3,10.8-0.6,16.2C169.8,454.4,170.1,456.4,171.3,458.1z"/>
	<path class="st5" d="M36.6,281.2c-2.9-6.3-2.3-13.1-3-19.8c-0.2-2.1,0.7-4.6-1.5-6.3c-1.7,1.8,1.5,5.2-2.2,6.1
		c-0.5-12.3-1-24.5-1.4-36.8c-0.6-15.7-2.1-31.4-1.8-47.2c3.3-1.4,5.8,0.7,8.1,2.2c4.7,3,9.7,5.6,14,9.2c-6.1-5-12.6-9.5-19.4-13.5
		c-1.6-0.9-1.9,0.8-2.8,1.3c-1.4-4-0.8-8.1-0.8-12.2c2.3,0.4,3.9,2.5,3.8,4c-0.4,4.1,3.2,4.7,4.8,4.5c5.1-0.8,8,2.7,11.6,4.8
		c4.3,2.5,8.1,5.8,12.3,8.4c4.7,3,6.4,8.1,9,12.6c0.1,0.4,0.2,0.9,0.3,1.4c0.9,4.2,3.6,6.8,7.4,8.5c1.7,0.8,3.9,1.2,4.2,3.6
		c0,0.5-0.2,0.9-0.5,1.3c-5.8-0.4-10.1-4.6-15.3-6.4c-1.3,6.4-4.4,11.5-10.1,14.9c-1.1,0.3-2.1,0.2-2.8-0.7c0.4-3.4,0-6.9,0.4-10.3
		c2.7-2.2,2.7-2.2,4.4,1.8c3-6.5,2.7-8.8-1.6-11.4c-1.9,1.1,0.4,4.6-2.8,5c-1.4-1.5-0.2-3.4-0.7-4.7c0.7,10.7,0.6,21.9,0.9,33
		c-2.1,6.9,0.7,14.1-1.5,21c-0.3,0.5-0.7,0.7-1.2,0.8c-2-0.8-2.7-2.7-2.9-4.3c-0.6-5.2-3.1-10.2-1.6-15.9c1.2-4.7,0.9-9.8-2-14.3
		c-0.3-0.8-0.4-1.6-0.4-2.4c0-5.2-0.8-10.2-2.2-15.1c-0.9-3-1.2-6.1-0.4-9.3c2.3-4,4.1-0.2,6.3,0.8c-3-4.5-3.4-4.5-6.8-1.2
		c-2.5,4.5-3.6,9.6-2.5,14.5c1.5,6.4,1,12.8,2.1,19.2c0.3,2,0.1,4-0.7,5.9c-0.4,1.1-1.1,2.2-0.9,3.3c1,8.5-1.6,17.1,0.4,25.6
		c0.6,3.5,0,7.1,1.3,10.5c0.3,1.7,1.4,3.3,1.4,5.1C39.3,280.5,39.2,282.3,36.6,281.2z"/>
	<path class="st6" d="M66.6,199.1c-5.2-12.6-17.6-17.3-27.4-24.8c-1.2-0.9-1.9-0.1-3,0.1c-3.8,0.8-6-2.8-9.2-3.9
		c-0.2-0.1-0.3-0.8-0.3-0.9c4.4-2.7-1.6-3.5-1-5.4c0.2-3.4-1.7-7.2,1.6-10.1c4.2-1.3,5.9,3.5,9.6,3.9c1.1-1.1-0.7-2.8,0.6-3.9
		c0.7-0.2,1.4-0.2,1.9,0.3c10.4,9.9,22.9,16.6,34.9,24.2c2.4,1.5,6.2,0.4,7.5,4.1c0.3,4.3,1,8.5,1.7,12.7c0.2,1,0.4,2-0.4,2.7
		c-3,2.7-1.3,4.9,0.8,7c0.9,0.9,2.5,1.7,1.4,3.2c-0.8,1.2-2.5,1.1-3.7,0.5c-3-1.8-7-2.3-8.9-5.9C71.4,200.4,68.7,200.2,66.6,199.1z"
		/>
	<path class="st7" d="M275,411c-2.7-1.7-5.5-3.3-8.4-5c2.8-2.5,5.4-0.2,8.4-0.4c-10.1-6.8-10.5-8-5.7-13.5c-1.2-2.1,0.9-3.6,1.1-5.4
		c0.6-6.4,1.2-12.8,0.5-19.2c-0.3-2.4,1.2-5-0.5-7.3c-5.8,1.5-12,2-17.4,5.1c0,0.9,0.1,1.8,0.1,2.7c-0.8,7.7,0.3,15.4-0.6,23
		c-0.9,6.4-0.1,12.1,4.7,16.2c0.4,0.3,0.8,0.6,1.1,0.9c0,0,0,0,0.1,0c0.3,0.2,0.5,0.4,0.8,0.5c0.1,0.1,0.2,0.2,0.4,0.2
		c0.1,0,0.1,0.1,0.2,0.1c0.5,0.3,1,0.6,1.5,0.9c0.1,0,0.1,0.1,0.2,0.1c0.5,0.3,1,0.5,1.4,0.9c0.5,0.3,1,0.6,1.4,0.9
		c4.6,2.8,9.2,5.7,13.8,8.5C280,417.7,278.6,413.3,275,411z"/>
	<path class="st8" d="M27.5,34.2c9.1-2.1,18.3-3,27.5-3.4c38.3-1.8,76.4-6.6,114.5-10.5c19.6-2,39.2-4.5,58.8-6.7
		c2.4-0.3,4.9-0.9,7.2,0.6c-6,4-12.6,5.4-19.7,5.2c-4.5-0.1-8.8,1-13.2,1.5c-15.9,1.8-31.8,3.9-47.7,5.2c-11.4,1-22.7,2.7-34.1,3.4
		c-11.1,0.8-22,2.2-33.1,2.9c-12.9,0.8-25.7,2.4-38.6,2.2c-2.6-0.1-5.2,0.1-7.7,1.5c-3.9,2.3-7.7-0.7-11.6-0.7
		C28.9,35.3,28.1,34.9,27.5,34.2z"/>
	<path class="st9" d="M171.3,458.1c-2.7-0.8-3.3-3.7-2.6-5.1c1.4-2.9,0.1-5.9,0.6-8.2c2.6-11-1.3-21.1-3-31.6
		c-0.5-2.8-0.5-2.7,1.9-2.6c1.2,0,1.5-1,1.1-1.7c-1.6-3.4,0.2-7.5-0.6-10.2c-2.7-8.6-0.9-16.9-0.3-25.3c0.3-4.2,0.1-8.6-0.6-12.8
		c-0.5-2.9,0.6-4.8,1.9-6.9c2.3,0,4.6,0,6.8-0.8c1.6-0.5,3.5-1.5,5,0.4c7.7,2.5,15.2-0.2,22.8-0.6c9.2-0.5,18.1-2.9,27-4.6
		c-12.2,5.2-25.1,6.4-38,8.1c-5.9,0.8-11.9,0.8-17.8,1c-1.4,0-3.6-0.7-3.7,1.3c-0.1,2.2,2.1,1.4,3.5,1.6c1,0.1,2,0,3.7,0
		c-2.1,1.6-3.9,0.6-5.5,1.2c-0.7,0.2-1.8,0.5-1,1.6c0.3,0.4,1.2,0.2,1.9,0.3c-0.2,1.7-1.1,3.2,1.2,4.5c3.4,2.1,3.7,7.2,8.5,8.5
		c1.9,0.5-0.1,2.7-1.4,3.8c-2.9,2.4-6.9,3.4-9.1,6.7c-0.5,1.1-1.6,1.6-2,2.8c-0.1,0.3-0.2,0.5-0.4,0.8c-0.5,12-0.6,23.9,0,35.9
		C171.3,436.8,171.3,447.5,171.3,458.1z"/>
	<path class="st10" d="M29.6,34.4c1.8-0.2,3.6-0.3,5.4,0.4c2.6,1.1,5,1.5,7.4-0.7c1.5-1.4,3.5-0.9,5.3-0.9
		c18.3-0.2,36.4-2.6,54.7-3.7c16.6-1,33.1-3.5,49.8-4.7c12.2-0.9,24.6-1.5,36.7-4.4c4.4-1,9.2-0.6,13.8-1.2c7.8-1,15.6-1.4,23.4-2.1
		c3.4-0.3,5.7-4.2,9.6-3.1c0.6,0.1,1.3,0.2,1.9,0.2c0.2,0.6,0,1.1-0.4,1.6c-3.3,2.7-7.3,4.2-11.5,4.4c-7.6,0.4-15,2.4-22.6,2.2
		c-12.4-0.4-24.3,3.5-36.5,4.5c-13.7,1.1-27.4,2.9-41.1,3.5c-8,0.3-15.7,2.7-23.6,3.4c-6.6,0.6-13.1,1.5-19.8,0.8
		c-7.2-0.8-14.2,0.6-21.3,1.3c-3.5,0.4-6.9,1.2-10.4,0.6c-4.3-0.8-7,2.6-10.6,3.7c-0.7,0.2-1.4,0.4-2.1,0.8c-1,0.5-1.7,1.7-3.1,1.3
		C33.3,39.4,29.8,38,29.6,34.4z"/>
	<path class="st11" d="M404.2,169c-3.7,0.9-7.5-1.8-11.2,0.2c-1.8,0.8-3.2-0.2-4.7-0.9c-8.5-3.6-17.3-6.6-26.1-9.7
		c-6.5-0.9-12.2-4-18.5-5.5c-15.8-3.7-31.5-7.6-46.5-13.9c-2-0.8-4.1-1.4-5.6-3.1c-2.1-2.3-4.8-4-7.1-6.1c-1.2-1.1-2.8-2.1-1.2-4.1
		c9,4.9,18,9.7,27.7,13.4c16.8,6.4,34.4,9.5,51.6,14.7C376.7,158.4,390.7,163,404.2,169z"/>
	<path class="st12" d="M81.5,183.2c-1.7-1.4-3.1-2.7-6-2.4c-2.9,0.3-4.2-3.7-7.4-4.7c-5.1-1.7-9.3-5.4-13.7-8.6
		c-5.8-4.2-12.3-7.6-16.9-13.2c-3,1-5.8-0.3-4.6-3.1c1.9-4.2-0.4-5.7-2.8-7.8c-1.2-1.8-0.4-3.9-0.8-5.8c0.7-0.4-0.8-3.5,1.7-1.6
		c1.7,1.3,3.1,2.9,3.5,5.2c2.6,3.1,4.3,6.9,7,10c1.5,1.3,2.9,2.7,4.9,3.1c3,0.9,4.4,3.5,6,5.9c1.1,0.9,2.3,1.7,3.7,2.8
		c0.2-1.7,0.3-2.8,0.4-3.9c1.3,0,1.8,0.9,1.8,1.8c0.2,3.1,2.3,4.8,4.6,6.4c6.4,4.7,13.7,7.5,20.6,11.1c2.1,1.2,4.4,1.9,6.6,2.8
		c9.1,3.5,18.5,6.1,27.4,10.2c0.6,0.5,1.1,1.1,0.9,2c-1.5,2.3-3.6,1.8-5.7,1c-3.1-1.1-6-2.5-9.2-3.3c-2.9-1.3-5.8-2.3-8.9-3
		c-4.3-1.4-8.3-3.7-12.8-4.4C81.9,183.5,81.7,183.3,81.5,183.2z"/>
	<path class="st13" d="M252.3,27.2c3.9,11.3,5.5,23.2,7.8,34.9c2.7,13.3,4.6,26.8,6.8,40.3c0.9,5.6,0.5,11.4,2.4,16.9
		c1.1,1.5,2.3,2.5,4.2,2.9c1.9,0.4,3.1,1.6,3,3.7c-1.2,1.6-2.8,0.5-4.2,0.6c-1.8,0.8-0.3,4-2.9,4.2c-3-1-3-3.8-3.2-6.1
		c-0.5-4.6-0.2-9.2-0.3-13.7c-0.5,2.3,0.5,4.9-1.2,7.3c-2.9-9.9-2.7-20.3-4.6-30.3c-2-10.5-5.3-20.9-5.8-31.6
		c-1-9.3-3.4-18.3-6.1-27.2c-0.7-2.2-2.4-2.4-4.1-2.8c-0.7-0.8-0.8-1.7-0.8-2.7c0.2-1.7,0.8-3.3,2.8-3.5c1.8-0.1,3,1,4,2.4
		C251.1,23.9,250.8,26,252.3,27.2z"/>
	<path class="st14" d="M418,210.2c-1.7,0.8-0.1,5-4,3.5c-3.3-1.3-3.4-3.8-2.8-6.6c2.7-12.1,1.8-23.5-7.3-33c-2-2.2,0.5-2.7,1.1-4
		c3.4,0.2,5.2,2.6,6.9,5c6.7,9.2,7.6,19.7,6.6,30.7C418.4,207.3,418.2,208.7,418,210.2z"/>
	<path class="st15" d="M165.4,535c0.8-0.2,1.7-0.2,2.4-0.6c2.7-1.6,3.7-1,3.7,2.3c-0.1,6.8,0,13.6,0.1,20.4c-3.6,5.2-9.2,5.7-14.8,6
		c-2.2,0.1-3.5-1.5-3.2-4c0.4,0.2,0.9,0.5,1.2,0.8c1.4,1.1,2.6,2.9,4.6,1.9c2.1-1,2-3.2,2-5.2c0.1-5.4,0.1-10.8,0-16.3
		c0-2.1,0.2-3.9,2-5.2C164.1,534.6,164.7,534.5,165.4,535z"/>
	<path class="st16" d="M397,469.1c2.9-0.9,5.8-1.6,7.9-4c-0.1,6.2-0.3,12.5-0.4,18.7c-0.1,4.2-1.8,7.2-5.9,8.7
		c-1.3,0.5-2.4,1.6-3.6,2.4c-0.5-0.2-1.1-0.3-1.1-1.1c1.8-1.1,2.1-3.1,1.9-4.7C394.9,482.4,396.9,475.8,397,469.1z"/>
	<path class="st17" d="M179.4,384.2c4.6-0.6,9-2.1,12.9-4.6c4.6-2.8,9.5-5.3,14.6-6.4c3.9-0.8,8.2,0.5,12.4,0.9
		c-13.9,4.4-27.8,8.8-41.7,13.2c-1.6,0.5-2.9,0.5-1.7-1.7C176.6,384.4,178,384,179.4,384.2z"/>
	<path class="st6" d="M26.5,176.4c-0.1-2.9,0.2-4.6,3.7-2.2c6.1,4.3,12.5,8.1,18.7,12.2c1.3,0.8,3.4,1.8,1.9,3.8
		c-1.6,2-2.5,0.1-3.9-1c-6.2-4.9-12.5-9.7-20.3-12C26.5,176.9,26.4,176.7,26.5,176.4z"/>
	<path class="st18" d="M276.2,126.2c-0.7-1.7-1.5-3.3-3.7-3c-3,0.3-3.4-1.5-3.3-3.9c5.3,1,9.8,3.6,14.1,6.7c1.1,3.7,4.5,5.1,7.2,7.1
		c0.9,0.6,1.5,1.1,1.5,2.2c-5.9,1.4-9.5-3.1-14-5.4C277,129,275.7,128.1,276.2,126.2z"/>
	<path class="st4" d="M30.2,143.4c5.9,1.9,6,2.8,3.8,8c-1.1,2.5,2.1,2.2,3.5,2.9c-0.5,2.1,3.6,3.7,1.1,5.5c-1.9,1.3-3.7-1.3-5.5-2.2
		c-2.1-1-3.2-3.4-5.8-3.5C33.4,151.9,30.3,147.2,30.2,143.4z"/>
	<path class="st19" d="M252.3,27.2c-3.6,1.2-1.6-2.2-2.5-3.3c-1.1-1.2-1.7-2.8-3.5-3.1c-1.9-0.3-1.8,1.3-2.2,2.5
		c-0.4,0.2-0.9,0.1-1.2-0.2c-0.6-0.6-1-1.4-1.4-2.2c-0.5-1.4-0.7-2.8-1.8-3.9c-0.7-0.7-1.8-1-2.3-2c0-0.3-0.1-0.5,0-0.8
		C245.2,11.2,251.9,18.8,252.3,27.2z"/>
	<path class="st20" d="M35.4,47.3c-5.1-3.9-10-8-15.7-11c2.1-1.8,4.7-0.6,7.1-1c5,0.4,5.9,4.9,8.4,8C35.7,44.5,36.6,45.8,35.4,47.3z
		"/>
	<path class="st0" d="M171.2,426.1c-1.8-3.8-0.8-7.8-0.8-11.7c0.2-8.1-1.1-16.2,0.7-24.2C171.2,402.2,171.2,414.2,171.2,426.1z"/>
	<path class="st2" d="M253.1,368c0,7.7,1.1,15.4-0.6,23C252.4,383.4,251.7,375.7,253.1,368z"/>
	<path class="st21" d="M34.6,43.3c-2.8-2.5-4-6.5-7.9-8c-0.1-0.6,0.2-1,0.8-1.1c0.7,0.1,1.4,0.2,2,0.3c1.6,2.7,5.5,3.9,5.2,7.9
		c0.1,0.2,0.1,0.4,0.2,0.5C34.8,43,34.7,43.1,34.6,43.3z"/>
	<path class="st2" d="M179.4,384.2c-0.9,0.6-2,1.1-2.7,1.9c-1.3,1.4,0.5,0.8,0.8,1.2c-1.8,1.3-3.9,1.8-6,2.2
		c-0.3-1.2,0.3-2.1,0.8-3.1C174.6,385,176.3,382.3,179.4,384.2L179.4,384.2z"/>
	<path class="st22" d="M394,493.9c0.4,0.3,0.8,0.7,1.1,1.1c-2.6,0.1-5.6,1.5-7.4-1.8C390,492.3,391.8,494.8,394,493.9z"/>
	<path class="st23" d="M165.4,535c-0.6,0-1.3,0.1-1.9,0.1c-1.9,0-2.8-0.6-3.2-2.8c-2.1-12.8-2.7-25.7-3-38.6
		c-0.3-11.7-2.2-23.4-2.6-35.1c-0.4-11.2-2.8-22.4-1.1-33.6c0.8-4.8-1.4-9-1.9-13.5c-0.8-7.2,2.6-14.4-0.8-22.3
		c-0.7,5.7-1.3,10.5-1.9,15.3c-0.4,0-0.8-0.1-1.2-0.1c-0.2-6.1-1.7-12.3,1.2-18.3c1.2-2.5,5.6-5.7-1.4-6.6c-0.9-0.1-1.2-1.5-1.2-2.5
		c0-7.6,0-15.3,0-22.9c0.5,0,0.9-0.1,1.4-0.2c0.6,7.6,1.3,15.1,2,23.8c2-2.8,3.1-4.8,2.4-6.9c-2.6-7.9-0.7-15.9-0.9-23.8
		c-0.1-3-0.6-5.8-1.1-8.8c-1-5.2-0.7-10.7-0.8-16.1c-0.1-2.6,0-5.3-1.7-7.5c-1.6,0.2-1.4,1.5-1.2,2.3c2,7-0.1,14.3,1.7,21.2
		c0.4,1.6,0.6,4.1-1.4,4.2c-2.5,0.1-1-2.5-1.4-3.9c-0.7-2.5,1.6-5.7-2-7.4c-2.2-2.3-1.6-5.2-1.6-8c0.1-4.6,0.1-9.2,0.1-13.8
		c-0.2-9.5,0.5-19-0.4-28.5c-0.3-1.1-0.3-2.3-0.1-3.4c1.6-3.9-0.7-8.6,2.9-12.3c1,7.5,1.7,15.1,2.2,21.8c0.5-2.6-0.2-6-0.8-9.4
		c-0.6-3.5-0.8-7,0.1-10.4c0.9-3.3,1.4-6.5-0.5-9.6c-0.6-1-1-2.3,0.1-3.2c1.2-1.1,2.5-0.4,3.7,0.2c3.7,1.9,7.2,4.1,11.5,4.3
		c1.7,0.1,3.4,0,4.6,1.4c-0.2,7.1,0,14.2,1,21.2c0.6,4.1-1.4,7.8-1,12c0.3,3.2,0.4,6.5,1.1,9.8c0.8,3.8-0.3,6.7-3.3,9.1
		c-0.9,0.7-1.8,1.5-2.5,2.4c-0.6,0.9-0.4,2,0.5,2.7s1.5-0.1,2-0.8c0.6-0.9,0.9-2.4,2.5-1.3c1.1,0.8,1,1.8,0.8,3.1
		c-1.2,7.2,0.4,14.7-2,21.9c-0.5,1.4-0.2,3.5,0.4,4.9c1.5,2.9,2,5.2-1.6,6.9c-0.8,0.4-1,1.3-0.8,2.2c2.6,12.4,2.1,24.9,0.4,37.2
		c-0.8,6-2.8,11.9-2.6,18.2c0.1,3.2,2.6,6.4,0,9.7c1.6-0.6,3.1-2.7,4.2-0.6c2.1,4.3,0.2,8.5-0.9,13.3c-2.4-1.8-0.2-4.8-3.3-6.2
		c0,2.2-0.1,4.1,0,6c0.9,18.4,1.7,36.7,2.6,55.1C163.8,502.8,164.6,518.9,165.4,535z"/>
	<path class="st24" d="M143.3,309.4c0.1,7.2,0.1,14.5,0.2,21.7c-0.1,3-0.1,5.9-0.2,8.9c-16.2-8.8-32.4-17.5-48.5-26.3
		c-1.9-1-3.8-2.1-6.1-1.5c-6.8-3.8-13.4-7.9-20.2-11.7c-2-1.1-4.2-2.1-4.8-4.7c0.3-3.2-0.7-6.2-1.6-9.2c-1-3.4-0.4-6.1,2.3-8.5
		c2.7-2.5,5.4-1.7,8.3-0.4c8.5,3.8,16.6,8.3,24.7,12.7c3.1,1.7,6.4,2.5,9.8,3.5c11.4,3.4,22.7,7.2,32.9,13.7c3.6,2.3,1.2,6,2,8.4
		c0.3-1.8-0.2-4.2,0.1-6.6C142.5,308.9,142.9,308.9,143.3,309.4z"/>
	<path class="st25" d="M55.6,322.3c-1.6,1.6-1.2,3.7-1.1,5.7c0.6,22.8,1.4,45.5,2,68.2c0.1,3.6,0,7.3,0,11
		c-0.9,6.6-0.4,13.2-0.3,19.9c0,3.8-0.6,7.6-1,11.3c-0.4,3.9-3.4,4.4-6.5,4.7c-0.3-0.4-0.8-0.8-0.8-1.2c0.5-12.6,0.6-25.1,2.1-37.7
		c0.9-7.7,1.4-16,0.5-24c-1.2-10.6-2.6-21.2-1.1-32c0.7-4.7-2.5-9.1-1.2-14.1c2.9-11.2-1.8-22.7,0.4-34c0.6-4.8-0.7-9.4-1.3-14.1
		c-1.4-10-0.2-20,1.4-29.9c1.3-7-1.1-14.1,1-21.1c0.6-0.3,1.1-0.1,1.4,0.4c1.5,2.8,0.3,6,1.5,8.9c0.3,1.4,0.4,2.8,0.4,4.2
		c0,4.7,0.1,9.3,0,14c0,0.9-0.1,1.7-0.4,2.5c-2.7,8.2-2.1,16.4,1.1,24.3c0.5,0.7,0.8,1.5,1,2.4C55.5,302,54.5,312.2,55.6,322.3z"/>
	<path class="st26" d="M35.6,263.2c-0.8-5-2.9-9.9-0.3-15c0.6-1.2,0.1-2.6-0.1-3.9c-0.6-3.7-1.5-7.4,1-11c0.7-1,0.6-3,0.4-4.4
		c-1.4-6.9-0.3-14-2.7-20.8c-0.6-1.9-0.9-4.2,0.9-6.1c1.4-1.5,0.4-3.1,0.1-4.7c-0.7-3.4,0.2-5,3.9-3.2c0.4-0.3,0.6-0.2,0.9,0.1
		c-0.9,8.9,4.2,17,3,25.9c-2.9,3.5-1.6,7.8-1.2,11.4c0.7,7.6,0.6,15.2,0.6,22.8c0,4.7,1.2,9.2,1.2,13.8c0,1.7,1.2,2.2,2.4,2.8
		c1.6,2.9,2.5,5.8-0.8,8.3c-0.2-0.8-0.2-1.8-1.4-1.6c-0.9,0.2-1.7,1.1-1.4,1.8c1.6,4.1-2.1,7.4-1.9,10.7c0.4,4.9,0.1,9.9,1.1,14.8
		c0.8,3.5,0.5,6.9,0.1,10.3c-2-6.6-2.1-13.5-2.5-20.4c-0.3-4.6-0.7-9.2-2.1-13.6c2.1-0.2,2.1-1.4,1.5-3c-0.5-1.3-1-2.6-1.4-4
		C38.5,270.3,35.6,266.9,35.6,263.2z"/>
	<path class="st27" d="M117.3,490.1c9.4,7.6,18.7,15.2,29,23.6c0-12.4,0-23.9,0-35.4c0.4-1-0.4-2.3,0.6-3.1c6,15.9,2.8,33,6.4,49.3
		c0.2,1,0.6,2.5-0.7,3.1c-1.1,0.5-1.8-0.6-2.4-1.3c-1.2-1.1-3.1-1.4-3.7-3.2c-0.5-7.6-7.6-9.5-11.9-13.8c-2.4-2.4-2.8,2.9-5.1,1.9
		c-5.1-2-7.8-6.9-12.1-9.9c-5-3.5-9.4-7.8-14-11.7c-0.9-0.8-3-1.1-2.1-2.7c0.8-1.5,2.9-1.1,4-0.3
		C108.9,489.3,113.2,489.2,117.3,490.1z"/>
	<path class="st28" d="M129.4,511.1c2.2-4.8,4.9-5,8.2-1c1.3,1.6,3.1,3.1,5,4c4.1,1.9,5.4,4.8,3.8,9c-1,0.4-2,1.3-3.1,0.3
		C138.6,519.4,133.5,515.8,129.4,511.1z"/>
	<path class="st5" d="M44.6,279.2c1.5-2.7,1.5-5.4,0-8c-1.1-1-1.1-2.2-0.9-3.5c1-4.1,1.8-8.3,4.9-11.5l0,0
		c1.9,5.7-0.2,11.2-0.6,16.8c-0.4,5.6,0.2,11.2,1.2,16.5c0.7,3.9,0.6,7.1-0.6,10.6C47.8,293.1,44.2,286.5,44.6,279.2z"/>
	<path class="st29" d="M48.6,443.1c0.6-1.3,1.7-1.9,3.1-2c1.9-0.2,1.6-1.5,2.1-2.9c3.5-10.2,0.1-20.8,2.6-31
		c0.6,11.6-0.3,23.3,1.2,34.9c-0.1,0.4-0.1,0.7-0.2,1.1c-2,3-4.9,3.1-7.9,2.1C48.8,444.7,48.7,443.9,48.6,443.1z"/>
	<path class="st25" d="M49.6,445.2c2.6-0.7,5.3-1.4,7.9-2.1c-0.2,5,5.4,7.4,5.7,13.2C57.8,453.1,53.4,449.5,49.6,445.2z"/>
	<path class="st30" d="M121.8,523c3.2,0.7,5.1,2.6,6.6,6.3C124.9,527.8,123.4,525.3,121.8,523z"/>
	<path class="st23" d="M145.4,414.3c-1.7-3.6-0.7-7.3-0.8-11C146.3,406.8,145.1,410.6,145.4,414.3z"/>
	<path class="st31" d="M399,406.1c-0.6,6.4-1.8,12.8-1.7,19.1c0.1,4.9-1.5,10.1,1.2,14.8c1.3,2.3-1.4,3.5-1.3,4.9
		c0.5,7.1-1.5,14-1.2,21.1c-0.4,0.3-1,0.9-1.1,0.8c-5.9-3.1-12-6-15.9-11.8c-0.9-1-1.3-2.2-1.3-3.5c1-15.9,0.6-31.9,1.4-47.8
		c0.6-11.4,1.2-22.9,1.4-34.4c0.2-9.8,0.9-19.6,1.5-29.3c1.6-3.4,4.5-4.1,7.9-3.8c1.5,1.3,2.7,1.6,4.5,0.1c3-2.4,4.5-6,7.7-8.2
		c1,0.7,1.2,1.7,0.8,2.6c-3,7.7-1.5,15.7-1.8,23.6c-0.2,4.9-1.9,9.8,0,14.7c1.9,2.5-0.1,5.1-0.1,7.6c-0.2,8.5-1.1,17-0.9,25.6
		C400,403.7,400,405.1,399,406.1z"/>
	<path class="st32" d="M379,452.1c0,1,0,2,0,3c-3.8-0.9-8.3,0-10-5.3c-0.8-2.6-4.1-1.1-6.2-2.2c-8.4-4.3-16.8-8.7-24.1-14.7
		c-3.3-2.7-7.2-3.8-10.7-5.9c-8.1-4.9-15.8-10.3-23.9-15.2c-8.2-4.9-15-12-23.9-15.7c-2.9,0.3-4-2.5-6-3.6c-1.2-1.8-1-3.3,0.8-4.6
		c6.5,2.1,12.1,6.1,17.8,9.6c26.1,16,52,32.1,78.1,48.1C373.8,447.5,376.8,449.3,379,452.1z"/>
	<path class="st33" d="M275.5,388c-0.6,1.4-2.2,2.6-0.3,4.2c0.8,2.1,0.1,2.8-2,2c-1.3-0.7-2.6-1.4-4-2c-0.9-1.2-1.6-3-0.4-8
		c1.5-6.1,0.4-12,0.5-18.1c0-1.9,0.6-3.9,1-5.8c1.6-0.4,3.2-0.7,4.7-1.1c0.8,0.6,1,1.4,0.9,2.3c-0.5,8-0.6,16,0,24
		C276.1,386.4,276,387.2,275.5,388z"/>
	<path class="st7" d="M273.2,394.2c1.3,0,2-0.7,2-2c1.7,1.3,3.3,2.7,5,4c-0.2,1.5-0.7,2.1-2.2,1.1
		C276.4,396.3,274.8,395.2,273.2,394.2z"/>
	<path class="st34" d="M181.4,353.4c-2.2,0.4-4.7,0.5-6.7,1.4c-2.3,1.1-3.6,0.2-5.2-1c-2.1-2.8,2.6-4.8,0.8-7.5
		c-1.5-1.9-1.2-3.8-0.8-6c0.5-2.7,0.6-5.5-0.1-8.2c0.4-8.2,0.8-16.4,1.1-24.6c2.5,0.6,1.9,2.8,2,4.4c0.2,3.5-0.1,7,0.5,10.4
		c2.2-4.7,6.6-6.6,11-8.4c5.4-2.1,10.9-4,16.4-5.7c18.5-8.4,38.5-11.4,58-16.5c22.4-5.9,45.1-10.1,67.7-14.7
		c14-2.9,28.1-5.2,42.4-6.1c1.2-0.1,2.3-0.2,3.5-0.4c8.3-1.5,16.7-3,25.2-1.5c3,0.5,5.9,1.3,7.6,4.3c0.4,10.1-0.5,20-1.9,30
		c-2.5,2.7-5.7,3.7-9.3,3.6c-2.5,0.4-4.8,1.2-7.3,1.6c-7.2,0.4-14.1,2.7-21.2,3.9c-4.6,1.5-9.5,1.8-14.2,3.1
		c-36.2,8.2-72.5,16.4-108.7,24.5c-8.4,1.9-16.9,3.6-25.2,5.5c-5.5,1.4-11.1,2.8-16.6,4.3c-2.6,1-5.5,0.5-8.1,1.5
		C188.7,351.9,185,352.6,181.4,353.4z"/>
	<path class="st35" d="M383.2,339.1c-7.8-1-15.1,2.1-22.8,2.2c-5.7,0.3-8.3-4-5.5-9.4c1.8-3.5,3.3-7.2,6.1-10.1
		c1.4-1.4,1.6-2.7,0.2-4.3c-1.3-1.6-2.5-1-3.9-0.3c-2.3,1.2-4.4,3-7.3,2c-12.5,3.1-25.5,4.4-37.4,10.3c-6.3,3.1-14,3.3-21.2,4.6
		c-11,2-22.1,3.5-33.1,5.6c-12.9,2.4-25.7,5.7-38.9,6.6c-4.7,0.3-9.3,1.9-14,2.9c-1.7,0.6-3.4,0.7-5.1-0.1
		c5.1-2.5,10.6-3.6,16.1-4.8c10.1-2.3,20.6-2.5,30.6-5.7c8.5-2.7,17.6-3.2,26.4-4.7c13.2-2.3,26.6-4.1,39.3-8.7
		c8.9-3.2,18.2-5,27.4-7.4c3.7-1,7.6-1.7,11-3.7c4.6-1,9.3-2,13.9-3.1c0.6-0.4,1.3-0.5,1.9-0.4c7.3,2.1,14,0.2,20.2-3.6
		c2.3-0.6,4.6-1.1,6.9-1.7c1.6,2,2.7,4.3,2.4,6.9c-0.8,6.6-0.5,13.2-1.2,19.8c-0.3,2.1,0.3,5.9-4.1,5.2
		C388.2,337,385.7,337.9,383.2,339.1z"/>
	<path class="st36" d="M350,319.2c2-0.8,4.4-1.2,5.8-2.6c4-4.1,6-0.8,8.4,1.7c1.3,1.4,0.1,2-0.8,2.7c-4,3-5.3,7.8-7.8,11.8
		c-2.4,3.9,0,7.4,4.8,8.4c-5.9,1.9-12.1,1.8-18.1,3c-1.1,1.7-3.4-2.4-4.2,0.9c-1.3,0.3-2.7,0.5-4.1,0.8c-3.1-2-0.5-3.9,0.1-5.8
		c2.6-0.5,5.3-0.7,7.7-1.7c1.7-0.7,5.1-1.7,2-4.9c-3.8-3.9-3.7-5.3,1-8.5c1.3-0.9,2.9-1.4,4.2-3c-1.8,0.6-3.6,1.3-5.4,1.9
		c-9.6,3.3-18.3,9.6-28.5,10.5c-13.3,1.2-25.5,6.4-38.1,10c-3.5,1-6.5-0.3-9.7-0.4c-6.3-0.1-12.6,0-18.9,0l0,0
		c5.2-2.9,11-1.4,16.3-1.7c11.4-0.7,22-3.3,32.9-6.3c7.6-2.1,15.5-3.9,22.9-6.4C330.3,326.5,340.7,324.3,350,319.2z"/>
	<path class="st37" d="M207.5,366.1c-1.2,0-2.4-0.2-2.8-1.6c-0.3-1.1,0.7-1.7,1.5-2.3c1.8-1.3,3.7-2.4,5.8-2.7
		c10.6-1.3,21.1-3.3,31.3-6.8c3.5-1.2,3.1,1.4,2.8,3.3c-0.8,6.2-6.5,6.3-10.4,6.6c-9.1,0.7-18.1,2.4-27.2,3.4
		C208.2,366,207.9,366,207.5,366.1z"/>
	<path class="st38" d="M248.3,344.2c0,0.7-2.6,2,0.2,1.9c5.1-0.2,9.7,0.4,13.9,3.9c2.7,2.2,6.6,0.9,10.3,1.4
		c-7.3,7.6-17.2,7.7-25.7,11.3c2.7-2.6,6.2-3.6,9.7-4.6c1.3-0.4,2.9-0.5,3.1-2c0.2-1.4-1-2.3-1.8-3.5c-3.6-5.1-7.6-5.4-13.3-3.8
		c-14.4,4-28.7,8.7-43.6,10.8c-6.2,0.9-12.5-0.3-18.7,1.2c4.8-2.5,10-2,15-2.7c11.6-1.6,23.2-3.3,34.3-7.2c1.4-0.5,3-0.8,4.2-1.6
		c2.5-1.8,7.5,1.3,8.2-4.2C244.2,344.7,246.8,344.5,248.3,344.2L248.3,344.2z"/>
	<path class="st39" d="M179.4,384.2c-2.7-0.4-4.5,1.8-7,2.2c1.5-3,4.4-4.1,7.2-5.5c1.6-0.8,3-2.3,5.5-4.4c-5.4,0.4-7.4-1.8-8.1-5.6
		c-0.2-1.3-1.5-2.2-2.7-2.7c-4.5-1.7-4-3.4,0-5c2.9,2.7,6.5,1.9,9.9,1.9c2,0,3.8,0.5,4.5,2.4c0.8,2.2-2.6,1.1-2.6,3.2
		c1.6,0.1,2.1,2.5,4.2,2.2c1.2-0.2,2.9-1.3,3.2,0.7c0.1,1.2-1.2,2.5-2.5,3.4C187.3,379.7,182.5,380.5,179.4,384.2z"/>
	<path class="st40" d="M334.1,340.2c1.5,1.9-2.2,3.8-0.1,5.8c-9.6,1.8-19.3,3.6-28.9,5.4c2-2.4,5.1-2.4,7.6-2.9
		C320.5,346.9,326.9,342.5,334.1,340.2z"/>
	<path class="st36" d="M200.3,349.1c1.7,0,3.4,0.1,5.1,0.1c-4.2,1.8-8.6,2.1-13.1,1.9C194.7,349.6,197.5,349.3,200.3,349.1z"/>
	<path class="st41" d="M278.3,129.2c4.7,1.9,8.6,5.4,13.8,6.2c10.1,5.2,20.9,8.4,31.7,11.5c11.6,3.2,23.5,5.4,34.9,9.6
		c1.4,0.5,2.9,0.6,4.3,0.9c1.2,2.7-1,3-2.6,3.6c-1.6,0.6-3.3,0.1-4.9,0.1c-4.2-0.1-5.8,1.5-5.4,5.7c0.4,3.8-0.2,6.8-4.8,8.1
		c4.3-0.4,6.5-2.9,7.3-6.3c0.8-3.6,2.8-4.4,6.1-4.2c4.5,0.3,8.3,2.1,11.9,4.6c0.9,0.6,2,1.6,1.5,2.9c-0.5,1.4-1.9,1-3,1.1
		c-0.7,0-1.5,0.2-2-0.2c-4.2-3.6-6.5-0.1-9,2.4c-1.1,1.2-3.5,2-2.3,4.3c0.7,1.3,7.2,1,8.2-0.1c4.6-5.2,5.7-5.4,11.8-2.2
		c2.5,1.3,4.9,2.1,7.6,0.9c1.3-0.6,2.6-0.4,3.9,0.2c3.9,1.6,4.1,3.1,0.8,6.6c2.8-2.1,5.4-1.2,8.2-0.1c2.8,1.2,4.8,1.2,4-3
		c-0.3-1.9-1.3-4.6,2-5.5c4.5,7.5,7.3,15.5,6.9,24.3c0,1.5,0.7,3.5-2.2,3.3c-1.1-0.1-1.9,1.1-1.2,2.1c5,5.9,2.4,12.8,2.1,19
		c-0.5,11.9-1.3,23.7-1.8,35.6c0,1.6,0.5,3.4-0.9,4.7c-0.3-0.2-0.4-0.5-0.5-0.8c0-0.2,0.1-0.5-0.2-0.7c-2.4,3.5-4,1.1-4.9-1
		c-1-2.3-1.9-4.6-3.8-6.3c-0.6-0.5-0.9-1.8-1.8-1.5c-5.7,1.5-5.6-3-6.8-6.3c-0.5-2.2-0.2-4.3,0.1-6.5c1.3-11.9,1.6-23.9,2.4-35.8
		c0.5-6.5-1.7-8.8-7.7-11.2c-21.4-8.9-44-14.2-66-21.3c-10.9-3.5-21.8-7.1-31.5-13.6c0.1-0.7,1.3-2.5,2-2.9c-1-1.4-2.7-1.9-4-2.7
		c-2.1-1.3-3.6-2.8-3.3-5.6c0.2-1.5-0.3-3-0.6-4.4c-1.2-5.6-1.3-5.6,4.4-6c-0.5-3-2.8-4.4-5-5.8c-1-0.6-2.1-0.9-3.1-1.6
		c-0.9-0.7-2.1-1.5-1.4-2.8c0.5-1,1.7-0.7,2.7-0.3C276.8,128.4,277.6,128.7,278.3,129.2z"/>
	<path class="st42" d="M200.4,309.2c-5.4,2-10.8,3.8-16,5.9c-4.5,1.8-9.4,3.4-10.4,9.4c-2.5-1.6-2.4-4.1-2.5-6.5
		c-0.3-3.6,0.9-7.3-0.7-10.8c-0.1-8-0.3-16.1-0.4-24.1c-1.4-2.7-0.6-5.5-0.6-8.3c3.2-5.2,8.3-8,12.8-5.1c6.5,4.1,12.1,1.7,18-0.3
		c3.9-1.4,7.5-3.5,11.7-4c1.5-0.2,2.6-1.3,3.7-2.4c4.6-4.9,9.6-9.1,15.7-12c2.9-1.4,5.3-3.4,6.3-6.7c0.6-2,1.7-3.8,4-4.1
		c6.7-0.7,9.9-7,15.3-9.7c1.9-1,1.9-3.4,2-5.4c0.4-4.8,2.2-9,5.1-12.8c0.8-1.1,1.8-2,3.3-1.7c0.8,0.3,1.4,0.8,1.7,1.6
		c1.8,11.8,2.6,23.5-3.2,34.6c-0.7,1.3-1,2.9-2.1,3.9c-10.7,9.6-20,20.8-32.7,29.4c9.7-0.6,18.5-1.6,27.3-3.1
		c25.6-4.3,50.4-11.9,76.1-15.6c2.1-0.3,4.3-0.7,6.4-0.6c12.3,0.5,24.5-1.8,36.8,0c2.3,0.3,4.7,0.2,6.9-0.6c0.8-0.2,1.6-0.2,2.3-0.3
		c7.4,1.1,13.2,5,18.2,10.4c0,1,0,1.9-0.1,2.9c-2.3-1-4.3-2.6-6.9-3c-7.3-2.6-14.9-2.5-22.5-2.6c-4.2-0.1-8.3,0-12.3-1.5
		c-2.4-0.9-5-0.7-7.4-0.5c-15.6,1.3-31.4,1.2-46.5,5.3c-12,3.3-24.6,3.9-36.4,8.4c-8,3.1-16.6,3.3-25,4.3c-3.9,0.4-7.5,1.1-10.5,4
		c-1.7,1.7-4.2,2.2-6.5,2.4c-8.6,0.7-16.4,4-23.7,8.4c-3.3,1.9-7.5,1.7-10.7,4.4C197.2,305.3,202.3,305.3,200.4,309.2z"/>
	<path class="st14" d="M402,176.2c-1.8,2-1.2,4.4-0.6,6.6c1,3.9-1.7,5-3.8,3.9c-4-2.1-7.5-2.4-12,0.5c0.7-2,0.8-3,1.4-3.6
		c0.9-0.9,3.8-0.8,2.3-2.7c-0.8-1.1-3.1-3.3-5.1-2c-4,2.8-6.9,0.4-10-1.3c-4.4-2.4-7.2-2-9.2,2.5c-1,2.2-2,2.2-3.7,1.9
		c-1-0.2-1.9-0.6-2.9-0.8c-1.8-0.4-4.9,0.9-5.3-1.3c-0.4-2,1.9-4,3.7-5.4c1.4-1.2,2.8-2.3,3.8-3.9c1.2-1.8,3.1-2,4.8-1
		c3.2,1.7,3.2,1.8,6.6,2c-4.7-4.3-9.9-6.2-15.8-6.2c-1.6,0-1.7,1-2,2.2c-2,7.4-3.9,8.7-12.1,7.4c5.6-1.4,8.4-3.7,6.5-9.5
		c-1.2-3.6,3-6.6,7.5-5.8c2.9,0.6,5.6,1.2,7-2.4c10,4,20.4,6.8,30,11.9C396.6,170.8,398.1,175,402,176.2z"/>
	<path class="st43" d="M391,337.2c3.2-1,2.9-4.2,2.8-6.1c-0.4-8.6,2.1-17.1,0.1-25.7c3.4,0.8,6-1.6,9.1-2.2c1.5,8.4-1.2,16.7-1,25.1
		c-2,4.7-5.1,8.4-9.6,10.8c-0.5,0.3-1.5,1.3-2,0C390.3,338.5,390.8,337.8,391,337.2z"/>
	<path class="st44" d="M405,270.3c-4-2.5-8-5-12-7.5c-1.9-1.2-3.9-1.7-6-1.8c-0.4-4-1.3-8.1,1.2-11.8c1.6,2.3,1.2,7.8,6.5,3.8
		c0.9,3.3,5.8,4,5.5,8.2c-0.1,1.6,0.8,3.1,2.4,3.3c1.3,0.2,1.5-1.4,1.9-2.6c1.2,1.1,0.5,2.3,0.8,3.3C405,266.9,405,268.6,405,270.3z
		"/>
	<path class="st45" d="M399,406.1c-0.1-12.4-0.4-24.7,2-37c0.5-0.7,0.9-1.3,2-3c-0.9,15.6-2.5,30.2-2,45.5
		C399.3,409.7,400.8,407.4,399,406.1z"/>
	<path class="st46" d="M53.4,134.2c-1.3-3.2-0.9-6.7-1.6-10c1.1-2.4,3.5-2.4,5.6-2.7c13.5-1.9,26.7-4.8,40.3-6.2
		c11.5-1.2,23-3.2,34.5-4.8c9.2-1.3,18.4-2.9,27.6-3.6c8.8-0.7,17.4-2.1,26.1-3.4c7.9-1.2,15.9-1.3,23.7-2.8
		c13.4-2.4,26.7-5.2,40.3-6.9c0.6-0.1,1.1-0.1,1.7,0c3.6,3.6,4,6.5,1.7,10.2c-1.3,0.7-2.7,1.2-4.2,1.4c-25.5,3.2-51,7.1-76.5,10.4
		c-19.4,2.5-38.8,5-58.2,7.6c-18.1,2.4-36.2,5.1-54.3,7.1C57.1,130.9,55.2,132.2,53.4,134.2z"/>
	<path class="st47" d="M53.4,134.2c-0.4-3.8,1.1-5.1,5.1-5.1c10.9,0,21.5-3.1,32.4-4.2c12.5-1.3,24.9-3.1,37.3-4.7
		c13.2-1.7,26.5-3.5,39.7-5.3c9.5-1.2,19-2.4,28.5-3.7c14.7-2,29.5-3.4,44-6.6c4.3-0.9,8.8,0.3,13-1.4c0.6,2,1.5,4.1-0.8,5.6
		c-8.2,1.4-16,4.2-24.1,5.7c-9.8,1.8-19.7,2.9-29.6,3.9c-17.3,1.8-34.5,4.4-51.8,6.7c-23,3.2-46,6.4-69.1,9.3c-4.5,0.6-8.7,2-13,3.2
		c-6.8,2-7.7,3.7-6.6,10.9c0.8,6,1.7,11.9,5.5,16.9c0.9,1.2,2,3.2-1.3,2.8c-4.5-1.5-5.2-5.4-5.9-9.2
		C55.6,150.7,54.5,142.5,53.4,134.2z"/>
	<path class="st48" d="M50.4,115.4c-1.1-1.8-1-3.9-0.9-5.9c-0.4-0.8-0.4-1.7,0-2.5c0.5-0.3,1.1-0.4,1.7-0.3c7.7,2.6,15.1,0,22.4-1.4
		c10.8-2.1,21.6-3.4,32.5-4.4c15.3-1.4,30.6-3.5,46-4.7c13.4-1.1,26.7-3,40-4.6c8.2-1,16.3-2.9,24.4-4.6c8.3-1.8,16.9-3.5,25.6-1.8
		c7.7,1.4,8.3,0.9,8.9-7c0.1-1.5,0.2-3,1.4-4.1c2.5,0.4,2.2,2.5,2.3,4.2c0.2,2.4,0.1,4.9,0,7.3c-0.6,3.1-0.6,6.4-3.2,8.7h-0.4
		c-9-0.8-17.9,0.3-26.8,0.9c-17.9,1.4-35.4,5.4-53.2,7.9c-12.8,1.8-25.8,2.4-38.5,4.6c-12.3,2.1-24.8,1.8-37.1,4
		c-10.1,1.8-20.5,2.3-30.6,4.1C59.9,116.7,55.2,116.5,50.4,115.4z"/>
	<path class="st47" d="M50.4,115.4c0.3-0.7,0.2-1.7,1.5-1.5c13.2,2.1,26-1.8,38.9-3.2c9.6-1.1,19.2-2.9,28.9-2.4
		c4.3,0.2,8-1.8,12.2-2.1c10.8-0.9,21.7-1.5,32.5-3.1c16.6-2.5,33-5.7,49.6-8.5c4.1-0.7,8.2-0.7,12.3-1.2c7-0.8,14.1-0.7,21.1-1.1
		c1.8-0.1,2.8,0.7,3.6,2c-8.5,2.6-17.3,3.4-26,5c-12.4,2.3-24.8,3.6-37.2,5.4c-15.1,2.2-30.4,4-45.6,6c-17.3,2.3-34.6,5.1-52,6.8
		c-12.9,1.2-25.5,4.4-38.3,6.7C50.2,121.4,50.7,118.4,50.4,115.4z"/>
	<path class="st49" d="M52.6,160.1c-2.6-1.4-4.4-3.6-6-5.9c0.3-8.7-1.9-17.1-3.5-25.5c-1.3-6.5-1.9-13.1-3.3-19.5
		c-3.2-14.7-6.1-29.4-9.2-44.1c-1.4-6.8-2.9-13.5-4.5-20.9c8.6,8.8,10.7,19.3,12.5,30.1c2.2,12.4,5.4,24.5,7.4,36.9
		c1.8,11,4.5,21.8,5.4,33C51.8,149.5,52.6,154.8,52.6,160.1z"/>
	<path class="st21" d="M49.6,107.2c-0.1,0.8-0.1,1.5-0.2,2.3c-3.7-13.4-5.6-27.1-8.8-40.6c-1.7-7.2-3.5-14.4-5.3-21.6
		c-0.3-1.3-0.5-2.7-0.8-4l0,0c3.1,0.1,3.4,2.8,4,4.9c3.4,11.7,5.7,23.7,8.2,35.7c0.6,3.1,1.9,6,2.1,9.1c0.3,3.8,2,7.4,1.9,11.3
		C50.8,105.4,50.4,106.4,49.6,107.2z"/>
	<path class="st6" d="M41.6,151.2c-4.2-2.1-5.9-5.8-7-10c1-3.6-0.4-7.3,0.7-10.9c0.2-0.6-0.2-1.9-1.5-2.2c-1.7-0.5-3.5-0.8-0.6-2.9
		c1.2-0.9-1.5-3.5,0.1-6.4C35.9,130,40.6,140.1,41.6,151.2z"/>
	<path class="st50" d="M170.6,274.1c-0.1,3-0.2,6-0.4,9.1c-0.3,0-0.5,0-0.8,0c-1.1-6.2-0.1-12.5-0.5-18.7c-0.1-1.8,0.7-3.6-0.5-5.2
		c-1,0.3-2,0.7-3,1c-1.6,0-3.3-0.1-4.9-0.1c-1.5-1.1-2.8-2.3-4.2-3.5c-0.9-0.9-2.5-1.6-1.8-3.1c0.8-1.4,2.4-0.6,3.6-0.5
		c1,0.1,1.9,0.3,3,0.8c-0.7-3.4-0.9-6.4,0.9-9.6c2.6-4.6,0-12.7-4.7-15.9c-2.8-1.9-5.5-3.8-8.1-5.8c-4.5-3.6-4.3-5.6,0.8-8.3
		c1-0.5,2.1-1.1,3.2-1.3c1.4-0.1,2.8,0.2,4.2,0.6c3.8,1.4,5.1,5.4,8.1,7.6c0.6,2.2,0.7,4.6,2,6.7c1.7,3.4,2.1,7.1,3,10.7
		c1.6,9.6,1.4,19.3,1.4,29C171.9,269.8,171.7,272,170.6,274.1z"/>
	<path class="st23" d="M168.4,259.2c1.9,0.2,1,1.7,1,2.5c0.1,7.1,0,14.3,0,21.5c0,1.3,0,2.5,0,3.8c-0.3,0-0.7,0-1,0
		C168.4,277.7,168.4,268.4,168.4,259.2z"/>
	<path class="st9" d="M169.5,331.9c1.2,4.7,0.9,9.5,0.9,14.3c-2.6-0.3-3.9-2.3-2.6-4.2C170,338.8,169,335.3,169.5,331.9z"/>
	<path class="st51" d="M153.4,213.2c-7.3,5-7.5,5.3,0.3,10.7c5.5,3.8,9.8,7.8,10.9,14.8c0.4,2.3-0.2,5.2-0.9,5.9
		c-4.2,4-1.2,7.4,0,11.5c-2.5-1.8-5.4-1.9-8.8-2.6c1.9,2.6,5.3,3.4,5.6,6.6c-5.5,0.2-9.6-3.6-15-5.4c5.3,5.1,2,10.2,1.2,15.4
		c-0.6,3.8-0.4,7.8,0.9,11.8c1.2,3.7,0.1,7.8-1.7,11.7c-0.5-9.1-1.1-18.2-1.7-28.2c-1.7,4.4,0.4,8.4-1.6,11.8
		c-2.4-2.2-1.2-5.2-1.6-7.9c0-5.8-0.3-11.6,0.2-17.5c0.3-1.8,1.1-3.5,0.8-5.4c-0.6-4.2,1.4-3.6,2.8-2.8c-1.9-0.9-5.1-2.1-8.1-3.6
		c-2.3-1.1-3.2-3.1-4.2-5.2c-2.5,2.6-4.5,0-6.6-0.8c-5.1-1.9-9.4-5.7-14.9-6.9c-9.9-3.3-19.1-8.4-29.2-11.1c-1.4-0.6-2.9-1.2-3.2-3
		c0-0.3,0-0.5,0-0.8c0.7-2.1-1.2-2.4-2.2-3.2c-3.6-2.6-6.9-5.4-9.8-8.8c0-0.4,0-0.7,0-1.1c3.6-1.7,5.7,0.6,7.3,3.1
		c2.6,3.9,6.8,4.4,10.9,6.7c-0.1-3.9-5.3-2.6-4.3-6.9c0.4-1.8-2.1-4.1,1.9-4.4c0.2,0,0.6-1.1,0.6-1.1c-4.6-2.4,1-7.1-2.2-9.9
		c-0.3-0.2-1.9-2.9,0.8-3.4l0,0c3.9,2.6,8.6,2.7,13,3.9c3.3,0.1,6.4,0.8,9,3c2.5,3.4,6.6,4.3,10,5.9c9.8,4.8,19.6,9.3,29,14.9
		c1.6,1,3.5,0.9,5.3,1C149.8,212.1,151.8,211.5,153.4,213.2z"/>
	<path class="st26" d="M48.6,256.2c-1.3,3.7-2.6,7.3-4,11c-2.2-3.1-3-6.6-3-10.3c0.1-10.6-0.2-21.2-0.5-31.9c0-1.4,0.3-2.2,1.5-2.8
		c4.5,4.2,3.1,9.9,2.5,14.7C44.1,243.9,45.5,250.1,48.6,256.2z"/>
	<path class="st52" d="M81.8,215.2c-6.4,1.2-12.7,2.5-19.2,2.9c-2.1-4.3-0.2-8.5,0.1-12.8c5.3,2.6,10.6,5.1,16,7.7
		C79.5,213.9,81.2,213.8,81.8,215.2z"/>
	<path class="st0" d="M42.6,222.2c0,4.2-0.1,8.4,0,12.6c0.1,10.8-0.9,21.7,2,32.4c0,1.3,0,2.6,0,4c-2.2,1.8-3.1,0.6-2.9-1.6
		c0.3-5.5-1.4-10.8-1.1-16.4c0.6-9.9-0.5-19.8-0.9-29.7c-0.1-2.2,0.4-3.6,3-3.4C42.6,220.9,42.6,221.5,42.6,222.2z"/>
	<path class="st53" d="M51.5,206.3c0-2.3,0-4.6,0-7c6.4,1.2,7.8,3.1,6.6,9c-0.4,1.9-0.6,3.9-1.1,5.8c-0.3,0.9-1.1,1.8-2.2,1.7
		c-1.4-0.2-0.8-1.5-1.1-2.4c-0.5-1.1,1.5-3.8-1.9-3.2C50.4,208.9,50.5,207.6,51.5,206.3z"/>
	<path class="st54" d="M51.5,206.3c0.1,1.3,0.1,2.6,0.2,3.9c-0.6,3.7,0.7,7.5-1.1,11.1c0,2,0,4,0.1,6c0.5,2.6,0.9,5.2-0.2,7.8
		c-0.3,0.1-0.5,0.1-0.8,0.1c0-12.8,0-25.5,0-38.4C52,199.5,49.5,203.4,51.5,206.3z"/>
	<path class="st55" d="M62.6,205.3c0.6,4.3,0.2,8.5-0.1,12.8c-2.9,1.2-5.4,3.6-8.9,2.9c4.3-4.4,8.8-8.7,8.2-15.7
		c0,0,0.3-0.2,0.4-0.2C62.3,205,62.5,205.2,62.6,205.3z"/>
	<path class="st6" d="M66.6,200.2c5,2.6,8.8,6.9,13.1,10.3c1.4,1.1-0.2,1.5-1.1,1.7c-0.7-1.9-2.6-1.8-4-2.5
		C70.6,207.6,66.8,205.5,66.6,200.2z"/>
	<path class="st26" d="M34.8,228c-2.9-4.3-1.7-9.5-5.1-13.5c-0.6-0.8-0.9-3.4,0.9-3.8c2.4-0.6,1.8,1.6,2,3
		C33.4,218.4,34.1,223.2,34.8,228z"/>
	<path class="st56" d="M39.6,194.3c-0.3-0.1-0.6-0.1-0.9-0.1c0-1.9-0.1-4.2,2.6-3.5c2.7,0.8,5,2.5,5.5,5.6c0.1,0.7-0.6,1.5-1.5,1.7
		c-1,0.2-2.2,0.2-2.4-1C42.5,195,41.7,194,39.6,194.3z"/>
	<path class="st0" d="M35.6,263.2c1.1,2.9,2.2,5.8,3.3,8.6c1,2.6-0.9,2.2-2.3,2.3C35.3,270.6,35.6,266.9,35.6,263.2z"/>
	<path class="st57" d="M240.3,16.2c2.3,0.9,1.9,3.1,2.2,4.9c-3.3,4.9-8.9,5.7-13.8,6.9c-18.2,4.8-36.7,7-55.6,6.8
		c-10.1-0.1-20.3-0.1-30.1,3.1c-2.5,0.8-5.3,0.7-7.9,1c-15,1.9-29.9,3.6-45,4c-10.9,0.2-21.7,3.1-32.7,3c-3.4,0-5.9,1.8-7.3,5.1
		c-0.7,1.7-1.4,3.5-3.7,3.4c-4.2-1.5-5.1-6.3-8.5-8.7c-1.1-1.6-2.7-3.2-1.4-5.4c0.4-0.4,0.7-0.7,1.1-1.1c1.7,1.1,3.6,0.8,4.5-0.5
		c1.9-2.6,4.5-2.7,7.1-2.4c8.3,0.7,16.6-0.1,24.7-1.8c5.8-1.2,11.5,0.5,17.3,0.4c9.5-0.2,18.8-1.6,28-3.9c3.3-0.8,6.6-0.1,9.9-0.4
		c21.4-1.8,42.9-3.1,63.9-8.1c7.7-1.8,15.8-0.8,23.8-1.5c7-0.6,13.7-1.8,20.1-4.5C238,16.1,239.1,15.3,240.3,16.2z"/>
	<path class="st58" d="M240.3,16.2c-9.5,5.7-20.2,6.5-30.8,6.2c-10.9-0.3-21.3,1.6-31.6,4.6c-3.9,1.2-7.9,1.6-11.7,1.8
		c-14.1,0.8-28.1,3.7-42.4,2.8c-3.3-0.2-6.8,1.3-10.2,2c-9.9,2.2-19.8,3.6-29.9,1.7c-7.5-1.4-14.7,1.9-22.1,2.4
		c-4.1,0.3-7.8-1.1-11.7-0.6c-2.7,0.4-5.5-0.4-7.6,2.5c-1.2,1.6-3.2,1.4-4.6-0.4c0.5,0,1.1,0.1,1.5-0.1c13.1-6.7,27.5-5.4,41.4-5.6
		c12.6-0.2,24.9-1.7,37.2-3.6c8.9-1.4,17.9-1.8,26.9-2.5c16.1-1.2,32.1-3.1,48.1-5.8c3.1-0.5,6.3-0.6,9.4-0.4
		c7.4,0.3,14.5-2.1,21.9-2c5,0.1,8.9-3.2,13.6-4.1C238.5,15.2,239.6,15.2,240.3,16.2z"/>
	<path class="st59" d="M36.6,40.4c-0.3,2,1.1,3.4,2,4.9c3.5,4.9,4.2,10.7,5.6,16.4c2.1,8.3,2.6,17,7.1,24.7c1.9,3.3-0.1,6.4-3.5,6.8
		C44.4,78.6,41.1,64,37.7,49.4c-0.5-2.2-1.1-4.5-3-6.1c0-0.3,0-0.6,0.2-0.9C35.4,41.7,36,41,36.6,40.4z"/>
	<path class="st60" d="M62.6,168.3c1.3-0.2,1.6-0.8,0.6-1.9c-4.4-4.9-5.5-10.9-5.7-17.1c-0.7-1.3-0.3-2.6,0.8-2.9
		c6.1-1.5,11.4-4.8,18.4-5.1c13.5-0.6,27.1-2,40.7-2.8c14-0.9,27.2-5.8,41.1-7.1c9.8-0.9,19.6-0.8,29.2-2.6c9-1.7,18.1-1.1,27.1-2.8
		c11-2,21.2-6.5,32.1-8.5c2.3-0.4,4.4-2,5.1-4.4c1.2-3.9,2.9-3.4,5.1-0.9c3.7,7.4,4.3,15.6,5.4,23.5c2,14.4,1.8,28.9,2.8,43.4
		c0,0.7-0.2,1.3-0.4,1.9c-1.8,2.9-4.7,2.5-7.1,1.6c-10.2-3.8-20.8-3.7-31.4-4.4c-2.7-0.2-5.3,0.4-7.9,1c-9.5,2.4-18.9,5-28.9,4.5
		c-2.5-0.1-5,0.5-7.4,1c-4.4,1.1-8.7,1.6-13.3,1.2c-5.1-0.4-10.2,1.2-15.2,2.4c-9.8,2.2-19.9,1.5-29.5,4.7c-2.4,0.8-4.5-1-6.8-0.9
		c-9.3-3.4-18.6-6.7-27.9-10c2.1-3.6,4.9-6.6,8.9-8c7.5-2.6,13.6-7.6,20.5-11.1c1.2-0.6,2.1-1.7,2.9-2.7c1.3-1.5,2.8-3.1,2.1-5.3
		c-0.8-2.3-3.1-1.3-4.7-1.8c-6.4-1.8-13.2-0.1-19.7-2.3c-3-1-6.3-0.4-9.3,0.5c-4.1,1.2-8.1,1.5-12.2,0c-1.4-0.5-3-1.1-4.2,0.2
		c-1.4,1.4-0.6,3.1-0.1,4.7c0.7,2.1,1.4,4.2,3,5.7c4.4,4,5,10,8.4,14.6c0.9,1.2,1.5,3.4-1.7,2.7C76.1,176.4,69.1,172.9,62.6,168.3z"
		/>
	<path class="st61" d="M117.5,192.1c6.4,0.1,12.3-2.6,18.6-2.9c9.4-0.4,18.7-2.2,27.8-4.5c4.7-1.2,9,1.3,13.7-0.4
		c6.8-2.5,14-1.9,21.1-2.3c5.6-0.3,11.4-1.6,16.7-3.5c9-3.2,17.9-0.8,26.9-0.9c6.2,0,11.8,2.7,17.8,4c1.6,0.4,2.9,0.2,4.2-0.5
		c0.5,0.4,0.7,0.9,0.9,1.5c-0.5,6.1-5.2,4.5-8.8,4.9c-12.9,1.6-25.5,4.6-38.3,6.5c-21.9,3.3-43.6,7.3-65.5,10.8
		c-1.6,0.3-3.3,0.6-4.9,0.6c-3.1,0.4-5.9-0.2-8.6-1.7c-4.7-2.5-9.5-4.8-14.5-6.5c-2.3-0.7-4.8-1.6-5.9-4.2
		C118.1,192.8,117.8,192.5,117.5,192.1z"/>
	<path class="st62" d="M83.6,179.2c2.9-1.3,0.3-2.4-0.1-3.6c-2.7-7.1-8.3-12.6-11-19.6c-0.8-1.9-1.5-4,0-5.7c1.7-2,4-1.2,6-0.3
		c4.2,1.9,8.4,1.1,12.6-0.1c3.9-1.1,7.8-1,11.7,0.1c6,1.8,12.2,0.8,18.4,1.6c4.2,0.6,6,2.1,4.4,6.2c-1.2,2.9-3.5,5.4-6,6.5
		c-7.4,3.4-13.5,9.2-21.5,11.2c-3.8,0.9-4.7,5.5-8.4,6.5C87.6,181.2,85.2,181.1,83.6,179.2z"/>
	<path class="st63" d="M118.5,193.2c7.7,4.1,16.2,6.3,23.6,11c1.5,0.9,2.8,0.3,4.3,0.4c2.6,2,5.5,3.7,8.2,5.5c1.5,1,3.3,1.8,3,4.1
		c-1.5,0.3-2.8-0.2-4.1-0.9c-8,1.8-14-3.1-20.6-6.1c-5.9-2.6-11-6.7-17.3-8.5c-3.7-1-6.4-4.1-10.2-5.1c-1.1-0.3-3.8-0.9-1.8-3.4
		c3.7-0.3,6.6,1.8,9.8,3C115.2,193.9,116.7,194.4,118.5,193.2z"/>
	<path class="st6" d="M94.5,187.2c-4.7-0.2-9.9,1.4-13-3.9C86.7,181.7,90.3,185.5,94.5,187.2z"/>
	<path class="st64" d="M255.2,55.3c1,6,1.8,12.1,3.2,18c1.5,6.6,3.4,13,3.1,19.9c-0.1,2.5,0.8-1.6,2.2,0.1
		c-1.7,7.7,1.5,15.6,1.3,23.8c0.2-2.6,0.3-5.3,0.5-7.9c0.1,0,0.3,0,0.4,0c0.8,6,1.5,12.1,2.3,18.1c0.2,1.3,0.2,2.7,2,3
		c0.9,0.6,1.2,1.6,1.3,2.6c-0.3,2.2,1,4.9-2,6.4c-1.2,0.6,0,1.6,0.1,2.3c0.4,3.5,3,6.2,3.2,9.8c-0.1,0.5-0.3,0.9-0.6,1.3
		c-1.6,4.6-1.9,9.3-1.1,14c0.6,3.4,0.2,6.6-0.1,9.9c-0.2,1.5-1.1,2.5-2.6,2.6c-1.9,0.2-2-1.4-2.2-2.7c-0.3-2-0.2-4-0.9-5.9
		c-0.7-3.9,0.2-7.9-0.8-11.7c-1.3-11.9-1.8-23.8-4.1-35.5c-0.8-15.6-4.6-30.7-6.3-46.2c-0.9-5.8-3.4-11.4-2.8-17.5
		C251.8,57.7,252.1,55.2,255.2,55.3z"/>
	<path class="st65" d="M278.3,129.2c-1.4-0.2-2.8-0.3-4.8-0.6c2.3,2.8,6.1,2.5,7.9,5.3c1.3,1.9,4.6,3.2,2.5,6.1
		c-1.7,2.4-3.7-0.9-5.9-0.1c1.9,3.3,1.5,7.2,2.2,10.9c0.7,4.2,7.4,3,8.4,7.6c-1.3,1.9-3.1-1.1-4.4,0.5c-2.3,0.9-4.2-0.2-6.2-1.1
		c-3.4-2-4.8-4.9-5.3-8.8c-1-7.9-2-15.8-1.3-23.8c1.6,0.4,3.2,0.8,4.9,1.1C276.9,127.2,277.6,128.2,278.3,129.2z"/>
	<path class="st66" d="M255.2,55.3c-1.9,0.8-2.2,2.7-3.1,4.2c-1.4-0.2-1.8-1.3-2.1-2.4c-2-9.6-3.8-19.3-6-28.9
		c-0.1-0.7,0.1-1.3,0.5-1.8c1.7-2.4,3.1-2.9,4.1,0.6c1.8,6,4.5,11.8,4.6,18.2C253.4,48.6,256.7,51.5,255.2,55.3z"/>
	<path class="st67" d="M271.3,125.1c1,8.9,1.9,17.8,2.8,26.8c0.2,1.6,1.1,2.3,2.3,2.9c1.5,0.8,2.8,1.7,3,3.6
		c2.2,4.9,1.3,9.8,0.6,14.8c-1,1.9-2.4,1.5-2.6-0.2c-0.8-5.6-5.5-9.8-5.2-15.7c-0.4-1.7-1.3-3.4-0.3-5.2c0-0.2,0-0.5,0-0.7
		c-2.2-5.9-1.3-12.1-1.7-18.2c-0.1-0.9-0.2-1.9-0.2-2.8C271.1,128.7,268.6,126.3,271.3,125.1z"/>
	<path class="st68" d="M244.5,26.3c3,9,4.4,18.3,6.2,27.5c0.4,1.9,1,3.8,1.5,5.7c0.7,5.9,1.5,11.8,2.2,17.7c-0.2,3.1,2.8,6.5-1,9.2
		c-0.7-4,1-8.3-1.1-12.2c-2.3-3.2-1.8-7.2-2.9-10.8c-0.3-1.3-0.4-2.6-0.5-3.9c-0.1-2.8-0.9-5.5-1.5-8.2c-0.2-0.8-0.3-1.5-0.4-2.3
		c-1.1-6.9-2.7-13.8-4.7-20.5c-0.3-1.9-2.4-4.1,0.9-5.3c0.3,0,0.6,0.1,0.9,0.2C244.3,24.4,244.4,25.4,244.5,26.3z"/>
	<path class="st58" d="M248.2,49.2c0,0.7,0,1.3,0,2c1,2.6,0,5.6,2,8c0,1.3,0,2.7,0,4c1.5,5.5,0.1,11.2,0.9,16.8
		c0.4,2.5-1.4,3.9-3.6,4.8c-2.5,1-4.9,0.7-7.3-0.2c-1.7-0.6-3.6-2.1-5.2-1.5c-6.2,2.5-13,1.4-19.3,3.7c-7.9,2.8-16.2,3.5-24.4,4.5
		c-7.4,0.9-14.8,2.2-22.2,3.1c-11.5,1.4-23,2.4-34.5,3.8c-16.1,1.9-32.3,3-48.3,5.3c-7.6,1.1-15.1,3.3-22.9,3.7
		c-4.3,0.2-8.6,1.5-12.9-0.1c-0.3,0-0.6,0-1,0c0-1,0-2,0-3c18.1-3.1,36.1-6.4,54.2-8.8c12.3-1.6,24.6-3.9,37.1-3.9
		c9.2,0,18-2.8,27.1-4c8.5-1.1,17.2-1.8,25.5-4.3c7.8-2.4,16-2.8,23.6-5.6c0.5-0.2,1-0.4,1.5-0.3c4.7,1.3,8.5,0.7,11.3-4
		c1-1.6,3.4-0.6,5.1,0.1c1.2,0.5,2.3,1.3,3.5,1.9c1.7,0.8,3.4,2.8,5.4,1.5c2.1-1.4,1.8-3.8,1.5-5.9c-1.6-11-3.5-22-5.9-32.9
		c-1.1-5.1-1.9-5.2-5.8-2.1c-3.5,2.9-6.6,6-9.1,9.8c-2.8,4.3-5.5,4.1-8.5,0c-4-5.7-4.6-5.9-11-3.9c-1.5,0.5-2.9,0.9-4.4,0.5
		c-7.6-2.3-15.5-0.9-23.2-1.4C163,39.9,149,43.3,134.8,45c-11,1.4-22.2,2-33.2,2.9s-22.3,0.6-33,4.1c-2.8,0.9-5.6-0.2-8.4-0.2
		c-3.5,0-6.2,0.9-7.2,4.7c-0.5,1.9,0,5.1-2.9,5s-4.2-3-5.2-5.4c-0.4-1-0.2-2,0.5-2.8c1.9,0.9,2.8,0.1,3-1.8c0.6-5.2,4.2-7.4,8.6-7.1
		c13.2,0.8,25.9-3.6,39-3.1c6.6,0.2,13.1-1.2,19.8-1c1,0,2.2,0.3,3-0.1c5-2.7,10.6-1.7,15.9-2.7c16.8-3.2,33.6-4.3,50.7-4.2
		c14.9,0.1,29.4-3,43.8-6.5c4.5-1.1,8.7-3.6,13.1-5.4c0.7,0.5,0.9,1.2,0.8,2.1c-2.1,1.7,0.3,3.3,0,5C244,35.4,245.7,42.4,248.2,49.2
		z"/>
	<path class="st69" d="M64.5,296.4c6.1,4.6,13.1,7.9,19.6,11.9c1.8,1.1,4,1.6,4.5,4.1c-10,2.9-20.1,5.9-30.1,8.8
		c-1.4-3.2,0.9-5.1,2.1-7.2c-0.6,0.4-0.9,1.3-1.5,2.1c-0.8,1.1-1.2,3.2-3.2,1.8c-1.6-1.1-1.7-3-0.6-4.5c1.5-2,3.4-3.6,5.2-5.1
		c-1.7,0.5-3.2,4.4-5.2,1.3c-1.7-2.6,1.7-3.3,3.4-4.4c-1.3,0.4-3,1.3-3.4-0.5c-0.5-2.6,2.1-2.9,3.8-3.6c0-0.6-0.6-0.7-0.9-1
		c-1.2-1.7-4.1-2.8-3.6-5c0.6-2.6,3.6,0.4,5.1-1.2C61.8,293.7,63.4,294.7,64.5,296.4z"/>
	<path class="st70" d="M59.5,294.2c-0.8,5.1-2.8-0.9-4.3,0.7c1.8,2.2,3.5,4.5,6.7,5.1c-1.5,2.1-4.6,1.9-6.1,4.4
		c2.6,1.1,3.8-1.6,6.1-2c-0.9,2.5-2.9,3.4-4.8,4.5c-0.9,0.5-1.8,1.3-1.2,2.3c0.8,1.3,1.7,0.2,2.4-0.4c1.6-1.4,3-3.1,5.6-3.3
		c-1,2.8-4,3.6-5.1,5.8c-0.9,1.9-5.4,2.8-1.9,6.4c1.8-2.6,3.1-5.4,6.8-7.5c-2.2,4.2-4.8,7.1-5.2,10.9c-1,0.4-2,0.8-3,1.2
		c-2-2.3-1.9-5.1-1.9-7.9c-0.2-7.8-0.1-15.5-0.2-23.3C56.5,290.1,58.7,290.9,59.5,294.2z"/>
	<path class="st71" d="M59.5,294.2c-1.7-1.7-3.7-2.6-6.1-3c-0.2-0.4-0.5-0.7-0.7-1c-2-8.3-2-16.6-1.1-25c0-0.6,0-1.2,0.1-1.8
		c1.4-4.9-0.5-10.1,1-15c0.3-0.1,0.6-0.1,0.9-0.2c3.2-1.1,5.9-0.2,8.9,1.3c5.8,2.8,12.1,2.3,18.1,0.8c15.2-3.8,30.1-8.4,45.2-12.2
		c1.4-0.4,1.4-1.8,2.5-2.2c5.2,0.8,9.2,3.6,12.8,7.2c0.2,2.2-0.2,3.8-2.9,4.2c-6.9,1-13.5,3.1-20.1,5.3c-6,2-12.6,2.8-18.7,5
		c-2,0.7-4.2,1-5.8,3.1c14.9,9.1,29.2,18.7,46.5,23.7c0.5-3.4,0-6.7,0.3-9.9c0.1-1.8-0.6-4.1,2.1-4.9c0.1,2.6,0.2,5.3,0.3,8
		c0,1,0,2,0,3c0.5,9.6,0.6,19.2,0,28.7c0,3.3,0,6.6,0,10.2c-0.6-0.4-1-0.5-1-0.6c2.3-11.5-7.3-13.4-14.2-16
		c-7.8-3-15.2-6.8-23.8-8.1c-7.1-1.1-13-6.3-19.5-9.5c-4.3-2.1-8.6-4.1-12.8-6.4c-1.9-1-3.8-2.1-5.8,0.1c-1.9,2-3.5,3.5-2.5,6.9
		c1,3.5,3.7,6.9,1.5,10.9C62.9,295.6,61.2,294.9,59.5,294.2z"/>
	<path class="st51" d="M142.6,309c0-9.6,0-19.2,0-28.7c1.9,5.2,0.5,10.5,0.8,15.7c0.2,4.5,0,9-0.1,13.5
		C143.1,309.3,142.8,309.1,142.6,309z"/>
	<path class="st72" d="M51.6,265.1c1.7,8.3,0.7,16.7,1.1,25C49.3,281.9,48,273.6,51.6,265.1z"/>
	<path class="st5" d="M50.5,235c0.1-2.6,0.2-5.2,0.2-7.8c1.4,5.6,0.7,11.2,0.6,16.9C49.7,241.2,51.1,238,50.5,235z"/>
	<path class="st72" d="M52.7,248.3c-0.9,5,0.9,10.1-1,15c0-5.1,0-10.2,0-15.3C52,248.1,52.3,248.2,52.7,248.3z"/>
	<path class="st2" d="M275,361.1c0,8.3,0,16.6,0,25C273.5,377.8,273.9,369.5,275,361.1z"/>
	<path class="st73" d="M200.4,309.2c-0.4-2.1-1.2-3.9-3.8-3.6c-1.7,0.2-2.6-0.9-2.8-2.2c-0.2-1.5,1.1-2.5,2.4-2.9
		c5.4-1.4,10.6-3.2,15.4-6.2c6.9-4.3,14.8-5.1,22.5-6.2c0.5-0.1,1.1-0.2,1.4-0.5c4.6-6.3,11.8-5.6,18-6c8.7-0.5,16.9-2.8,25-5.5
		c6.7-2.2,13.8-1.7,20.4-3.9c15.7-5.2,32.1-5.2,48.3-7.3c12.1-1.6,23.6,2.8,35.4,1.5c4.4-0.5,8.2,1.3,12.4,1.8
		c1.5,0.2,2.5,0.7,3.2,2c-18.9-1-37.2,3.1-55.8,5.7c-29,4-57.3,11-85.7,17.6c-18.1,4.3-36.8,7-53.8,15.3
		C202.1,309.2,201.2,309.1,200.4,309.2z"/>
	<path class="st36" d="M351.1,314.1c0.8,0.2,2.2,0.4,2.2,0.6c0,1.3-1,2-2.2,2.2c-14.5,2.5-28.5,6.6-42.5,11.1
		c-11.3,3.6-23.2,4.8-34.7,7.4c-10.1,2.2-20.8,1.2-30.4,6c-2.5,1.3-5.8,1.5-8.7,1.4c-6.2-0.3-12.1,2.4-18.4,1.6
		c17.4-4,34.8-8.1,52.3-12c26.5-6,53-11.9,79.5-17.8C349.1,314.4,350.1,314.3,351.1,314.1z"/>
	<path class="st74" d="M387,307.1c-5.2,5.9-11.6,6.8-18.8,4.7c-1.1-0.3-2.2-0.5-3.3-0.7C372.2,309.3,379.4,307.1,387,307.1z"/>
	<path class="st2" d="M338.1,345.2c-0.1-1.2-2.8-2.1-0.6-3.6c1.5-1,2.2,0.2,2.8,1.5c0.3,0.6,1.3,0.8,1.9,1.2
		C341.1,345.5,339.6,345.3,338.1,345.2z"/>
	<path class="st75" d="M170.6,274.1c-0.4-12.3-0.8-24.5-1.3-36.8c-1.2-3.3,0.8-4.2,3.4-4.4c5.8-0.3,11.6-1.5,17.3-2.5
		c18.8-3.2,37.3-7.9,55.8-12.8c5.3-1.4,8.4-5,11.5-9c3.8-0.9,7.5-1.8,9.9,2.5c-4.7,3.9-6.7,9.1-6.9,15c-0.1,2.8-0.8,4.6-3.3,6.1
		c-3.1,1.8-5.7,5.2-8.5,6.4c-5.7,2.5-9,6.5-13,10.7c-3.9,4.1-9.7,6.9-14.8,10c-0.1,0.1-0.3,0.1-0.4,0.3c-6.9,9.6-18.8,9-28.1,13.8
		c-2.1,1.1-4.2,0.4-6.2-0.7C178.5,268.8,177,268.9,170.6,274.1z"/>
	<path class="st76" d="M384.2,260.1c0.3,0.3,0.7,0.7,1,1c-5.1,2.5-10.4,0.6-15.6,0.6c-14.8,0.1-29.6-0.1-44.3,2.5
		c-15.8,2.8-31.3,6.8-46.9,10.3c-16.3,3.7-32.9,5.8-49.6,7.4c-0.3,0-0.5-0.3-1.5-0.8c4.4-3.7,9.2-6.5,13.1-10.4
		c5.4-5.4,12.3-9.4,16.3-16.3c0.2-0.4,0.6-0.8,1-1.1c10.9-8,12.3-19.2,10.7-31.6c-0.4-3.1-0.1-6.3-0.1-9.5c0.6-0.7,1.4-0.8,2.3-0.7
		c1.2,0.3,2,1,2.5,2.1c0.6,1.2,0.4,2.6,1,3.8c5.2,9.3,5.6,20,8.4,30c1,3.7,1.2,7.2-1.3,10.4c-1,1.3-1.8,3-0.5,4.6
		c1.1,1.4,2.8,0.8,4.2,0.3c5.4-1.9,11.1-1.6,16.7-2.5c16.1-2.5,32.2-3.7,48.6-2.1c5.3,0.5,10.9-0.8,16.3-0.4c0.5,0,1.1,0.1,1.6,0.3
		c2.5,1,5.2,0.6,7.8,0.6C378.7,258.9,381.4,259.6,384.2,260.1z"/>
	<path class="st77" d="M270.3,212.2c-0.7,0-1.4,0-2,0c-0.4-0.3-0.7-0.7-1.1-1c-3-1.9-6.4-2.1-9.9-2c-0.8-0.2-1.3-0.6-1.6-1.4
		c-0.1-0.8,0-1.5,0.6-2c5-1.5,10-2.9,14.6,1C271.6,208.7,271.8,210.6,270.3,212.2z"/>
	<path class="st78" d="M253.3,86.4c1.6-2.9,0.3-6.2,1-9.2c3.2,10.4,4.2,21.2,5.8,31.9c0.7,4.7,1.6,9.4,1.1,14.2
		c-2.6-0.7-1.4-3.1-2.1-4.6c-1-2.2-1.5-4.6-2.6-6.7c-1-1.3-2.6-2-3.1-3.7c-0.6-1.7-1.6-3.3,0-5c0.4-3.2,0.3-6.4-2-9
		C252,91.6,252.7,89,253.3,86.4z"/>
	<path class="st79" d="M253.4,108.2c1.3,0.7,2.4,1.5,2.9,2.9c0.3,0.3,0.4,0.5,0.3,0.7s-0.2,0.3-0.3,0.3c-0.9-0.2-2.4-1.5-2.4-1.1
		c-0.1,9.7-8.6,7.8-13.8,9.9c-4.6,1.8-9.7,1.6-14.4,4.6c-3.4,2.1-8.9,0.6-13,2c-7.8,2.5-15.9,1.3-23.8,2.5
		c-15.5,2.3-31.5,1.6-46.6,5.6c-16.7,4.4-33.5,4.7-50.5,5.8c-7.5,0.5-14.9,2.8-22.6,1.4c-3.4-0.6-4.1,3-5.6,5.2
		c-1.5,2.1-5.1-4.2-6,1.4c-2.6-7.6-1.7-10.3,5.4-12.6c6.7-2.1,13.6-3.7,20.7-4.5c11.5-1.3,22.9-3,34.3-4.6
		c13.2-1.8,26.5-3.6,39.7-5.4c11.9-1.6,23.8-3.7,35.8-4.6c9.9-0.8,19.6-2.7,29.5-3.6c6.9-0.6,13.9-2.1,20.4-5
		C246.4,107.6,249.9,107.9,253.4,108.2z"/>
	<path class="st57" d="M50.6,107.2c1.4-0.9,2.8-0.8,4.2,0.1c2.1,1.3,4.1,1.3,5.9-0.5c2.5-2.5,5.4-0.2,8.1-0.7
		c15.6-3.1,31.3-5.7,47.3-7.1c20.7-1.7,41.4-3.5,61.9-6.9c11-1.8,22.2-3,33.1-5.2c5.6-1.2,11.5-1.8,16.7-3.5c5.2-1.6,9-2,13.9,0.3
		c5.2,2.4,8.4-0.9,7.8-6.6c-0.5-4.6,1.5-9.1,0.8-13.8c1.3,3.6,2,7.2,2,11c0,2,0,4,0,6c0,7.4-0.5,8.1-7.9,6.9
		c-10.9-1.8-21.4,0.1-32,2.4c-10,2.2-20,4-30.2,4.8c-13.1,1-26,3.3-39.1,4.4c-7.9,0.7-15.7,1.7-23.6,2.5c-11.1,1.1-22.3,2-33.4,3.6
		c-9.6,1.4-19.1,3.4-28.7,4.9C54.8,110.1,52.5,109.1,50.6,107.2z"/>
	<path class="st10" d="M45.6,53.2c-0.1,1.6,0.3,3,1.6,4s1.5,3.7,3.3,3.4c2.2-0.4,1-2.8,1.2-4.3c0.7-5,4.3-7.3,11.1-6
		c3.3,0.7,6.1,0.5,9-1.1c1-0.5,2.2-1.1,3.3-1c9.5,0.8,18.7-1.9,28.2-2.3c14.3-0.5,28.6-2.1,42.8-4.3c13.5-2.1,27.2-4.4,40.9-1.7
		c2,0.4,3.9-0.4,5.9-0.7c1.9-0.3,4-0.7,5.8,0.6c2.6,1.9,4.9,1.1,7.5-0.1c4.9-2.4,9-0.8,11.1,4.2c0.7,1.6,1.2,3.5,2.9,3.6
		c2.2,0.1,3.4-1.8,4.1-3.7c2.2-5.9,8.6-7.9,12-12.9c1.2-1.8,2.5,0,3.3,1.4c1.7,3,2,6.3,2.6,9.5c1.9,9.5,3.5,19.1,5.1,28.7
		c0.3,1.8,0.3,3.6-0.4,5.4c-1.3,2.9-2.7,4.6-5.9,2c-1.7-1.3-3.6-2.4-5.5-3.4c-2.9-1.6-5.5-2.4-6.6,2.2c-0.7,3-3,4-5.8,2.4
		s-5.3-1.4-7.9,0.5c-0.6,0.5-1.4,1.1-2.2,1.1c-12,0.5-23,5.8-34.7,6.8c-8.2,0.6-16.1,2.5-24.2,3.4c-16.3,1.7-32.7,3.2-49,5.1
		c-8.5,1-16.9,2.6-25.2,4.4c-4.2,0.9-8.4,1.7-12.8,1.5c-1.6-0.1-3.4-0.4-4.8,0.9c-3.9,3.5-8.3,2.4-12.6,1.1
		c-0.6-3.7-1.3-7.4-1.9-11.1c3.8-2.1,4.1-4.9,1.2-7.8c-0.9-0.9-1.2-1.8-1.5-2.9c-3-12.4-5.9-24.8-8.9-37.1
		C42,46.9,43,50.8,45.6,53.2z"/>
	<path class="st80" d="M255.3,208.2c0.2-0.2,0.4-0.3,0.6-0.2c0.5,0.4,0.9,0.8,1.4,1.2c-1.3,4.9-4.7,7.2-9.4,9.2
		c-10.8,4.5-22.6,4.8-33.6,8c-7.3,2.2-14.5,4.4-22,5.3c-6.4,0.8-12.7,1.8-19.1,2.4c-2.3,0.2-3.9,0.5-3.9,3.2
		c-1-3.4-1.9-6.8-2.9-10.2c-1.1-2.7,1-2.2,2.4-2.2c9.9,0.3,19.3-2.4,28.8-4.7c8.2-2,16.5-3.7,24.8-5.2
		C233.3,213,244.5,211.4,255.3,208.2z"/>
	<path class="st81" d="M255.3,208.2c-7,3.6-14.4,6-22.3,5.9c-3.6,0-6.7,1.7-10.1,2.3c-5.3,1.1-10.6,1.6-15.9,3.1
		c-11.2,3.1-22.7,4.9-34.1,7.3c-2.2,0.4-4.5-2.3-6.5,0.2c-1.2-1.6-2.2-3.4-1.3-5.5c22-4,43.9-8.1,65.9-12.1
		C239,208.1,247.1,207.7,255.3,208.2z"/>
	<path class="st82" d="M142.3,269.2c-2,5.6,0,11.4-1.1,17.1c-13.8-4.6-26.6-11.1-38.7-18.8c-3.1-1.9-5.9-4.3-9.5-5.3
		c-1-0.3-2-0.6-2-1.8c0-1.2,1.2-1.6,2-1.9c6.9-2.5,13.6-5.5,21.2-6.5c6.3-0.8,11.9-4.6,18.3-5.4c1.9-0.2,3.5-1.5,5.7-0.7
		c2.9,1,0.5-2.4,2-2.7c2.6,1.8,3,4.2,2.2,7C142.4,256.5,142.3,262.9,142.3,269.2z"/>
	<path class="st83" d="M142.5,250.2c-0.6-2.4-0.6-4.9-2.2-7c-3.3-3.4-7.4-5.4-11.7-7c-2.2-0.3-4.3-1.2-6.2-2.2
		c-1.8-1.2-4.2-1.6-5.5-3.6c-1.1-2.2-3.8-2.3-5.2-4.1c5.9,0.9,10.2,5.1,15.6,7.1c1.5,0.5,2.6,2,4.5,1.6c0.7-1.6-1.8-1.8-0.7-4.5
		c3.9,8.7,11.8,11.3,19.4,14.9c-3.3,2.1-4.7-1.6-7.2-1.4C142.5,245.9,144.7,248.3,142.5,250.2z"/>
	<path class="st84" d="M122.6,233.1c2.1,0.7,4.2,1.6,6,3.1c-1.2,1.5,1.9,1.3,1.2,2.4c-15.1,3.2-29.7,7.9-44.4,11.9
		c-7.5,2-14.9,2.9-22.4,0.8c-3.2-0.9-5.8-3.6-9.5-3.1c1.9-2,4.5-2.4,7-2.9c8.3,1.6,16.1-0.6,23.9-2.8
		C97.1,238.9,109.6,235,122.6,233.1z"/>
	<path class="st85" d="M122.6,233.1c-3.1,3.5-7.8,2.4-11.6,3.6c-12.6,4-25.6,7.2-38.5,10.3c-4,1-8.3,0.8-12-1.8
		c13.9-5.7,28.6-8.6,43.2-11.9c4.3-1,8.7-2,13-3C118.9,230.7,120.9,231.5,122.6,233.1z"/>
	<path class="st86" d="M256.2,112.2c0-0.4,0-0.7,0.1-1.1c3.1,3.5,3.1,8.2,5,12.1c2,11.9,3.1,23.9,4,35.9c0.4,7.5,1.4,14.9,0.7,22.5
		c-0.3,0.6-0.9,0.9-1.6,0.7c0-0.4-0.1-0.8-0.1-1.1c-1.5-15.1-1-30.3-3-45.4C260.1,127.8,259,119.8,256.2,112.2z"/>
	<path class="st87" d="M264.4,182.3c0.3,0,0.5-0.1,0.8-0.2c3.9,0.6,6.8,2.1,6.6,6.8c0.1,4,0.1,7.9,0,11.9c0,2,0.1,4-1.7,5.5
		c-4.6-1-9.2-0.2-13.8-0.1c0-6.7,0-13.4,0-20C259.2,185.3,264,188.5,264.4,182.3z"/>
	<path class="st88" d="M270.3,188.2c0.1-2.4-0.2-4.4-3.3-4.1c-1.2,0.1-1.6-0.9-1.8-2c0-7.7,0.1-15.3,0.1-23c1.8,3.8,0.6,8,1.2,12
		c0.6,2.1,0.2,4.3,0.3,6.4c0.1,1.1-0.1,2.4,1.7,2.4c1.2,0,2.2,0,2.5-1.6c0.5-2.4,1.4-4.9,0.8-7.3c-1.2-4.8,0.1-9.3,1.5-13.8
		c1.2,1.1,1.5,2.6,1.4,4c-0.2,2.1-1.2,4.4,2.5,4.4c1.5,0,1,1.8,1.1,2.9c0.3,1.9-0.7,4,1,5.7c0,2.7-0.1,5.4-0.1,8
		c-0.9,3.2-2.5,5.4-6.3,4.4C271.1,186.1,272,189.1,270.3,188.2z"/>
	<path class="st89" d="M273.2,157.2c-0.7,3.5,0.9,7-1.1,10.7c-0.7,1.3,1.4,4.5,1.2,7.3c-0.3,4.8-1.4,6.4-5.4,5.9
		c-1.4-0.2-1.9,0.1-1.8-1.5c0.2-2.8,0.1-5.6,0.2-8.5c1.2,1.4,0.5,3.2,0.9,4.8c0.2,0.9-0.9,2.7,1.2,2.5c1.2-0.1,1.1-1.1,1.2-2.2
		c0.6-7.3-0.5-14.5-0.5-21.8c0-2.8,1.1-2.5,2.8-2.2C272.4,153.8,272.8,155.5,273.2,157.2z"/>
	<path class="st89" d="M270.3,133.1c1,6,1.8,12.1,1.7,18.2c-2.1-4.4-4.3-8.9-4.6-13.9C272.4,138.6,269.2,134.4,270.3,133.1z"/>
	<path class="st57" d="M248.2,49.2c-4-6.4-6.1-13.3-5-21C246,35,247.1,42.1,248.2,49.2z"/>
	<path class="st57" d="M250.2,59.2c-3.4-2-1.5-5.3-2-8C249.7,53.7,249.8,56.5,250.2,59.2z"/>
	<path class="st90" d="M384.2,260.1c-2.7,1.4-5.4-0.1-8.1,0c-2.6-1-5.3-0.7-8-1c-0.3,0-0.7,0-1,0c-8.6-1.5-17.5-0.7-26.1-2.6
		c-7.9-1.7-16.3-2-24-3.6c-12.5-2.7-25.1-6.9-32.2-19.6c-2.8-5.1-7.1-9.2-9.6-14.6c-0.7-1.5-2-2.7-1.2-4.6c1.4-1.1,2.5-0.5,3.4,0.6
		c4.9,4.7,10.8,7.9,16.8,11.1c15.4,8.2,31.9,13.9,48,20.6c10.8,4.5,22.3,7.4,33.9,9.6C378.9,257.1,381.7,258.3,384.2,260.1z"/>
	<path class="st91" d="M376,256.2c-1.5,0.8-3,1.1-4.8,0.6c-9.8-2.9-20.1-4.7-29.4-8.9c-11.2-5-22.8-8.8-33.9-14.1
		c-9.8-4.7-19.9-8.8-28.6-15.5c-1.1-0.9-2.1-1.6-2.2-3.1c0.3-0.4,0.7-0.4,1,0c16.7,7.7,34,13.8,50.9,20.9c14.3,6,28.7,12,43.1,18
		C373.6,254.6,374.8,255.5,376,256.2z"/>
	<path class="st92" d="M278.2,215.2c-0.4,0-0.7,0-1,0c-1-0.3-2-0.7-3-1c-1.1,0.6-1.4-0.5-2-1c-0.6-0.3-1.3-0.7-1.9-1
		c-0.1-2-0.1-4-0.2-5.9c0.1-6,0.1-12,0.2-18c1-1.2,0.9-3.6,4-2.4c1.9,0.7,3.5-1.9,4.8-3.6C278.8,193.2,278.5,204.2,278.2,215.2z"/>
	<path class="st93" d="M272.2,213.2c0.7,0.3,1.3,0.7,2,1c4.1,8.9,10.3,16.4,15.9,24.3c3.6,5.1,9.6,7,14.9,9.4
		c13.6,6.1,28.8,4.6,42.9,8.3c6.3,1.7,13.1,0.1,19.2,2.9c-14.2,0.9-28.3-0.8-42.5,0.1c-10,0.6-20,2-30,3.4
		c-3.6,0.5-7.5-0.4-10.9,2.3c-1.1,0.9-3.7,0.8-4.9-1.1c-1-1.6-1.3-4.1-0.1-5.2c6.7-6.1,0.7-12.3,0.6-18.4
		C279.3,230.6,273,222.6,272.2,213.2z"/>
	<path class="st93" d="M368.1,259.2c2.9-1.6,5.5-0.3,8,1C373.4,259.8,370.5,261.2,368.1,259.2z"/>
</g>
</svg>
