<?xml version="1.0" encoding="utf-8"?>
<!-- Generator: Adobe Illustrator 24.1.0, SVG Export Plug-In . SVG Version: 6.00 Build 0)  -->
<svg version="1.1" id="Layer_1" xmlns="http://www.w3.org/2000/svg" xmlns:xlink="http://www.w3.org/1999/xlink" x="0px" y="0px"
	 viewBox="0 0 151.7 197.6" style="enable-background:new 0 0 151.7 197.6;" xml:space="preserve">
<style type="text/css">
	.st0{fill:#89BAC6;}
	.st1{fill:#FFFFFF;}
	.st2{fill:#FF6666;}
</style>
<g id="Layer_1_1_">
	<g>
		<g id="XMLID_1_">
			<g>
				<path class="st0" d="M64,92.9c3.9-2.3,7.5,4.3,11.8,6.8c-4.2,2.4-8.2,4.8-12.3,7.1c-4-2.3-7.9-4.6-11.9-7
					C55.7,97.6,59.3,91.8,64,92.9z"/>
				<path class="st0" d="M124.9,154.5c-0.9,2.2-2.2,4.3-3.8,6.3c-1,1.2-2,2.3-3.1,3.4c1.9-1.9,3.6-4,5.1-6.2
					C123.7,156.9,124.4,155.7,124.9,154.5z"/>
				<path class="st0" d="M122.5,110.4c0.2,2.3,0.2,1.3,0.3,2.9c-6.9-4-16.4-9.4-23.2-13.4c5.4-3.2,10.9-6.2,16.3-9.3
					c1.1-0.6,2.2-1.2,3.7-2C120.7,96.3,121.7,103.4,122.5,110.4z"/>
				<path class="st1" d="M112.9,16.4c6.1,4.7,10,11.8,11,19.4c-1.6-9.2-6.4-16.5-15.1-21.1C93,6.1,74.4,5,57.1,8.9
					c-12.9,3-27.7,10.8-29.5,25.2c-0.2,1.1-0.3,2.2-0.4,3.3c0.2-1.9,0.1-0.6,0.3-3C32,1.3,91.6-1.1,112.9,16.4z"/>
				<path class="st0" d="M117.7,164.4c-2.3,2.2-4.9,4.2-7.9,5.7C112.7,168.5,115.3,166.7,117.7,164.4z"/>
				<path class="st0" d="M109.6,170.2c0.1,0,0.2-0.1,0.2-0.1c-2.1,1.2-4.3,2.1-6.7,2.9c-1.4,0.5-2.9,0.9-4.3,1.4
					C102.5,173.3,106.2,171.9,109.6,170.2z"/>
				<path class="st2" d="M87.8,106.7c-4.1,2.3-8.2,4.7-12.3,7c-4-2.3-8-4.7-12-7c4.1-2.3,8.2-4.7,12.3-7
					C79.8,102,83.8,104.3,87.8,106.7z"/>
				<path class="st0" d="M77.3,177.2c2-0.1,4-0.1,5.9-0.2C81.2,177.1,79.3,177.2,77.3,177.2z"/>
				<path class="st1" d="M64,92.9c-4.1,2.3-8.2,4.6-12.4,6.8C44.9,95.8,39,92,32.1,88.1c-0.2,1.1-1.9,13.3-2.6,18.7
					c-0.2,1.9-0.5,3.9-0.8,5.8c-4.2,2.4-8.3,4.7-12.5,7c0,0,0.5-4.7,1.4-12c0.3-2.5,0.5-4,0.6-5c0-0.2,0-0.4,0.1-0.6
					c0.1-1.1,0.3-2.1,0.4-3.2c0-0.3,0.1-0.6,0.1-0.9c0.2-1.6,0.5-3,0.5-3.5c0.8-5.1,2.1-15.5,2.6-19.6c0-0.2,0-0.3,0.1-0.5
					c0.2-1.2,0.3-2.5,0.5-3.7l0,0c0.1-0.3,0.1-1.2,0.2-1.3c0-0.1,0-0.3,0.1-0.4c1.1,0.6,2.1,1.1,2.9,1.6
					C38.6,77.9,51.2,85.5,64,92.9z"/>
				<path class="st0" d="M50.2,174.2c2.6,0.8,5.3,1.4,7.9,1.9c-2.6-0.4-5.1-0.9-7.5-1.7C50.5,174.3,50.4,174.2,50.2,174.2z"/>
				<path class="st0" d="M51.6,99.8c-7.7,4.3-15.4,8.7-23,13c0.2-1.9,0.5-3.9,0.8-5.8c0.7-5.3,2.5-17.7,2.7-18.8
					C35,89.9,46.9,96.8,51.6,99.8z"/>
				<path class="st0" d="M42.4,171.3c-0.5-0.2-0.9-0.4-1.3-0.7"/>
				<path class="st0" d="M16.2,119.7c4.1-2.3,8.2-4.6,12.4-6.9c-0.6,5-1.2,9.9-1.8,14.9c-3.1,1.8-6.3,3.6-9.4,5.4
					c-0.6,0.4-2.5,1.4-3.1,2.6C14.2,136.6,16.1,120.7,16.2,119.7z"/>
				<path class="st0" d="M25.4,50.1c0.5-4.1,1.1-8.3,1.7-12.4C26.5,41.9,26,46,25.4,50.1z"/>
				<path class="st0" d="M24.7,153c0.6,1.8,1.4,3.4,2.1,4.8c-1.3-2.1-2.1-4.1-2.4-6.5C24.6,151.7,24.5,152.4,24.7,153z"/>
				<path class="st0" d="M24.3,145.8c-0.1,2-0.1,3.7,0.1,5.3C24.1,149.4,24.2,147.6,24.3,145.8z"/>
				<path class="st2" d="M13.9,139.8c0.3-2.8,0.3-3,0.4-4.1c0.7-1.3,2.5-2.2,3.1-2.6c3.1-1.8,6.3-3.6,9.4-5.4
					c-0.5,3.9-2,15.7-2.3,17.7c-0.2,1.3-0.2,3.9,0,5.7l0,0c0.3,2.4,2.5,6.6,2.5,6.7c3.1,5.7,9.4,10.6,15.4,13.5
					c2.6,1.3,5.3,2.2,8.2,3c2.4,0.8,7,1.6,7.8,1.8c6.2,1.2,20.7,1.1,24.9,0.9c5.3-0.5,10.4-1.1,15.5-2.6c3.8-1.1,7.5-2.5,11-4.3
					c3.1-1.5,5.8-3.5,8.1-5.9c1.1-1,2.1-2.2,3.1-3.4c1.6-2,2.9-4.1,3.8-6.3v-0.1c1.3-3,1.9-6.2,1.6-9.5c-0.2-3.5-1.4-14.6-1.7-16.7
					c2.9,1.7,5.5,3.2,8.7,5.1c1.6,0.9,3.3,2.1,3.5,3.8c0.3,2.9,1.2,10.2,1.2,10.9c0.1,15.2-11.3,27.1-24.8,32.5
					c-22.3,9.1-56.9,9.1-78.7-1.4c-3.9-2-7.5-4.4-10.7-7.3l-0.1-0.1c-1.1-1-2.1-2-3.1-3.1c-0.1-0.2-0.3-0.3-0.4-0.5
					c-0.7-1-2.5-3.5-4.1-7c-0.9-2.1-2.3-6.9-2.5-8.8c-0.3-1.4-0.3-6-0.2-8.1"/>
				<path class="st1" d="M135,119.8c-1-0.5-9.1-4.8-12.1-6.5c-1.1-8.3-2.2-16-3.2-24.7c-7,3.6-13.3,7.5-20,11.3
					c-4-2.3-8.1-4.5-12.1-6.8c9.2-5.2,18.5-10.6,27.7-15.9c2.5-1.4,2.9-2.2,2.5-4.9c-0.5-3.1-0.6-5.9-1.4-9.2
					C102.9,70.7,89.2,78.4,75.7,86c-16.3-9.4-32.6-18.8-48.9-28.1c-1.5-0.9-2.3-1.9-2.1-3.5c0.8-5.6,1.5-11,2.3-16.7
					c0-0.2,0-0.3,0.1-0.5c0.1-1.1,0.3-2.2,0.4-3.3C32.1,6.1,77.8,2.4,99.4,10.3c12.8,4.4,22.4,11.6,24.5,25.3v0.1
					c1.6,13,3.3,25.1,4.9,37.5c0.1,0.5,0.1,1,0.2,1.5C130.3,85.6,133.9,112.8,135,119.8z"/>
				<path class="st2" d="M87.6,93.1c-3.9,2.2-7.9,4.4-11.8,6.6c-3.9-2.3-7.9-4.5-11.8-6.8c3.9-2.2,7.8-4.6,11.8-6.9
					C79.7,88.5,83.7,90.9,87.6,93.1z"/>
				<path class="st0" d="M99.7,99.9c-2,1.2-4.5,2.6-6.5,3.7s-3.5,2-5.4,3.1c-2.8-1.7-10-5.8-12-7c2-1.1,3.9-2.2,5.9-3.4
					s3.9-2.2,5.9-3.2c2,1.1,4.1,2.2,6.1,3.3C95.7,97.6,97.7,98.8,99.7,99.9z"/>
				<path class="st0" d="M135.4,123.4c0.5,4.6,1,9.1,1.5,13.7c-0.3-1.7-1.7-2.8-3.3-3.7c-3.1-1.8-5.9-3.4-8.9-5.2
					c-0.6-5-1.2-9.9-1.8-14.9c3,1.7,11.1,6,12.1,6.5C135,119.7,135.3,122.1,135.4,123.4z"/>
			</g>
		</g>
	</g>
</g>
</svg>
