<?xml version="1.0" encoding="utf-8"?>
<!-- Generator: Adobe Illustrator 24.1.0, SVG Export Plug-In . SVG Version: 6.00 Build 0)  -->
<svg version="1.1" id="Layer_1" xmlns="http://www.w3.org/2000/svg" xmlns:xlink="http://www.w3.org/1999/xlink" x="0px" y="0px"
	 viewBox="0 0 162 232" style="enable-background:new 0 0 162 232;" xml:space="preserve">
<style type="text/css">
	.st0{fill:none;stroke:#000000;stroke-width:2;stroke-miterlimit:10;}
	.st1{fill:#89BAC6;}
	.st2{fill:#42A4D8;}
	.st3{fill:#FFFFFF;}
	.st4{fill:#FF6666;}
</style>
<line class="st0" x1="57.7" y1="111.5" x2="75.3" y2="101.2"/>
<line class="st0" x1="98.7" y1="112.5" x2="84.8" y2="103.6"/>
<line class="st0" x1="62.1" y1="108.9" x2="78.9" y2="99.1"/>
<line class="st0" x1="93.4" y1="109.2" x2="77.8" y2="99.1"/>
<g id="Layer_1_1_">
	<g>
		<g id="XMLID_1_">
			<g>
				<path class="st1" d="M19.4,193.1c-1.1,1.8-2.2,3.5-3.3,5.2c-0.8-0.5-1.6-1-2.4-1.5c2.8-4.3,5.6-8.5,8.4-12.8
					c1.8,1.2,3.6,2.3,5.4,3.3c2.8,1.6,4,4.1,2.8,6.6c-1.4,2.7-4.4,3-7.4,1.2C21.8,194.6,20.6,193.9,19.4,193.1z M26.5,188.9
					c-1.1-0.6-2.1-1.3-3.2-1.9c-0.9,1.5-1.9,3-2.8,4.5c1.1,0.7,2.2,1.3,3.3,2c2,1.1,3.5,0.9,4.3-0.7
					C28.9,191.3,28.1,189.9,26.5,188.9z"/>
				<path class="st1" d="M40.1,210c-3.7-1.3-6.3-4-4.4-8.4c1.2-2.8,2.4-5.7,3.5-8.5c0.8,0.3,1.5,0.6,2.2,0.9
					c-1.1,2.9-2.2,5.7-3.3,8.6c-1.3,3.2,0.5,4.9,2.6,5.7c2.5,0.9,4.5,0.4,5.5-2.9c0.9-2.9,1.8-5.9,2.7-8.8c0.8,0.2,1.5,0.5,2.3,0.7
					c-0.8,2.9-1.6,5.8-2.5,8.7C47.5,210.9,43.8,211.3,40.1,210z"/>
				<path class="st1" d="M59.6,212.9c3,0.5,6.1,0.9,9.2,1.2c-0.2,0.6-0.3,1.2-0.5,1.9c-3.9-0.4-7.8-0.9-11.6-1.7c1-5,2-10,2.9-15
					c0.8,0.1,1.5,0.3,2.3,0.4C61.1,204.1,60.4,208.5,59.6,212.9z"/>
				<path class="st1" d="M75,201.1c4.2,0.2,8.3,0.1,12.5-0.2c0,0.6,0.1,1.3,0.2,1.9c-1.7,0.1-3.4,0.2-5.1,0.3
					c0.1,4.4,0.2,8.9,0.4,13.4c-0.9,0-1.8,0-2.7,0c0-4.4,0-8.9-0.1-13.4c-1.7,0-3.4,0-5.1-0.1C75,202.4,75,201.8,75,201.1z"/>
				<path class="st1" d="M99.1,214.9c-0.9,0.1-1.8,0.3-2.7,0.4c-0.7-5-1.4-10.1-2.1-15.1c0.8-0.1,1.5-0.2,2.3-0.4
					C97.4,204.9,98.3,209.9,99.1,214.9z"/>
				<path class="st1" d="M119.9,209.5c-3.4-2.2-10.9-8.3-12.2-9.7c0,0,0,0,0,0c0.5,1.6,1.3,4.2,2,6.8c0.5,1.9,1,3.8,1.5,5.6
					c-0.8,0.2-1.7,0.4-2.5,0.7c-1.2-4.9-2.5-9.9-3.7-14.8c1-0.2,2-0.5,3-0.8c3,2.9,10.2,8.2,11.8,9.4c0,0,0,0,0,0
					c-0.8-1.7-1.7-4-2.5-6.4c-0.7-1.8-1.3-3.6-1.9-5.3c0.7-0.2,1.4-0.5,2.1-0.8c1.9,4.8,3.7,9.5,5.6,14.2
					C122,208.8,121,209.2,119.9,209.5z"/>
				<path class="st1" d="M133.1,203.9c-0.8,0.4-1.6,0.8-2.5,1.2c-0.2-5.5-0.7-11-1.4-16.4c0.9-0.5,1.8-1,2.6-1.5
					c4.3,3.4,8.8,6.6,13.5,9.6c-0.8,0.6-1.7,1.1-2.5,1.6c-1.3-0.9-2.6-1.8-3.9-2.7c-2,1.2-4.1,2.4-6.2,3.5
					C132.9,200.8,133,202.4,133.1,203.9z M137.4,194.4c-3.3-2.5-5.1-4-6-4.8c0,0,0,0,0,0c0.3,1.4,0.7,4.1,1.1,7.6
					C134.1,196.3,135.7,195.4,137.4,194.4z"/>
				<path class="st2" d="M137.2,123.8c0.1,0.7,0.3,1.6,0.3,2.4C137.4,125.4,137.3,124.6,137.2,123.8z"/>
				<path class="st2" d="M137.1,123.3c0,0.2,0,0.3,0.1,0.6C137.2,123.6,137.1,123.5,137.1,123.3z"/>
				<path class="st1" d="M134.2,101.2c0.9,7.1,1.9,14.3,2.8,21.4C136.1,115.6,135.1,108.3,134.2,101.2z"/>
				<path class="st2" d="M131.7,81.7c0.5,4,1.1,8.1,1.6,12.3C132.7,89.9,132.2,85.8,131.7,81.7z"/>
				<path class="st1" d="M131.5,80.2c0.1,0.5,0.1,1,0.2,1.5C131.6,81.2,131.5,80.7,131.5,80.2z"/>
				<path class="st1" d="M130.5,72.8c0.3,2.5,0.6,4.9,1,7.4c-1.2-9.1-2.4-17.9-3.6-27.1C128.7,59.7,129.6,66.2,130.5,72.8z"/>
				<path class="st1" d="M127.7,51.7c0.1,0.5,0.1,0.9,0.2,1.4C127.8,52.6,127.7,52.2,127.7,51.7z"/>
				<path class="st1" d="M136.1,140c-2.9-1.7-5.9-3.4-8.9-5.2c-0.6-4.9-1.2-9.9-1.8-14.9c3,1.7,5.9,3.4,8.9,5.1
					c0.6,0.4,2.2,1,3.2,1.5c0-0.1,0-0.2,0-0.3c0.2,1.3,0.3,2.6,0.5,3.8c0.5,4.6,1,9.1,1.5,13.7C139.1,142,137.7,140.9,136.1,140z"/>
				<path class="st1" d="M127.7,51.6c-0.4-3-0.8-6-1.2-9c0.1,0.6,0.2,1.3,0.3,2C127.1,47,127.4,49.3,127.7,51.6z"/>
				<path class="st1" d="M127.3,161.6c-0.9,2.1-2.1,4.1-3.6,6c-1,1.2-2,2.3-3.1,3.3c1.9-1.9,3.5-4,5-6.2
					C126.2,163.7,126.8,162.6,127.3,161.6z"/>
				<path class="st1" d="M120.5,170.9c-2.3,2.3-5,4.3-8,5.8C115.4,175.1,118.1,173.2,120.5,170.9z"/>
				<path class="st1" d="M112.4,176.8c-0.1,0-0.1,0.1-0.2,0.1C112.2,176.9,112.3,176.8,112.4,176.8z"/>
				<path class="st1" d="M105.7,179.7c-1.4,0.5-2.8,0.9-4.2,1.3c3.7-1.1,7.2-2.4,10.6-4.1h0C110.1,178,108,178.9,105.7,179.7z"/>
				<path class="st1" d="M102.2,106.6c5.5-3.1,11-6.3,16.4-9.4c1-0.6,2.1-1.1,3.6-1.9c0.9,6.9,1.8,13.2,2.5,19.6
					c0.2,1.7,0.4,3.4,0.6,5.1C117.7,115.5,110,111,102.2,106.6L102.2,106.6z"/>
				<path class="st1" d="M101.2,181.1c-0.1,0.1-0.3,0.1-0.5,0.1C100.9,181.2,101.1,181.2,101.2,181.1z"/>
				<path class="st3" d="M90.4,113.3c4-2.3,7.9-4.5,11.8-6.8c7.7,4.5,15.5,8.9,23.2,13.4c0,0,0,0,0,0c0.6,5,1.2,9.9,1.8,14.9
					C115,127.7,102.7,120.5,90.4,113.3z"/>
				<path class="st1" d="M100.8,181.3c-4.8,1.4-9.8,2.2-14.8,2.4C90.9,183.3,95.9,182.6,100.8,181.3z"/>
				<path class="st1" d="M85.8,183.7c-2,0.1-3.9,0.2-5.9,0.2C81.8,183.9,83.8,183.8,85.8,183.7z"/>
				<path class="st1" d="M78.4,106.4c3.9-2.2,7.9-4.5,11.8-6.7c4,2.3,8,4.6,12,7v0c-3.9,2.2-7.9,4.5-11.8,6.8
					C86.4,111,82.4,108.7,78.4,106.4z"/>
				<path class="st4" d="M78.1,120.4c-4-2.3-8-4.7-12-7c4.1-2.3,8.2-4.7,12.2-7h0c4,2.3,8,4.7,12,7C86.3,115.7,82.2,118,78.1,120.4
					C78.1,120.4,78.1,120.3,78.1,120.4z"/>
				<path class="st4" d="M66.5,99.4c3.9-2.2,7.8-4.4,11.8-6.7c0,0,0,0,0,0c3.9,2.3,7.9,4.6,11.9,6.8c-3.9,2.2-7.9,4.5-11.8,6.7h0
					C74.4,104,70.5,101.7,66.5,99.4z"/>
				<path class="st1" d="M79.8,183.9c-5.9,0.2-11.8,0-17.6-0.9c-0.4-0.1-0.8-0.1-1.2-0.2c4.4,0.7,9,0.9,13.4,1
					C76.2,183.9,78,183.9,79.8,183.9z"/>
				<path class="st1" d="M66.1,113.3c-4-2.3-7.9-4.6-11.9-7c4.1-2.3,8.2-4.6,12.3-6.9c3.9,2.3,7.9,4.6,11.8,6.9
					C74.3,108.7,70.2,111,66.1,113.3C66.1,113.3,66.1,113.4,66.1,113.3z"/>
				<path class="st3" d="M31.2,119.4c7.6-4.3,15.3-8.7,23-13c0,0,0,0,0,0c4,2.3,7.9,4.7,11.9,7c-11.9,6.8-23.8,13.6-35.7,20.3
					c-0.4,0.2-0.8,0.5-1.2,0.7C29.9,129.4,30.5,124.4,31.2,119.4L31.2,119.4z"/>
				<path class="st1" d="M60.6,182.7c-2.5-0.4-5-0.9-7.4-1.7c-0.1,0-0.2-0.1-0.4-0.1C55.4,181.7,58,182.3,60.6,182.7z"/>
				<path class="st1" d="M44,177.5c2.8,1.3,5.7,2.4,8.7,3.4c-2.6-0.8-5.2-1.7-7.6-2.9C44.6,177.8,44.3,177.7,44,177.5z"/>
				<path class="st1" d="M44,177.5c0,0-0.1-0.1-0.2-0.1C43.9,177.4,43.9,177.4,44,177.5z"/>
				<path class="st1" d="M54.2,106.4c-7.7,4.3-15.4,8.7-23,13c0.2-1.9,0.5-3.9,0.8-5.8c0.7-5.3,1.4-10.6,2.1-16
					c0.1-0.8,0.3-1.6,0.5-2.7c2.5,1.5,4.7,2.7,6.9,4C45.7,101.4,49.9,103.9,54.2,106.4z"/>
				<path class="st1" d="M36.2,172.4c-3-2.7-5.1-5-6.7-7.9c0.4,0.7,0.9,1.4,1.5,2.2c3.4,4.5,7.6,8.1,12.6,10.6
					C40.9,176,38.5,174.4,36.2,172.4z"/>
				<path class="st3" d="M39,25.3c-4.9,4.1-8,9.1-8.8,15.4c-0.1,1.1-0.3,2.2-0.4,3.3c0.2-2,0.1-0.6,0.3-3.1
					c0.8-7.9,5.1-13.7,11.3-18.4c6-4.6,12.9-7.3,20.2-8.7c13.7-2.7,27.3-2.4,40.7,2.1c4.8,1.7,9.3,3.9,13.3,7.1
					c6.1,4.7,10,11.8,11,19.4c-1.6-9.2-6.4-16.5-15.1-21.1c-3-1.6-6.2-3.1-9.4-4.2c-13.9-4.6-28.1-4.8-42.3-1.7
					C52,17.3,45,20.3,39,25.3z"/>
				<path class="st1" d="M29.6,44.4c-0.5,4.1-1.1,8.3-1.7,12.4C28.5,52.7,29.1,48.6,29.6,44.4z"/>
				<path class="st1" d="M27,157.8c0.1,0.6,0.3,1.1,0.5,1.7c0.6,1.8,1.2,3.4,1.9,4.8C28.1,162.2,27.4,160.2,27,157.8z"/>
				<path class="st3" d="M29.4,64.6c-1.5-0.9-2.3-1.9-2.1-3.5c0.2-1.4,0.4-2.9,0.6-4.3c0.6-4.1,1.1-8.2,1.7-12.4
					c0-0.2,0-0.3,0.1-0.5c0.1-1.1,0.3-2.2,0.4-3.3c0.9-6.2,4-11.3,8.8-15.4c6-5,13-8.1,20.7-9.8c14.3-3.2,28.4-3,42.3,1.7
					c3.2,1.1,6.4,2.6,9.4,4.2c8.8,4.6,13.5,11.9,15.1,21.1c0,0,0,0.1,0,0.1c0.4,3,0.8,6,1.2,9c0,0,0,0,0,0c0,0.5,0.1,0.9,0.2,1.4
					c1.2,9.2,2.4,18,3.6,27.1c0.1,0.5,0.1,1,0.2,1.5c0.5,4.1,1.1,8.2,1.6,12.3c0.3,2.4,0.6,4.8,0.9,7.2c0.9,7.1,1.9,14.4,2.8,21.4
					c0,0.2,0.1,0.5,0.1,0.7c0,0.2,0.1,0.4,0.1,0.6c0.1,0.8,0.2,1.6,0.3,2.4c0,0.1,0,0.2,0,0.3c-0.9-0.5-2.6-1.1-3.2-1.5
					c-3-1.7-5.9-3.4-8.9-5.1c0,0,0,0,0,0c-0.2-1.7-0.4-3.4-0.6-5.1c-0.8-6.4-1.7-12.7-2.5-19.6c-1.5,0.8-2.6,1.3-3.6,1.9
					c-5.5,3.1-11,6.3-16.4,9.4c-4-2.3-8-4.6-12-7c9.2-5.2,18.4-10.5,27.6-15.8c2.5-1.4,2.9-2.1,2.5-4.9c-0.3-2.2-0.6-4.5-0.9-6.7
					c-0.1-0.7-0.2-1.4-0.5-2.5c-13.5,7.6-27.1,15.3-40.6,22.9c0,0,0,0,0,0C62,83.4,45.7,74,29.4,64.6z"/>
				<path class="st1" d="M27,151.6c0,0.3-0.1,0.6-0.1,0.9C26.9,152.3,26.9,151.9,27,151.6z"/>
				<path class="st3" d="M27,157.8C27,157.8,27,157.8,27,157.8c-0.2-1.6-0.3-3.3-0.1-5.3c0,0,0,0,0,0c0-0.3,0.1-0.6,0.1-0.9
					c0.2-1.1,0.9-2.6,2.3-3.4c16.3-9.3,32.6-18.6,48.9-27.9c0,0,0,0,0,0c15.8,9.2,31.6,18.4,47.4,27.6c2.6,1.5,3.6,3.3,3.4,6.2
					c-0.1,2.5-0.7,4.9-1.5,7c0,0.1-0.1,0.2-0.2,0.3c-0.5,1.1-1.1,2.1-1.7,3.1c-1.5,2.3-3.2,4.4-5,6.2c0,0,0,0,0,0
					c-2.4,2.3-5.1,4.2-8,5.8c-0.1,0-0.1,0.1-0.2,0.1c-0.1,0-0.1,0.1-0.2,0.1h0c-3.4,1.7-7,3.1-10.6,4.1c-0.1,0-0.2,0.1-0.3,0.1
					c-0.1,0.1-0.3,0.1-0.5,0.1c-4.9,1.3-9.8,2.1-14.8,2.4c-0.1,0-0.1,0-0.2,0c-2,0.1-3.9,0.2-5.9,0.2c0,0,0,0,0,0
					c-1.8,0-3.6,0-5.4-0.1c-4.4-0.2-9-0.4-13.4-1c-0.2,0-0.3,0-0.4-0.1c-2.6-0.5-5.2-1.1-7.8-1.8c-0.1,0-0.2,0-0.2-0.1
					c-3-1-5.9-2-8.7-3.4c-0.1,0-0.1-0.1-0.2-0.1c-0.1,0-0.2-0.1-0.3-0.1c-5-2.6-9.2-6.2-12.6-10.6c-0.6-0.7-1-1.5-1.5-2.2
					c0-0.1-0.1-0.1-0.1-0.2c-0.7-1.4-1.4-2.9-1.9-4.8C27.3,159,27.1,158.4,27,157.8z"/>
				<path class="st1" d="M26.9,152.5c-0.1,2-0.1,3.7,0.1,5.3C26.7,156.1,26.7,154.3,26.9,152.5z"/>
				<path class="st3" d="M25.2,77.3c0-0.2,0.1-0.5,0.1-0.8c0-0.2,0-0.4,0.1-0.5c0-0.1,0-0.3,0.1-0.4c1.1,0.6,2.1,1.1,2.9,1.6
					C41.1,84.6,53.8,92,66.5,99.4c-4.1,2.3-8.2,4.6-12.3,6.9c0,0,0,0,0,0c-4.3-2.5-8.5-5-12.8-7.5c-2.2-1.3-4.3-2.5-6.9-4
					c-0.2,1.2-0.4,1.9-0.5,2.7c-0.7,5.3-1.4,10.6-2.1,16c-0.2,1.9-0.5,3.9-0.8,5.8v0c-4.2,2.3-8.3,4.7-12.5,7c0,0,0-0.1,0-0.1
					c0-0.1,0-0.1,0-0.2c0-0.1,0-0.1,0-0.2c0,0,0,0,0-0.1c0-0.1,0-0.2,0-0.2c0,0,0-0.1,0-0.1c0,0,0,0,0,0c0.2-1,0.2-1.7,0.4-3.2
					c0.3-2.3,0.1-0.7,1-8c0.3-2.5,0.5-4,0.6-5c0.1-0.4,0.1-0.9,0.2-1.3c0.1-0.8,0.2-1.7,0.3-2.5c0-0.3,0.1-0.6,0.1-0.9
					c0.2-1.6,0.5-3,0.5-3.5c0.8-5.1,0.9-5,1.2-7.7c0.1-1.1,0.9-7.8,1.4-11.8v0C24.8,80.2,25,78.8,25.2,77.3
					C25.2,77.4,25.2,77.3,25.2,77.3z"/>
				<path class="st1" d="M19.8,139.7c-0.6,0.4-1.8,1.1-2.5,2.4c-0.4,0.7-0.7,1.5-1,4.3c-0.2,1.5-0.3,2.5-0.4,3.4
					c0.1-1.4,0.2-2.8,0.4-4.4c0.1-0.9,0-0.4,1-8c0.8-6.2,0.8-6.5,1-8c0.2-1.3,0.3-2.2,0.5-3c4.1-2.3,8.3-4.7,12.5-7
					c-0.7,5-1.3,10-1.9,15v0C26.1,136.2,22.9,138,19.8,139.7z"/>
				<path class="st4" d="M15.7,154.4c0-1.2,0.1-2.4,0.1-3.7c0-0.2,0-0.3,0-0.5c0-0.2,0-0.3,0-0.5c0.1-0.9,0.2-1.9,0.4-3.4
					c0.3-2.8,0.6-3.5,1-4.3c0.8-1.3,1.9-2,2.5-2.4c3.1-1.8,6.3-3.6,9.4-5.4c-0.5,3.9-1,7.8-1.4,11.7c-0.2,1.6-0.6,3.5-0.9,5.5
					c-0.1,0.4-0.1,0.7-0.1,0.9c0,0,0,0,0,0c-0.2,1.7-0.2,3.5,0.1,5.3c0,0,0,0,0,0c0.3,2.4,1.1,4.4,2.4,6.5c0,0.1,0.1,0.1,0.1,0.2
					c1.6,3,3.7,5.2,6.7,7.9c2.2,2,4.7,3.5,7.3,4.8c0.1,0.1,0.2,0.1,0.3,0.1c0.1,0,0.1,0.1,0.2,0.1c0.3,0.2,0.7,0.3,1,0.5
					c2.4,1.1,5,2.1,7.6,2.9c0.1,0,0.2,0.1,0.2,0.1c0.1,0,0.2,0.1,0.4,0.1c2.4,0.8,4.9,1.3,7.4,1.7c0.1,0,0.3,0.1,0.4,0.1
					c0.4,0.1,0.8,0.2,1.2,0.2c5.8,0.9,11.7,1.1,17.6,0.9c0,0,0,0,0,0c2,0,3.9-0.1,5.9-0.2c0.1,0,0.1,0,0.2,0c5-0.2,10-1.1,14.8-2.4
					c0.2,0,0.3-0.1,0.5-0.1c0.1,0,0.2-0.1,0.3-0.1c1.4-0.4,2.8-0.8,4.2-1.3c2.3-0.8,4.4-1.7,6.5-2.8c0.1,0,0.1-0.1,0.2-0.1
					c0.1,0,0.1-0.1,0.2-0.1c3-1.5,5.6-3.5,8-5.8c0,0,0,0,0,0c1.1-1,2.1-2.1,3.1-3.3c1.5-1.9,2.8-3.8,3.6-6c0.1-0.1,0.1-0.2,0.2-0.3
					c1.3-3,1.9-6.2,1.7-9.6c-0.2-3.5-0.7-7-1.1-10.5c-0.2-2.1-0.5-4.2-0.8-6.3c2.9,1.7,5.9,3.4,8.9,5.2c1.6,0.9,3,2,3.3,3.7
					c0.2,1.8,0.3,3.5,0.5,5.2c0,0,0,0.1,0,0.1c0,0.2,0.1,0.5,0.1,0.8c0.1,0.5,0.1,1,0.1,1.5c0.1,1.1,0.2,2.3,0.3,3.4
					c0.1,4.8-1.1,9.2-3.2,13.4c-1.8,3.5-4,6.6-6.6,9.3c-4.2,4.1-9.3,7.3-15,9.7c-7.8,3.2-16.1,5.1-24.6,5.9
					c-9.1,0.9-18.2,0.9-27.4-0.1c-9.3-1-18.3-3.1-26.7-7.2c-3.7-1.9-7.1-4.1-10.2-6.8c-0.1-0.1-0.3-0.2-0.4-0.4
					c-0.1-0.1-0.1-0.1-0.2-0.1c0-0.1-0.1-0.1-0.1-0.1c0,0,0,0,0,0c-1.1-1-2.1-2-3-3.1c-0.1-0.2-0.3-0.3-0.4-0.5
					c-0.7-1-2.5-3.5-4.1-7c-0.9-2.1-2.5-6.9-2.6-8.8C15.8,157.3,15.7,155.9,15.7,154.4z"/>
			</g>
			<g>
			</g>
		</g>
	</g>
</g>
</svg>
