<?xml version="1.0" encoding="utf-8"?>
<!-- Generator: Adobe Illustrator 24.1.0, SVG Export Plug-In . SVG Version: 6.00 Build 0)  -->
<svg version="1.1" id="Layer_1" xmlns="http://www.w3.org/2000/svg" xmlns:xlink="http://www.w3.org/1999/xlink" x="0px" y="0px"
	 viewBox="0 0 592 314" style="enable-background:new 0 0 592 314;" xml:space="preserve">
<style type="text/css">
	.st0{fill:#FFFFFF;}
</style>
<g>
	<path class="st0" d="M76.08,288C49.57,288,28,266.43,28,239.92V73.08C28,46.57,49.57,25,76.08,25h437.84
		C540.43,25,562,46.57,562,73.08v166.84c0,26.51-21.57,48.08-48.08,48.08H76.08z"/>
	<path d="M513.92,28C538.78,28,559,48.22,559,73.08v166.84c0,24.86-20.22,45.08-45.08,45.08H76.08C51.22,285,31,264.78,31,239.92
		V73.08C31,48.22,51.22,28,76.08,28H513.92 M513.92,22H76.08C47.87,22,25,44.87,25,73.08v166.84C25,268.13,47.87,291,76.08,291
		h437.84c28.21,0,51.08-22.87,51.08-51.08V73.08C565,44.87,542.13,22,513.92,22L513.92,22z"/>
</g>
<g>
	<g>
		<path class="st0" d="M264.44,226.57c-63.15,0-126.29,0-189.44,0c0-53.19,0-106.38,0-159.57c63.15,0,126.29,0,189.44,0
			C264.44,120.19,264.44,173.38,264.44,226.57z M169.72,101.52c-4.72-5.03-9.31-10.12-14.11-14.99
			c-11.18-11.35-24.58-16.13-40.55-13.78C96.1,75.54,82.47,89.9,80.23,108.31c-1.77,14.54,1.74,28.19,10.3,40.32
			c12.26,17.39,28.18,31.23,44.03,45.09c10.55,9.22,21.61,17.87,32.3,26.94c2.27,1.92,3.66,1.85,5.81-0.09
			c4.27-3.85,8.84-7.37,13.23-11.08c11.08-9.37,22.4-18.49,33.11-28.27c7.92-7.22,15.26-15.12,22.46-23.08
			c11.85-13.09,18.98-28.1,17.93-46.32c-0.77-13.47-6.31-24.41-17.29-32.05c-17.71-12.33-41.83-9.75-57.12,5.64
			C179.74,90.69,174.74,96.21,169.72,101.52z"/>
		<path d="M169.72,101.52c5.02-5.31,10.02-10.84,15.27-16.12c15.3-15.39,39.41-17.97,57.12-5.64c10.99,7.65,16.52,18.58,17.29,32.05
			c1.05,18.22-6.09,33.23-17.93,46.32c-7.2,7.96-14.54,15.85-22.46,23.08c-10.72,9.78-22.03,18.9-33.11,28.27
			c-4.39,3.72-8.97,7.23-13.23,11.08c-2.15,1.94-3.54,2.01-5.81,0.09c-10.69-9.07-21.75-17.71-32.3-26.94
			c-15.85-13.86-31.77-27.7-44.03-45.09c-8.55-12.14-12.06-25.78-10.3-40.32c2.24-18.41,15.86-32.77,34.82-35.56
			c15.97-2.35,29.37,2.42,40.55,13.78C160.41,91.4,165,96.49,169.72,101.52z M170,106.75c-4.15-4.02-7.59-7.57-11.26-10.84
			c-6.02-5.36-11.85-11.04-18.41-15.67c-6.9-4.87-14.92-7.84-23.37-4.31c-6.71,2.8-13.4,6.05-19.35,10.17
			c-12.58,8.7-16.98,21.91-13.04,36.73c4.52,17.01,14.41,30.93,26.5,43.18c12.02,12.19,24.7,23.76,37.41,35.25
			c6.58,5.95,13.85,11.13,20.84,16.69c13.05-11,25.82-21.66,38.49-32.45c12.61-10.74,24.71-22,34.96-35.09
			c10.01-12.78,15.85-26.81,12.79-43.43c-1.86-10.11-6.77-18.43-15.15-24.49c-7.76-5.61-16.61-7.06-25.99-6.65
			c-11.57,0.52-21.55,4.17-29.14,13.38C180.37,95.17,175.16,100.85,170,106.75z"/>
		<path class="st0" d="M170,106.75c5.16-5.9,10.37-11.58,15.26-17.52c7.59-9.21,17.56-12.87,29.14-13.38
			c9.38-0.42,18.24,1.04,25.99,6.65c8.38,6.06,13.29,14.38,15.15,24.49c3.06,16.62-2.78,30.65-12.79,43.43
			c-10.25,13.09-22.36,24.35-34.96,35.09c-12.66,10.79-25.43,21.45-38.49,32.45c-6.99-5.55-14.26-10.74-20.84-16.69
			c-12.71-11.49-25.38-23.06-37.41-35.25c-12.09-12.25-21.98-26.17-26.5-43.18c-3.94-14.82,0.46-28.03,13.04-36.73
			c5.96-4.12,12.64-7.37,19.35-10.17c8.45-3.53,16.48-0.57,23.37,4.31c6.56,4.63,12.39,10.31,18.41,15.67
			C162.41,99.19,165.84,102.74,170,106.75z"/>
	</g>
</g>
<g>
	<g>
		<path class="st0" d="M506.44,230.57c-63.15,0-126.29,0-189.44,0c0-53.19,0-106.38,0-159.57c63.15,0,126.29,0,189.44,0
			C506.44,124.19,506.44,177.38,506.44,230.57z M411.72,105.52c-4.72-5.03-9.31-10.12-14.11-14.99
			c-11.18-11.35-24.58-16.13-40.55-13.78c-18.96,2.79-32.59,17.15-34.82,35.56c-1.77,14.54,1.74,28.19,10.3,40.32
			c12.26,17.39,28.18,31.23,44.03,45.09c10.55,9.22,21.61,17.87,32.3,26.94c2.27,1.92,3.66,1.85,5.81-0.09
			c4.27-3.85,8.84-7.37,13.23-11.08c11.08-9.37,22.4-18.49,33.11-28.27c7.92-7.22,15.26-15.12,22.46-23.08
			c11.85-13.09,18.98-28.1,17.93-46.32c-0.77-13.47-6.31-24.41-17.29-32.05c-17.71-12.33-41.83-9.75-57.12,5.64
			C421.74,94.69,416.74,100.21,411.72,105.52z"/>
		<path d="M411.72,105.52c5.02-5.31,10.02-10.84,15.27-16.12c15.3-15.39,39.41-17.97,57.12-5.64c10.99,7.65,16.52,18.58,17.29,32.05
			c1.05,18.22-6.09,33.23-17.93,46.32c-7.2,7.96-14.54,15.85-22.46,23.08c-10.72,9.78-22.03,18.9-33.11,28.27
			c-4.39,3.72-8.97,7.23-13.23,11.08c-2.15,1.94-3.54,2.01-5.81,0.09c-10.69-9.07-21.75-17.71-32.3-26.94
			c-15.85-13.86-31.77-27.7-44.03-45.09c-8.55-12.14-12.06-25.78-10.3-40.32c2.24-18.41,15.86-32.77,34.82-35.56
			c15.97-2.35,29.37,2.42,40.55,13.78C402.41,95.4,407,100.49,411.72,105.52z M412,110.75c-4.15-4.02-7.59-7.57-11.26-10.84
			c-6.02-5.36-11.85-11.04-18.41-15.67c-6.9-4.87-14.92-7.84-23.37-4.31c-6.71,2.8-13.4,6.05-19.35,10.17
			c-12.58,8.7-16.98,21.91-13.04,36.73c4.52,17.01,14.41,30.93,26.5,43.18c12.02,12.19,24.7,23.76,37.4,35.25
			c6.58,5.95,13.85,11.13,20.84,16.69c13.05-11,25.82-21.66,38.49-32.45c12.61-10.74,24.71-22,34.96-35.09
			c10.01-12.78,15.85-26.81,12.79-43.43c-1.86-10.11-6.77-18.43-15.15-24.49c-7.76-5.61-16.61-7.06-25.99-6.65
			c-11.57,0.52-21.55,4.17-29.14,13.38C422.37,99.17,417.16,104.85,412,110.75z"/>
		<path class="st0" d="M412,110.75c5.16-5.9,10.37-11.58,15.26-17.52c7.59-9.21,17.56-12.87,29.14-13.38
			c9.38-0.42,18.24,1.04,25.99,6.65c8.38,6.06,13.29,14.38,15.15,24.49c3.06,16.62-2.78,30.65-12.79,43.43
			c-10.25,13.09-22.36,24.35-34.96,35.09c-12.66,10.79-25.43,21.45-38.49,32.45c-6.99-5.55-14.26-10.74-20.84-16.69
			c-12.71-11.49-25.38-23.06-37.4-35.25c-12.09-12.25-21.98-26.17-26.5-43.18c-3.94-14.82,0.46-28.03,13.04-36.73
			c5.96-4.12,12.64-7.37,19.35-10.17c8.45-3.53,16.48-0.57,23.37,4.31c6.56,4.63,12.39,10.31,18.41,15.67
			C404.41,103.19,407.84,106.74,412,110.75z"/>
	</g>
</g>
</svg>
