<?xml version="1.0" encoding="utf-8"?>
<!-- Generator: Adobe Illustrator 24.1.0, SVG Export Plug-In . SVG Version: 6.00 Build 0)  -->
<svg version="1.1" id="Layer_1" xmlns="http://www.w3.org/2000/svg" xmlns:xlink="http://www.w3.org/1999/xlink" x="0px" y="0px"
	 viewBox="0 0 586.23 307.49" style="enable-background:new 0 0 586.23 307.49;" xml:space="preserve">
<style type="text/css">
	.st0{fill:#FFFFFF;}
</style>
<g>
	<path class="st0" d="M73.82,284.98c-26.51,0-48.08-21.57-48.08-48.08V70.06c0-26.51,21.57-48.08,48.08-48.08h437.84
		c26.51,0,48.08,21.57,48.08,48.08V236.9c0,26.51-21.57,48.08-48.08,48.08H73.82z"/>
	<path d="M511.66,24.98c24.86,0,45.08,20.22,45.08,45.08V236.9c0,24.86-20.22,45.08-45.08,45.08H73.82
		c-24.86,0-45.08-20.22-45.08-45.08V70.06c0-24.86,20.22-45.08,45.08-45.08L511.66,24.98 M511.66,18.98H73.82
		c-28.21,0-51.08,22.87-51.08,51.08V236.9c0,28.21,22.87,51.08,51.08,51.08h437.84c28.21,0,51.08-22.87,51.08-51.08V70.06
		C562.74,41.85,539.87,18.98,511.66,18.98L511.66,18.98z"/>
</g>
<g>
	<g>
		<path class="st0" d="M257.74,244.37c-65.67,0-131.33,0-197,0c0-64.25,0-128.5,0-192.75c65.67,0,131.33,0,197,0
			C257.74,115.87,257.74,180.12,257.74,244.37z M68.38,126.75c0.4,1.36,0.4,2.83,1.13,3.61c3.22,3.43,6.55,6.78,10.04,9.94
			c4.02,3.65,8.31,6.99,12.34,10.62c4.5,4.05,8.85,8.27,13.28,12.39c1.05,0.98,2.41,1.71,3.25,2.83c2.48,3.3,8.37,4.31,6.46,10.64
			c-1.42,4.7-1.67,9.73-2.66,14.57c-2.18,10.63-4.51,21.24-6.75,31.86c-0.64,3.05-1.28,6.11-1.79,9.18
			c-0.26,1.58-0.24,3.21-0.35,4.81c1.48-0.2,2.98-0.35,4.45-0.62c0.5-0.09,0.95-0.48,1.41-0.75c6.93-4.06,13.83-8.18,20.8-12.17
			c4.79-2.75,9.74-5.21,14.5-8.01c4.81-2.83,9.4-6.05,14.26-8.79c0.95-0.54,2.71,0.19,4.04,0.56c0.5,0.14,0.72,1.09,1.24,1.38
			c8.36,4.75,16.77,9.4,25.12,14.17c7.89,4.51,15.69,9.17,23.61,13.63c1.17,0.66,2.77,0.53,4.17,0.77c0.2-1.36,0.76-2.78,0.53-4.05
			c-0.83-4.54-1.96-9.03-2.93-13.55c-1.43-6.67-2.86-13.35-4.23-20.03c-0.54-2.62-0.8-5.31-1.38-7.92
			c-1.33-5.95-2.83-11.86-4.1-17.82c-0.15-0.7,0.49-1.84,1.11-2.4c3.62-3.33,7.35-6.52,11-9.81c1.46-1.32,2.73-2.86,4.21-4.16
			c4.7-4.11,9.54-8.09,14.19-12.26c4.07-3.65,8.14-7.31,11.85-11.31c1.87-2.02,5.96-3.07,4.38-7.15c-4.78-0.73-9.38-1.63-14.03-2.1
			c-4.9-0.49-9.86-0.36-14.75-0.86c-9.67-0.98-19.34-2.05-28.95-3.46c-2.34-0.34-5.56,1.08-7.02-2.13
			c-2.05-4.51-3.98-9.08-5.9-13.65c-1.21-2.89-2.23-5.86-3.49-8.73c-4.8-10.95-9.89-21.79-14.34-32.88c-1.12-2.8-2.2-3.25-4.58-2.72
			c-1.15,2.7-2.29,5.34-3.39,7.99c-2,4.79-3.9,9.63-5.99,14.38c-2,4.54-4.3,8.94-6.26,13.49c-3.11,7.24-5.96,14.59-9.12,21.8
			c-0.47,1.07-1.98,2.25-3.11,2.38c-6.51,0.71-13.06,1-19.58,1.65c-7.38,0.74-14.73,1.76-22.11,2.58
			C82.27,125.37,75.6,126.01,68.38,126.75z"/>
		<path d="M68.38,126.75c7.22-0.74,13.89-1.37,20.55-2.11c7.37-0.82,14.73-1.84,22.11-2.58c6.52-0.65,13.07-0.94,19.58-1.65
			c1.14-0.12,2.64-1.3,3.11-2.38c3.16-7.21,6.02-14.56,9.12-21.8c1.95-4.55,4.26-8.96,6.26-13.49c2.09-4.75,3.99-9.59,5.99-14.38
			c1.11-2.65,2.24-5.29,3.39-7.99c2.38-0.53,3.45-0.08,4.58,2.72c4.45,11.09,9.54,21.93,14.34,32.88c1.26,2.87,2.27,5.84,3.49,8.73
			c1.92,4.57,3.85,9.14,5.9,13.65c1.46,3.2,4.69,1.78,7.02,2.13c9.61,1.41,19.28,2.48,28.95,3.46c4.9,0.5,9.86,0.37,14.75,0.86
			c4.65,0.46,9.26,1.37,14.03,2.1c1.58,4.09-2.51,5.14-4.38,7.15c-3.71,4-7.78,7.67-11.85,11.31c-4.65,4.17-9.48,8.14-14.19,12.26
			c-1.48,1.3-2.75,2.84-4.21,4.16c-3.65,3.29-7.39,6.48-11,9.81c-0.62,0.57-1.26,1.7-1.11,2.4c1.27,5.96,2.77,11.87,4.1,17.82
			c0.58,2.61,0.84,5.3,1.38,7.92c1.37,6.69,2.79,13.36,4.23,20.03c0.97,4.52,2.1,9.01,2.93,13.55c0.23,1.28-0.33,2.7-0.53,4.05
			c-1.4-0.24-3.01-0.11-4.17-0.77c-7.92-4.46-15.72-9.12-23.61-13.63c-8.35-4.77-16.76-9.42-25.12-14.17
			c-0.51-0.29-0.74-1.24-1.24-1.38c-1.33-0.37-3.09-1.1-4.04-0.56c-4.86,2.75-9.45,5.96-14.26,8.79c-4.76,2.8-9.71,5.27-14.5,8.01
			c-6.97,4-13.87,8.11-20.8,12.17c-0.46,0.27-0.91,0.66-1.41,0.75c-1.47,0.27-2.96,0.42-4.45,0.62c0.11-1.61,0.09-3.23,0.35-4.81
			c0.51-3.07,1.14-6.13,1.79-9.18c2.24-10.62,4.57-21.22,6.75-31.86c0.99-4.84,1.24-9.87,2.66-14.57c1.91-6.33-3.98-7.33-6.46-10.64
			c-0.84-1.12-2.2-1.85-3.25-2.83c-4.43-4.12-8.78-8.35-13.28-12.39c-4.04-3.63-8.33-6.97-12.34-10.62
			c-3.48-3.16-6.82-6.51-10.04-9.94C68.77,129.57,68.77,128.1,68.38,126.75z M108.42,230.23c1.95-1.04,3.01-1.57,4.04-2.16
			c6.86-4,13.73-7.98,20.57-12.02c8.17-4.83,16.38-9.61,24.43-14.64c1.9-1.19,3.35-1.26,5.08-0.19c4.63,2.86,9.21,5.79,13.88,8.59
			c7.1,4.26,14.24,8.46,21.41,12.62c4.43,2.56,8.93,4.99,13.66,7.63c0.09-0.9,0.27-1.44,0.17-1.92
			c-3.41-15.56-6.8-31.13-10.29-46.68c-1.46-6.48-2.4-12.39,4.67-16.82c4.1-2.56,7.28-6.57,10.92-9.88
			c6.54-5.94,13.09-11.87,19.67-17.75c2.08-1.86,4.32-3.54,6.42-5.39c0.29-0.25,0.16-0.98,0.24-1.61
			c-6.12-0.52-12.07-1.03-18.02-1.53c-3.25-0.28-6.51-0.48-9.76-0.83c-9.05-1-18.08-2.3-27.16-2.97c-2.91-0.21-4.34-1.23-5.34-3.61
			c-2.71-6.44-5.37-12.9-8.17-19.31c-3.66-8.38-7.44-16.71-11.17-25.05c-1.03-2.3-2.06-4.59-3.32-7.42
			c-0.6,1.05-0.89,1.46-1.09,1.92c-7.17,16.26-14.28,32.55-21.57,48.76c-0.79,1.76-2.45,4.17-3.98,4.39
			c-10.08,1.43-20.23,2.4-30.37,3.39c-6.17,0.6-12.37,0.91-18.55,1.44c-2.53,0.22-5.05,0.67-7.61,1.02
			c0.05,0.54-0.05,0.99,0.12,1.15c3.86,3.57,7.74,7.11,11.63,10.64c7.02,6.37,14.03,12.75,21.09,19.08
			c3.16,2.84,6.52,5.46,9.53,8.44c0.81,0.8,1.16,2.61,0.94,3.81c-0.86,4.77-2.08,9.48-3.08,14.23c-2.05,9.79-4.02,19.59-6.05,29.39
			C110.47,221.13,109.5,225.3,108.42,230.23z"/>
		<path class="st0" d="M108.42,230.23c1.09-4.93,2.05-9.1,2.92-13.29c2.04-9.79,4.01-19.6,6.05-29.39
			c0.99-4.75,2.21-9.45,3.08-14.23c0.22-1.21-0.13-3.01-0.94-3.81c-3.02-2.97-6.38-5.6-9.53-8.44
			c-7.05-6.33-14.07-12.71-21.09-19.08c-3.89-3.53-7.77-7.07-11.63-10.64c-0.17-0.16-0.07-0.61-0.12-1.15
			c2.56-0.35,5.07-0.8,7.61-1.02c6.18-0.53,12.38-0.84,18.55-1.44c10.14-0.99,20.29-1.96,30.37-3.39c1.53-0.22,3.19-2.63,3.98-4.39
			c7.29-16.21,14.4-32.5,21.57-48.76c0.2-0.45,0.49-0.87,1.09-1.92c1.27,2.83,2.3,5.12,3.32,7.42c3.73,8.35,7.5,16.68,11.17,25.05
			c2.8,6.4,5.46,12.87,8.17,19.31c1,2.38,2.44,3.39,5.34,3.61c9.08,0.66,18.11,1.97,27.16,2.97c3.24,0.36,6.5,0.56,9.76,0.83
			c5.95,0.5,11.9,1.01,18.02,1.53c-0.08,0.64,0.05,1.36-0.24,1.61c-2.1,1.85-4.34,3.53-6.42,5.39
			c-6.59,5.89-13.14,11.81-19.67,17.75c-3.64,3.31-6.82,7.31-10.92,9.88c-7.06,4.42-6.12,10.33-4.67,16.82
			c3.5,15.54,6.89,31.11,10.29,46.68c0.1,0.48-0.08,1.02-0.17,1.92c-4.73-2.63-9.23-5.06-13.66-7.63
			c-7.17-4.15-14.3-8.36-21.41-12.62c-4.67-2.8-9.25-5.73-13.88-8.59c-1.73-1.07-3.18-1-5.08,0.19
			c-8.05,5.03-16.25,9.81-24.43,14.64c-6.84,4.04-13.7,8.02-20.57,12.02C111.43,228.67,110.37,229.19,108.42,230.23z"/>
	</g>
</g>
<g>
	<g>
		<path class="st0" d="M523.74,244.37c-71,0-142,0-213,0c0-64.25,0-128.5,0-192.75c71,0,142,0,213,0
			C523.74,115.87,523.74,180.12,523.74,244.37z M370.19,173.43c-0.31,0.72-0.82,1.46-0.95,2.26c-1.64,9.84-2.61,19.76-6.57,29.17
			c-1.85,4.39-1.9,9.51-2.89,14.27c-0.99,4.78-2.25,9.51-3.15,14.3c-0.27,1.41,0.01,3.09,0.6,4.39c0.17,0.37,2.49,0.16,3.54-0.36
			c2.61-1.28,5.03-2.92,7.56-4.34c2.16-1.21,4.36-2.35,6.56-3.47c2.52-1.27,5.15-2.37,7.61-3.75c5.08-2.86,10.04-5.92,15.12-8.77
			c3.97-2.23,8.25-3.96,12.03-6.46c5.65-3.74,10.51-4.27,16.1-1.05c5.98,3.44,11.96,6.88,17.99,10.24c5.38,3,10.84,5.86,16.23,8.84
			c5.36,2.95,10.64,6.05,16.04,8.93c2.97,1.59,4.48,0.53,4-2.89c-0.33-2.36-1.38-4.62-1.86-6.97c-1.91-9.31-3.62-18.67-5.62-27.96
			c-1.04-4.8-2.64-9.48-3.8-14.26c-0.93-3.84-1.63-7.73-2.29-11.62c-0.09-0.54,0.46-1.37,0.95-1.79c3.97-3.38,8.01-6.68,12-10.04
			c1.85-1.55,3.6-3.23,5.5-4.72c3.56-2.8,7.32-5.36,10.77-8.3c4.89-4.15,9.54-8.58,14.35-12.83c2.36-2.08,4.85-4.02,7.45-6.16
			c0-0.79,0-1.96,0-3.02c-1.75-0.3-3.26-0.62-4.79-0.81c-3.76-0.48-7.52-1.03-11.3-1.32c-5.35-0.4-10.73-0.4-16.07-0.9
			c-7.64-0.72-15.26-1.74-22.88-2.63c-3.52-0.41-7.13-1.49-10.53-1.04c-2.49,0.33-3.82-0.73-4.51-2.09
			c-3.34-6.53-6.36-13.23-9.46-19.88c-2.39-5.15-4.63-10.38-7.11-15.49c-3.2-6.6-6.9-12.99-9.69-19.75
			c-1.11-2.69-2.23-3.1-4.33-2.67c-2.61,5.43-5.25,10.7-7.7,16.05c-2.03,4.44-3.71,9.05-5.78,13.46
			c-4.35,9.26-8.77,18.48-13.41,27.6c-0.68,1.35-2.57,2.49-4.12,2.9c-2.29,0.6-4.78,0.41-7.17,0.64c-3.83,0.37-7.65,0.84-11.49,1.2
			c-4.82,0.45-9.65,0.74-14.46,1.24c-5.24,0.55-10.44,1.37-15.68,1.88c-5.81,0.57-11.64,0.92-17.31,1.36
			c-1.16,4.81,3,6.21,5.11,8.07c9.02,7.96,18.65,15.21,27.88,22.94C358.67,162.82,364.35,168.2,370.19,173.43z"/>
		<path d="M370.19,173.43c-5.83-5.23-11.51-10.62-17.51-15.63c-9.23-7.72-18.87-14.98-27.88-22.94c-2.11-1.86-6.27-3.26-5.11-8.07
			c5.68-0.44,11.51-0.79,17.31-1.36c5.24-0.51,10.45-1.33,15.68-1.88c4.81-0.5,9.64-0.79,14.46-1.24c3.83-0.35,7.65-0.83,11.49-1.2
			c2.39-0.23,4.88-0.04,7.17-0.64c1.55-0.41,3.43-1.55,4.12-2.9c4.64-9.11,9.06-18.34,13.41-27.6c2.08-4.42,3.75-9.02,5.78-13.46
			c2.45-5.35,5.08-10.62,7.7-16.05c2.1-0.43,3.22-0.01,4.33,2.67c2.79,6.76,6.49,13.15,9.69,19.75c2.48,5.11,4.71,10.34,7.11,15.49
			c3.09,6.66,6.12,13.35,9.46,19.88c0.69,1.36,2.02,2.42,4.51,2.09c3.41-0.45,7.01,0.63,10.53,1.04c7.63,0.9,15.24,1.91,22.88,2.63
			c5.34,0.5,10.72,0.5,16.07,0.9c3.78,0.28,7.54,0.84,11.3,1.32c1.53,0.19,3.04,0.51,4.79,0.81c0,1.05,0,2.23,0,3.02
			c-2.6,2.14-5.09,4.08-7.45,6.16c-4.81,4.25-9.46,8.67-14.35,12.83c-3.45,2.93-7.21,5.49-10.77,8.3c-1.9,1.49-3.65,3.17-5.5,4.72
			c-4,3.35-8.03,6.65-12,10.04c-0.49,0.42-1.04,1.25-0.95,1.79c0.66,3.89,1.36,7.79,2.29,11.62c1.16,4.78,2.76,9.46,3.8,14.26
			c2,9.29,3.71,18.65,5.62,27.96c0.48,2.35,1.53,4.61,1.86,6.97c0.48,3.42-1.03,4.48-4,2.89c-5.4-2.88-10.68-5.98-16.04-8.93
			c-5.39-2.97-10.85-5.84-16.23-8.84c-6.03-3.36-12.01-6.8-17.99-10.24c-5.58-3.22-10.45-2.69-16.1,1.05
			c-3.78,2.5-8.06,4.23-12.03,6.46c-5.08,2.85-10.04,5.91-15.12,8.77c-2.46,1.38-5.08,2.48-7.61,3.75
			c-2.21,1.12-4.41,2.26-6.56,3.47c-2.54,1.42-4.96,3.07-7.56,4.34c-1.05,0.52-3.38,0.73-3.54,0.36c-0.59-1.3-0.87-2.98-0.6-4.39
			c0.9-4.8,2.16-9.52,3.15-14.3c0.99-4.76,1.04-9.89,2.89-14.27c3.96-9.4,4.94-19.32,6.57-29.17
			C369.37,174.89,369.87,174.15,370.19,173.43z M328.92,130.41c-0.03,0.5-0.19,0.99-0.04,1.13c2.93,2.66,5.83,5.36,8.89,7.87
			c6.74,5.55,13.63,10.91,20.33,16.5c5.62,4.7,11.08,9.59,16.53,14.49c0.65,0.59,1.17,1.83,1.04,2.66
			c-0.26,1.63-1.19,3.15-1.55,4.78c-2.39,10.96-4.68,21.93-7.03,32.9c-0.85,3.98-1.68,7.97-2.7,11.91
			c-0.62,2.41-1.57,4.74-2.37,7.11c6.11-2.2,11.53-4.78,16.8-7.61c9.44-5.06,18.81-10.26,28.2-15.43c2.74-1.51,5.62-2.85,8.11-4.7
			c2.08-1.54,3.73-1.4,5.76-0.19c3.3,1.96,6.67,3.79,10.03,5.63c8.57,4.67,17.13,9.35,25.73,13.96c5.64,3.02,11.33,5.92,17.39,9.07
			c-0.1-1.26-0.06-2.03-0.24-2.76c-1.7-6.87-3.57-13.7-5.14-20.6c-2.18-9.64-3.93-19.39-6.28-28.98c-1.11-4.53-1.29-7.88,3.12-11.03
			c5.04-3.6,9.28-8.28,14.04-12.29c5.1-4.29,10.42-8.32,15.64-12.48c4.3-3.43,8.59-6.87,12.84-10.37c0.3-0.24,0.17-1,0.26-1.65
			c-6.69-0.53-13.2-1.06-19.72-1.57c-3.43-0.27-6.88-0.44-10.3-0.79c-10.13-1.04-20.25-2.32-30.4-3.12
			c-2.67-0.21-3.94-1.21-4.95-3.38c-3.25-7.04-6.61-14.02-9.86-21.05c-3.32-7.18-6.5-14.41-9.84-21.57
			c-1.48-3.16-3.21-6.2-4.95-9.54c-3.1,6.16-6.04,11.87-8.85,17.64c-1.73,3.55-3.24,7.2-4.89,10.79
			c-3.56,7.74-7.16,15.45-10.71,23.19c-1.15,2.51-2.65,3.86-5.8,3.93c-6.65,0.14-13.29,0.84-19.92,1.47
			c-7.48,0.71-14.94,1.63-22.41,2.41C340.12,129.32,334.53,129.85,328.92,130.41z"/>
		<path class="st0" d="M328.92,130.41c5.61-0.56,11.2-1.09,16.79-1.68c7.47-0.79,14.93-1.7,22.41-2.41
			c6.63-0.63,13.27-1.33,19.92-1.47c3.16-0.07,4.65-1.42,5.8-3.93c3.55-7.74,7.15-15.45,10.71-23.19c1.65-3.59,3.16-7.24,4.89-10.79
			c2.81-5.77,5.75-11.47,8.85-17.64c1.75,3.34,3.48,6.38,4.95,9.54c3.35,7.16,6.53,14.4,9.84,21.57c3.25,7.03,6.61,14.02,9.86,21.05
			c1.01,2.18,2.28,3.17,4.95,3.38c10.15,0.8,20.27,2.08,30.4,3.12c3.42,0.35,6.87,0.52,10.3,0.79c6.52,0.51,13.04,1.04,19.72,1.57
			c-0.09,0.65,0.03,1.41-0.26,1.65c-4.25,3.5-8.54,6.94-12.84,10.37c-5.21,4.16-10.53,8.2-15.64,12.48c-4.76,4-9,8.69-14.04,12.29
			c-4.41,3.15-4.24,6.5-3.12,11.03c2.36,9.6,4.1,19.34,6.28,28.98c1.56,6.9,3.43,13.73,5.14,20.6c0.18,0.72,0.14,1.5,0.24,2.76
			c-6.05-3.15-11.75-6.05-17.39-9.07c-8.6-4.61-17.16-9.29-25.73-13.96c-3.37-1.84-6.74-3.67-10.03-5.63
			c-2.03-1.21-3.68-1.35-5.76,0.19c-2.49,1.85-5.37,3.2-8.11,4.7c-9.39,5.16-18.76,10.37-28.2,15.43
			c-5.28,2.83-10.69,5.41-16.8,7.61c0.8-2.37,1.75-4.7,2.37-7.11c1.01-3.94,1.84-7.93,2.7-11.91c2.35-10.96,4.64-21.94,7.03-32.9
			c0.35-1.63,1.28-3.15,1.55-4.78c0.13-0.83-0.39-2.07-1.04-2.66c-5.45-4.9-10.91-9.79-16.53-14.49c-6.7-5.6-13.59-10.96-20.33-16.5
			c-3.05-2.51-5.95-5.22-8.89-7.87C328.73,131.41,328.9,130.91,328.92,130.41z"/>
	</g>
</g>
</svg>
