<?xml version="1.0" encoding="utf-8"?>
<!-- Generator: Adobe Illustrator 24.1.0, SVG Export Plug-In . SVG Version: 6.00 Build 0)  -->
<svg version="1.1" id="Layer_1" xmlns="http://www.w3.org/2000/svg" xmlns:xlink="http://www.w3.org/1999/xlink" x="0px" y="0px"
	 viewBox="0 0 592.96 303.93" style="enable-background:new 0 0 592.96 303.93;" xml:space="preserve">
<style type="text/css">
	.st0{fill:#FFFFFF;}
	.st1{fill:none;stroke:#000000;stroke-width:6;stroke-miterlimit:10;}
</style>
<g>
	<path class="st0" d="M78,285.47c-26.51,0-48.08-21.57-48.08-48.08V70.55c0-26.51,21.57-48.08,48.08-48.08h437.84
		c26.51,0,48.08,21.57,48.08,48.08v166.84c0,26.51-21.57,48.08-48.08,48.08H78z"/>
	<path d="M515.84,25.47c24.86,0,45.08,20.22,45.08,45.08v166.84c0,24.86-20.22,45.08-45.08,45.08H78
		c-24.86,0-45.08-20.22-45.08-45.08V70.55c0-24.86,20.22-45.08,45.08-45.08L515.84,25.47 M515.84,19.47H78
		c-28.21,0-51.08,22.87-51.08,51.08v166.84c0,28.21,22.87,51.08,51.08,51.08h437.84c28.21,0,51.08-22.87,51.08-51.08V70.55
		C566.92,42.34,544.05,19.47,515.84,19.47L515.84,19.47z"/>
</g>
<line class="st1" x1="29.38" y1="120.44" x2="563.92" y2="119.45"/>
<line class="st1" x1="32.38" y1="167.45" x2="560.92" y2="166.47"/>
</svg>
