<?xml version="1.0" encoding="utf-8"?>
<!-- Generator: Adobe Illustrator 24.1.0, SVG Export Plug-In . SVG Version: 6.00 Build 0)  -->
<svg version="1.1" id="Layer_1" xmlns="http://www.w3.org/2000/svg" xmlns:xlink="http://www.w3.org/1999/xlink" x="0px" y="0px"
	 viewBox="0 0 452.94 607.91" style="enable-background:new 0 0 452.94 607.91;" xml:space="preserve">
<style type="text/css">
	.st0{fill:none;stroke:#000000;stroke-width:7;stroke-miterlimit:10;}
	.st1{fill:none;stroke:#000000;stroke-width:6;stroke-miterlimit:10;}
</style>
<path class="st0" d="M423.85,252.81c0.06,0.48,0.09,0.98,0.09,1.48v318.96c0,6.6-5.4,12-12,12H31.8c-6.6,0-12-5.4-12-12V254.29
	c0-0.5,0.03-1,0.09-1.48c-0.06-2.2-0.09-4.4-0.09-6.62c0-122.86,90.47-222.46,202.07-222.46s202.07,99.6,202.07,222.46
	C423.94,248.41,423.91,250.61,423.85,252.81z"/>
<line class="st1" x1="19.8" y1="235.99" x2="423.69" y2="234.92"/>
<line class="st1" x1="19.93" y1="334.03" x2="423.81" y2="332.96"/>
</svg>
