<?xml version="1.0" encoding="utf-8"?>
<!-- Generator: Adobe Illustrator 24.1.0, SVG Export Plug-In . SVG Version: 6.00 Build 0)  -->
<svg version="1.1" id="Layer_1" xmlns="http://www.w3.org/2000/svg" xmlns:xlink="http://www.w3.org/1999/xlink" x="0px" y="0px"
	 viewBox="0 0 455.03 614.66" style="enable-background:new 0 0 455.03 614.66;" xml:space="preserve">
<style type="text/css">
	.st0{fill:none;stroke:#000000;stroke-width:7;stroke-miterlimit:10;}
	.st1{fill:#FFFFFF;}
</style>
<path class="st0" d="M428.04,256.57c0.06,0.48,0.09,0.98,0.09,1.48v318.96c0,6.6-5.4,12-12,12H35.99c-6.6,0-12-5.4-12-12V258.05
	c0-0.5,0.03-1,0.09-1.48c-0.06-2.2-0.09-4.4-0.09-6.62c0-122.86,90.47-222.46,202.07-222.46s202.07,99.6,202.07,222.46
	C428.13,252.17,428.1,254.37,428.04,256.57z"/>
<g>
	<g>
		<path class="st1" d="M397.53,473.32c-114.32,0-228.63,0-342.95,0c0-110.04,0-220.09,0-330.13c114.32,0,228.63,0,342.95,0
			C397.53,253.23,397.53,363.27,397.53,473.32z M150.31,351.81c-0.5,1.23-1.32,2.5-1.53,3.87c-2.64,16.85-4.2,33.84-10.58,49.96
			c-2.98,7.52-3.06,16.29-4.65,24.44c-1.59,8.19-3.62,16.29-5.07,24.49c-0.43,2.41,0.02,5.29,0.97,7.52
			c0.27,0.63,4.01,0.27,5.7-0.62c4.2-2.19,8.1-5,12.17-7.43c3.48-2.07,7.02-4.03,10.56-5.94c4.06-2.18,8.29-4.06,12.25-6.42
			c8.18-4.9,16.17-10.14,24.34-15.02c6.39-3.82,13.28-6.78,19.37-11.06c9.1-6.41,16.92-7.31,25.92-1.8
			c9.63,5.89,19.26,11.78,28.97,17.54c8.66,5.14,17.45,10.04,26.13,15.14c8.63,5.05,17.13,10.36,25.83,15.29
			c4.78,2.72,7.21,0.91,6.44-4.95c-0.53-4.04-2.22-7.91-2.99-11.94c-3.08-15.95-5.83-31.98-9.05-47.89
			c-1.67-8.22-4.25-16.24-6.12-24.42c-1.5-6.58-2.62-13.24-3.69-19.9c-0.14-0.92,0.74-2.35,1.53-3.07
			c6.39-5.79,12.9-11.44,19.32-17.2c2.98-2.65,5.8-5.53,8.86-8.08c5.73-4.8,11.79-9.18,17.34-14.22c7.87-7.11,15.36-14.7,23.1-21.97
			c3.8-3.56,7.81-6.89,12-10.55c0-1.35,0-3.36,0-5.17c-2.82-0.51-5.25-1.06-7.71-1.39c-6.05-0.82-12.11-1.76-18.19-2.26
			c-8.61-0.69-17.28-0.69-25.87-1.54c-12.3-1.23-24.57-2.98-36.84-4.5c-5.67-0.7-11.48-2.55-16.95-1.78
			c-4.01,0.57-6.15-1.25-7.26-3.58c-5.38-11.18-10.24-22.66-15.23-34.05c-3.85-8.82-7.45-17.78-11.45-26.53
			c-5.15-11.3-11.11-22.25-15.6-33.83c-1.79-4.61-3.59-5.31-6.97-4.57c-4.2,9.3-8.45,18.33-12.4,27.49
			c-3.27,7.6-5.97,15.5-9.31,23.05c-7,15.86-14.12,31.65-21.59,47.27c-1.09,2.31-4.14,4.26-6.63,4.97c-3.69,1.03-7.7,0.7-11.54,1.1
			c-6.17,0.63-12.32,1.44-18.5,2.06c-7.76,0.77-15.54,1.27-23.28,2.12c-8.44,0.94-16.81,2.35-25.25,3.22
			c-9.35,0.98-18.74,1.58-27.87,2.33c-1.87,8.24,4.83,10.64,8.23,13.82c14.52,13.63,30.03,26.05,44.89,39.29
			C131.76,333.64,140.9,342.86,150.31,351.81z"/>
		<path d="M150.31,351.81c-9.39-8.96-18.53-18.19-28.19-26.77c-14.86-13.22-30.38-25.66-44.89-39.29c-3.4-3.19-10.1-5.58-8.23-13.82
			c9.15-0.75,18.53-1.35,27.87-2.33c8.44-0.87,16.83-2.28,25.25-3.22c7.74-0.86,15.52-1.35,23.28-2.12
			c6.17-0.6,12.32-1.42,18.5-2.06c3.85-0.39,7.86-0.07,11.54-1.1c2.5-0.7,5.52-2.65,6.63-4.97c7.47-15.6,14.59-31.41,21.59-47.27
			c3.35-7.57,6.04-15.45,9.31-23.05c3.94-9.16,8.18-18.19,12.4-27.49c3.38-0.74,5.18-0.02,6.97,4.57
			c4.49,11.58,10.45,22.52,15.6,33.83c3.99,8.75,7.58,17.71,11.45,26.53c4.98,11.41,9.85,22.87,15.23,34.05
			c1.11,2.33,3.25,4.14,7.26,3.58c5.49-0.77,11.29,1.08,16.95,1.78c12.28,1.54,24.54,3.27,36.84,4.5c8.6,0.86,17.26,0.86,25.87,1.54
			c6.09,0.48,12.14,1.44,18.19,2.26c2.46,0.33,4.89,0.87,7.71,1.39c0,1.8,0,3.82,0,5.17c-4.19,3.67-8.2,6.99-12,10.55
			c-7.74,7.28-15.23,14.85-23.1,21.97c-5.55,5.02-11.61,9.4-17.34,14.22c-3.06,2.55-5.88,5.43-8.86,8.08
			c-6.44,5.74-12.93,11.39-19.32,17.2c-0.79,0.72-1.67,2.14-1.53,3.07c1.06,6.66,2.19,13.34,3.69,19.9
			c1.87,8.19,4.44,16.2,6.12,24.42c3.22,15.91,5.97,31.94,9.05,47.89c0.77,4.03,2.46,7.9,2.99,11.94c0.77,5.86-1.66,7.67-6.44,4.95
			c-8.69-4.93-17.2-10.24-25.83-15.29c-8.68-5.09-17.47-10-26.13-15.14c-9.71-5.75-19.34-11.65-28.97-17.54
			c-8.98-5.52-16.83-4.61-25.92,1.8c-6.09,4.28-12.98,7.24-19.37,11.06c-8.18,4.88-16.17,10.12-24.34,15.02
			c-3.96,2.36-8.18,4.25-12.25,6.42c-3.56,1.92-7.1,3.87-10.56,5.94c-4.09,2.43-7.99,5.26-12.17,7.43c-1.69,0.89-5.44,1.25-5.7,0.62
			c-0.95-2.23-1.4-5.1-0.97-7.52c1.45-8.22,3.48-16.31,5.07-24.49c1.59-8.15,1.67-16.94,4.65-24.44
			c6.38-16.1,7.95-33.09,10.58-49.96C148.99,354.31,149.79,353.05,150.31,351.81z M83.86,278.13c-0.05,0.86-0.31,1.7-0.06,1.94
			c4.72,4.56,9.39,9.18,14.31,13.48c10.85,9.51,21.95,18.69,32.73,28.26c9.05,8.05,17.84,16.43,26.61,24.82
			c1.05,1.01,1.88,3.13,1.67,4.56c-0.42,2.79-1.92,5.4-2.5,8.19c-3.85,18.77-7.54,37.56-11.32,56.35c-1.37,6.82-2.7,13.65-4.35,20.4
			c-1,4.13-2.53,8.12-3.82,12.18c9.84-3.77,18.56-8.19,27.05-13.03c15.2-8.67,30.29-17.57,45.4-26.43
			c4.41-2.59,9.05-4.88,13.06-8.05c3.35-2.64,6.01-2.4,9.27-0.33c5.31,3.36,10.74,6.49,16.15,9.64c13.8,8,27.58,16.01,41.43,23.91
			c9.08,5.17,18.24,10.14,28,15.53c-0.16-2.16-0.1-3.48-0.39-4.73c-2.74-11.77-5.75-23.46-8.28-35.28
			c-3.51-16.51-6.33-33.21-10.11-49.64c-1.79-7.76-2.08-13.5,5.02-18.89c8.11-6.17,14.94-14.18,22.61-21.05
			c8.21-7.35,16.78-14.25,25.18-21.38c6.92-5.87,13.83-11.77,20.67-17.76c0.48-0.41,0.27-1.71,0.42-2.83
			c-10.77-0.91-21.25-1.82-31.75-2.69c-5.52-0.46-11.08-0.75-16.58-1.35c-16.31-1.78-32.6-3.97-48.95-5.34
			c-4.3-0.36-6.34-2.07-7.97-5.79c-5.23-12.06-10.64-24.01-15.88-36.05c-5.35-12.3-10.47-24.68-15.84-36.94
			c-2.38-5.41-5.17-10.62-7.97-16.34c-4.99,10.55-9.72,20.33-14.25,30.21c-2.79,6.08-5.22,12.33-7.87,18.48
			c-5.73,13.26-11.53,26.46-17.24,39.72c-1.85,4.3-4.27,6.61-9.34,6.73c-10.71,0.24-21.4,1.44-32.07,2.52
			c-12.04,1.22-24.05,2.79-36.08,4.13C101.89,276.26,92.89,277.17,83.86,278.13z"/>
		<path class="st1" d="M83.86,278.13c9.03-0.96,18.03-1.87,27.03-2.88c12.03-1.35,24.04-2.91,36.08-4.13
			c10.67-1.08,21.37-2.28,32.07-2.52c5.09-0.12,7.49-2.43,9.34-6.73c5.72-13.26,11.51-26.46,17.24-39.72
			c2.66-6.15,5.09-12.4,7.87-18.48c4.52-9.88,9.26-19.65,14.25-30.21c2.82,5.72,5.6,10.93,7.97,16.34
			c5.39,12.26,10.51,24.66,15.84,36.94c5.23,12.04,10.64,24.01,15.88,36.05c1.63,3.73,3.67,5.43,7.97,5.79
			c16.34,1.37,32.64,3.56,48.95,5.34c5.51,0.6,11.06,0.89,16.58,1.35c10.5,0.87,21,1.78,31.75,2.69c-0.14,1.11,0.05,2.41-0.42,2.83
			c-6.84,5.99-13.75,11.89-20.67,17.76c-8.39,7.13-16.95,14.04-25.18,21.38c-7.66,6.85-14.49,14.88-22.61,21.05
			c-7.1,5.4-6.83,11.13-5.02,18.89c3.8,16.44,6.6,33.12,10.11,49.64c2.51,11.82,5.52,23.52,8.28,35.28
			c0.29,1.23,0.23,2.57,0.39,4.73c-9.74-5.4-18.92-10.36-28-15.53c-13.85-7.9-27.63-15.91-41.43-23.91
			c-5.43-3.15-10.85-6.29-16.15-9.64c-3.27-2.07-5.93-2.31-9.27,0.33c-4.01,3.17-8.65,5.48-13.06,8.05
			c-15.12,8.84-30.2,17.76-45.4,26.43c-8.5,4.85-17.21,9.27-27.05,13.03c1.29-4.06,2.82-8.05,3.82-12.18
			c1.63-6.75,2.96-13.58,4.35-20.4c3.78-18.77,7.47-37.58,11.32-56.35c0.56-2.79,2.06-5.4,2.5-8.19c0.21-1.42-0.63-3.55-1.67-4.56
			c-8.77-8.39-17.57-16.77-26.61-24.82c-10.79-9.59-21.88-18.77-32.73-28.26c-4.91-4.3-9.58-8.94-14.31-13.48
			C83.55,279.84,83.83,278.99,83.86,278.13z"/>
	</g>
</g>
</svg>
