<?xml version="1.0" encoding="utf-8"?>
<!-- Generator: Adobe Illustrator 24.1.0, SVG Export Plug-In . SVG Version: 6.00 Build 0)  -->
<svg version="1.1" id="Layer_1" xmlns="http://www.w3.org/2000/svg" xmlns:xlink="http://www.w3.org/1999/xlink" x="0px" y="0px"
	 viewBox="0 0 454.84 605.5" style="enable-background:new 0 0 454.84 605.5;" xml:space="preserve">
<style type="text/css">
	.st0{fill:none;stroke:#000000;stroke-width:7;stroke-miterlimit:10;}
	.st1{fill:#FFFFFF;}
</style>
<path class="st0" d="M429.14,252.68c0.06,0.48,0.09,0.98,0.09,1.48v318.96c0,6.6-5.4,12-12,12H37.09c-6.6,0-12-5.4-12-12V254.16
	c0-0.5,0.03-1,0.09-1.48c-0.06-2.2-0.09-4.4-0.09-6.62c0-122.86,90.47-222.46,202.07-222.46s202.07,99.6,202.07,222.46
	C429.23,248.28,429.2,250.48,429.14,252.68z"/>
<g>
	<g>
		<path class="st1" d="M395.41,439.86c-112.17,0-224.33,0-336.5,0c0-99.33,0-198.67,0-298c112.17,0,224.33,0,336.5,0
			C395.41,241.19,395.41,340.53,395.41,439.86z M227.05,205.24c-6.99-8.21-13.98-16.21-20.73-24.41
			c-10.88-13.2-24.99-22.55-40.62-27.78c-18.42-6.16-37.23-4.82-55.5,4.38c-19.99,10.07-33.43,25.51-39.08,46.39
			c-8.59,31.71-2.54,62,15.36,89.31c8.1,12.35,17.91,23.73,27.99,34.56c14.36,15.44,29.57,30.1,44.67,44.84
			c6.09,5.95,12.88,11.19,19.27,16.84c15.12,13.35,30.13,26.83,45.44,39.97c1.32,1.13,4.92,0.89,6.7-0.09
			c3.11-1.71,5.7-4.42,8.4-6.84c13.11-11.77,26.2-23.56,39.26-35.39c14.03-12.71,28.5-24.98,41.89-38.33
			c12.19-12.15,23.35-25.35,34.67-38.34c20.58-23.62,32.6-50.5,31.71-82.58c-0.68-24.79-8.63-46.03-28.54-61.42
			c-12.89-9.97-27.38-16.71-44.31-16.81c-13.92-0.08-26.66,2.96-38.86,10.09c-10.47,6.12-19.73,13.16-27.4,22.55
			C240.94,190.07,233.92,197.49,227.05,205.24z"/>
		<path d="M227.05,205.24c6.87-7.75,13.88-15.17,20.33-23.06c7.68-9.39,16.93-16.43,27.4-22.55c12.2-7.13,24.94-10.18,38.86-10.09
			c16.93,0.1,31.42,6.85,44.31,16.81c19.91,15.39,27.86,36.63,28.54,61.42c0.88,32.08-11.13,58.95-31.71,82.58
			c-11.32,12.99-22.48,26.19-34.67,38.34c-13.39,13.35-27.86,25.63-41.89,38.33c-13.06,11.83-26.15,23.62-39.26,35.39
			c-2.69,2.42-5.29,5.13-8.4,6.84c-1.78,0.98-5.38,1.22-6.7,0.09c-15.3-13.14-30.31-26.62-45.44-39.97
			c-6.4-5.65-13.18-10.89-19.27-16.84c-15.09-14.74-30.3-29.4-44.67-44.84c-10.08-10.84-19.9-22.22-27.99-34.56
			c-17.9-27.31-23.95-57.6-15.36-89.31c5.65-20.87,19.09-36.32,39.08-46.39c18.27-9.2,37.07-10.55,55.5-4.38
			c15.62,5.23,29.74,14.58,40.62,27.78C213.08,189.03,220.07,197.03,227.05,205.24z M226.57,422.62
			c12.19-10.93,24.31-21.64,36.25-32.55c20.47-18.72,40.88-37.52,61.22-56.37c15.92-14.75,29.57-31.35,41.09-49.82
			c13.19-21.15,18.76-43.75,14.43-68.42c-3.54-20.16-12.69-37.06-30.34-48.38c-15.18-9.74-32.27-10.8-49.45-9.09
			c-14.88,1.48-28.91,6.25-39.46,17.6c-6.53,7.02-12.17,14.85-18.32,22.23c-4.85,5.81-9.87,11.49-14.99,17.43
			c-2.13-1.92-3.46-2.97-4.61-4.19c-1.01-1.07-1.71-2.42-2.72-3.49c-14.22-15.06-27.01-31.83-45.12-42.54
			c-10.56-6.25-21.58-12.58-35.15-8.83c-20.63,5.69-38.61,15.14-52.52,32.04c-11.56,14.03-15.3,30.09-13.08,47.34
			c2.69,20.85,12.17,39.45,23.33,56.9c18.33,28.68,42.63,52.36,66.48,76.3c10.08,10.11,21.1,19.31,31.98,28.59
			C205.74,406.04,216.29,414.28,226.57,422.62z"/>
		<path class="st1" d="M226.57,422.62c-10.27-8.34-20.82-16.58-30.99-25.26c-10.88-9.28-21.9-18.48-31.98-28.59
			c-23.85-23.94-48.15-47.62-66.48-76.3c-11.15-17.45-20.64-36.05-23.33-56.9c-2.22-17.25,1.52-33.31,13.08-47.34
			c13.91-16.89,31.89-26.34,52.52-32.04c13.57-3.75,24.59,2.58,35.15,8.83c18.1,10.71,30.89,27.48,45.12,42.54
			c1.01,1.07,1.71,2.42,2.72,3.49c1.15,1.22,2.48,2.28,4.61,4.19c5.12-5.94,10.14-11.61,14.99-17.43
			c6.15-7.37,11.79-15.21,18.32-22.23c10.56-11.35,24.59-16.12,39.46-17.6c17.19-1.71,34.27-0.65,49.45,9.09
			c17.65,11.32,26.8,28.22,30.34,48.38c4.33,24.67-1.23,47.27-14.43,68.42c-11.52,18.47-25.17,35.06-41.09,49.82
			c-20.35,18.86-40.75,37.66-61.22,56.37C250.88,400.98,238.76,411.69,226.57,422.62z"/>
	</g>
</g>
</svg>
