<?xml version="1.0" encoding="utf-8"?>
<!-- Generator: Adobe Illustrator 24.1.0, SVG Export Plug-In . SVG Version: 6.00 Build 0)  -->
<svg version="1.1" id="Layer_1" xmlns="http://www.w3.org/2000/svg" xmlns:xlink="http://www.w3.org/1999/xlink" x="0px" y="0px"
	 viewBox="0 0 586.23 307.49" style="enable-background:new 0 0 586.23 307.49;" xml:space="preserve">
<g>
	<path d="M511.66,24.98c24.86,0,45.08,20.22,45.08,45.08V236.9c0,24.86-20.22,45.08-45.08,45.08H73.82
		c-24.86,0-45.08-20.22-45.08-45.08V70.06c0-24.86,20.22-45.08,45.08-45.08L511.66,24.98 M511.66,18.98H73.82
		c-28.21,0-51.08,22.87-51.08,51.08V236.9c0,28.21,22.87,51.08,51.08,51.08h437.84c28.21,0,51.08-22.87,51.08-51.08V70.06
		C562.74,41.85,539.87,18.98,511.66,18.98L511.66,18.98z"/>
</g>
</svg>
