<?xml version="1.0" encoding="utf-8"?>
<!-- Generator: Adobe Illustrator 24.1.0, SVG Export Plug-In . SVG Version: 6.00 Build 0)  -->
<svg version="1.1" id="Layer_1" xmlns="http://www.w3.org/2000/svg" xmlns:xlink="http://www.w3.org/1999/xlink" x="0px" y="0px"
	 viewBox="0 0 201 168" style="enable-background:new 0 0 201 168;" xml:space="preserve">
<g>
	<g>
		<path d="M101.72,38.9c5.02-5.31,10.02-10.84,15.27-16.12c15.3-15.39,39.41-17.97,57.12-5.64c10.99,7.65,16.52,18.58,17.29,32.05
			c1.05,18.22-6.09,33.23-17.93,46.32c-7.2,7.96-14.54,15.85-22.46,23.08c-10.72,9.78-22.03,18.9-33.11,28.27
			c-4.39,3.72-8.97,7.23-13.23,11.08c-2.15,1.94-3.54,2.01-5.81,0.09c-10.69-9.07-21.75-17.71-32.3-26.94
			C50.71,117.23,34.79,103.39,22.53,86c-8.55-12.14-12.06-25.78-10.3-40.32c2.24-18.41,15.86-32.77,34.82-35.56
			C63.02,7.77,76.42,12.54,87.6,23.9C92.41,28.78,97,33.87,101.72,38.9z M102,44.13c-4.15-4.02-7.59-7.57-11.26-10.84
			c-6.02-5.36-11.85-11.04-18.41-15.67c-6.9-4.87-14.92-7.84-23.37-4.31c-6.71,2.8-13.4,6.05-19.35,10.17
			c-12.58,8.7-16.98,21.91-13.04,36.73c4.52,17.01,14.41,30.93,26.5,43.18c12.02,12.19,24.7,23.76,37.41,35.25
			c6.58,5.95,13.85,11.13,20.84,16.69c13.05-11,25.82-21.66,38.49-32.45c12.61-10.74,24.71-22,34.96-35.09
			c10.01-12.78,15.85-26.81,12.79-43.43c-1.86-10.11-6.77-18.43-15.15-24.49c-7.76-5.61-16.61-7.06-25.99-6.65
			c-11.57,0.52-21.55,4.17-29.14,13.38C112.37,32.55,107.16,38.23,102,44.13z"/>
	</g>
</g>
</svg>
